G04 #@! TF.GenerationSoftware,KiCad,Pcbnew,7.0.8*
G04 #@! TF.CreationDate,2024-05-20T17:56:06+02:00*
G04 #@! TF.ProjectId,Generator_Cyfrowka,47656e65-7261-4746-9f72-5f437966726f,rev?*
G04 #@! TF.SameCoordinates,Original*
G04 #@! TF.FileFunction,Copper,L2,Bot*
G04 #@! TF.FilePolarity,Positive*
%FSLAX46Y46*%
G04 Gerber Fmt 4.6, Leading zero omitted, Abs format (unit mm)*
G04 Created by KiCad (PCBNEW 7.0.8) date 2024-05-20 17:56:06*
%MOMM*%
%LPD*%
G01*
G04 APERTURE LIST*
G04 #@! TA.AperFunction,ComponentPad*
%ADD10R,1.600000X1.600000*%
G04 #@! TD*
G04 #@! TA.AperFunction,ComponentPad*
%ADD11O,1.600000X1.600000*%
G04 #@! TD*
G04 #@! TA.AperFunction,ComponentPad*
%ADD12R,1.700000X1.700000*%
G04 #@! TD*
G04 #@! TA.AperFunction,ComponentPad*
%ADD13O,1.700000X1.700000*%
G04 #@! TD*
G04 #@! TA.AperFunction,ComponentPad*
%ADD14C,1.600000*%
G04 #@! TD*
G04 #@! TA.AperFunction,ComponentPad*
%ADD15C,4.000000*%
G04 #@! TD*
G04 #@! TA.AperFunction,ComponentPad*
%ADD16R,1.800000X1.800000*%
G04 #@! TD*
G04 #@! TA.AperFunction,ComponentPad*
%ADD17C,1.800000*%
G04 #@! TD*
G04 #@! TA.AperFunction,ComponentPad*
%ADD18O,2.500000X1.600000*%
G04 #@! TD*
G04 #@! TA.AperFunction,ComponentPad*
%ADD19O,7.000000X3.500000*%
G04 #@! TD*
G04 #@! TA.AperFunction,ViaPad*
%ADD20C,0.800000*%
G04 #@! TD*
G04 #@! TA.AperFunction,Conductor*
%ADD21C,0.500000*%
G04 #@! TD*
G04 APERTURE END LIST*
D10*
X74920000Y-90170000D03*
D11*
X74920000Y-87630000D03*
X74920000Y-85090000D03*
X74920000Y-82550000D03*
X74920000Y-80010000D03*
X74920000Y-77470000D03*
X74920000Y-74930000D03*
X67300000Y-74930000D03*
X67300000Y-77470000D03*
X67300000Y-80010000D03*
X67300000Y-82550000D03*
X67300000Y-85090000D03*
X67300000Y-87630000D03*
X67300000Y-90170000D03*
D10*
X102108000Y-89916000D03*
D11*
X102108000Y-87376000D03*
X102108000Y-84836000D03*
X102108000Y-82296000D03*
X102108000Y-79756000D03*
X102108000Y-77216000D03*
X102108000Y-74676000D03*
X94488000Y-74676000D03*
X94488000Y-77216000D03*
X94488000Y-79756000D03*
X94488000Y-82296000D03*
X94488000Y-84836000D03*
X94488000Y-87376000D03*
X94488000Y-89916000D03*
D10*
X87112000Y-90180000D03*
D11*
X87112000Y-87640000D03*
X87112000Y-85100000D03*
X87112000Y-82560000D03*
X87112000Y-80020000D03*
X87112000Y-77480000D03*
X87112000Y-74940000D03*
X79492000Y-74940000D03*
X79492000Y-77480000D03*
X79492000Y-80020000D03*
X79492000Y-82560000D03*
X79492000Y-85100000D03*
X79492000Y-87640000D03*
X79492000Y-90180000D03*
D12*
X111252000Y-72898000D03*
D13*
X111252000Y-70358000D03*
D12*
X64008000Y-80767000D03*
D13*
X64008000Y-83307000D03*
D10*
X115028000Y-83896000D03*
D14*
X115028000Y-81396000D03*
X117028000Y-81396000D03*
X117028000Y-83896000D03*
D15*
X119888000Y-76646000D03*
X119888000Y-88646000D03*
D16*
X114046000Y-93980000D03*
D17*
X111506000Y-93980000D03*
D18*
X58928000Y-82804000D03*
D19*
X53848000Y-77724000D03*
D18*
X58928000Y-80264000D03*
D19*
X53848000Y-87884000D03*
D20*
X105664000Y-74422000D03*
X77216000Y-82550000D03*
X77470000Y-92456000D03*
X104140000Y-76454000D03*
X61976000Y-92456000D03*
X81788000Y-90170000D03*
X89154000Y-91440000D03*
X63500000Y-77216000D03*
X81788000Y-80010000D03*
X99568000Y-92710000D03*
X64770000Y-89154000D03*
X74930000Y-93218000D03*
X89662000Y-82550000D03*
X84836000Y-85090000D03*
X99822000Y-77216000D03*
X99822000Y-82042000D03*
X91948000Y-92710000D03*
X96774000Y-87630000D03*
X72644000Y-76200000D03*
X88646000Y-71882000D03*
X105664000Y-92202000D03*
X101854000Y-92710000D03*
X89662000Y-77470000D03*
X67056000Y-72898000D03*
X71882000Y-93218000D03*
D21*
X68072000Y-93218000D02*
X67300000Y-92446000D01*
X67300000Y-92446000D02*
X67300000Y-90170000D01*
X71882000Y-93218000D02*
X68072000Y-93218000D01*
X71501000Y-88773000D02*
X72898000Y-90170000D01*
X67300000Y-87630000D02*
X70358000Y-87630000D01*
X70358000Y-87630000D02*
X70612000Y-87884000D01*
X72898000Y-90170000D02*
X74920000Y-90170000D01*
X67300000Y-74930000D02*
X71374000Y-79004000D01*
X70612000Y-87884000D02*
X71501000Y-88773000D01*
X71374000Y-79004000D02*
X71374000Y-88646000D01*
X71374000Y-88646000D02*
X71501000Y-88773000D01*
G04 #@! TA.AperFunction,Conductor*
G36*
X122878539Y-66568185D02*
G01*
X122924294Y-66620989D01*
X122935500Y-66672500D01*
X122935500Y-98427500D01*
X122915815Y-98494539D01*
X122863011Y-98540294D01*
X122811500Y-98551500D01*
X46352500Y-98551500D01*
X46285461Y-98531815D01*
X46239706Y-98479011D01*
X46228500Y-98427500D01*
X46228500Y-95063763D01*
X47929787Y-95063763D01*
X47959413Y-95333013D01*
X47959415Y-95333024D01*
X48027926Y-95595082D01*
X48027928Y-95595088D01*
X48133870Y-95844390D01*
X48205998Y-95962575D01*
X48274979Y-96075605D01*
X48274986Y-96075615D01*
X48448253Y-96283819D01*
X48448259Y-96283824D01*
X48649998Y-96464582D01*
X48875910Y-96614044D01*
X49121176Y-96729020D01*
X49121183Y-96729022D01*
X49121185Y-96729023D01*
X49380557Y-96807057D01*
X49380564Y-96807058D01*
X49380569Y-96807060D01*
X49648561Y-96846500D01*
X49648566Y-96846500D01*
X49851636Y-96846500D01*
X49903133Y-96842730D01*
X50054156Y-96831677D01*
X50166758Y-96806593D01*
X50318546Y-96772782D01*
X50318548Y-96772781D01*
X50318553Y-96772780D01*
X50571558Y-96676014D01*
X50807777Y-96543441D01*
X51022177Y-96377888D01*
X51210186Y-96182881D01*
X51367799Y-95962579D01*
X51441787Y-95818669D01*
X51491649Y-95721690D01*
X51491651Y-95721684D01*
X51491656Y-95721675D01*
X51579118Y-95465305D01*
X51628319Y-95198933D01*
X51638212Y-94928235D01*
X51608586Y-94658982D01*
X51540072Y-94396912D01*
X51434130Y-94147610D01*
X51293018Y-93916390D01*
X51271795Y-93890888D01*
X51119746Y-93708180D01*
X51119740Y-93708175D01*
X50918002Y-93527418D01*
X50692092Y-93377957D01*
X50692090Y-93377956D01*
X50446824Y-93262980D01*
X50446819Y-93262978D01*
X50446814Y-93262976D01*
X50187442Y-93184942D01*
X50187428Y-93184939D01*
X50071791Y-93167921D01*
X49919439Y-93145500D01*
X49716369Y-93145500D01*
X49716364Y-93145500D01*
X49513844Y-93160323D01*
X49513831Y-93160325D01*
X49249453Y-93219217D01*
X49249446Y-93219220D01*
X48996439Y-93315987D01*
X48760226Y-93448557D01*
X48545822Y-93614112D01*
X48357822Y-93809109D01*
X48357816Y-93809116D01*
X48200202Y-94029419D01*
X48200199Y-94029424D01*
X48076350Y-94270309D01*
X48076343Y-94270327D01*
X47988884Y-94526685D01*
X47988881Y-94526699D01*
X47939681Y-94793068D01*
X47939680Y-94793075D01*
X47929787Y-95063763D01*
X46228500Y-95063763D01*
X46228500Y-90170001D01*
X65994532Y-90170001D01*
X66014364Y-90396686D01*
X66014366Y-90396697D01*
X66073258Y-90616488D01*
X66073261Y-90616497D01*
X66169431Y-90822732D01*
X66169432Y-90822734D01*
X66299954Y-91009141D01*
X66460859Y-91170046D01*
X66496621Y-91195086D01*
X66540247Y-91249662D01*
X66549500Y-91296662D01*
X66549500Y-92382294D01*
X66548191Y-92400263D01*
X66544710Y-92424025D01*
X66549264Y-92476064D01*
X66549500Y-92481470D01*
X66549500Y-92489709D01*
X66553306Y-92522274D01*
X66560000Y-92598791D01*
X66561461Y-92605867D01*
X66561403Y-92605878D01*
X66563034Y-92613237D01*
X66563092Y-92613224D01*
X66564757Y-92620250D01*
X66591025Y-92692424D01*
X66615185Y-92765331D01*
X66618236Y-92771874D01*
X66618182Y-92771898D01*
X66621470Y-92778688D01*
X66621521Y-92778663D01*
X66624761Y-92785113D01*
X66624762Y-92785114D01*
X66624763Y-92785117D01*
X66636874Y-92803531D01*
X66666965Y-92849283D01*
X66707287Y-92914655D01*
X66711766Y-92920319D01*
X66711719Y-92920356D01*
X66716482Y-92926202D01*
X66716528Y-92926164D01*
X66721173Y-92931700D01*
X66777017Y-92984385D01*
X67496270Y-93703638D01*
X67508051Y-93717270D01*
X67522388Y-93736528D01*
X67562409Y-93770111D01*
X67566397Y-93773766D01*
X67572216Y-93779585D01*
X67572220Y-93779588D01*
X67572223Y-93779591D01*
X67597959Y-93799940D01*
X67656786Y-93849302D01*
X67656787Y-93849302D01*
X67656789Y-93849304D01*
X67662818Y-93853270D01*
X67662785Y-93853319D01*
X67669147Y-93857372D01*
X67669179Y-93857321D01*
X67675319Y-93861108D01*
X67675323Y-93861111D01*
X67710132Y-93877343D01*
X67744941Y-93893575D01*
X67790358Y-93916384D01*
X67813567Y-93928040D01*
X67813569Y-93928040D01*
X67820357Y-93930511D01*
X67820336Y-93930567D01*
X67827457Y-93933043D01*
X67827476Y-93932986D01*
X67834322Y-93935254D01*
X67834327Y-93935257D01*
X67834332Y-93935258D01*
X67834335Y-93935259D01*
X67909565Y-93950792D01*
X67984279Y-93968500D01*
X67984282Y-93968500D01*
X67984286Y-93968501D01*
X67991453Y-93969339D01*
X67991446Y-93969398D01*
X67998944Y-93970164D01*
X67998950Y-93970105D01*
X68006139Y-93970734D01*
X68006143Y-93970733D01*
X68006144Y-93970734D01*
X68082917Y-93968500D01*
X71342663Y-93968500D01*
X71409702Y-93988185D01*
X71415548Y-93992182D01*
X71429265Y-94002148D01*
X71429270Y-94002151D01*
X71602192Y-94079142D01*
X71602197Y-94079144D01*
X71787354Y-94118500D01*
X71787355Y-94118500D01*
X71976644Y-94118500D01*
X71976646Y-94118500D01*
X72161803Y-94079144D01*
X72334730Y-94002151D01*
X72365210Y-93980006D01*
X110100700Y-93980006D01*
X110119864Y-94211297D01*
X110119866Y-94211308D01*
X110176842Y-94436300D01*
X110270075Y-94648848D01*
X110397016Y-94843147D01*
X110397019Y-94843151D01*
X110397021Y-94843153D01*
X110554216Y-95013913D01*
X110554219Y-95013915D01*
X110554222Y-95013918D01*
X110737365Y-95156464D01*
X110737371Y-95156468D01*
X110737374Y-95156470D01*
X110941497Y-95266936D01*
X111055487Y-95306068D01*
X111161015Y-95342297D01*
X111161017Y-95342297D01*
X111161019Y-95342298D01*
X111389951Y-95380500D01*
X111389952Y-95380500D01*
X111622048Y-95380500D01*
X111622049Y-95380500D01*
X111850981Y-95342298D01*
X112070503Y-95266936D01*
X112274626Y-95156470D01*
X112457784Y-95013913D01*
X112466511Y-95004432D01*
X112526394Y-94968441D01*
X112596232Y-94970538D01*
X112653850Y-95010060D01*
X112673924Y-95045080D01*
X112702645Y-95122086D01*
X112702649Y-95122093D01*
X112788809Y-95237187D01*
X112788812Y-95237190D01*
X112903906Y-95323350D01*
X112903913Y-95323354D01*
X113038620Y-95373596D01*
X113038627Y-95373598D01*
X113098155Y-95379999D01*
X113098172Y-95380000D01*
X113796000Y-95380000D01*
X113796000Y-94354189D01*
X113848547Y-94390016D01*
X113978173Y-94430000D01*
X114079724Y-94430000D01*
X114180138Y-94414865D01*
X114296000Y-94359068D01*
X114296000Y-95380000D01*
X114993828Y-95380000D01*
X114993844Y-95379999D01*
X115053372Y-95373598D01*
X115053379Y-95373596D01*
X115188086Y-95323354D01*
X115188093Y-95323350D01*
X115303187Y-95237190D01*
X115303190Y-95237187D01*
X115389350Y-95122093D01*
X115389354Y-95122086D01*
X115411107Y-95063763D01*
X117525787Y-95063763D01*
X117555413Y-95333013D01*
X117555415Y-95333024D01*
X117623926Y-95595082D01*
X117623928Y-95595088D01*
X117729870Y-95844390D01*
X117801998Y-95962575D01*
X117870979Y-96075605D01*
X117870986Y-96075615D01*
X118044253Y-96283819D01*
X118044259Y-96283824D01*
X118245998Y-96464582D01*
X118471910Y-96614044D01*
X118717176Y-96729020D01*
X118717183Y-96729022D01*
X118717185Y-96729023D01*
X118976557Y-96807057D01*
X118976564Y-96807058D01*
X118976569Y-96807060D01*
X119244561Y-96846500D01*
X119244566Y-96846500D01*
X119447636Y-96846500D01*
X119499133Y-96842730D01*
X119650156Y-96831677D01*
X119762758Y-96806593D01*
X119914546Y-96772782D01*
X119914548Y-96772781D01*
X119914553Y-96772780D01*
X120167558Y-96676014D01*
X120403777Y-96543441D01*
X120618177Y-96377888D01*
X120806186Y-96182881D01*
X120963799Y-95962579D01*
X121037787Y-95818669D01*
X121087649Y-95721690D01*
X121087651Y-95721684D01*
X121087656Y-95721675D01*
X121175118Y-95465305D01*
X121224319Y-95198933D01*
X121234212Y-94928235D01*
X121204586Y-94658982D01*
X121136072Y-94396912D01*
X121030130Y-94147610D01*
X120889018Y-93916390D01*
X120867795Y-93890888D01*
X120715746Y-93708180D01*
X120715740Y-93708175D01*
X120514002Y-93527418D01*
X120288092Y-93377957D01*
X120288090Y-93377956D01*
X120042824Y-93262980D01*
X120042819Y-93262978D01*
X120042814Y-93262976D01*
X119783442Y-93184942D01*
X119783428Y-93184939D01*
X119667791Y-93167921D01*
X119515439Y-93145500D01*
X119312369Y-93145500D01*
X119312364Y-93145500D01*
X119109844Y-93160323D01*
X119109831Y-93160325D01*
X118845453Y-93219217D01*
X118845446Y-93219220D01*
X118592439Y-93315987D01*
X118356226Y-93448557D01*
X118141822Y-93614112D01*
X117953822Y-93809109D01*
X117953816Y-93809116D01*
X117796202Y-94029419D01*
X117796199Y-94029424D01*
X117672350Y-94270309D01*
X117672343Y-94270327D01*
X117584884Y-94526685D01*
X117584881Y-94526699D01*
X117535681Y-94793068D01*
X117535680Y-94793075D01*
X117525787Y-95063763D01*
X115411107Y-95063763D01*
X115439596Y-94987379D01*
X115439598Y-94987372D01*
X115445999Y-94927844D01*
X115446000Y-94927827D01*
X115446000Y-94230000D01*
X114421278Y-94230000D01*
X114469625Y-94146260D01*
X114499810Y-94014008D01*
X114489673Y-93878735D01*
X114440113Y-93752459D01*
X114422203Y-93730000D01*
X115446000Y-93730000D01*
X115446000Y-93032172D01*
X115445999Y-93032155D01*
X115439598Y-92972627D01*
X115439596Y-92972620D01*
X115389354Y-92837913D01*
X115389350Y-92837906D01*
X115303190Y-92722812D01*
X115303187Y-92722809D01*
X115188093Y-92636649D01*
X115188086Y-92636645D01*
X115053379Y-92586403D01*
X115053372Y-92586401D01*
X114993844Y-92580000D01*
X114296000Y-92580000D01*
X114296000Y-93605810D01*
X114243453Y-93569984D01*
X114113827Y-93530000D01*
X114012276Y-93530000D01*
X113911862Y-93545135D01*
X113796000Y-93600931D01*
X113796000Y-92580000D01*
X113098155Y-92580000D01*
X113038627Y-92586401D01*
X113038620Y-92586403D01*
X112903913Y-92636645D01*
X112903906Y-92636649D01*
X112788812Y-92722809D01*
X112788809Y-92722812D01*
X112702649Y-92837906D01*
X112702646Y-92837911D01*
X112673924Y-92914920D01*
X112632052Y-92970853D01*
X112566588Y-92995270D01*
X112498315Y-92980418D01*
X112466514Y-92955571D01*
X112457784Y-92946087D01*
X112457779Y-92946083D01*
X112457777Y-92946081D01*
X112274634Y-92803535D01*
X112274628Y-92803531D01*
X112070504Y-92693064D01*
X112070495Y-92693061D01*
X111850984Y-92617702D01*
X111663404Y-92586401D01*
X111622049Y-92579500D01*
X111389951Y-92579500D01*
X111348596Y-92586401D01*
X111161015Y-92617702D01*
X110941504Y-92693061D01*
X110941495Y-92693064D01*
X110737371Y-92803531D01*
X110737365Y-92803535D01*
X110554222Y-92946081D01*
X110554219Y-92946084D01*
X110554216Y-92946086D01*
X110554216Y-92946087D01*
X110529791Y-92972620D01*
X110397016Y-93116852D01*
X110270075Y-93311151D01*
X110176842Y-93523699D01*
X110119866Y-93748691D01*
X110119864Y-93748702D01*
X110100700Y-93979993D01*
X110100700Y-93980006D01*
X72365210Y-93980006D01*
X72487871Y-93890888D01*
X72614533Y-93750216D01*
X72709179Y-93586284D01*
X72767674Y-93406256D01*
X72787460Y-93218000D01*
X72767674Y-93029744D01*
X72709179Y-92849716D01*
X72614533Y-92685784D01*
X72487871Y-92545112D01*
X72487870Y-92545111D01*
X72334734Y-92433851D01*
X72334729Y-92433848D01*
X72161807Y-92356857D01*
X72161802Y-92356855D01*
X72016001Y-92325865D01*
X71976646Y-92317500D01*
X71787354Y-92317500D01*
X71754897Y-92324398D01*
X71602197Y-92356855D01*
X71602192Y-92356857D01*
X71429270Y-92433848D01*
X71429265Y-92433851D01*
X71415548Y-92443818D01*
X71349742Y-92467298D01*
X71342663Y-92467500D01*
X68434229Y-92467500D01*
X68367190Y-92447815D01*
X68346548Y-92431181D01*
X68086819Y-92171451D01*
X68053334Y-92110128D01*
X68050500Y-92083770D01*
X68050500Y-91296662D01*
X68070185Y-91229623D01*
X68103379Y-91195086D01*
X68139140Y-91170046D01*
X68300045Y-91009141D01*
X68300047Y-91009139D01*
X68430568Y-90822734D01*
X68526739Y-90616496D01*
X68585635Y-90396692D01*
X68605468Y-90170000D01*
X68585635Y-89943308D01*
X68529420Y-89733511D01*
X68526741Y-89723511D01*
X68526738Y-89723502D01*
X68510790Y-89689302D01*
X68430568Y-89517266D01*
X68300934Y-89332128D01*
X68300045Y-89330858D01*
X68139141Y-89169954D01*
X67952734Y-89039432D01*
X67952728Y-89039429D01*
X67916325Y-89022454D01*
X67894724Y-89012381D01*
X67842285Y-88966210D01*
X67823133Y-88899017D01*
X67843348Y-88832135D01*
X67894725Y-88787618D01*
X67899415Y-88785431D01*
X67952734Y-88760568D01*
X68139139Y-88630047D01*
X68300047Y-88469139D01*
X68325088Y-88433377D01*
X68379665Y-88389752D01*
X68426663Y-88380500D01*
X69995770Y-88380500D01*
X70062809Y-88400185D01*
X70083451Y-88416819D01*
X70780141Y-89113509D01*
X70790482Y-89126202D01*
X70790528Y-89126164D01*
X70795173Y-89131700D01*
X70851016Y-89184385D01*
X70879652Y-89213020D01*
X70908288Y-89241656D01*
X71619935Y-89953302D01*
X72322267Y-90655634D01*
X72334048Y-90669266D01*
X72348390Y-90688530D01*
X72388420Y-90722119D01*
X72392392Y-90725759D01*
X72398223Y-90731590D01*
X72398222Y-90731590D01*
X72423944Y-90751927D01*
X72482786Y-90801302D01*
X72482794Y-90801306D01*
X72488824Y-90805273D01*
X72488790Y-90805323D01*
X72495137Y-90809366D01*
X72495169Y-90809316D01*
X72501318Y-90813108D01*
X72501320Y-90813109D01*
X72501323Y-90813111D01*
X72570930Y-90845569D01*
X72639567Y-90880040D01*
X72639576Y-90880042D01*
X72646355Y-90882510D01*
X72646334Y-90882567D01*
X72653451Y-90885040D01*
X72653470Y-90884984D01*
X72660330Y-90887257D01*
X72735532Y-90902784D01*
X72810279Y-90920500D01*
X72810288Y-90920500D01*
X72817452Y-90921338D01*
X72817445Y-90921397D01*
X72824946Y-90922163D01*
X72824952Y-90922104D01*
X72832140Y-90922733D01*
X72832143Y-90922732D01*
X72832144Y-90922733D01*
X72908898Y-90920500D01*
X73497649Y-90920500D01*
X73564688Y-90940185D01*
X73610443Y-90992989D01*
X73620939Y-91031248D01*
X73625908Y-91077483D01*
X73676202Y-91212328D01*
X73676206Y-91212335D01*
X73762452Y-91327544D01*
X73762455Y-91327547D01*
X73877664Y-91413793D01*
X73877671Y-91413797D01*
X74012517Y-91464091D01*
X74012516Y-91464091D01*
X74019444Y-91464835D01*
X74072127Y-91470500D01*
X75767872Y-91470499D01*
X75827483Y-91464091D01*
X75962331Y-91413796D01*
X76077546Y-91327546D01*
X76163796Y-91212331D01*
X76214091Y-91077483D01*
X76220500Y-91017873D01*
X76220500Y-90180001D01*
X78186532Y-90180001D01*
X78206364Y-90406686D01*
X78206366Y-90406697D01*
X78265258Y-90626488D01*
X78265261Y-90626497D01*
X78361431Y-90832732D01*
X78361432Y-90832734D01*
X78491954Y-91019141D01*
X78652858Y-91180045D01*
X78652861Y-91180047D01*
X78839266Y-91310568D01*
X79045504Y-91406739D01*
X79265308Y-91465635D01*
X79427230Y-91479801D01*
X79491998Y-91485468D01*
X79492000Y-91485468D01*
X79492002Y-91485468D01*
X79548807Y-91480498D01*
X79718692Y-91465635D01*
X79938496Y-91406739D01*
X80144734Y-91310568D01*
X80331139Y-91180047D01*
X80492047Y-91019139D01*
X80622568Y-90832734D01*
X80718739Y-90626496D01*
X80777635Y-90406692D01*
X80797468Y-90180000D01*
X80794203Y-90142686D01*
X80789931Y-90093848D01*
X80777635Y-89953308D01*
X80718739Y-89733504D01*
X80622568Y-89527266D01*
X80492047Y-89340861D01*
X80492045Y-89340858D01*
X80331141Y-89179954D01*
X80144734Y-89049432D01*
X80144728Y-89049429D01*
X80086882Y-89022455D01*
X80086724Y-89022381D01*
X80034285Y-88976210D01*
X80015133Y-88909017D01*
X80035348Y-88842135D01*
X80086725Y-88797618D01*
X80144734Y-88770568D01*
X80331139Y-88640047D01*
X80492047Y-88479139D01*
X80622568Y-88292734D01*
X80718739Y-88086496D01*
X80777635Y-87866692D01*
X80797468Y-87640001D01*
X85806532Y-87640001D01*
X85826364Y-87866686D01*
X85826366Y-87866697D01*
X85885258Y-88086488D01*
X85885261Y-88086497D01*
X85981431Y-88292732D01*
X85981432Y-88292734D01*
X86111954Y-88479141D01*
X86272858Y-88640045D01*
X86297462Y-88657273D01*
X86341087Y-88711849D01*
X86348281Y-88781348D01*
X86316758Y-88843703D01*
X86256529Y-88879117D01*
X86239593Y-88882138D01*
X86204516Y-88885908D01*
X86069671Y-88936202D01*
X86069664Y-88936206D01*
X85954455Y-89022452D01*
X85954452Y-89022455D01*
X85868206Y-89137664D01*
X85868202Y-89137671D01*
X85817908Y-89272517D01*
X85812575Y-89322127D01*
X85811501Y-89332123D01*
X85811500Y-89332135D01*
X85811500Y-91027870D01*
X85811501Y-91027876D01*
X85817908Y-91087483D01*
X85868202Y-91222328D01*
X85868206Y-91222335D01*
X85954452Y-91337544D01*
X85954455Y-91337547D01*
X86069664Y-91423793D01*
X86069671Y-91423797D01*
X86204517Y-91474091D01*
X86204516Y-91474091D01*
X86211444Y-91474835D01*
X86264127Y-91480500D01*
X87959872Y-91480499D01*
X88019483Y-91474091D01*
X88154331Y-91423796D01*
X88269546Y-91337546D01*
X88355796Y-91222331D01*
X88406091Y-91087483D01*
X88412500Y-91027873D01*
X88412499Y-89916001D01*
X93182532Y-89916001D01*
X93202364Y-90142686D01*
X93202366Y-90142697D01*
X93261258Y-90362488D01*
X93261261Y-90362497D01*
X93357431Y-90568732D01*
X93357432Y-90568734D01*
X93487954Y-90755141D01*
X93648858Y-90916045D01*
X93656417Y-90921338D01*
X93835266Y-91046568D01*
X94041504Y-91142739D01*
X94041509Y-91142740D01*
X94041511Y-91142741D01*
X94053674Y-91146000D01*
X94261308Y-91201635D01*
X94423230Y-91215801D01*
X94487998Y-91221468D01*
X94488000Y-91221468D01*
X94488002Y-91221468D01*
X94544807Y-91216498D01*
X94714692Y-91201635D01*
X94934496Y-91142739D01*
X95140734Y-91046568D01*
X95327139Y-90916047D01*
X95488047Y-90755139D01*
X95618568Y-90568734D01*
X95714739Y-90362496D01*
X95773635Y-90142692D01*
X95793468Y-89916000D01*
X95791776Y-89896666D01*
X95777502Y-89733511D01*
X95773635Y-89689308D01*
X95714739Y-89469504D01*
X95618568Y-89263266D01*
X95488047Y-89076861D01*
X95488045Y-89076858D01*
X95327141Y-88915954D01*
X95140734Y-88785432D01*
X95140728Y-88785429D01*
X95110531Y-88771348D01*
X95082724Y-88758381D01*
X95030285Y-88712210D01*
X95011133Y-88645017D01*
X95031348Y-88578135D01*
X95082725Y-88533618D01*
X95140734Y-88506568D01*
X95327139Y-88376047D01*
X95488047Y-88215139D01*
X95618568Y-88028734D01*
X95714739Y-87822496D01*
X95773635Y-87602692D01*
X95793468Y-87376001D01*
X100802532Y-87376001D01*
X100822364Y-87602686D01*
X100822366Y-87602697D01*
X100881258Y-87822488D01*
X100881261Y-87822497D01*
X100977431Y-88028732D01*
X100977432Y-88028734D01*
X101107954Y-88215141D01*
X101268858Y-88376045D01*
X101293462Y-88393273D01*
X101337087Y-88447849D01*
X101344281Y-88517348D01*
X101312758Y-88579703D01*
X101252529Y-88615117D01*
X101235593Y-88618138D01*
X101200516Y-88621908D01*
X101065671Y-88672202D01*
X101065664Y-88672206D01*
X100950455Y-88758452D01*
X100950452Y-88758455D01*
X100864206Y-88873664D01*
X100864202Y-88873671D01*
X100813908Y-89008517D01*
X100812410Y-89022455D01*
X100807501Y-89068123D01*
X100807500Y-89068135D01*
X100807500Y-90763870D01*
X100807501Y-90763876D01*
X100813908Y-90823483D01*
X100864202Y-90958328D01*
X100864206Y-90958335D01*
X100950452Y-91073544D01*
X100950455Y-91073547D01*
X101065664Y-91159793D01*
X101065671Y-91159797D01*
X101200517Y-91210091D01*
X101200516Y-91210091D01*
X101207444Y-91210835D01*
X101260127Y-91216500D01*
X102955872Y-91216499D01*
X103015483Y-91210091D01*
X103150331Y-91159796D01*
X103265546Y-91073546D01*
X103351796Y-90958331D01*
X103402091Y-90823483D01*
X103408500Y-90763873D01*
X103408499Y-89068128D01*
X103402514Y-89012452D01*
X103402091Y-89008516D01*
X103351797Y-88873671D01*
X103351793Y-88873664D01*
X103265547Y-88758455D01*
X103265544Y-88758452D01*
X103150335Y-88672206D01*
X103150328Y-88672202D01*
X103080090Y-88646005D01*
X117383057Y-88646005D01*
X117402807Y-88959942D01*
X117402808Y-88959949D01*
X117461755Y-89268958D01*
X117558963Y-89568132D01*
X117558965Y-89568137D01*
X117692900Y-89852761D01*
X117692903Y-89852767D01*
X117861454Y-90118362D01*
X117861460Y-90118371D01*
X117952286Y-90228160D01*
X118917438Y-89263007D01*
X118966348Y-89341999D01*
X119109931Y-89499501D01*
X119268388Y-89619163D01*
X118302971Y-90584579D01*
X118302972Y-90584581D01*
X118545772Y-90760985D01*
X118545790Y-90760996D01*
X118821447Y-90912540D01*
X118821455Y-90912544D01*
X119113926Y-91028340D01*
X119418620Y-91106573D01*
X119418629Y-91106575D01*
X119730701Y-91145999D01*
X119730715Y-91146000D01*
X120045285Y-91146000D01*
X120045298Y-91145999D01*
X120357370Y-91106575D01*
X120357379Y-91106573D01*
X120662073Y-91028340D01*
X120954544Y-90912544D01*
X120954552Y-90912540D01*
X121230209Y-90760996D01*
X121230219Y-90760990D01*
X121473026Y-90584579D01*
X121473027Y-90584579D01*
X120507611Y-89619163D01*
X120666069Y-89499501D01*
X120809652Y-89341999D01*
X120858560Y-89263008D01*
X121823712Y-90228160D01*
X121914546Y-90118362D01*
X122083096Y-89852767D01*
X122083099Y-89852761D01*
X122217034Y-89568137D01*
X122217036Y-89568132D01*
X122314244Y-89268958D01*
X122373191Y-88959949D01*
X122373192Y-88959942D01*
X122392943Y-88646005D01*
X122392943Y-88645994D01*
X122373192Y-88332057D01*
X122373191Y-88332050D01*
X122314244Y-88023041D01*
X122217036Y-87723867D01*
X122217034Y-87723862D01*
X122083099Y-87439238D01*
X122083096Y-87439232D01*
X121914542Y-87173632D01*
X121914539Y-87173628D01*
X121823712Y-87063838D01*
X120858560Y-88028991D01*
X120809652Y-87950001D01*
X120666069Y-87792499D01*
X120507611Y-87672836D01*
X121473027Y-86707419D01*
X121473026Y-86707417D01*
X121230227Y-86531014D01*
X121230209Y-86531003D01*
X120954552Y-86379459D01*
X120954544Y-86379455D01*
X120662073Y-86263659D01*
X120357379Y-86185426D01*
X120357370Y-86185424D01*
X120045298Y-86146000D01*
X119730701Y-86146000D01*
X119418629Y-86185424D01*
X119418620Y-86185426D01*
X119113926Y-86263659D01*
X118821455Y-86379455D01*
X118821447Y-86379459D01*
X118545787Y-86531004D01*
X118545782Y-86531007D01*
X118302972Y-86707418D01*
X118302971Y-86707419D01*
X119268388Y-87672836D01*
X119109931Y-87792499D01*
X118966348Y-87950001D01*
X118917439Y-88028991D01*
X117952286Y-87063838D01*
X117952285Y-87063838D01*
X117861459Y-87173629D01*
X117861457Y-87173632D01*
X117692903Y-87439232D01*
X117692900Y-87439238D01*
X117558965Y-87723862D01*
X117558963Y-87723867D01*
X117461755Y-88023041D01*
X117402808Y-88332050D01*
X117402807Y-88332057D01*
X117383057Y-88645994D01*
X117383057Y-88646005D01*
X103080090Y-88646005D01*
X103015482Y-88621908D01*
X103015483Y-88621908D01*
X102980404Y-88618137D01*
X102915853Y-88591399D01*
X102876005Y-88534006D01*
X102873512Y-88464181D01*
X102909165Y-88404092D01*
X102922539Y-88393272D01*
X102947140Y-88376046D01*
X103108045Y-88215141D01*
X103108047Y-88215139D01*
X103238568Y-88028734D01*
X103334739Y-87822496D01*
X103393635Y-87602692D01*
X103413468Y-87376000D01*
X103393635Y-87149308D01*
X103341754Y-86955684D01*
X103334741Y-86929511D01*
X103334738Y-86929502D01*
X103330375Y-86920145D01*
X103238568Y-86723266D01*
X103108047Y-86536861D01*
X103108045Y-86536858D01*
X102947141Y-86375954D01*
X102760734Y-86245432D01*
X102760728Y-86245429D01*
X102733038Y-86232517D01*
X102702724Y-86218381D01*
X102650285Y-86172210D01*
X102631133Y-86105017D01*
X102651348Y-86038135D01*
X102702725Y-85993618D01*
X102760734Y-85966568D01*
X102947139Y-85836047D01*
X103108047Y-85675139D01*
X103238568Y-85488734D01*
X103334739Y-85282496D01*
X103393635Y-85062692D01*
X103413468Y-84836000D01*
X103393635Y-84609308D01*
X103334739Y-84389504D01*
X103238568Y-84183266D01*
X103108047Y-83996861D01*
X103108045Y-83996858D01*
X102947141Y-83835954D01*
X102760734Y-83705432D01*
X102760728Y-83705429D01*
X102733038Y-83692517D01*
X102702724Y-83678381D01*
X102650285Y-83632210D01*
X102631133Y-83565017D01*
X102651348Y-83498135D01*
X102702725Y-83453618D01*
X102711185Y-83449673D01*
X102760734Y-83426568D01*
X102947139Y-83296047D01*
X103108047Y-83135139D01*
X103238568Y-82948734D01*
X103334739Y-82742496D01*
X103393635Y-82522692D01*
X103413468Y-82296000D01*
X103411062Y-82268505D01*
X103403552Y-82182659D01*
X103393635Y-82069308D01*
X103334739Y-81849504D01*
X103238568Y-81643266D01*
X103108047Y-81456861D01*
X103108045Y-81456858D01*
X103047188Y-81396001D01*
X113722532Y-81396001D01*
X113742364Y-81622686D01*
X113742366Y-81622697D01*
X113801258Y-81842488D01*
X113801261Y-81842497D01*
X113897431Y-82048732D01*
X113897432Y-82048734D01*
X114027954Y-82235141D01*
X114185086Y-82392273D01*
X114218571Y-82453596D01*
X114213587Y-82523288D01*
X114171715Y-82579221D01*
X114125932Y-82600628D01*
X114120522Y-82601906D01*
X113985671Y-82652202D01*
X113985664Y-82652206D01*
X113870455Y-82738452D01*
X113870452Y-82738455D01*
X113784206Y-82853664D01*
X113784202Y-82853671D01*
X113733908Y-82988517D01*
X113727501Y-83048116D01*
X113727500Y-83048135D01*
X113727500Y-84743870D01*
X113727501Y-84743876D01*
X113733908Y-84803483D01*
X113784202Y-84938328D01*
X113784206Y-84938335D01*
X113870452Y-85053544D01*
X113870455Y-85053547D01*
X113985664Y-85139793D01*
X113985671Y-85139797D01*
X114120517Y-85190091D01*
X114120516Y-85190091D01*
X114127444Y-85190835D01*
X114180127Y-85196500D01*
X115875872Y-85196499D01*
X115935483Y-85190091D01*
X116070331Y-85139796D01*
X116185546Y-85053546D01*
X116192350Y-85044455D01*
X116248280Y-85002584D01*
X116317971Y-84997597D01*
X116362740Y-85017188D01*
X116375512Y-85026130D01*
X116375518Y-85026134D01*
X116581673Y-85122265D01*
X116581682Y-85122269D01*
X116801389Y-85181139D01*
X116801400Y-85181141D01*
X117027998Y-85200966D01*
X117028002Y-85200966D01*
X117254599Y-85181141D01*
X117254610Y-85181139D01*
X117474317Y-85122269D01*
X117474331Y-85122264D01*
X117680478Y-85026136D01*
X117753472Y-84975025D01*
X117138451Y-84360004D01*
X117163199Y-84356446D01*
X117287445Y-84299705D01*
X117390673Y-84210258D01*
X117464519Y-84095351D01*
X117490935Y-84005382D01*
X118107025Y-84621472D01*
X118158136Y-84548478D01*
X118254264Y-84342331D01*
X118254269Y-84342317D01*
X118313139Y-84122610D01*
X118313141Y-84122599D01*
X118332966Y-83896002D01*
X118332966Y-83895997D01*
X118313141Y-83669400D01*
X118313139Y-83669389D01*
X118254269Y-83449682D01*
X118254265Y-83449673D01*
X118158133Y-83243516D01*
X118158131Y-83243512D01*
X118107026Y-83170526D01*
X118107025Y-83170526D01*
X117490935Y-83786616D01*
X117464519Y-83696649D01*
X117390673Y-83581742D01*
X117287445Y-83492295D01*
X117163199Y-83435554D01*
X117138451Y-83431995D01*
X117753472Y-82816974D01*
X117753471Y-82816973D01*
X117680483Y-82765866D01*
X117680481Y-82765865D01*
X117665023Y-82758657D01*
X117612584Y-82712484D01*
X117593432Y-82645290D01*
X117613648Y-82578409D01*
X117665023Y-82533893D01*
X117680734Y-82526568D01*
X117867139Y-82396047D01*
X118028047Y-82235139D01*
X118158568Y-82048734D01*
X118254739Y-81842496D01*
X118313635Y-81622692D01*
X118333468Y-81396000D01*
X118333151Y-81392382D01*
X118319534Y-81236739D01*
X118313635Y-81169308D01*
X118254739Y-80949504D01*
X118158568Y-80743266D01*
X118028047Y-80556861D01*
X118028045Y-80556858D01*
X117867141Y-80395954D01*
X117680734Y-80265432D01*
X117680732Y-80265431D01*
X117474497Y-80169261D01*
X117474488Y-80169258D01*
X117254697Y-80110366D01*
X117254693Y-80110365D01*
X117254692Y-80110365D01*
X117254691Y-80110364D01*
X117254686Y-80110364D01*
X117028002Y-80090532D01*
X117027998Y-80090532D01*
X116801313Y-80110364D01*
X116801302Y-80110366D01*
X116581511Y-80169258D01*
X116581502Y-80169261D01*
X116375267Y-80265431D01*
X116375265Y-80265432D01*
X116188858Y-80395954D01*
X116115681Y-80469132D01*
X116054358Y-80502617D01*
X115984666Y-80497633D01*
X115940319Y-80469132D01*
X115867141Y-80395954D01*
X115680734Y-80265432D01*
X115680732Y-80265431D01*
X115474497Y-80169261D01*
X115474488Y-80169258D01*
X115254697Y-80110366D01*
X115254693Y-80110365D01*
X115254692Y-80110365D01*
X115254691Y-80110364D01*
X115254686Y-80110364D01*
X115028002Y-80090532D01*
X115027998Y-80090532D01*
X114801313Y-80110364D01*
X114801302Y-80110366D01*
X114581511Y-80169258D01*
X114581502Y-80169261D01*
X114375267Y-80265431D01*
X114375265Y-80265432D01*
X114188858Y-80395954D01*
X114027954Y-80556858D01*
X113897432Y-80743265D01*
X113897431Y-80743267D01*
X113801261Y-80949502D01*
X113801258Y-80949511D01*
X113742366Y-81169302D01*
X113742364Y-81169313D01*
X113722532Y-81395998D01*
X113722532Y-81396001D01*
X103047188Y-81396001D01*
X102947141Y-81295954D01*
X102760734Y-81165432D01*
X102760728Y-81165429D01*
X102733038Y-81152517D01*
X102702724Y-81138381D01*
X102650285Y-81092210D01*
X102631133Y-81025017D01*
X102651348Y-80958135D01*
X102702725Y-80913618D01*
X102760734Y-80886568D01*
X102947139Y-80756047D01*
X103108047Y-80595139D01*
X103238568Y-80408734D01*
X103334739Y-80202496D01*
X103393635Y-79982692D01*
X103413468Y-79756000D01*
X103411776Y-79736666D01*
X103397502Y-79573511D01*
X103393635Y-79529308D01*
X103334739Y-79309504D01*
X103238568Y-79103266D01*
X103108047Y-78916861D01*
X103108045Y-78916858D01*
X102947141Y-78755954D01*
X102760734Y-78625432D01*
X102760728Y-78625429D01*
X102733038Y-78612517D01*
X102702724Y-78598381D01*
X102650285Y-78552210D01*
X102631133Y-78485017D01*
X102651348Y-78418135D01*
X102702725Y-78373618D01*
X102760734Y-78346568D01*
X102947139Y-78216047D01*
X103108047Y-78055139D01*
X103238568Y-77868734D01*
X103334739Y-77662496D01*
X103393635Y-77442692D01*
X103413468Y-77216000D01*
X103393635Y-76989308D01*
X103341754Y-76795684D01*
X103334741Y-76769511D01*
X103334738Y-76769502D01*
X103277150Y-76646005D01*
X117383057Y-76646005D01*
X117402807Y-76959942D01*
X117402808Y-76959949D01*
X117461755Y-77268958D01*
X117558963Y-77568132D01*
X117558965Y-77568137D01*
X117692900Y-77852761D01*
X117692903Y-77852767D01*
X117861457Y-78118367D01*
X117861460Y-78118371D01*
X117952286Y-78228160D01*
X118917438Y-77263007D01*
X118966348Y-77341999D01*
X119109931Y-77499501D01*
X119268388Y-77619163D01*
X118302971Y-78584579D01*
X118302972Y-78584581D01*
X118545772Y-78760985D01*
X118545790Y-78760996D01*
X118821447Y-78912540D01*
X118821455Y-78912544D01*
X119113926Y-79028340D01*
X119418620Y-79106573D01*
X119418629Y-79106575D01*
X119730701Y-79145999D01*
X119730715Y-79146000D01*
X120045285Y-79146000D01*
X120045298Y-79145999D01*
X120357370Y-79106575D01*
X120357379Y-79106573D01*
X120662073Y-79028340D01*
X120954544Y-78912544D01*
X120954552Y-78912540D01*
X121230209Y-78760996D01*
X121230219Y-78760990D01*
X121473026Y-78584579D01*
X121473027Y-78584579D01*
X120507611Y-77619163D01*
X120666069Y-77499501D01*
X120809652Y-77341999D01*
X120858560Y-77263008D01*
X121823712Y-78228160D01*
X121914544Y-78118364D01*
X122083096Y-77852767D01*
X122083099Y-77852761D01*
X122217034Y-77568137D01*
X122217036Y-77568132D01*
X122314244Y-77268958D01*
X122373191Y-76959949D01*
X122373192Y-76959942D01*
X122392943Y-76646005D01*
X122392943Y-76645994D01*
X122373192Y-76332057D01*
X122373191Y-76332050D01*
X122314244Y-76023041D01*
X122217036Y-75723867D01*
X122217034Y-75723862D01*
X122083099Y-75439238D01*
X122083096Y-75439232D01*
X121914542Y-75173632D01*
X121914539Y-75173628D01*
X121823712Y-75063838D01*
X120858560Y-76028991D01*
X120809652Y-75950001D01*
X120666069Y-75792499D01*
X120507611Y-75672836D01*
X121473027Y-74707419D01*
X121473026Y-74707417D01*
X121230227Y-74531014D01*
X121230209Y-74531003D01*
X120954552Y-74379459D01*
X120954544Y-74379455D01*
X120662073Y-74263659D01*
X120357379Y-74185426D01*
X120357370Y-74185424D01*
X120045298Y-74146000D01*
X119730701Y-74146000D01*
X119418629Y-74185424D01*
X119418620Y-74185426D01*
X119113926Y-74263659D01*
X118821455Y-74379455D01*
X118821447Y-74379459D01*
X118545787Y-74531004D01*
X118545782Y-74531007D01*
X118302972Y-74707418D01*
X118302971Y-74707419D01*
X119268388Y-75672836D01*
X119109931Y-75792499D01*
X118966348Y-75950001D01*
X118917439Y-76028991D01*
X117952286Y-75063838D01*
X117952285Y-75063838D01*
X117861459Y-75173629D01*
X117861457Y-75173632D01*
X117692903Y-75439232D01*
X117692900Y-75439238D01*
X117558965Y-75723862D01*
X117558963Y-75723867D01*
X117461755Y-76023041D01*
X117402808Y-76332050D01*
X117402807Y-76332057D01*
X117383057Y-76645994D01*
X117383057Y-76646005D01*
X103277150Y-76646005D01*
X103238568Y-76563266D01*
X103108047Y-76376861D01*
X103108045Y-76376858D01*
X102947141Y-76215954D01*
X102760734Y-76085432D01*
X102760732Y-76085431D01*
X102749275Y-76080088D01*
X102702132Y-76058105D01*
X102649694Y-76011934D01*
X102630542Y-75944740D01*
X102650758Y-75877859D01*
X102702134Y-75833341D01*
X102760484Y-75806132D01*
X102946820Y-75675657D01*
X103107657Y-75514820D01*
X103238134Y-75328482D01*
X103334265Y-75122326D01*
X103334269Y-75122317D01*
X103386872Y-74926000D01*
X102423686Y-74926000D01*
X102435641Y-74914045D01*
X102493165Y-74801148D01*
X102512986Y-74676000D01*
X102493165Y-74550852D01*
X102435641Y-74437955D01*
X102423686Y-74426000D01*
X103386872Y-74426000D01*
X103386872Y-74425999D01*
X103334269Y-74229682D01*
X103334265Y-74229673D01*
X103238134Y-74023517D01*
X103107657Y-73837179D01*
X103066348Y-73795870D01*
X109901500Y-73795870D01*
X109901501Y-73795876D01*
X109907908Y-73855483D01*
X109958202Y-73990328D01*
X109958206Y-73990335D01*
X110044452Y-74105544D01*
X110044455Y-74105547D01*
X110159664Y-74191793D01*
X110159671Y-74191797D01*
X110294517Y-74242091D01*
X110294516Y-74242091D01*
X110301444Y-74242835D01*
X110354127Y-74248500D01*
X112149872Y-74248499D01*
X112209483Y-74242091D01*
X112344331Y-74191796D01*
X112459546Y-74105546D01*
X112545796Y-73990331D01*
X112596091Y-73855483D01*
X112602500Y-73795873D01*
X112602499Y-72000128D01*
X112596091Y-71940517D01*
X112595777Y-71939676D01*
X112545797Y-71805671D01*
X112545793Y-71805664D01*
X112459547Y-71690455D01*
X112459544Y-71690452D01*
X112344335Y-71604206D01*
X112344328Y-71604202D01*
X112212401Y-71554997D01*
X112156467Y-71513126D01*
X112132050Y-71447662D01*
X112146902Y-71379389D01*
X112168053Y-71351133D01*
X112290108Y-71229078D01*
X112425600Y-71035578D01*
X112525429Y-70821492D01*
X112525432Y-70821486D01*
X112582636Y-70608000D01*
X111685686Y-70608000D01*
X111711493Y-70567844D01*
X111752000Y-70429889D01*
X111752000Y-70286111D01*
X111718425Y-70171763D01*
X117525787Y-70171763D01*
X117555413Y-70441013D01*
X117555415Y-70441024D01*
X117620192Y-70688798D01*
X117623928Y-70703088D01*
X117729870Y-70952390D01*
X117780639Y-71035578D01*
X117870979Y-71183605D01*
X117870986Y-71183615D01*
X118044253Y-71391819D01*
X118044259Y-71391824D01*
X118145068Y-71482149D01*
X118245998Y-71572582D01*
X118471910Y-71722044D01*
X118717176Y-71837020D01*
X118717183Y-71837022D01*
X118717185Y-71837023D01*
X118976557Y-71915057D01*
X118976564Y-71915058D01*
X118976569Y-71915060D01*
X119244561Y-71954500D01*
X119244566Y-71954500D01*
X119447636Y-71954500D01*
X119499133Y-71950730D01*
X119650156Y-71939677D01*
X119762758Y-71914593D01*
X119914546Y-71880782D01*
X119914548Y-71880781D01*
X119914553Y-71880780D01*
X120167558Y-71784014D01*
X120403777Y-71651441D01*
X120618177Y-71485888D01*
X120806186Y-71290881D01*
X120963799Y-71070579D01*
X121037787Y-70926669D01*
X121087649Y-70829690D01*
X121087651Y-70829684D01*
X121087656Y-70829675D01*
X121175118Y-70573305D01*
X121224319Y-70306933D01*
X121234212Y-70036235D01*
X121204586Y-69766982D01*
X121136072Y-69504912D01*
X121030130Y-69255610D01*
X120889018Y-69024390D01*
X120799747Y-68917119D01*
X120715746Y-68816180D01*
X120715740Y-68816175D01*
X120514002Y-68635418D01*
X120288092Y-68485957D01*
X120288090Y-68485956D01*
X120042824Y-68370980D01*
X120042819Y-68370978D01*
X120042814Y-68370976D01*
X119783442Y-68292942D01*
X119783428Y-68292939D01*
X119667791Y-68275921D01*
X119515439Y-68253500D01*
X119312369Y-68253500D01*
X119312364Y-68253500D01*
X119109844Y-68268323D01*
X119109831Y-68268325D01*
X118845453Y-68327217D01*
X118845446Y-68327220D01*
X118592439Y-68423987D01*
X118356226Y-68556557D01*
X118141822Y-68722112D01*
X117953822Y-68917109D01*
X117953816Y-68917116D01*
X117796202Y-69137419D01*
X117796199Y-69137424D01*
X117672350Y-69378309D01*
X117672343Y-69378327D01*
X117584884Y-69634685D01*
X117584881Y-69634699D01*
X117535681Y-69901068D01*
X117535680Y-69901075D01*
X117525787Y-70171763D01*
X111718425Y-70171763D01*
X111711493Y-70148156D01*
X111685686Y-70108000D01*
X112582636Y-70108000D01*
X112582635Y-70107999D01*
X112525432Y-69894513D01*
X112525429Y-69894507D01*
X112425600Y-69680422D01*
X112425599Y-69680420D01*
X112290113Y-69486926D01*
X112290108Y-69486920D01*
X112123082Y-69319894D01*
X111929578Y-69184399D01*
X111715492Y-69084570D01*
X111715486Y-69084567D01*
X111502000Y-69027364D01*
X111502000Y-69922498D01*
X111394315Y-69873320D01*
X111287763Y-69858000D01*
X111216237Y-69858000D01*
X111109685Y-69873320D01*
X111002000Y-69922498D01*
X111002000Y-69027364D01*
X111001999Y-69027364D01*
X110788513Y-69084567D01*
X110788507Y-69084570D01*
X110574422Y-69184399D01*
X110574420Y-69184400D01*
X110380926Y-69319886D01*
X110380920Y-69319891D01*
X110213891Y-69486920D01*
X110213886Y-69486926D01*
X110078400Y-69680420D01*
X110078399Y-69680422D01*
X109978570Y-69894507D01*
X109978567Y-69894513D01*
X109921364Y-70107999D01*
X109921364Y-70108000D01*
X110818314Y-70108000D01*
X110792507Y-70148156D01*
X110752000Y-70286111D01*
X110752000Y-70429889D01*
X110792507Y-70567844D01*
X110818314Y-70608000D01*
X109921364Y-70608000D01*
X109978567Y-70821486D01*
X109978570Y-70821492D01*
X110078399Y-71035578D01*
X110213894Y-71229082D01*
X110335946Y-71351134D01*
X110369431Y-71412457D01*
X110364447Y-71482149D01*
X110322575Y-71538082D01*
X110291598Y-71554997D01*
X110159671Y-71604202D01*
X110159664Y-71604206D01*
X110044455Y-71690452D01*
X110044452Y-71690455D01*
X109958206Y-71805664D01*
X109958202Y-71805671D01*
X109907908Y-71940517D01*
X109901501Y-72000116D01*
X109901501Y-72000123D01*
X109901500Y-72000135D01*
X109901500Y-73795870D01*
X103066348Y-73795870D01*
X102946820Y-73676342D01*
X102760482Y-73545865D01*
X102554328Y-73449734D01*
X102358000Y-73397127D01*
X102358000Y-74360314D01*
X102346045Y-74348359D01*
X102233148Y-74290835D01*
X102139481Y-74276000D01*
X102076519Y-74276000D01*
X101982852Y-74290835D01*
X101869955Y-74348359D01*
X101858000Y-74360314D01*
X101858000Y-73397127D01*
X101661671Y-73449734D01*
X101455517Y-73545865D01*
X101269179Y-73676342D01*
X101108342Y-73837179D01*
X100977865Y-74023517D01*
X100881734Y-74229673D01*
X100881730Y-74229682D01*
X100829127Y-74425999D01*
X100829128Y-74426000D01*
X101792314Y-74426000D01*
X101780359Y-74437955D01*
X101722835Y-74550852D01*
X101703014Y-74676000D01*
X101722835Y-74801148D01*
X101780359Y-74914045D01*
X101792314Y-74926000D01*
X100829128Y-74926000D01*
X100881730Y-75122317D01*
X100881734Y-75122326D01*
X100977865Y-75328482D01*
X101108342Y-75514820D01*
X101269179Y-75675657D01*
X101455518Y-75806134D01*
X101455520Y-75806135D01*
X101513865Y-75833342D01*
X101566305Y-75879514D01*
X101585457Y-75946707D01*
X101565242Y-76013589D01*
X101513867Y-76058105D01*
X101455268Y-76085431D01*
X101455264Y-76085433D01*
X101268858Y-76215954D01*
X101107954Y-76376858D01*
X100977432Y-76563265D01*
X100977431Y-76563267D01*
X100881261Y-76769502D01*
X100881258Y-76769511D01*
X100822366Y-76989302D01*
X100822364Y-76989313D01*
X100802532Y-77215998D01*
X100802532Y-77216001D01*
X100822364Y-77442686D01*
X100822366Y-77442697D01*
X100881258Y-77662488D01*
X100881261Y-77662497D01*
X100977431Y-77868732D01*
X100977432Y-77868734D01*
X101107954Y-78055141D01*
X101268858Y-78216045D01*
X101268861Y-78216047D01*
X101455266Y-78346568D01*
X101513275Y-78373618D01*
X101565714Y-78419791D01*
X101584866Y-78486984D01*
X101564650Y-78553865D01*
X101513275Y-78598381D01*
X101496272Y-78606310D01*
X101455267Y-78625431D01*
X101455265Y-78625432D01*
X101268858Y-78755954D01*
X101107954Y-78916858D01*
X100977432Y-79103265D01*
X100977431Y-79103267D01*
X100881261Y-79309502D01*
X100881258Y-79309511D01*
X100822366Y-79529302D01*
X100822364Y-79529313D01*
X100802532Y-79755998D01*
X100802532Y-79756001D01*
X100822364Y-79982686D01*
X100822366Y-79982697D01*
X100881258Y-80202488D01*
X100881261Y-80202497D01*
X100977431Y-80408732D01*
X100977432Y-80408734D01*
X101107954Y-80595141D01*
X101268858Y-80756045D01*
X101268861Y-80756047D01*
X101455266Y-80886568D01*
X101513275Y-80913618D01*
X101565714Y-80959791D01*
X101584866Y-81026984D01*
X101564650Y-81093865D01*
X101513275Y-81138381D01*
X101496272Y-81146310D01*
X101455267Y-81165431D01*
X101455265Y-81165432D01*
X101268858Y-81295954D01*
X101107954Y-81456858D01*
X100977432Y-81643265D01*
X100977431Y-81643267D01*
X100881261Y-81849502D01*
X100881258Y-81849511D01*
X100822366Y-82069302D01*
X100822364Y-82069313D01*
X100802532Y-82295998D01*
X100802532Y-82296001D01*
X100822364Y-82522686D01*
X100822366Y-82522697D01*
X100881258Y-82742488D01*
X100881261Y-82742497D01*
X100977431Y-82948732D01*
X100977432Y-82948734D01*
X101107954Y-83135141D01*
X101268858Y-83296045D01*
X101268861Y-83296047D01*
X101455266Y-83426568D01*
X101504815Y-83449673D01*
X101513275Y-83453618D01*
X101565714Y-83499791D01*
X101584866Y-83566984D01*
X101564650Y-83633865D01*
X101513275Y-83678381D01*
X101496272Y-83686310D01*
X101455267Y-83705431D01*
X101455265Y-83705432D01*
X101268858Y-83835954D01*
X101107954Y-83996858D01*
X100977432Y-84183265D01*
X100977431Y-84183267D01*
X100881261Y-84389502D01*
X100881258Y-84389511D01*
X100822366Y-84609302D01*
X100822364Y-84609313D01*
X100802532Y-84835998D01*
X100802532Y-84836001D01*
X100822364Y-85062686D01*
X100822366Y-85062697D01*
X100881258Y-85282488D01*
X100881261Y-85282497D01*
X100977431Y-85488732D01*
X100977432Y-85488734D01*
X101107954Y-85675141D01*
X101268858Y-85836045D01*
X101268861Y-85836047D01*
X101455266Y-85966568D01*
X101513275Y-85993618D01*
X101565714Y-86039791D01*
X101584866Y-86106984D01*
X101564650Y-86173865D01*
X101513275Y-86218381D01*
X101496272Y-86226310D01*
X101455267Y-86245431D01*
X101455265Y-86245432D01*
X101268858Y-86375954D01*
X101107954Y-86536858D01*
X100977432Y-86723265D01*
X100977431Y-86723267D01*
X100881261Y-86929502D01*
X100881258Y-86929511D01*
X100822366Y-87149302D01*
X100822364Y-87149313D01*
X100802532Y-87375998D01*
X100802532Y-87376001D01*
X95793468Y-87376001D01*
X95793468Y-87376000D01*
X95773635Y-87149308D01*
X95721754Y-86955684D01*
X95714741Y-86929511D01*
X95714738Y-86929502D01*
X95710375Y-86920145D01*
X95618568Y-86723266D01*
X95488047Y-86536861D01*
X95488045Y-86536858D01*
X95327141Y-86375954D01*
X95140734Y-86245432D01*
X95140728Y-86245429D01*
X95113038Y-86232517D01*
X95082724Y-86218381D01*
X95030285Y-86172210D01*
X95011133Y-86105017D01*
X95031348Y-86038135D01*
X95082725Y-85993618D01*
X95140734Y-85966568D01*
X95327139Y-85836047D01*
X95488047Y-85675139D01*
X95618568Y-85488734D01*
X95714739Y-85282496D01*
X95773635Y-85062692D01*
X95793468Y-84836000D01*
X95773635Y-84609308D01*
X95714739Y-84389504D01*
X95618568Y-84183266D01*
X95488047Y-83996861D01*
X95488045Y-83996858D01*
X95327141Y-83835954D01*
X95140734Y-83705432D01*
X95140728Y-83705429D01*
X95113038Y-83692517D01*
X95082724Y-83678381D01*
X95030285Y-83632210D01*
X95011133Y-83565017D01*
X95031348Y-83498135D01*
X95082725Y-83453618D01*
X95091185Y-83449673D01*
X95140734Y-83426568D01*
X95327139Y-83296047D01*
X95488047Y-83135139D01*
X95618568Y-82948734D01*
X95714739Y-82742496D01*
X95773635Y-82522692D01*
X95793468Y-82296000D01*
X95791062Y-82268505D01*
X95783552Y-82182659D01*
X95773635Y-82069308D01*
X95714739Y-81849504D01*
X95618568Y-81643266D01*
X95488047Y-81456861D01*
X95488045Y-81456858D01*
X95327141Y-81295954D01*
X95140734Y-81165432D01*
X95140728Y-81165429D01*
X95113038Y-81152517D01*
X95082724Y-81138381D01*
X95030285Y-81092210D01*
X95011133Y-81025017D01*
X95031348Y-80958135D01*
X95082725Y-80913618D01*
X95140734Y-80886568D01*
X95327139Y-80756047D01*
X95488047Y-80595139D01*
X95618568Y-80408734D01*
X95714739Y-80202496D01*
X95773635Y-79982692D01*
X95793468Y-79756000D01*
X95791776Y-79736666D01*
X95777502Y-79573511D01*
X95773635Y-79529308D01*
X95714739Y-79309504D01*
X95618568Y-79103266D01*
X95488047Y-78916861D01*
X95488045Y-78916858D01*
X95327141Y-78755954D01*
X95140734Y-78625432D01*
X95140728Y-78625429D01*
X95113038Y-78612517D01*
X95082724Y-78598381D01*
X95030285Y-78552210D01*
X95011133Y-78485017D01*
X95031348Y-78418135D01*
X95082725Y-78373618D01*
X95140734Y-78346568D01*
X95327139Y-78216047D01*
X95488047Y-78055139D01*
X95618568Y-77868734D01*
X95714739Y-77662496D01*
X95773635Y-77442692D01*
X95793468Y-77216000D01*
X95773635Y-76989308D01*
X95721754Y-76795684D01*
X95714741Y-76769511D01*
X95714738Y-76769502D01*
X95657150Y-76646005D01*
X95618568Y-76563266D01*
X95488047Y-76376861D01*
X95488045Y-76376858D01*
X95327141Y-76215954D01*
X95140734Y-76085432D01*
X95140728Y-76085429D01*
X95113038Y-76072517D01*
X95082724Y-76058381D01*
X95030285Y-76012210D01*
X95011133Y-75945017D01*
X95031348Y-75878135D01*
X95082725Y-75833618D01*
X95083319Y-75833341D01*
X95140734Y-75806568D01*
X95327139Y-75676047D01*
X95488047Y-75515139D01*
X95618568Y-75328734D01*
X95714739Y-75122496D01*
X95773635Y-74902692D01*
X95793468Y-74676000D01*
X95773635Y-74449308D01*
X95714739Y-74229504D01*
X95618568Y-74023266D01*
X95501086Y-73855483D01*
X95488045Y-73836858D01*
X95327141Y-73675954D01*
X95140734Y-73545432D01*
X95140732Y-73545431D01*
X94934497Y-73449261D01*
X94934488Y-73449258D01*
X94714697Y-73390366D01*
X94714693Y-73390365D01*
X94714692Y-73390365D01*
X94714691Y-73390364D01*
X94714686Y-73390364D01*
X94488002Y-73370532D01*
X94487998Y-73370532D01*
X94261313Y-73390364D01*
X94261302Y-73390366D01*
X94041511Y-73449258D01*
X94041502Y-73449261D01*
X93835267Y-73545431D01*
X93835265Y-73545432D01*
X93648858Y-73675954D01*
X93487954Y-73836858D01*
X93357432Y-74023265D01*
X93357431Y-74023267D01*
X93261261Y-74229502D01*
X93261258Y-74229511D01*
X93202366Y-74449302D01*
X93202364Y-74449313D01*
X93182532Y-74675998D01*
X93182532Y-74676001D01*
X93202364Y-74902686D01*
X93202366Y-74902697D01*
X93261258Y-75122488D01*
X93261261Y-75122497D01*
X93357431Y-75328732D01*
X93357432Y-75328734D01*
X93487954Y-75515141D01*
X93648858Y-75676045D01*
X93648861Y-75676047D01*
X93835266Y-75806568D01*
X93892681Y-75833341D01*
X93893275Y-75833618D01*
X93945714Y-75879791D01*
X93964866Y-75946984D01*
X93944650Y-76013865D01*
X93893275Y-76058381D01*
X93888589Y-76060567D01*
X93835267Y-76085431D01*
X93835265Y-76085432D01*
X93648858Y-76215954D01*
X93487954Y-76376858D01*
X93357432Y-76563265D01*
X93357431Y-76563267D01*
X93261261Y-76769502D01*
X93261258Y-76769511D01*
X93202366Y-76989302D01*
X93202364Y-76989313D01*
X93182532Y-77215998D01*
X93182532Y-77216001D01*
X93202364Y-77442686D01*
X93202366Y-77442697D01*
X93261258Y-77662488D01*
X93261261Y-77662497D01*
X93357431Y-77868732D01*
X93357432Y-77868734D01*
X93487954Y-78055141D01*
X93648858Y-78216045D01*
X93648861Y-78216047D01*
X93835266Y-78346568D01*
X93893275Y-78373618D01*
X93945714Y-78419791D01*
X93964866Y-78486984D01*
X93944650Y-78553865D01*
X93893275Y-78598381D01*
X93876272Y-78606310D01*
X93835267Y-78625431D01*
X93835265Y-78625432D01*
X93648858Y-78755954D01*
X93487954Y-78916858D01*
X93357432Y-79103265D01*
X93357431Y-79103267D01*
X93261261Y-79309502D01*
X93261258Y-79309511D01*
X93202366Y-79529302D01*
X93202364Y-79529313D01*
X93182532Y-79755998D01*
X93182532Y-79756001D01*
X93202364Y-79982686D01*
X93202366Y-79982697D01*
X93261258Y-80202488D01*
X93261261Y-80202497D01*
X93357431Y-80408732D01*
X93357432Y-80408734D01*
X93487954Y-80595141D01*
X93648858Y-80756045D01*
X93648861Y-80756047D01*
X93835266Y-80886568D01*
X93893275Y-80913618D01*
X93945714Y-80959791D01*
X93964866Y-81026984D01*
X93944650Y-81093865D01*
X93893275Y-81138381D01*
X93876272Y-81146310D01*
X93835267Y-81165431D01*
X93835265Y-81165432D01*
X93648858Y-81295954D01*
X93487954Y-81456858D01*
X93357432Y-81643265D01*
X93357431Y-81643267D01*
X93261261Y-81849502D01*
X93261258Y-81849511D01*
X93202366Y-82069302D01*
X93202364Y-82069313D01*
X93182532Y-82295998D01*
X93182532Y-82296001D01*
X93202364Y-82522686D01*
X93202366Y-82522697D01*
X93261258Y-82742488D01*
X93261261Y-82742497D01*
X93357431Y-82948732D01*
X93357432Y-82948734D01*
X93487954Y-83135141D01*
X93648858Y-83296045D01*
X93648861Y-83296047D01*
X93835266Y-83426568D01*
X93884815Y-83449673D01*
X93893275Y-83453618D01*
X93945714Y-83499791D01*
X93964866Y-83566984D01*
X93944650Y-83633865D01*
X93893275Y-83678381D01*
X93876272Y-83686310D01*
X93835267Y-83705431D01*
X93835265Y-83705432D01*
X93648858Y-83835954D01*
X93487954Y-83996858D01*
X93357432Y-84183265D01*
X93357431Y-84183267D01*
X93261261Y-84389502D01*
X93261258Y-84389511D01*
X93202366Y-84609302D01*
X93202364Y-84609313D01*
X93182532Y-84835998D01*
X93182532Y-84836001D01*
X93202364Y-85062686D01*
X93202366Y-85062697D01*
X93261258Y-85282488D01*
X93261261Y-85282497D01*
X93357431Y-85488732D01*
X93357432Y-85488734D01*
X93487954Y-85675141D01*
X93648858Y-85836045D01*
X93648861Y-85836047D01*
X93835266Y-85966568D01*
X93893275Y-85993618D01*
X93945714Y-86039791D01*
X93964866Y-86106984D01*
X93944650Y-86173865D01*
X93893275Y-86218381D01*
X93876272Y-86226310D01*
X93835267Y-86245431D01*
X93835265Y-86245432D01*
X93648858Y-86375954D01*
X93487954Y-86536858D01*
X93357432Y-86723265D01*
X93357431Y-86723267D01*
X93261261Y-86929502D01*
X93261258Y-86929511D01*
X93202366Y-87149302D01*
X93202364Y-87149313D01*
X93182532Y-87375998D01*
X93182532Y-87376001D01*
X93202364Y-87602686D01*
X93202366Y-87602697D01*
X93261258Y-87822488D01*
X93261261Y-87822497D01*
X93357431Y-88028732D01*
X93357432Y-88028734D01*
X93487954Y-88215141D01*
X93648858Y-88376045D01*
X93683334Y-88400185D01*
X93835266Y-88506568D01*
X93858384Y-88517348D01*
X93893275Y-88533618D01*
X93945714Y-88579791D01*
X93964866Y-88646984D01*
X93944650Y-88713865D01*
X93893275Y-88758381D01*
X93876272Y-88766310D01*
X93835267Y-88785431D01*
X93835265Y-88785432D01*
X93648858Y-88915954D01*
X93487954Y-89076858D01*
X93357432Y-89263265D01*
X93357431Y-89263267D01*
X93261261Y-89469502D01*
X93261258Y-89469511D01*
X93202366Y-89689302D01*
X93202364Y-89689313D01*
X93182532Y-89915998D01*
X93182532Y-89916001D01*
X88412499Y-89916001D01*
X88412499Y-89332128D01*
X88406091Y-89272517D01*
X88402640Y-89263265D01*
X88355797Y-89137671D01*
X88355793Y-89137664D01*
X88269547Y-89022455D01*
X88269544Y-89022452D01*
X88154335Y-88936206D01*
X88154328Y-88936202D01*
X88019482Y-88885908D01*
X88019483Y-88885908D01*
X87984404Y-88882137D01*
X87919853Y-88855399D01*
X87880005Y-88798006D01*
X87877512Y-88728181D01*
X87913165Y-88668092D01*
X87926539Y-88657272D01*
X87940819Y-88647273D01*
X87951139Y-88640047D01*
X88112047Y-88479139D01*
X88242568Y-88292734D01*
X88338739Y-88086496D01*
X88397635Y-87866692D01*
X88417468Y-87640000D01*
X88414203Y-87602686D01*
X88411262Y-87569063D01*
X88397635Y-87413308D01*
X88338739Y-87193504D01*
X88242568Y-86987266D01*
X88112047Y-86800861D01*
X88112045Y-86800858D01*
X87951141Y-86639954D01*
X87764734Y-86509432D01*
X87764728Y-86509429D01*
X87706725Y-86482382D01*
X87654285Y-86436210D01*
X87635133Y-86369017D01*
X87655348Y-86302135D01*
X87706725Y-86257618D01*
X87764734Y-86230568D01*
X87951139Y-86100047D01*
X88112047Y-85939139D01*
X88242568Y-85752734D01*
X88338739Y-85546496D01*
X88397635Y-85326692D01*
X88417468Y-85100000D01*
X88414203Y-85062686D01*
X88403324Y-84938331D01*
X88397635Y-84873308D01*
X88338739Y-84653504D01*
X88242568Y-84447266D01*
X88112047Y-84260861D01*
X88112045Y-84260858D01*
X87951141Y-84099954D01*
X87764734Y-83969432D01*
X87764728Y-83969429D01*
X87706725Y-83942382D01*
X87654285Y-83896210D01*
X87635133Y-83829017D01*
X87655348Y-83762135D01*
X87706725Y-83717618D01*
X87764734Y-83690568D01*
X87951139Y-83560047D01*
X88112047Y-83399139D01*
X88242568Y-83212734D01*
X88338739Y-83006496D01*
X88397635Y-82786692D01*
X88417468Y-82560000D01*
X88414203Y-82522686D01*
X88402794Y-82392274D01*
X88397635Y-82333308D01*
X88339810Y-82117500D01*
X88338741Y-82113511D01*
X88338738Y-82113502D01*
X88269425Y-81964861D01*
X88242568Y-81907266D01*
X88114583Y-81724483D01*
X88112045Y-81720858D01*
X87951141Y-81559954D01*
X87764734Y-81429432D01*
X87764728Y-81429429D01*
X87706725Y-81402382D01*
X87654285Y-81356210D01*
X87635133Y-81289017D01*
X87655348Y-81222135D01*
X87706725Y-81177618D01*
X87724535Y-81169313D01*
X87764734Y-81150568D01*
X87951139Y-81020047D01*
X88112047Y-80859139D01*
X88242568Y-80672734D01*
X88338739Y-80466496D01*
X88397635Y-80246692D01*
X88417468Y-80020000D01*
X88414203Y-79982686D01*
X88409931Y-79933848D01*
X88397635Y-79793308D01*
X88338739Y-79573504D01*
X88242568Y-79367266D01*
X88112047Y-79180861D01*
X88112045Y-79180858D01*
X87951141Y-79019954D01*
X87764734Y-78889432D01*
X87764728Y-78889429D01*
X87706725Y-78862382D01*
X87654285Y-78816210D01*
X87635133Y-78749017D01*
X87655348Y-78682135D01*
X87706725Y-78637618D01*
X87764734Y-78610568D01*
X87951139Y-78480047D01*
X88112047Y-78319139D01*
X88242568Y-78132734D01*
X88338739Y-77926496D01*
X88397635Y-77706692D01*
X88417468Y-77480000D01*
X88416560Y-77469626D01*
X88411801Y-77415230D01*
X88397635Y-77253308D01*
X88338739Y-77033504D01*
X88242568Y-76827266D01*
X88112047Y-76640861D01*
X88112045Y-76640858D01*
X87951141Y-76479954D01*
X87764734Y-76349432D01*
X87764732Y-76349431D01*
X87706725Y-76322382D01*
X87706132Y-76322105D01*
X87653694Y-76275934D01*
X87634542Y-76208740D01*
X87654758Y-76141859D01*
X87706134Y-76097341D01*
X87764484Y-76070132D01*
X87950820Y-75939657D01*
X88111657Y-75778820D01*
X88242134Y-75592482D01*
X88338265Y-75386326D01*
X88338269Y-75386317D01*
X88390872Y-75190000D01*
X87427686Y-75190000D01*
X87439641Y-75178045D01*
X87497165Y-75065148D01*
X87516986Y-74940000D01*
X87497165Y-74814852D01*
X87439641Y-74701955D01*
X87427686Y-74690000D01*
X88390872Y-74690000D01*
X88390872Y-74689999D01*
X88338269Y-74493682D01*
X88338265Y-74493673D01*
X88242134Y-74287517D01*
X88111657Y-74101179D01*
X87950820Y-73940342D01*
X87764482Y-73809865D01*
X87558328Y-73713734D01*
X87362000Y-73661127D01*
X87362000Y-74624314D01*
X87350045Y-74612359D01*
X87237148Y-74554835D01*
X87143481Y-74540000D01*
X87080519Y-74540000D01*
X86986852Y-74554835D01*
X86873955Y-74612359D01*
X86862000Y-74624314D01*
X86862000Y-73661127D01*
X86665671Y-73713734D01*
X86459517Y-73809865D01*
X86273179Y-73940342D01*
X86112342Y-74101179D01*
X85981865Y-74287517D01*
X85885734Y-74493673D01*
X85885730Y-74493682D01*
X85833127Y-74689999D01*
X85833128Y-74690000D01*
X86796314Y-74690000D01*
X86784359Y-74701955D01*
X86726835Y-74814852D01*
X86707014Y-74940000D01*
X86726835Y-75065148D01*
X86784359Y-75178045D01*
X86796314Y-75190000D01*
X85833128Y-75190000D01*
X85885730Y-75386317D01*
X85885734Y-75386326D01*
X85981865Y-75592482D01*
X86112342Y-75778820D01*
X86273179Y-75939657D01*
X86459518Y-76070134D01*
X86459520Y-76070135D01*
X86517865Y-76097342D01*
X86570305Y-76143514D01*
X86589457Y-76210707D01*
X86569242Y-76277589D01*
X86517867Y-76322105D01*
X86459268Y-76349431D01*
X86459264Y-76349433D01*
X86272858Y-76479954D01*
X86111954Y-76640858D01*
X85981432Y-76827265D01*
X85981431Y-76827267D01*
X85885261Y-77033502D01*
X85885258Y-77033511D01*
X85826366Y-77253302D01*
X85826364Y-77253313D01*
X85806532Y-77479998D01*
X85806532Y-77480001D01*
X85826364Y-77706686D01*
X85826366Y-77706697D01*
X85885258Y-77926488D01*
X85885261Y-77926497D01*
X85981431Y-78132732D01*
X85981432Y-78132734D01*
X86111954Y-78319141D01*
X86272858Y-78480045D01*
X86272861Y-78480047D01*
X86459266Y-78610568D01*
X86491140Y-78625431D01*
X86517275Y-78637618D01*
X86569714Y-78683791D01*
X86588866Y-78750984D01*
X86568650Y-78817865D01*
X86517275Y-78862382D01*
X86459267Y-78889431D01*
X86459265Y-78889432D01*
X86272858Y-79019954D01*
X86111954Y-79180858D01*
X85981432Y-79367265D01*
X85981431Y-79367267D01*
X85885261Y-79573502D01*
X85885258Y-79573511D01*
X85826366Y-79793302D01*
X85826364Y-79793313D01*
X85806532Y-80019998D01*
X85806532Y-80020001D01*
X85826364Y-80246686D01*
X85826366Y-80246697D01*
X85885258Y-80466488D01*
X85885261Y-80466497D01*
X85981431Y-80672732D01*
X85981432Y-80672734D01*
X86111954Y-80859141D01*
X86272858Y-81020045D01*
X86272861Y-81020047D01*
X86459266Y-81150568D01*
X86499454Y-81169308D01*
X86517275Y-81177618D01*
X86569714Y-81223791D01*
X86588866Y-81290984D01*
X86568650Y-81357865D01*
X86517275Y-81402382D01*
X86459267Y-81429431D01*
X86459265Y-81429432D01*
X86272858Y-81559954D01*
X86111954Y-81720858D01*
X85981432Y-81907265D01*
X85981431Y-81907267D01*
X85885261Y-82113502D01*
X85885258Y-82113511D01*
X85826366Y-82333302D01*
X85826364Y-82333313D01*
X85806532Y-82559998D01*
X85806532Y-82560001D01*
X85826364Y-82786686D01*
X85826366Y-82786697D01*
X85885258Y-83006488D01*
X85885261Y-83006497D01*
X85981431Y-83212732D01*
X85981432Y-83212734D01*
X86111954Y-83399141D01*
X86272858Y-83560045D01*
X86272861Y-83560047D01*
X86459266Y-83690568D01*
X86491140Y-83705431D01*
X86517275Y-83717618D01*
X86569714Y-83763791D01*
X86588866Y-83830984D01*
X86568650Y-83897865D01*
X86517275Y-83942382D01*
X86459267Y-83969431D01*
X86459265Y-83969432D01*
X86272858Y-84099954D01*
X86111954Y-84260858D01*
X85981432Y-84447265D01*
X85981431Y-84447267D01*
X85885261Y-84653502D01*
X85885258Y-84653511D01*
X85826366Y-84873302D01*
X85826364Y-84873313D01*
X85806532Y-85099998D01*
X85806532Y-85100001D01*
X85826364Y-85326686D01*
X85826366Y-85326697D01*
X85885258Y-85546488D01*
X85885261Y-85546497D01*
X85981431Y-85752732D01*
X85981432Y-85752734D01*
X86111954Y-85939141D01*
X86272858Y-86100045D01*
X86272861Y-86100047D01*
X86459266Y-86230568D01*
X86491140Y-86245431D01*
X86517275Y-86257618D01*
X86569714Y-86303791D01*
X86588866Y-86370984D01*
X86568650Y-86437865D01*
X86517275Y-86482382D01*
X86459267Y-86509431D01*
X86459265Y-86509432D01*
X86272858Y-86639954D01*
X86111954Y-86800858D01*
X85981432Y-86987265D01*
X85981431Y-86987267D01*
X85885261Y-87193502D01*
X85885258Y-87193511D01*
X85826366Y-87413302D01*
X85826364Y-87413313D01*
X85806532Y-87639998D01*
X85806532Y-87640001D01*
X80797468Y-87640001D01*
X80797468Y-87640000D01*
X80794203Y-87602686D01*
X80791262Y-87569063D01*
X80777635Y-87413308D01*
X80718739Y-87193504D01*
X80622568Y-86987266D01*
X80492047Y-86800861D01*
X80492045Y-86800858D01*
X80331141Y-86639954D01*
X80144734Y-86509432D01*
X80144728Y-86509429D01*
X80086725Y-86482382D01*
X80034285Y-86436210D01*
X80015133Y-86369017D01*
X80035348Y-86302135D01*
X80086725Y-86257618D01*
X80144734Y-86230568D01*
X80331139Y-86100047D01*
X80492047Y-85939139D01*
X80622568Y-85752734D01*
X80718739Y-85546496D01*
X80777635Y-85326692D01*
X80797468Y-85100000D01*
X80794203Y-85062686D01*
X80783324Y-84938331D01*
X80777635Y-84873308D01*
X80718739Y-84653504D01*
X80622568Y-84447266D01*
X80492047Y-84260861D01*
X80492045Y-84260858D01*
X80331141Y-84099954D01*
X80144734Y-83969432D01*
X80144728Y-83969429D01*
X80086725Y-83942382D01*
X80034285Y-83896210D01*
X80015133Y-83829017D01*
X80035348Y-83762135D01*
X80086725Y-83717618D01*
X80144734Y-83690568D01*
X80331139Y-83560047D01*
X80492047Y-83399139D01*
X80622568Y-83212734D01*
X80718739Y-83006496D01*
X80777635Y-82786692D01*
X80797468Y-82560000D01*
X80794203Y-82522686D01*
X80782794Y-82392274D01*
X80777635Y-82333308D01*
X80719810Y-82117500D01*
X80718741Y-82113511D01*
X80718738Y-82113502D01*
X80649425Y-81964861D01*
X80622568Y-81907266D01*
X80494583Y-81724483D01*
X80492045Y-81720858D01*
X80331141Y-81559954D01*
X80144734Y-81429432D01*
X80144728Y-81429429D01*
X80086725Y-81402382D01*
X80034285Y-81356210D01*
X80015133Y-81289017D01*
X80035348Y-81222135D01*
X80086725Y-81177618D01*
X80104535Y-81169313D01*
X80144734Y-81150568D01*
X80331139Y-81020047D01*
X80492047Y-80859139D01*
X80622568Y-80672734D01*
X80718739Y-80466496D01*
X80777635Y-80246692D01*
X80797468Y-80020000D01*
X80794203Y-79982686D01*
X80789931Y-79933848D01*
X80777635Y-79793308D01*
X80718739Y-79573504D01*
X80622568Y-79367266D01*
X80492047Y-79180861D01*
X80492045Y-79180858D01*
X80331141Y-79019954D01*
X80144734Y-78889432D01*
X80144728Y-78889429D01*
X80086725Y-78862382D01*
X80034285Y-78816210D01*
X80015133Y-78749017D01*
X80035348Y-78682135D01*
X80086725Y-78637618D01*
X80144734Y-78610568D01*
X80331139Y-78480047D01*
X80492047Y-78319139D01*
X80622568Y-78132734D01*
X80718739Y-77926496D01*
X80777635Y-77706692D01*
X80797468Y-77480000D01*
X80796560Y-77469626D01*
X80791801Y-77415230D01*
X80777635Y-77253308D01*
X80718739Y-77033504D01*
X80622568Y-76827266D01*
X80492047Y-76640861D01*
X80492045Y-76640858D01*
X80331141Y-76479954D01*
X80144734Y-76349432D01*
X80144728Y-76349429D01*
X80086725Y-76322382D01*
X80034285Y-76276210D01*
X80015133Y-76209017D01*
X80035348Y-76142135D01*
X80086725Y-76097618D01*
X80087319Y-76097341D01*
X80144734Y-76070568D01*
X80331139Y-75940047D01*
X80492047Y-75779139D01*
X80622568Y-75592734D01*
X80718739Y-75386496D01*
X80777635Y-75166692D01*
X80797468Y-74940000D01*
X80794203Y-74902686D01*
X80777635Y-74713313D01*
X80777635Y-74713308D01*
X80718739Y-74493504D01*
X80622568Y-74287266D01*
X80495328Y-74105547D01*
X80492045Y-74100858D01*
X80331141Y-73939954D01*
X80144734Y-73809432D01*
X80144732Y-73809431D01*
X79938497Y-73713261D01*
X79938488Y-73713258D01*
X79718697Y-73654366D01*
X79718693Y-73654365D01*
X79718692Y-73654365D01*
X79718691Y-73654364D01*
X79718686Y-73654364D01*
X79492002Y-73634532D01*
X79491998Y-73634532D01*
X79265313Y-73654364D01*
X79265302Y-73654366D01*
X79045511Y-73713258D01*
X79045502Y-73713261D01*
X78839267Y-73809431D01*
X78839265Y-73809432D01*
X78652858Y-73939954D01*
X78491954Y-74100858D01*
X78361432Y-74287265D01*
X78361431Y-74287267D01*
X78265261Y-74493502D01*
X78265258Y-74493511D01*
X78206366Y-74713302D01*
X78206364Y-74713313D01*
X78186532Y-74939998D01*
X78186532Y-74940001D01*
X78206364Y-75166686D01*
X78206366Y-75166697D01*
X78265258Y-75386488D01*
X78265261Y-75386497D01*
X78361431Y-75592732D01*
X78361432Y-75592734D01*
X78491954Y-75779141D01*
X78652858Y-75940045D01*
X78662768Y-75946984D01*
X78839266Y-76070568D01*
X78875236Y-76087341D01*
X78897275Y-76097618D01*
X78949714Y-76143791D01*
X78968866Y-76210984D01*
X78948650Y-76277865D01*
X78897275Y-76322382D01*
X78839267Y-76349431D01*
X78839265Y-76349432D01*
X78652858Y-76479954D01*
X78491954Y-76640858D01*
X78361432Y-76827265D01*
X78361431Y-76827267D01*
X78265261Y-77033502D01*
X78265258Y-77033511D01*
X78206366Y-77253302D01*
X78206364Y-77253313D01*
X78186532Y-77479998D01*
X78186532Y-77480001D01*
X78206364Y-77706686D01*
X78206366Y-77706697D01*
X78265258Y-77926488D01*
X78265261Y-77926497D01*
X78361431Y-78132732D01*
X78361432Y-78132734D01*
X78491954Y-78319141D01*
X78652858Y-78480045D01*
X78652861Y-78480047D01*
X78839266Y-78610568D01*
X78871140Y-78625431D01*
X78897275Y-78637618D01*
X78949714Y-78683791D01*
X78968866Y-78750984D01*
X78948650Y-78817865D01*
X78897275Y-78862382D01*
X78839267Y-78889431D01*
X78839265Y-78889432D01*
X78652858Y-79019954D01*
X78491954Y-79180858D01*
X78361432Y-79367265D01*
X78361431Y-79367267D01*
X78265261Y-79573502D01*
X78265258Y-79573511D01*
X78206366Y-79793302D01*
X78206364Y-79793313D01*
X78186532Y-80019998D01*
X78186532Y-80020001D01*
X78206364Y-80246686D01*
X78206366Y-80246697D01*
X78265258Y-80466488D01*
X78265261Y-80466497D01*
X78361431Y-80672732D01*
X78361432Y-80672734D01*
X78491954Y-80859141D01*
X78652858Y-81020045D01*
X78652861Y-81020047D01*
X78839266Y-81150568D01*
X78879454Y-81169308D01*
X78897275Y-81177618D01*
X78949714Y-81223791D01*
X78968866Y-81290984D01*
X78948650Y-81357865D01*
X78897275Y-81402382D01*
X78839267Y-81429431D01*
X78839265Y-81429432D01*
X78652858Y-81559954D01*
X78491954Y-81720858D01*
X78361432Y-81907265D01*
X78361431Y-81907267D01*
X78265261Y-82113502D01*
X78265258Y-82113511D01*
X78206366Y-82333302D01*
X78206364Y-82333313D01*
X78186532Y-82559998D01*
X78186532Y-82560001D01*
X78206364Y-82786686D01*
X78206366Y-82786697D01*
X78265258Y-83006488D01*
X78265261Y-83006497D01*
X78361431Y-83212732D01*
X78361432Y-83212734D01*
X78491954Y-83399141D01*
X78652858Y-83560045D01*
X78652861Y-83560047D01*
X78839266Y-83690568D01*
X78871140Y-83705431D01*
X78897275Y-83717618D01*
X78949714Y-83763791D01*
X78968866Y-83830984D01*
X78948650Y-83897865D01*
X78897275Y-83942382D01*
X78839267Y-83969431D01*
X78839265Y-83969432D01*
X78652858Y-84099954D01*
X78491954Y-84260858D01*
X78361432Y-84447265D01*
X78361431Y-84447267D01*
X78265261Y-84653502D01*
X78265258Y-84653511D01*
X78206366Y-84873302D01*
X78206364Y-84873313D01*
X78186532Y-85099998D01*
X78186532Y-85100001D01*
X78206364Y-85326686D01*
X78206366Y-85326697D01*
X78265258Y-85546488D01*
X78265261Y-85546497D01*
X78361431Y-85752732D01*
X78361432Y-85752734D01*
X78491954Y-85939141D01*
X78652858Y-86100045D01*
X78652861Y-86100047D01*
X78839266Y-86230568D01*
X78871140Y-86245431D01*
X78897275Y-86257618D01*
X78949714Y-86303791D01*
X78968866Y-86370984D01*
X78948650Y-86437865D01*
X78897275Y-86482382D01*
X78839267Y-86509431D01*
X78839265Y-86509432D01*
X78652858Y-86639954D01*
X78491954Y-86800858D01*
X78361432Y-86987265D01*
X78361431Y-86987267D01*
X78265261Y-87193502D01*
X78265258Y-87193511D01*
X78206366Y-87413302D01*
X78206364Y-87413313D01*
X78186532Y-87639998D01*
X78186532Y-87640001D01*
X78206364Y-87866686D01*
X78206366Y-87866697D01*
X78265258Y-88086488D01*
X78265261Y-88086497D01*
X78361431Y-88292732D01*
X78361432Y-88292734D01*
X78491954Y-88479141D01*
X78652858Y-88640045D01*
X78678632Y-88658092D01*
X78839266Y-88770568D01*
X78871140Y-88785431D01*
X78897275Y-88797618D01*
X78949714Y-88843791D01*
X78968866Y-88910984D01*
X78948650Y-88977865D01*
X78897275Y-89022381D01*
X78897118Y-89022455D01*
X78839267Y-89049431D01*
X78839265Y-89049432D01*
X78652858Y-89179954D01*
X78491954Y-89340858D01*
X78361432Y-89527265D01*
X78361431Y-89527267D01*
X78265261Y-89733502D01*
X78265258Y-89733511D01*
X78206366Y-89953302D01*
X78206364Y-89953313D01*
X78186532Y-90179998D01*
X78186532Y-90180001D01*
X76220500Y-90180001D01*
X76220499Y-89322128D01*
X76214172Y-89263266D01*
X76214091Y-89262516D01*
X76163797Y-89127671D01*
X76163793Y-89127664D01*
X76077547Y-89012455D01*
X76077544Y-89012452D01*
X75962335Y-88926206D01*
X75962328Y-88926202D01*
X75827482Y-88875908D01*
X75827483Y-88875908D01*
X75792404Y-88872137D01*
X75727853Y-88845399D01*
X75688005Y-88788006D01*
X75685512Y-88718181D01*
X75721165Y-88658092D01*
X75734539Y-88647272D01*
X75759140Y-88630046D01*
X75920045Y-88469141D01*
X75920047Y-88469139D01*
X76050568Y-88282734D01*
X76146739Y-88076496D01*
X76205635Y-87856692D01*
X76225118Y-87633999D01*
X76225468Y-87630001D01*
X76225468Y-87629998D01*
X76214875Y-87508920D01*
X76205635Y-87403308D01*
X76149420Y-87193511D01*
X76146741Y-87183511D01*
X76146738Y-87183502D01*
X76050568Y-86977266D01*
X75920047Y-86790861D01*
X75920045Y-86790858D01*
X75759141Y-86629954D01*
X75572734Y-86499432D01*
X75572728Y-86499429D01*
X75514725Y-86472382D01*
X75462285Y-86426210D01*
X75443133Y-86359017D01*
X75463348Y-86292135D01*
X75514725Y-86247618D01*
X75519415Y-86245431D01*
X75572734Y-86220568D01*
X75759139Y-86090047D01*
X75920047Y-85929139D01*
X76050568Y-85742734D01*
X76146739Y-85536496D01*
X76205635Y-85316692D01*
X76225468Y-85090000D01*
X76205635Y-84863308D01*
X76149420Y-84653511D01*
X76146741Y-84643511D01*
X76146738Y-84643502D01*
X76117547Y-84580903D01*
X76050568Y-84437266D01*
X75920047Y-84250861D01*
X75920045Y-84250858D01*
X75759141Y-84089954D01*
X75572734Y-83959432D01*
X75572728Y-83959429D01*
X75514725Y-83932382D01*
X75462285Y-83886210D01*
X75443133Y-83819017D01*
X75463348Y-83752135D01*
X75514725Y-83707618D01*
X75519415Y-83705431D01*
X75572734Y-83680568D01*
X75759139Y-83550047D01*
X75920047Y-83389139D01*
X76050568Y-83202734D01*
X76146739Y-82996496D01*
X76205635Y-82776692D01*
X76225468Y-82550000D01*
X76205635Y-82323308D01*
X76149420Y-82113511D01*
X76146741Y-82103511D01*
X76146738Y-82103502D01*
X76086604Y-81974546D01*
X76050568Y-81897266D01*
X75929585Y-81724483D01*
X75920045Y-81710858D01*
X75759141Y-81549954D01*
X75572734Y-81419432D01*
X75572728Y-81419429D01*
X75522480Y-81395998D01*
X75514724Y-81392381D01*
X75462285Y-81346210D01*
X75443133Y-81279017D01*
X75463348Y-81212135D01*
X75514725Y-81167618D01*
X75519415Y-81165431D01*
X75572734Y-81140568D01*
X75759139Y-81010047D01*
X75920047Y-80849139D01*
X76050568Y-80662734D01*
X76146739Y-80456496D01*
X76205635Y-80236692D01*
X76225468Y-80010000D01*
X76205635Y-79783308D01*
X76149420Y-79573511D01*
X76146741Y-79563511D01*
X76146738Y-79563502D01*
X76144850Y-79559454D01*
X76050568Y-79357266D01*
X75920047Y-79170861D01*
X75920045Y-79170858D01*
X75759141Y-79009954D01*
X75572734Y-78879432D01*
X75572728Y-78879429D01*
X75514725Y-78852382D01*
X75462285Y-78806210D01*
X75443133Y-78739017D01*
X75463348Y-78672135D01*
X75514725Y-78627618D01*
X75519415Y-78625431D01*
X75572734Y-78600568D01*
X75759139Y-78470047D01*
X75920047Y-78309139D01*
X76050568Y-78122734D01*
X76146739Y-77916496D01*
X76205635Y-77696692D01*
X76225118Y-77473999D01*
X76225468Y-77470001D01*
X76225468Y-77469998D01*
X76214269Y-77341999D01*
X76205635Y-77243308D01*
X76149420Y-77033511D01*
X76146741Y-77023511D01*
X76146738Y-77023502D01*
X76118087Y-76962061D01*
X76050568Y-76817266D01*
X75920047Y-76630861D01*
X75920045Y-76630858D01*
X75759141Y-76469954D01*
X75572734Y-76339432D01*
X75572732Y-76339431D01*
X75536170Y-76322382D01*
X75514132Y-76312105D01*
X75461694Y-76265934D01*
X75442542Y-76198740D01*
X75462758Y-76131859D01*
X75514134Y-76087341D01*
X75572484Y-76060132D01*
X75758820Y-75929657D01*
X75919657Y-75768820D01*
X76050134Y-75582482D01*
X76146265Y-75376326D01*
X76146269Y-75376317D01*
X76198872Y-75180000D01*
X75235686Y-75180000D01*
X75247641Y-75168045D01*
X75305165Y-75055148D01*
X75324986Y-74930000D01*
X75305165Y-74804852D01*
X75247641Y-74691955D01*
X75235686Y-74680000D01*
X76198872Y-74680000D01*
X76198872Y-74679999D01*
X76146269Y-74483682D01*
X76146265Y-74483673D01*
X76050134Y-74277517D01*
X75919657Y-74091179D01*
X75758820Y-73930342D01*
X75572482Y-73799865D01*
X75366328Y-73703734D01*
X75170000Y-73651127D01*
X75170000Y-74614314D01*
X75158045Y-74602359D01*
X75045148Y-74544835D01*
X74951481Y-74530000D01*
X74888519Y-74530000D01*
X74794852Y-74544835D01*
X74681955Y-74602359D01*
X74670000Y-74614314D01*
X74670000Y-73651127D01*
X74473671Y-73703734D01*
X74267517Y-73799865D01*
X74081179Y-73930342D01*
X73920342Y-74091179D01*
X73789865Y-74277517D01*
X73693734Y-74483673D01*
X73693730Y-74483682D01*
X73641127Y-74679999D01*
X73641128Y-74680000D01*
X74604314Y-74680000D01*
X74592359Y-74691955D01*
X74534835Y-74804852D01*
X74515014Y-74930000D01*
X74534835Y-75055148D01*
X74592359Y-75168045D01*
X74604314Y-75180000D01*
X73641128Y-75180000D01*
X73693730Y-75376317D01*
X73693734Y-75376326D01*
X73789865Y-75582482D01*
X73920342Y-75768820D01*
X74081179Y-75929657D01*
X74267518Y-76060134D01*
X74267520Y-76060135D01*
X74325865Y-76087342D01*
X74378305Y-76133514D01*
X74397457Y-76200707D01*
X74377242Y-76267589D01*
X74325867Y-76312105D01*
X74303830Y-76322382D01*
X74267264Y-76339433D01*
X74080858Y-76469954D01*
X73919954Y-76630858D01*
X73789432Y-76817265D01*
X73789431Y-76817267D01*
X73693261Y-77023502D01*
X73693258Y-77023511D01*
X73634366Y-77243302D01*
X73634364Y-77243313D01*
X73614532Y-77469998D01*
X73614532Y-77470001D01*
X73634364Y-77696686D01*
X73634366Y-77696697D01*
X73693258Y-77916488D01*
X73693261Y-77916497D01*
X73789431Y-78122732D01*
X73789432Y-78122734D01*
X73919954Y-78309141D01*
X74080858Y-78470045D01*
X74103644Y-78486000D01*
X74267266Y-78600568D01*
X74320585Y-78625431D01*
X74325275Y-78627618D01*
X74377714Y-78673791D01*
X74396866Y-78740984D01*
X74376650Y-78807865D01*
X74325275Y-78852382D01*
X74267267Y-78879431D01*
X74267265Y-78879432D01*
X74080858Y-79009954D01*
X73919954Y-79170858D01*
X73789432Y-79357265D01*
X73789431Y-79357267D01*
X73693261Y-79563502D01*
X73693258Y-79563511D01*
X73634366Y-79783302D01*
X73634364Y-79783313D01*
X73614532Y-80009998D01*
X73614532Y-80010001D01*
X73634364Y-80236686D01*
X73634366Y-80236697D01*
X73693258Y-80456488D01*
X73693261Y-80456497D01*
X73789431Y-80662732D01*
X73789432Y-80662734D01*
X73919954Y-80849141D01*
X74080858Y-81010045D01*
X74103644Y-81026000D01*
X74267266Y-81140568D01*
X74320585Y-81165431D01*
X74325275Y-81167618D01*
X74377714Y-81213791D01*
X74396866Y-81280984D01*
X74376650Y-81347865D01*
X74325275Y-81392381D01*
X74317520Y-81395998D01*
X74267267Y-81419431D01*
X74267265Y-81419432D01*
X74080858Y-81549954D01*
X73919954Y-81710858D01*
X73789432Y-81897265D01*
X73789431Y-81897267D01*
X73693261Y-82103502D01*
X73693258Y-82103511D01*
X73634366Y-82323302D01*
X73634364Y-82323313D01*
X73614532Y-82549998D01*
X73614532Y-82550001D01*
X73634364Y-82776686D01*
X73634366Y-82776697D01*
X73693258Y-82996488D01*
X73693261Y-82996497D01*
X73789431Y-83202732D01*
X73789432Y-83202734D01*
X73919954Y-83389141D01*
X74080858Y-83550045D01*
X74103644Y-83566000D01*
X74267266Y-83680568D01*
X74320585Y-83705431D01*
X74325275Y-83707618D01*
X74377714Y-83753791D01*
X74396866Y-83820984D01*
X74376650Y-83887865D01*
X74325275Y-83932382D01*
X74267267Y-83959431D01*
X74267265Y-83959432D01*
X74080858Y-84089954D01*
X73919954Y-84250858D01*
X73789432Y-84437265D01*
X73789431Y-84437267D01*
X73693261Y-84643502D01*
X73693258Y-84643511D01*
X73634366Y-84863302D01*
X73634364Y-84863313D01*
X73614532Y-85089998D01*
X73614532Y-85090001D01*
X73634364Y-85316686D01*
X73634366Y-85316697D01*
X73693258Y-85536488D01*
X73693261Y-85536497D01*
X73789431Y-85742732D01*
X73789432Y-85742734D01*
X73919954Y-85929141D01*
X74080858Y-86090045D01*
X74103644Y-86106000D01*
X74267266Y-86220568D01*
X74320585Y-86245431D01*
X74325275Y-86247618D01*
X74377714Y-86293791D01*
X74396866Y-86360984D01*
X74376650Y-86427865D01*
X74325275Y-86472382D01*
X74267267Y-86499431D01*
X74267265Y-86499432D01*
X74080858Y-86629954D01*
X73919954Y-86790858D01*
X73789432Y-86977265D01*
X73789431Y-86977267D01*
X73693261Y-87183502D01*
X73693258Y-87183511D01*
X73634366Y-87403302D01*
X73634364Y-87403313D01*
X73614532Y-87629998D01*
X73614532Y-87630001D01*
X73634364Y-87856686D01*
X73634366Y-87856697D01*
X73693258Y-88076488D01*
X73693261Y-88076497D01*
X73789431Y-88282732D01*
X73789432Y-88282734D01*
X73919954Y-88469141D01*
X74080858Y-88630045D01*
X74105462Y-88647273D01*
X74149087Y-88701849D01*
X74156281Y-88771348D01*
X74124758Y-88833703D01*
X74064529Y-88869117D01*
X74047593Y-88872138D01*
X74012516Y-88875908D01*
X73877671Y-88926202D01*
X73877664Y-88926206D01*
X73762455Y-89012452D01*
X73762452Y-89012455D01*
X73676206Y-89127664D01*
X73676202Y-89127671D01*
X73625910Y-89262513D01*
X73625909Y-89262517D01*
X73620937Y-89308757D01*
X73594201Y-89373306D01*
X73536809Y-89413154D01*
X73497649Y-89419500D01*
X73260230Y-89419500D01*
X73193191Y-89399815D01*
X73172549Y-89383181D01*
X72160819Y-88371451D01*
X72127334Y-88310128D01*
X72124500Y-88283770D01*
X72124500Y-79067705D01*
X72125809Y-79049735D01*
X72127567Y-79037730D01*
X72129289Y-79025977D01*
X72124735Y-78973931D01*
X72124500Y-78968528D01*
X72124500Y-78960297D01*
X72124500Y-78960291D01*
X72120693Y-78927724D01*
X72117343Y-78889429D01*
X72113999Y-78851201D01*
X72112539Y-78844129D01*
X72112597Y-78844116D01*
X72110965Y-78836757D01*
X72110906Y-78836772D01*
X72109241Y-78829751D01*
X72109241Y-78829745D01*
X72095962Y-78793261D01*
X72082974Y-78757575D01*
X72058813Y-78684663D01*
X72055764Y-78678124D01*
X72055817Y-78678099D01*
X72052531Y-78671311D01*
X72052479Y-78671338D01*
X72049236Y-78664882D01*
X72040971Y-78652316D01*
X72007034Y-78600716D01*
X71966712Y-78535344D01*
X71966710Y-78535342D01*
X71962234Y-78529681D01*
X71962280Y-78529643D01*
X71957519Y-78523799D01*
X71957474Y-78523838D01*
X71952834Y-78518308D01*
X71896982Y-78465613D01*
X68626716Y-75195348D01*
X68593231Y-75134025D01*
X68590869Y-75096863D01*
X68605468Y-74930000D01*
X68585635Y-74703308D01*
X68529420Y-74493511D01*
X68526741Y-74483511D01*
X68526738Y-74483502D01*
X68499924Y-74425999D01*
X68430568Y-74277266D01*
X68310330Y-74105547D01*
X68300045Y-74090858D01*
X68139141Y-73929954D01*
X67952734Y-73799432D01*
X67952732Y-73799431D01*
X67746497Y-73703261D01*
X67746488Y-73703258D01*
X67526697Y-73644366D01*
X67526693Y-73644365D01*
X67526692Y-73644365D01*
X67526691Y-73644364D01*
X67526686Y-73644364D01*
X67300002Y-73624532D01*
X67299998Y-73624532D01*
X67073313Y-73644364D01*
X67073302Y-73644366D01*
X66853511Y-73703258D01*
X66853502Y-73703261D01*
X66647267Y-73799431D01*
X66647265Y-73799432D01*
X66460858Y-73929954D01*
X66299954Y-74090858D01*
X66169432Y-74277265D01*
X66169431Y-74277267D01*
X66073261Y-74483502D01*
X66073258Y-74483511D01*
X66014366Y-74703302D01*
X66014364Y-74703313D01*
X65994532Y-74929998D01*
X65994532Y-74930001D01*
X66014364Y-75156686D01*
X66014366Y-75156697D01*
X66073258Y-75376488D01*
X66073261Y-75376497D01*
X66169431Y-75582732D01*
X66169432Y-75582734D01*
X66299954Y-75769141D01*
X66460858Y-75930045D01*
X66495432Y-75954254D01*
X66647266Y-76060568D01*
X66700585Y-76085431D01*
X66705275Y-76087618D01*
X66757714Y-76133791D01*
X66776866Y-76200984D01*
X66756650Y-76267865D01*
X66705275Y-76312382D01*
X66647267Y-76339431D01*
X66647265Y-76339432D01*
X66460858Y-76469954D01*
X66299954Y-76630858D01*
X66169432Y-76817265D01*
X66169431Y-76817267D01*
X66073261Y-77023502D01*
X66073258Y-77023511D01*
X66014366Y-77243302D01*
X66014364Y-77243313D01*
X65994532Y-77469998D01*
X65994532Y-77470001D01*
X66014364Y-77696686D01*
X66014366Y-77696697D01*
X66073258Y-77916488D01*
X66073261Y-77916497D01*
X66169431Y-78122732D01*
X66169432Y-78122734D01*
X66299954Y-78309141D01*
X66460858Y-78470045D01*
X66483644Y-78486000D01*
X66647266Y-78600568D01*
X66700585Y-78625431D01*
X66705275Y-78627618D01*
X66757714Y-78673791D01*
X66776866Y-78740984D01*
X66756650Y-78807865D01*
X66705275Y-78852382D01*
X66647267Y-78879431D01*
X66647265Y-78879432D01*
X66460858Y-79009954D01*
X66299954Y-79170858D01*
X66169432Y-79357265D01*
X66169431Y-79357267D01*
X66073261Y-79563502D01*
X66073258Y-79563511D01*
X66014366Y-79783302D01*
X66014364Y-79783313D01*
X65994532Y-80009998D01*
X65994532Y-80010001D01*
X66014364Y-80236686D01*
X66014366Y-80236697D01*
X66073258Y-80456488D01*
X66073261Y-80456497D01*
X66169431Y-80662732D01*
X66169432Y-80662734D01*
X66299954Y-80849141D01*
X66460858Y-81010045D01*
X66483644Y-81026000D01*
X66647266Y-81140568D01*
X66700585Y-81165431D01*
X66705275Y-81167618D01*
X66757714Y-81213791D01*
X66776866Y-81280984D01*
X66756650Y-81347865D01*
X66705275Y-81392381D01*
X66697520Y-81395998D01*
X66647267Y-81419431D01*
X66647265Y-81419432D01*
X66460858Y-81549954D01*
X66299954Y-81710858D01*
X66169432Y-81897265D01*
X66169431Y-81897267D01*
X66073261Y-82103502D01*
X66073258Y-82103511D01*
X66014366Y-82323302D01*
X66014364Y-82323313D01*
X65994532Y-82549998D01*
X65994532Y-82550001D01*
X66014364Y-82776686D01*
X66014366Y-82776697D01*
X66073258Y-82996488D01*
X66073261Y-82996497D01*
X66169431Y-83202732D01*
X66169432Y-83202734D01*
X66299954Y-83389141D01*
X66460858Y-83550045D01*
X66483644Y-83566000D01*
X66647266Y-83680568D01*
X66700585Y-83705431D01*
X66705275Y-83707618D01*
X66757714Y-83753791D01*
X66776866Y-83820984D01*
X66756650Y-83887865D01*
X66705275Y-83932382D01*
X66647267Y-83959431D01*
X66647265Y-83959432D01*
X66460858Y-84089954D01*
X66299954Y-84250858D01*
X66169432Y-84437265D01*
X66169431Y-84437267D01*
X66073261Y-84643502D01*
X66073258Y-84643511D01*
X66014366Y-84863302D01*
X66014364Y-84863313D01*
X65994532Y-85089998D01*
X65994532Y-85090001D01*
X66014364Y-85316686D01*
X66014366Y-85316697D01*
X66073258Y-85536488D01*
X66073261Y-85536497D01*
X66169431Y-85742732D01*
X66169432Y-85742734D01*
X66299954Y-85929141D01*
X66460858Y-86090045D01*
X66483644Y-86106000D01*
X66647266Y-86220568D01*
X66700585Y-86245431D01*
X66705275Y-86247618D01*
X66757714Y-86293791D01*
X66776866Y-86360984D01*
X66756650Y-86427865D01*
X66705275Y-86472382D01*
X66647267Y-86499431D01*
X66647265Y-86499432D01*
X66460858Y-86629954D01*
X66299954Y-86790858D01*
X66169432Y-86977265D01*
X66169431Y-86977267D01*
X66073261Y-87183502D01*
X66073258Y-87183511D01*
X66014366Y-87403302D01*
X66014364Y-87403313D01*
X65994532Y-87629998D01*
X65994532Y-87630001D01*
X66014364Y-87856686D01*
X66014366Y-87856697D01*
X66073258Y-88076488D01*
X66073261Y-88076497D01*
X66169431Y-88282732D01*
X66169432Y-88282734D01*
X66299954Y-88469141D01*
X66460858Y-88630045D01*
X66490050Y-88650485D01*
X66647266Y-88760568D01*
X66700585Y-88785431D01*
X66705275Y-88787618D01*
X66757714Y-88833791D01*
X66776866Y-88900984D01*
X66756650Y-88967865D01*
X66705275Y-89012381D01*
X66705118Y-89012455D01*
X66647267Y-89039431D01*
X66647265Y-89039432D01*
X66460858Y-89169954D01*
X66299954Y-89330858D01*
X66169432Y-89517265D01*
X66169431Y-89517267D01*
X66073261Y-89723502D01*
X66073258Y-89723511D01*
X66014366Y-89943302D01*
X66014364Y-89943313D01*
X65994532Y-90169998D01*
X65994532Y-90170001D01*
X46228500Y-90170001D01*
X46228500Y-87634000D01*
X49858385Y-87634000D01*
X52874589Y-87634000D01*
X52849466Y-87731030D01*
X52839114Y-87935165D01*
X52869574Y-88134000D01*
X49861793Y-88134000D01*
X49874375Y-88259076D01*
X49874376Y-88259079D01*
X49944208Y-88552107D01*
X49944210Y-88552116D01*
X50052474Y-88833216D01*
X50052481Y-88833231D01*
X50197248Y-89097395D01*
X50197252Y-89097401D01*
X50375935Y-89339911D01*
X50585355Y-89556451D01*
X50585362Y-89556457D01*
X50821768Y-89743145D01*
X51080948Y-89896657D01*
X51080966Y-89896666D01*
X51358283Y-90014260D01*
X51358300Y-90014265D01*
X51648826Y-90093848D01*
X51947384Y-90134000D01*
X53598000Y-90134000D01*
X53598000Y-88858625D01*
X53745801Y-88889000D01*
X53898967Y-88889000D01*
X54051348Y-88873504D01*
X54098000Y-88858867D01*
X54098000Y-90134000D01*
X55673236Y-90134000D01*
X55898564Y-90118915D01*
X55898573Y-90118913D01*
X56193758Y-90058916D01*
X56193773Y-90058912D01*
X56478343Y-89960098D01*
X56478346Y-89960096D01*
X56747198Y-89824240D01*
X56995564Y-89653745D01*
X57218971Y-89451685D01*
X57413464Y-89221638D01*
X57575554Y-88967728D01*
X57575555Y-88967726D01*
X57702351Y-88694485D01*
X57702356Y-88694471D01*
X57791605Y-88406765D01*
X57837615Y-88134000D01*
X54821411Y-88134000D01*
X54846534Y-88036970D01*
X54856886Y-87832835D01*
X54826426Y-87634000D01*
X57834207Y-87634000D01*
X57834207Y-87633999D01*
X57821624Y-87508923D01*
X57821623Y-87508920D01*
X57751791Y-87215892D01*
X57751789Y-87215883D01*
X57643525Y-86934783D01*
X57643518Y-86934768D01*
X57498751Y-86670604D01*
X57498747Y-86670598D01*
X57320064Y-86428088D01*
X57110644Y-86211548D01*
X57110637Y-86211542D01*
X56874231Y-86024854D01*
X56615051Y-85871342D01*
X56615033Y-85871333D01*
X56337716Y-85753739D01*
X56337699Y-85753734D01*
X56047173Y-85674151D01*
X55748617Y-85634000D01*
X54098000Y-85634000D01*
X54098000Y-86909374D01*
X53950199Y-86879000D01*
X53797033Y-86879000D01*
X53644652Y-86894496D01*
X53598000Y-86909132D01*
X53598000Y-85634000D01*
X52022764Y-85634000D01*
X51797435Y-85649084D01*
X51797426Y-85649086D01*
X51502241Y-85709083D01*
X51502226Y-85709087D01*
X51217656Y-85807901D01*
X51217653Y-85807903D01*
X50948801Y-85943759D01*
X50700435Y-86114254D01*
X50477028Y-86316314D01*
X50282535Y-86546361D01*
X50120445Y-86800271D01*
X50120444Y-86800273D01*
X49993648Y-87073514D01*
X49993643Y-87073528D01*
X49904394Y-87361234D01*
X49858385Y-87634000D01*
X46228500Y-87634000D01*
X46228500Y-82804001D01*
X57172532Y-82804001D01*
X57192364Y-83030686D01*
X57192366Y-83030697D01*
X57251258Y-83250488D01*
X57251261Y-83250497D01*
X57347431Y-83456732D01*
X57347432Y-83456734D01*
X57477954Y-83643141D01*
X57638858Y-83804045D01*
X57661644Y-83820000D01*
X57825266Y-83934568D01*
X58031504Y-84030739D01*
X58251308Y-84089635D01*
X58421216Y-84104500D01*
X59434784Y-84104500D01*
X59604692Y-84089635D01*
X59824496Y-84030739D01*
X60030734Y-83934568D01*
X60217139Y-83804047D01*
X60378047Y-83643139D01*
X60508568Y-83456734D01*
X60578391Y-83307000D01*
X62652341Y-83307000D01*
X62672936Y-83542403D01*
X62672938Y-83542413D01*
X62734094Y-83770655D01*
X62734096Y-83770659D01*
X62734097Y-83770663D01*
X62814171Y-83942382D01*
X62833965Y-83984830D01*
X62833967Y-83984834D01*
X62914575Y-84099953D01*
X62969505Y-84178401D01*
X63136599Y-84345495D01*
X63233384Y-84413265D01*
X63330165Y-84481032D01*
X63330167Y-84481033D01*
X63330170Y-84481035D01*
X63544337Y-84580903D01*
X63772592Y-84642063D01*
X63960918Y-84658539D01*
X64007999Y-84662659D01*
X64008000Y-84662659D01*
X64008001Y-84662659D01*
X64047234Y-84659226D01*
X64243408Y-84642063D01*
X64471663Y-84580903D01*
X64685830Y-84481035D01*
X64879401Y-84345495D01*
X65046495Y-84178401D01*
X65182035Y-83984830D01*
X65281903Y-83770663D01*
X65343063Y-83542408D01*
X65363659Y-83307000D01*
X65343063Y-83071592D01*
X65284672Y-82853671D01*
X65281905Y-82843344D01*
X65281904Y-82843343D01*
X65281903Y-82843337D01*
X65182035Y-82629171D01*
X65177531Y-82622739D01*
X65046496Y-82435600D01*
X65003169Y-82392273D01*
X64924567Y-82313671D01*
X64891084Y-82252351D01*
X64896068Y-82182659D01*
X64937939Y-82126725D01*
X64968915Y-82109810D01*
X65100331Y-82060796D01*
X65215546Y-81974546D01*
X65301796Y-81859331D01*
X65352091Y-81724483D01*
X65358500Y-81664873D01*
X65358499Y-79869128D01*
X65352091Y-79809517D01*
X65348577Y-79800096D01*
X65301797Y-79674671D01*
X65301793Y-79674664D01*
X65215547Y-79559455D01*
X65215544Y-79559452D01*
X65100335Y-79473206D01*
X65100328Y-79473202D01*
X64965482Y-79422908D01*
X64965483Y-79422908D01*
X64905883Y-79416501D01*
X64905881Y-79416500D01*
X64905873Y-79416500D01*
X64905864Y-79416500D01*
X63110129Y-79416500D01*
X63110123Y-79416501D01*
X63050516Y-79422908D01*
X62915671Y-79473202D01*
X62915664Y-79473206D01*
X62800455Y-79559452D01*
X62800452Y-79559455D01*
X62714206Y-79674664D01*
X62714202Y-79674671D01*
X62663908Y-79809517D01*
X62662889Y-79819000D01*
X62657501Y-79869123D01*
X62657500Y-79869135D01*
X62657500Y-81664870D01*
X62657501Y-81664876D01*
X62663908Y-81724483D01*
X62714202Y-81859328D01*
X62714206Y-81859335D01*
X62800452Y-81974544D01*
X62800455Y-81974547D01*
X62915664Y-82060793D01*
X62915671Y-82060797D01*
X63047081Y-82109810D01*
X63103015Y-82151681D01*
X63127432Y-82217145D01*
X63112580Y-82285418D01*
X63091430Y-82313673D01*
X62969503Y-82435600D01*
X62833965Y-82629169D01*
X62833964Y-82629171D01*
X62734098Y-82843335D01*
X62734094Y-82843344D01*
X62672938Y-83071586D01*
X62672936Y-83071596D01*
X62652341Y-83306999D01*
X62652341Y-83307000D01*
X60578391Y-83307000D01*
X60604739Y-83250496D01*
X60663635Y-83030692D01*
X60683468Y-82804000D01*
X60680914Y-82774813D01*
X60672762Y-82681635D01*
X60663635Y-82577308D01*
X60604739Y-82357504D01*
X60508568Y-82151266D01*
X60384829Y-81974547D01*
X60378045Y-81964858D01*
X60217141Y-81803954D01*
X60030734Y-81673432D01*
X60030732Y-81673431D01*
X60012360Y-81664864D01*
X59972132Y-81646105D01*
X59919694Y-81599934D01*
X59900542Y-81532740D01*
X59920758Y-81465859D01*
X59972134Y-81421341D01*
X60030484Y-81394132D01*
X60216820Y-81263657D01*
X60377657Y-81102820D01*
X60508134Y-80916482D01*
X60604265Y-80710326D01*
X60604269Y-80710317D01*
X60656872Y-80514000D01*
X59297503Y-80514000D01*
X59346917Y-80428413D01*
X59376768Y-80297630D01*
X59366743Y-80163860D01*
X59317734Y-80038987D01*
X59297807Y-80014000D01*
X60656872Y-80014000D01*
X60656872Y-80013999D01*
X60604269Y-79817682D01*
X60604265Y-79817673D01*
X60508134Y-79611517D01*
X60377657Y-79425179D01*
X60216820Y-79264342D01*
X60030482Y-79133865D01*
X59824326Y-79037734D01*
X59824317Y-79037730D01*
X59604610Y-78978860D01*
X59604599Y-78978858D01*
X59434763Y-78964000D01*
X59178000Y-78964000D01*
X59178000Y-79895862D01*
X59123259Y-79858541D01*
X58995073Y-79819000D01*
X58894654Y-79819000D01*
X58795353Y-79833967D01*
X58678000Y-79890481D01*
X58678000Y-78964000D01*
X58421237Y-78964000D01*
X58251400Y-78978858D01*
X58251389Y-78978860D01*
X58031682Y-79037730D01*
X58031673Y-79037734D01*
X57825517Y-79133865D01*
X57639179Y-79264342D01*
X57478342Y-79425179D01*
X57347865Y-79611517D01*
X57251734Y-79817673D01*
X57251730Y-79817682D01*
X57199127Y-80013999D01*
X57199128Y-80014000D01*
X58558497Y-80014000D01*
X58509083Y-80099587D01*
X58479232Y-80230370D01*
X58489257Y-80364140D01*
X58538266Y-80489013D01*
X58558193Y-80514000D01*
X57199128Y-80514000D01*
X57251730Y-80710317D01*
X57251734Y-80710326D01*
X57347865Y-80916482D01*
X57478342Y-81102820D01*
X57639179Y-81263657D01*
X57825518Y-81394134D01*
X57825520Y-81394135D01*
X57883865Y-81421342D01*
X57936305Y-81467514D01*
X57955457Y-81534707D01*
X57935242Y-81601589D01*
X57883867Y-81646105D01*
X57825268Y-81673431D01*
X57825264Y-81673433D01*
X57638858Y-81803954D01*
X57477954Y-81964858D01*
X57347432Y-82151265D01*
X57347431Y-82151267D01*
X57251261Y-82357502D01*
X57251258Y-82357511D01*
X57192366Y-82577302D01*
X57192364Y-82577313D01*
X57172532Y-82803998D01*
X57172532Y-82804001D01*
X46228500Y-82804001D01*
X46228500Y-77474000D01*
X49858385Y-77474000D01*
X52874589Y-77474000D01*
X52849466Y-77571030D01*
X52839114Y-77775165D01*
X52869574Y-77974000D01*
X49861793Y-77974000D01*
X49874375Y-78099076D01*
X49874376Y-78099079D01*
X49944208Y-78392107D01*
X49944210Y-78392116D01*
X50052474Y-78673216D01*
X50052481Y-78673231D01*
X50197248Y-78937395D01*
X50197252Y-78937401D01*
X50375935Y-79179911D01*
X50585355Y-79396451D01*
X50585362Y-79396457D01*
X50821768Y-79583145D01*
X51080948Y-79736657D01*
X51080966Y-79736666D01*
X51358283Y-79854260D01*
X51358300Y-79854265D01*
X51648826Y-79933848D01*
X51947384Y-79974000D01*
X53598000Y-79974000D01*
X53598000Y-78698625D01*
X53745801Y-78729000D01*
X53898967Y-78729000D01*
X54051348Y-78713504D01*
X54098000Y-78698867D01*
X54098000Y-79974000D01*
X55673236Y-79974000D01*
X55898564Y-79958915D01*
X55898573Y-79958913D01*
X56193758Y-79898916D01*
X56193773Y-79898912D01*
X56478343Y-79800098D01*
X56478346Y-79800096D01*
X56747198Y-79664240D01*
X56995564Y-79493745D01*
X57218971Y-79291685D01*
X57413464Y-79061638D01*
X57575554Y-78807728D01*
X57575555Y-78807726D01*
X57702351Y-78534485D01*
X57702356Y-78534471D01*
X57791605Y-78246765D01*
X57837615Y-77974000D01*
X54821411Y-77974000D01*
X54846534Y-77876970D01*
X54856886Y-77672835D01*
X54826426Y-77474000D01*
X57834207Y-77474000D01*
X57834207Y-77473999D01*
X57821624Y-77348923D01*
X57821623Y-77348920D01*
X57751791Y-77055892D01*
X57751789Y-77055883D01*
X57643525Y-76774783D01*
X57643518Y-76774768D01*
X57498751Y-76510604D01*
X57498747Y-76510598D01*
X57320064Y-76268088D01*
X57110644Y-76051548D01*
X57110637Y-76051542D01*
X56874231Y-75864854D01*
X56615051Y-75711342D01*
X56615033Y-75711333D01*
X56337716Y-75593739D01*
X56337699Y-75593734D01*
X56047173Y-75514151D01*
X55748617Y-75474000D01*
X54098000Y-75474000D01*
X54098000Y-76749374D01*
X53950199Y-76719000D01*
X53797033Y-76719000D01*
X53644652Y-76734496D01*
X53598000Y-76749132D01*
X53598000Y-75474000D01*
X52022764Y-75474000D01*
X51797435Y-75489084D01*
X51797426Y-75489086D01*
X51502241Y-75549083D01*
X51502226Y-75549087D01*
X51217656Y-75647901D01*
X51217653Y-75647903D01*
X50948801Y-75783759D01*
X50700435Y-75954254D01*
X50477028Y-76156314D01*
X50282535Y-76386361D01*
X50120445Y-76640271D01*
X50120444Y-76640273D01*
X49993648Y-76913514D01*
X49993643Y-76913528D01*
X49904394Y-77201234D01*
X49858385Y-77474000D01*
X46228500Y-77474000D01*
X46228500Y-70171763D01*
X47929787Y-70171763D01*
X47959413Y-70441013D01*
X47959415Y-70441024D01*
X48024192Y-70688798D01*
X48027928Y-70703088D01*
X48133870Y-70952390D01*
X48184639Y-71035578D01*
X48274979Y-71183605D01*
X48274986Y-71183615D01*
X48448253Y-71391819D01*
X48448259Y-71391824D01*
X48549068Y-71482149D01*
X48649998Y-71572582D01*
X48875910Y-71722044D01*
X49121176Y-71837020D01*
X49121183Y-71837022D01*
X49121185Y-71837023D01*
X49380557Y-71915057D01*
X49380564Y-71915058D01*
X49380569Y-71915060D01*
X49648561Y-71954500D01*
X49648566Y-71954500D01*
X49851636Y-71954500D01*
X49903133Y-71950730D01*
X50054156Y-71939677D01*
X50166758Y-71914593D01*
X50318546Y-71880782D01*
X50318548Y-71880781D01*
X50318553Y-71880780D01*
X50571558Y-71784014D01*
X50807777Y-71651441D01*
X51022177Y-71485888D01*
X51210186Y-71290881D01*
X51367799Y-71070579D01*
X51441787Y-70926669D01*
X51491649Y-70829690D01*
X51491651Y-70829684D01*
X51491656Y-70829675D01*
X51579118Y-70573305D01*
X51628319Y-70306933D01*
X51638212Y-70036235D01*
X51608586Y-69766982D01*
X51540072Y-69504912D01*
X51434130Y-69255610D01*
X51293018Y-69024390D01*
X51203747Y-68917119D01*
X51119746Y-68816180D01*
X51119740Y-68816175D01*
X50918002Y-68635418D01*
X50692092Y-68485957D01*
X50692090Y-68485956D01*
X50446824Y-68370980D01*
X50446819Y-68370978D01*
X50446814Y-68370976D01*
X50187442Y-68292942D01*
X50187428Y-68292939D01*
X50071791Y-68275921D01*
X49919439Y-68253500D01*
X49716369Y-68253500D01*
X49716364Y-68253500D01*
X49513844Y-68268323D01*
X49513831Y-68268325D01*
X49249453Y-68327217D01*
X49249446Y-68327220D01*
X48996439Y-68423987D01*
X48760226Y-68556557D01*
X48545822Y-68722112D01*
X48357822Y-68917109D01*
X48357816Y-68917116D01*
X48200202Y-69137419D01*
X48200199Y-69137424D01*
X48076350Y-69378309D01*
X48076343Y-69378327D01*
X47988884Y-69634685D01*
X47988881Y-69634699D01*
X47939681Y-69901068D01*
X47939680Y-69901075D01*
X47929787Y-70171763D01*
X46228500Y-70171763D01*
X46228500Y-66672500D01*
X46248185Y-66605461D01*
X46300989Y-66559706D01*
X46352500Y-66548500D01*
X122811500Y-66548500D01*
X122878539Y-66568185D01*
G37*
G04 #@! TD.AperFunction*
M02*
