G04 #@! TF.GenerationSoftware,KiCad,Pcbnew,7.0.8*
G04 #@! TF.CreationDate,2024-05-20T17:56:06+02:00*
G04 #@! TF.ProjectId,Generator_Cyfrowka,47656e65-7261-4746-9f72-5f437966726f,rev?*
G04 #@! TF.SameCoordinates,Original*
G04 #@! TF.FileFunction,Soldermask,Top*
G04 #@! TF.FilePolarity,Negative*
%FSLAX46Y46*%
G04 Gerber Fmt 4.6, Leading zero omitted, Abs format (unit mm)*
G04 Created by KiCad (PCBNEW 7.0.8) date 2024-05-20 17:56:06*
%MOMM*%
%LPD*%
G01*
G04 APERTURE LIST*
G04 Aperture macros list*
%AMRoundRect*
0 Rectangle with rounded corners*
0 $1 Rounding radius*
0 $2 $3 $4 $5 $6 $7 $8 $9 X,Y pos of 4 corners*
0 Add a 4 corners polygon primitive as box body*
4,1,4,$2,$3,$4,$5,$6,$7,$8,$9,$2,$3,0*
0 Add four circle primitives for the rounded corners*
1,1,$1+$1,$2,$3*
1,1,$1+$1,$4,$5*
1,1,$1+$1,$6,$7*
1,1,$1+$1,$8,$9*
0 Add four rect primitives between the rounded corners*
20,1,$1+$1,$2,$3,$4,$5,0*
20,1,$1+$1,$4,$5,$6,$7,0*
20,1,$1+$1,$6,$7,$8,$9,0*
20,1,$1+$1,$8,$9,$2,$3,0*%
G04 Aperture macros list end*
%ADD10RoundRect,0.250000X0.325000X0.650000X-0.325000X0.650000X-0.325000X-0.650000X0.325000X-0.650000X0*%
%ADD11RoundRect,0.250000X-0.325000X-0.650000X0.325000X-0.650000X0.325000X0.650000X-0.325000X0.650000X0*%
%ADD12RoundRect,0.250000X0.625000X-0.312500X0.625000X0.312500X-0.625000X0.312500X-0.625000X-0.312500X0*%
%ADD13R,1.600000X1.600000*%
%ADD14O,1.600000X1.600000*%
%ADD15RoundRect,0.250000X-0.312500X-0.625000X0.312500X-0.625000X0.312500X0.625000X-0.312500X0.625000X0*%
%ADD16RoundRect,0.250000X0.312500X0.625000X-0.312500X0.625000X-0.312500X-0.625000X0.312500X-0.625000X0*%
%ADD17C,3.200000*%
%ADD18RoundRect,0.250000X0.375000X0.625000X-0.375000X0.625000X-0.375000X-0.625000X0.375000X-0.625000X0*%
%ADD19R,1.700000X1.700000*%
%ADD20O,1.700000X1.700000*%
%ADD21RoundRect,0.250000X0.650000X-0.325000X0.650000X0.325000X-0.650000X0.325000X-0.650000X-0.325000X0*%
%ADD22RoundRect,0.250000X-0.375000X-0.625000X0.375000X-0.625000X0.375000X0.625000X-0.375000X0.625000X0*%
%ADD23RoundRect,0.250000X-0.650000X0.325000X-0.650000X-0.325000X0.650000X-0.325000X0.650000X0.325000X0*%
%ADD24RoundRect,0.250000X-0.350000X0.850000X-0.350000X-0.850000X0.350000X-0.850000X0.350000X0.850000X0*%
%ADD25RoundRect,0.249997X-2.650003X2.950003X-2.650003X-2.950003X2.650003X-2.950003X2.650003X2.950003X0*%
%ADD26C,1.600000*%
%ADD27C,4.000000*%
%ADD28R,1.800000X1.800000*%
%ADD29C,1.800000*%
%ADD30O,2.500000X1.600000*%
%ADD31O,7.000000X3.500000*%
G04 APERTURE END LIST*
D10*
X107139000Y-76454000D03*
X104189000Y-76454000D03*
D11*
X96569000Y-92710000D03*
X99519000Y-92710000D03*
D12*
X89408000Y-87822500D03*
X89408000Y-84897500D03*
D13*
X74920000Y-90170000D03*
D14*
X74920000Y-87630000D03*
X74920000Y-85090000D03*
X74920000Y-82550000D03*
X74920000Y-80010000D03*
X74920000Y-77470000D03*
X74920000Y-74930000D03*
X67300000Y-74930000D03*
X67300000Y-77470000D03*
X67300000Y-80010000D03*
X67300000Y-82550000D03*
X67300000Y-85090000D03*
X67300000Y-87630000D03*
X67300000Y-90170000D03*
D15*
X96835500Y-77216000D03*
X99760500Y-77216000D03*
D16*
X99760500Y-84836000D03*
X96835500Y-84836000D03*
X72836500Y-83566000D03*
X69911500Y-83566000D03*
D17*
X119380000Y-70104000D03*
D18*
X112144000Y-78994000D03*
X109344000Y-78994000D03*
D15*
X96845500Y-82291000D03*
X99770500Y-82291000D03*
X81849500Y-87630000D03*
X84774500Y-87630000D03*
D12*
X91948000Y-87822500D03*
X91948000Y-84897500D03*
D18*
X113983500Y-96520000D03*
X111183500Y-96520000D03*
D16*
X99760500Y-79756000D03*
X96835500Y-79756000D03*
D13*
X102108000Y-89916000D03*
D14*
X102108000Y-87376000D03*
X102108000Y-84836000D03*
X102108000Y-82296000D03*
X102108000Y-79756000D03*
X102108000Y-77216000D03*
X102108000Y-74676000D03*
X94488000Y-74676000D03*
X94488000Y-77216000D03*
X94488000Y-79756000D03*
X94488000Y-82296000D03*
X94488000Y-84836000D03*
X94488000Y-87376000D03*
X94488000Y-89916000D03*
D13*
X87112000Y-90180000D03*
D14*
X87112000Y-87640000D03*
X87112000Y-85100000D03*
X87112000Y-82560000D03*
X87112000Y-80020000D03*
X87112000Y-77480000D03*
X87112000Y-74940000D03*
X79492000Y-74940000D03*
X79492000Y-77480000D03*
X79492000Y-80020000D03*
X79492000Y-82560000D03*
X79492000Y-85100000D03*
X79492000Y-87640000D03*
X79492000Y-90180000D03*
D11*
X81886000Y-92964000D03*
X84836000Y-92964000D03*
D15*
X106233500Y-93980000D03*
X109158500Y-93980000D03*
D19*
X111252000Y-72898000D03*
D20*
X111252000Y-70358000D03*
D16*
X84774500Y-90170000D03*
X81849500Y-90170000D03*
D17*
X119380000Y-94996000D03*
D19*
X64008000Y-80767000D03*
D20*
X64008000Y-83307000D03*
D15*
X81849500Y-85090000D03*
X84774500Y-85090000D03*
D21*
X104394000Y-82452000D03*
X104394000Y-79502000D03*
D16*
X65216500Y-86360000D03*
X62291500Y-86360000D03*
D15*
X106295000Y-96520000D03*
X109220000Y-96520000D03*
D16*
X72836500Y-87630000D03*
X69911500Y-87630000D03*
X84774500Y-80010000D03*
X81849500Y-80010000D03*
D17*
X49784000Y-70104000D03*
D16*
X84774500Y-82555000D03*
X81849500Y-82555000D03*
D22*
X109344000Y-76454000D03*
X112144000Y-76454000D03*
D17*
X49784000Y-94996000D03*
D16*
X99760500Y-89916000D03*
X96835500Y-89916000D03*
D23*
X91948000Y-89711000D03*
X91948000Y-92661000D03*
D11*
X71931000Y-93218000D03*
X74881000Y-93218000D03*
D24*
X111755000Y-81687000D03*
D25*
X109475000Y-87987000D03*
D24*
X107195000Y-81687000D03*
D13*
X115028000Y-83896000D03*
D26*
X115028000Y-81396000D03*
X117028000Y-81396000D03*
X117028000Y-83896000D03*
D27*
X119888000Y-76646000D03*
X119888000Y-88646000D03*
D28*
X114046000Y-93980000D03*
D29*
X111506000Y-93980000D03*
D30*
X58928000Y-82804000D03*
D31*
X53848000Y-77724000D03*
D30*
X58928000Y-80264000D03*
D31*
X53848000Y-87884000D03*
M02*
