%TF.GenerationSoftware,KiCad,Pcbnew,7.0.8*%
%TF.CreationDate,2024-05-20T17:56:23+02:00*%
%TF.ProjectId,Generator_Cyfrowka,47656e65-7261-4746-9f72-5f437966726f,rev?*%
%TF.SameCoordinates,Original*%
%TF.FileFunction,Drillmap*%
%TF.FilePolarity,Positive*%
%FSLAX45Y45*%
G04 Gerber Fmt 4.5, Leading zero omitted, Abs format (unit mm)*
G04 Created by KiCad (PCBNEW 7.0.8) date 2024-05-20 17:56:23*
%MOMM*%
%LPD*%
G01*
G04 APERTURE LIST*
%ADD10C,0.100000*%
%ADD11C,0.200000*%
%ADD12C,0.040000*%
%ADD13C,0.080000*%
%ADD14C,0.089000*%
%ADD15C,0.090000*%
%ADD16C,0.095000*%
%ADD17C,0.201000*%
%ADD18C,0.230000*%
G04 APERTURE END LIST*
D10*
X4622800Y-6654800D02*
X12293600Y-6654800D01*
X12293600Y-9855200D01*
X4622800Y-9855200D01*
X4622800Y-6654800D01*
D11*
D12*
X6177600Y-9225600D02*
X6217600Y-9265600D01*
X6217600Y-9225600D02*
X6177600Y-9265600D01*
X6330000Y-7701600D02*
X6370000Y-7741600D01*
X6370000Y-7701600D02*
X6330000Y-7741600D01*
X6457000Y-8895400D02*
X6497000Y-8935400D01*
X6497000Y-8895400D02*
X6457000Y-8935400D01*
X6685600Y-7269800D02*
X6725600Y-7309800D01*
X6725600Y-7269800D02*
X6685600Y-7309800D01*
X7168200Y-9301800D02*
X7208200Y-9341800D01*
X7208200Y-9301800D02*
X7168200Y-9341800D01*
X7244400Y-7600000D02*
X7284400Y-7640000D01*
X7284400Y-7600000D02*
X7244400Y-7640000D01*
X7473000Y-9301800D02*
X7513000Y-9341800D01*
X7513000Y-9301800D02*
X7473000Y-9341800D01*
X7701600Y-8235000D02*
X7741600Y-8275000D01*
X7741600Y-8235000D02*
X7701600Y-8275000D01*
X7727000Y-9225600D02*
X7767000Y-9265600D01*
X7767000Y-9225600D02*
X7727000Y-9265600D01*
X8158800Y-7981000D02*
X8198800Y-8021000D01*
X8198800Y-7981000D02*
X8158800Y-8021000D01*
X8158800Y-8997000D02*
X8198800Y-9037000D01*
X8198800Y-8997000D02*
X8158800Y-9037000D01*
X8463600Y-8489000D02*
X8503600Y-8529000D01*
X8503600Y-8489000D02*
X8463600Y-8529000D01*
X8844600Y-7168200D02*
X8884600Y-7208200D01*
X8884600Y-7168200D02*
X8844600Y-7208200D01*
X8895400Y-9124000D02*
X8935400Y-9164000D01*
X8935400Y-9124000D02*
X8895400Y-9164000D01*
X8946200Y-7727000D02*
X8986200Y-7767000D01*
X8986200Y-7727000D02*
X8946200Y-7767000D01*
X8946200Y-8235000D02*
X8986200Y-8275000D01*
X8986200Y-8235000D02*
X8946200Y-8275000D01*
X9174800Y-9251000D02*
X9214800Y-9291000D01*
X9214800Y-9251000D02*
X9174800Y-9291000D01*
X9657400Y-8743000D02*
X9697400Y-8783000D01*
X9697400Y-8743000D02*
X9657400Y-8783000D01*
X9936800Y-9251000D02*
X9976800Y-9291000D01*
X9976800Y-9251000D02*
X9936800Y-9291000D01*
X9962200Y-7701600D02*
X10002200Y-7741600D01*
X10002200Y-7701600D02*
X9962200Y-7741600D01*
X9962200Y-8184200D02*
X10002200Y-8224200D01*
X10002200Y-8184200D02*
X9962200Y-8224200D01*
X10165400Y-9251000D02*
X10205400Y-9291000D01*
X10205400Y-9251000D02*
X10165400Y-9291000D01*
X10394000Y-7625400D02*
X10434000Y-7665400D01*
X10434000Y-7625400D02*
X10394000Y-7665400D01*
X10546400Y-7422200D02*
X10586400Y-7462200D01*
X10586400Y-7422200D02*
X10546400Y-7462200D01*
X10546400Y-9200200D02*
X10586400Y-9240200D01*
X10586400Y-9200200D02*
X10546400Y-9240200D01*
D13*
X6770000Y-7493000D02*
G75*
G03*
X6770000Y-7493000I-40000J0D01*
G01*
X6770000Y-7747000D02*
G75*
G03*
X6770000Y-7747000I-40000J0D01*
G01*
X6770000Y-8001000D02*
G75*
G03*
X6770000Y-8001000I-40000J0D01*
G01*
X6770000Y-8255000D02*
G75*
G03*
X6770000Y-8255000I-40000J0D01*
G01*
X6770000Y-8509000D02*
G75*
G03*
X6770000Y-8509000I-40000J0D01*
G01*
X6770000Y-8763000D02*
G75*
G03*
X6770000Y-8763000I-40000J0D01*
G01*
X6770000Y-9017000D02*
G75*
G03*
X6770000Y-9017000I-40000J0D01*
G01*
X7532000Y-7493000D02*
G75*
G03*
X7532000Y-7493000I-40000J0D01*
G01*
X7532000Y-7747000D02*
G75*
G03*
X7532000Y-7747000I-40000J0D01*
G01*
X7532000Y-8001000D02*
G75*
G03*
X7532000Y-8001000I-40000J0D01*
G01*
X7532000Y-8255000D02*
G75*
G03*
X7532000Y-8255000I-40000J0D01*
G01*
X7532000Y-8509000D02*
G75*
G03*
X7532000Y-8509000I-40000J0D01*
G01*
X7532000Y-8763000D02*
G75*
G03*
X7532000Y-8763000I-40000J0D01*
G01*
X7532000Y-9017000D02*
G75*
G03*
X7532000Y-9017000I-40000J0D01*
G01*
X7989200Y-7494000D02*
G75*
G03*
X7989200Y-7494000I-40000J0D01*
G01*
X7989200Y-7748000D02*
G75*
G03*
X7989200Y-7748000I-40000J0D01*
G01*
X7989200Y-8002000D02*
G75*
G03*
X7989200Y-8002000I-40000J0D01*
G01*
X7989200Y-8256000D02*
G75*
G03*
X7989200Y-8256000I-40000J0D01*
G01*
X7989200Y-8510000D02*
G75*
G03*
X7989200Y-8510000I-40000J0D01*
G01*
X7989200Y-8764000D02*
G75*
G03*
X7989200Y-8764000I-40000J0D01*
G01*
X7989200Y-9018000D02*
G75*
G03*
X7989200Y-9018000I-40000J0D01*
G01*
X8751200Y-7494000D02*
G75*
G03*
X8751200Y-7494000I-40000J0D01*
G01*
X8751200Y-7748000D02*
G75*
G03*
X8751200Y-7748000I-40000J0D01*
G01*
X8751200Y-8002000D02*
G75*
G03*
X8751200Y-8002000I-40000J0D01*
G01*
X8751200Y-8256000D02*
G75*
G03*
X8751200Y-8256000I-40000J0D01*
G01*
X8751200Y-8510000D02*
G75*
G03*
X8751200Y-8510000I-40000J0D01*
G01*
X8751200Y-8764000D02*
G75*
G03*
X8751200Y-8764000I-40000J0D01*
G01*
X8751200Y-9018000D02*
G75*
G03*
X8751200Y-9018000I-40000J0D01*
G01*
X9488800Y-7467600D02*
G75*
G03*
X9488800Y-7467600I-40000J0D01*
G01*
X9488800Y-7721600D02*
G75*
G03*
X9488800Y-7721600I-40000J0D01*
G01*
X9488800Y-7975600D02*
G75*
G03*
X9488800Y-7975600I-40000J0D01*
G01*
X9488800Y-8229600D02*
G75*
G03*
X9488800Y-8229600I-40000J0D01*
G01*
X9488800Y-8483600D02*
G75*
G03*
X9488800Y-8483600I-40000J0D01*
G01*
X9488800Y-8737600D02*
G75*
G03*
X9488800Y-8737600I-40000J0D01*
G01*
X9488800Y-8991600D02*
G75*
G03*
X9488800Y-8991600I-40000J0D01*
G01*
X10250800Y-7467600D02*
G75*
G03*
X10250800Y-7467600I-40000J0D01*
G01*
X10250800Y-7721600D02*
G75*
G03*
X10250800Y-7721600I-40000J0D01*
G01*
X10250800Y-7975600D02*
G75*
G03*
X10250800Y-7975600I-40000J0D01*
G01*
X10250800Y-8229600D02*
G75*
G03*
X10250800Y-8229600I-40000J0D01*
G01*
X10250800Y-8483600D02*
G75*
G03*
X10250800Y-8483600I-40000J0D01*
G01*
X10250800Y-8737600D02*
G75*
G03*
X10250800Y-8737600I-40000J0D01*
G01*
X10250800Y-8991600D02*
G75*
G03*
X10250800Y-8991600I-40000J0D01*
G01*
D14*
X5892800Y-7981900D02*
X5892800Y-8070900D01*
X5848300Y-8026400D02*
X5937300Y-8026400D01*
X5892800Y-8235900D02*
X5892800Y-8324900D01*
X5848300Y-8280400D02*
X5937300Y-8280400D01*
D15*
X11182420Y-9429820D02*
X11182420Y-9366180D01*
X11118780Y-9366180D01*
X11118780Y-9429820D01*
X11182420Y-9429820D01*
X11436420Y-9429820D02*
X11436420Y-9366180D01*
X11372780Y-9366180D01*
X11372780Y-9429820D01*
X11436420Y-9429820D01*
D16*
X11502800Y-8187100D02*
X11550300Y-8139600D01*
X11502800Y-8092100D01*
X11455300Y-8139600D01*
X11502800Y-8187100D01*
X11502800Y-8437100D02*
X11550300Y-8389600D01*
X11502800Y-8342100D01*
X11455300Y-8389600D01*
X11502800Y-8437100D01*
X11702800Y-8187100D02*
X11750300Y-8139600D01*
X11702800Y-8092100D01*
X11655300Y-8139600D01*
X11702800Y-8187100D01*
X11702800Y-8437100D02*
X11750300Y-8389600D01*
X11702800Y-8342100D01*
X11655300Y-8389600D01*
X11702800Y-8437100D01*
D10*
X6350800Y-8026700D02*
X6450800Y-8126700D01*
X6450800Y-8026700D02*
X6350800Y-8126700D01*
X6450800Y-8076700D02*
G75*
G03*
X6450800Y-8076700I-50000J0D01*
G01*
X6350800Y-8280700D02*
X6450800Y-8380700D01*
X6450800Y-8280700D02*
X6350800Y-8380700D01*
X6450800Y-8330700D02*
G75*
G03*
X6450800Y-8330700I-50000J0D01*
G01*
X11075200Y-6985800D02*
X11175200Y-7085800D01*
X11175200Y-6985800D02*
X11075200Y-7085800D01*
X11175200Y-7035800D02*
G75*
G03*
X11175200Y-7035800I-50000J0D01*
G01*
X11075200Y-7239800D02*
X11175200Y-7339800D01*
X11175200Y-7239800D02*
X11075200Y-7339800D01*
X11175200Y-7289800D02*
G75*
G03*
X11175200Y-7289800I-50000J0D01*
G01*
D17*
X5284300Y-7671900D02*
X5485300Y-7872900D01*
X5485300Y-7671900D02*
X5284300Y-7872900D01*
X5384800Y-7671900D02*
X5384800Y-7872900D01*
X5284300Y-7772400D02*
X5485300Y-7772400D01*
X5284300Y-8687900D02*
X5485300Y-8888900D01*
X5485300Y-8687900D02*
X5284300Y-8888900D01*
X5384800Y-8687900D02*
X5384800Y-8888900D01*
X5284300Y-8788400D02*
X5485300Y-8788400D01*
D18*
X11873800Y-7549600D02*
X12103800Y-7779600D01*
X12103800Y-7549600D02*
X11873800Y-7779600D01*
X12070118Y-7745918D02*
X12070118Y-7583282D01*
X11907482Y-7583282D01*
X11907482Y-7745918D01*
X12070118Y-7745918D01*
X11873800Y-8749600D02*
X12103800Y-8979600D01*
X12103800Y-8749600D02*
X11873800Y-8979600D01*
X12070118Y-8945918D02*
X12070118Y-8783282D01*
X11907482Y-8783282D01*
X11907482Y-8945918D01*
X12070118Y-8945918D01*
D11*
X4878577Y-10171684D02*
X4878577Y-9971684D01*
X4878577Y-9971684D02*
X4926196Y-9971684D01*
X4926196Y-9971684D02*
X4954767Y-9981208D01*
X4954767Y-9981208D02*
X4973815Y-10000255D01*
X4973815Y-10000255D02*
X4983339Y-10019303D01*
X4983339Y-10019303D02*
X4992863Y-10057398D01*
X4992863Y-10057398D02*
X4992863Y-10085970D01*
X4992863Y-10085970D02*
X4983339Y-10124065D01*
X4983339Y-10124065D02*
X4973815Y-10143112D01*
X4973815Y-10143112D02*
X4954767Y-10162160D01*
X4954767Y-10162160D02*
X4926196Y-10171684D01*
X4926196Y-10171684D02*
X4878577Y-10171684D01*
X5078577Y-10171684D02*
X5078577Y-10038350D01*
X5078577Y-10076446D02*
X5088101Y-10057398D01*
X5088101Y-10057398D02*
X5097624Y-10047874D01*
X5097624Y-10047874D02*
X5116672Y-10038350D01*
X5116672Y-10038350D02*
X5135720Y-10038350D01*
X5202386Y-10171684D02*
X5202386Y-10038350D01*
X5202386Y-9971684D02*
X5192863Y-9981208D01*
X5192863Y-9981208D02*
X5202386Y-9990731D01*
X5202386Y-9990731D02*
X5211910Y-9981208D01*
X5211910Y-9981208D02*
X5202386Y-9971684D01*
X5202386Y-9971684D02*
X5202386Y-9990731D01*
X5326196Y-10171684D02*
X5307148Y-10162160D01*
X5307148Y-10162160D02*
X5297624Y-10143112D01*
X5297624Y-10143112D02*
X5297624Y-9971684D01*
X5430958Y-10171684D02*
X5411910Y-10162160D01*
X5411910Y-10162160D02*
X5402386Y-10143112D01*
X5402386Y-10143112D02*
X5402386Y-9971684D01*
X5659529Y-10171684D02*
X5659529Y-9971684D01*
X5659529Y-9971684D02*
X5726196Y-10114541D01*
X5726196Y-10114541D02*
X5792862Y-9971684D01*
X5792862Y-9971684D02*
X5792862Y-10171684D01*
X5973815Y-10171684D02*
X5973815Y-10066922D01*
X5973815Y-10066922D02*
X5964291Y-10047874D01*
X5964291Y-10047874D02*
X5945243Y-10038350D01*
X5945243Y-10038350D02*
X5907148Y-10038350D01*
X5907148Y-10038350D02*
X5888101Y-10047874D01*
X5973815Y-10162160D02*
X5954767Y-10171684D01*
X5954767Y-10171684D02*
X5907148Y-10171684D01*
X5907148Y-10171684D02*
X5888101Y-10162160D01*
X5888101Y-10162160D02*
X5878577Y-10143112D01*
X5878577Y-10143112D02*
X5878577Y-10124065D01*
X5878577Y-10124065D02*
X5888101Y-10105017D01*
X5888101Y-10105017D02*
X5907148Y-10095493D01*
X5907148Y-10095493D02*
X5954767Y-10095493D01*
X5954767Y-10095493D02*
X5973815Y-10085970D01*
X6069053Y-10038350D02*
X6069053Y-10238350D01*
X6069053Y-10047874D02*
X6088101Y-10038350D01*
X6088101Y-10038350D02*
X6126196Y-10038350D01*
X6126196Y-10038350D02*
X6145243Y-10047874D01*
X6145243Y-10047874D02*
X6154767Y-10057398D01*
X6154767Y-10057398D02*
X6164291Y-10076446D01*
X6164291Y-10076446D02*
X6164291Y-10133589D01*
X6164291Y-10133589D02*
X6154767Y-10152636D01*
X6154767Y-10152636D02*
X6145243Y-10162160D01*
X6145243Y-10162160D02*
X6126196Y-10171684D01*
X6126196Y-10171684D02*
X6088101Y-10171684D01*
X6088101Y-10171684D02*
X6069053Y-10162160D01*
X6250005Y-10152636D02*
X6259529Y-10162160D01*
X6259529Y-10162160D02*
X6250005Y-10171684D01*
X6250005Y-10171684D02*
X6240482Y-10162160D01*
X6240482Y-10162160D02*
X6250005Y-10152636D01*
X6250005Y-10152636D02*
X6250005Y-10171684D01*
X6250005Y-10047874D02*
X6259529Y-10057398D01*
X6259529Y-10057398D02*
X6250005Y-10066922D01*
X6250005Y-10066922D02*
X6240482Y-10057398D01*
X6240482Y-10057398D02*
X6250005Y-10047874D01*
X6250005Y-10047874D02*
X6250005Y-10066922D01*
D12*
X4577800Y-10480200D02*
X4617800Y-10520200D01*
X4617800Y-10480200D02*
X4577800Y-10520200D01*
D11*
X4916672Y-10391684D02*
X4935720Y-10391684D01*
X4935720Y-10391684D02*
X4954767Y-10401208D01*
X4954767Y-10401208D02*
X4964291Y-10410731D01*
X4964291Y-10410731D02*
X4973815Y-10429779D01*
X4973815Y-10429779D02*
X4983339Y-10467874D01*
X4983339Y-10467874D02*
X4983339Y-10515493D01*
X4983339Y-10515493D02*
X4973815Y-10553589D01*
X4973815Y-10553589D02*
X4964291Y-10572636D01*
X4964291Y-10572636D02*
X4954767Y-10582160D01*
X4954767Y-10582160D02*
X4935720Y-10591684D01*
X4935720Y-10591684D02*
X4916672Y-10591684D01*
X4916672Y-10591684D02*
X4897624Y-10582160D01*
X4897624Y-10582160D02*
X4888101Y-10572636D01*
X4888101Y-10572636D02*
X4878577Y-10553589D01*
X4878577Y-10553589D02*
X4869053Y-10515493D01*
X4869053Y-10515493D02*
X4869053Y-10467874D01*
X4869053Y-10467874D02*
X4878577Y-10429779D01*
X4878577Y-10429779D02*
X4888101Y-10410731D01*
X4888101Y-10410731D02*
X4897624Y-10401208D01*
X4897624Y-10401208D02*
X4916672Y-10391684D01*
X5069053Y-10572636D02*
X5078577Y-10582160D01*
X5078577Y-10582160D02*
X5069053Y-10591684D01*
X5069053Y-10591684D02*
X5059529Y-10582160D01*
X5059529Y-10582160D02*
X5069053Y-10572636D01*
X5069053Y-10572636D02*
X5069053Y-10591684D01*
X5250005Y-10458350D02*
X5250005Y-10591684D01*
X5202386Y-10382160D02*
X5154767Y-10525017D01*
X5154767Y-10525017D02*
X5278577Y-10525017D01*
X5392863Y-10391684D02*
X5411910Y-10391684D01*
X5411910Y-10391684D02*
X5430958Y-10401208D01*
X5430958Y-10401208D02*
X5440482Y-10410731D01*
X5440482Y-10410731D02*
X5450005Y-10429779D01*
X5450005Y-10429779D02*
X5459529Y-10467874D01*
X5459529Y-10467874D02*
X5459529Y-10515493D01*
X5459529Y-10515493D02*
X5450005Y-10553589D01*
X5450005Y-10553589D02*
X5440482Y-10572636D01*
X5440482Y-10572636D02*
X5430958Y-10582160D01*
X5430958Y-10582160D02*
X5411910Y-10591684D01*
X5411910Y-10591684D02*
X5392863Y-10591684D01*
X5392863Y-10591684D02*
X5373815Y-10582160D01*
X5373815Y-10582160D02*
X5364291Y-10572636D01*
X5364291Y-10572636D02*
X5354767Y-10553589D01*
X5354767Y-10553589D02*
X5345244Y-10515493D01*
X5345244Y-10515493D02*
X5345244Y-10467874D01*
X5345244Y-10467874D02*
X5354767Y-10429779D01*
X5354767Y-10429779D02*
X5364291Y-10410731D01*
X5364291Y-10410731D02*
X5373815Y-10401208D01*
X5373815Y-10401208D02*
X5392863Y-10391684D01*
X5583339Y-10391684D02*
X5602386Y-10391684D01*
X5602386Y-10391684D02*
X5621434Y-10401208D01*
X5621434Y-10401208D02*
X5630958Y-10410731D01*
X5630958Y-10410731D02*
X5640482Y-10429779D01*
X5640482Y-10429779D02*
X5650005Y-10467874D01*
X5650005Y-10467874D02*
X5650005Y-10515493D01*
X5650005Y-10515493D02*
X5640482Y-10553589D01*
X5640482Y-10553589D02*
X5630958Y-10572636D01*
X5630958Y-10572636D02*
X5621434Y-10582160D01*
X5621434Y-10582160D02*
X5602386Y-10591684D01*
X5602386Y-10591684D02*
X5583339Y-10591684D01*
X5583339Y-10591684D02*
X5564291Y-10582160D01*
X5564291Y-10582160D02*
X5554767Y-10572636D01*
X5554767Y-10572636D02*
X5545244Y-10553589D01*
X5545244Y-10553589D02*
X5535720Y-10515493D01*
X5535720Y-10515493D02*
X5535720Y-10467874D01*
X5535720Y-10467874D02*
X5545244Y-10429779D01*
X5545244Y-10429779D02*
X5554767Y-10410731D01*
X5554767Y-10410731D02*
X5564291Y-10401208D01*
X5564291Y-10401208D02*
X5583339Y-10391684D01*
X5735720Y-10591684D02*
X5735720Y-10458350D01*
X5735720Y-10477398D02*
X5745243Y-10467874D01*
X5745243Y-10467874D02*
X5764291Y-10458350D01*
X5764291Y-10458350D02*
X5792863Y-10458350D01*
X5792863Y-10458350D02*
X5811910Y-10467874D01*
X5811910Y-10467874D02*
X5821434Y-10486922D01*
X5821434Y-10486922D02*
X5821434Y-10591684D01*
X5821434Y-10486922D02*
X5830958Y-10467874D01*
X5830958Y-10467874D02*
X5850005Y-10458350D01*
X5850005Y-10458350D02*
X5878577Y-10458350D01*
X5878577Y-10458350D02*
X5897624Y-10467874D01*
X5897624Y-10467874D02*
X5907148Y-10486922D01*
X5907148Y-10486922D02*
X5907148Y-10591684D01*
X6002386Y-10591684D02*
X6002386Y-10458350D01*
X6002386Y-10477398D02*
X6011910Y-10467874D01*
X6011910Y-10467874D02*
X6030958Y-10458350D01*
X6030958Y-10458350D02*
X6059529Y-10458350D01*
X6059529Y-10458350D02*
X6078577Y-10467874D01*
X6078577Y-10467874D02*
X6088101Y-10486922D01*
X6088101Y-10486922D02*
X6088101Y-10591684D01*
X6088101Y-10486922D02*
X6097624Y-10467874D01*
X6097624Y-10467874D02*
X6116672Y-10458350D01*
X6116672Y-10458350D02*
X6145243Y-10458350D01*
X6145243Y-10458350D02*
X6164291Y-10467874D01*
X6164291Y-10467874D02*
X6173815Y-10486922D01*
X6173815Y-10486922D02*
X6173815Y-10591684D01*
X6564291Y-10382160D02*
X6392863Y-10639303D01*
X6821434Y-10391684D02*
X6840482Y-10391684D01*
X6840482Y-10391684D02*
X6859529Y-10401208D01*
X6859529Y-10401208D02*
X6869053Y-10410731D01*
X6869053Y-10410731D02*
X6878577Y-10429779D01*
X6878577Y-10429779D02*
X6888101Y-10467874D01*
X6888101Y-10467874D02*
X6888101Y-10515493D01*
X6888101Y-10515493D02*
X6878577Y-10553589D01*
X6878577Y-10553589D02*
X6869053Y-10572636D01*
X6869053Y-10572636D02*
X6859529Y-10582160D01*
X6859529Y-10582160D02*
X6840482Y-10591684D01*
X6840482Y-10591684D02*
X6821434Y-10591684D01*
X6821434Y-10591684D02*
X6802386Y-10582160D01*
X6802386Y-10582160D02*
X6792863Y-10572636D01*
X6792863Y-10572636D02*
X6783339Y-10553589D01*
X6783339Y-10553589D02*
X6773815Y-10515493D01*
X6773815Y-10515493D02*
X6773815Y-10467874D01*
X6773815Y-10467874D02*
X6783339Y-10429779D01*
X6783339Y-10429779D02*
X6792863Y-10410731D01*
X6792863Y-10410731D02*
X6802386Y-10401208D01*
X6802386Y-10401208D02*
X6821434Y-10391684D01*
X6973815Y-10572636D02*
X6983339Y-10582160D01*
X6983339Y-10582160D02*
X6973815Y-10591684D01*
X6973815Y-10591684D02*
X6964291Y-10582160D01*
X6964291Y-10582160D02*
X6973815Y-10572636D01*
X6973815Y-10572636D02*
X6973815Y-10591684D01*
X7107148Y-10391684D02*
X7126196Y-10391684D01*
X7126196Y-10391684D02*
X7145244Y-10401208D01*
X7145244Y-10401208D02*
X7154767Y-10410731D01*
X7154767Y-10410731D02*
X7164291Y-10429779D01*
X7164291Y-10429779D02*
X7173815Y-10467874D01*
X7173815Y-10467874D02*
X7173815Y-10515493D01*
X7173815Y-10515493D02*
X7164291Y-10553589D01*
X7164291Y-10553589D02*
X7154767Y-10572636D01*
X7154767Y-10572636D02*
X7145244Y-10582160D01*
X7145244Y-10582160D02*
X7126196Y-10591684D01*
X7126196Y-10591684D02*
X7107148Y-10591684D01*
X7107148Y-10591684D02*
X7088101Y-10582160D01*
X7088101Y-10582160D02*
X7078577Y-10572636D01*
X7078577Y-10572636D02*
X7069053Y-10553589D01*
X7069053Y-10553589D02*
X7059529Y-10515493D01*
X7059529Y-10515493D02*
X7059529Y-10467874D01*
X7059529Y-10467874D02*
X7069053Y-10429779D01*
X7069053Y-10429779D02*
X7078577Y-10410731D01*
X7078577Y-10410731D02*
X7088101Y-10401208D01*
X7088101Y-10401208D02*
X7107148Y-10391684D01*
X7364291Y-10591684D02*
X7250006Y-10591684D01*
X7307148Y-10591684D02*
X7307148Y-10391684D01*
X7307148Y-10391684D02*
X7288101Y-10420255D01*
X7288101Y-10420255D02*
X7269053Y-10439303D01*
X7269053Y-10439303D02*
X7250006Y-10448827D01*
X7545244Y-10391684D02*
X7450006Y-10391684D01*
X7450006Y-10391684D02*
X7440482Y-10486922D01*
X7440482Y-10486922D02*
X7450006Y-10477398D01*
X7450006Y-10477398D02*
X7469053Y-10467874D01*
X7469053Y-10467874D02*
X7516672Y-10467874D01*
X7516672Y-10467874D02*
X7535720Y-10477398D01*
X7535720Y-10477398D02*
X7545244Y-10486922D01*
X7545244Y-10486922D02*
X7554767Y-10505970D01*
X7554767Y-10505970D02*
X7554767Y-10553589D01*
X7554767Y-10553589D02*
X7545244Y-10572636D01*
X7545244Y-10572636D02*
X7535720Y-10582160D01*
X7535720Y-10582160D02*
X7516672Y-10591684D01*
X7516672Y-10591684D02*
X7469053Y-10591684D01*
X7469053Y-10591684D02*
X7450006Y-10582160D01*
X7450006Y-10582160D02*
X7440482Y-10572636D01*
X7621434Y-10391684D02*
X7754767Y-10391684D01*
X7754767Y-10391684D02*
X7669053Y-10591684D01*
X7821434Y-10391684D02*
X7821434Y-10429779D01*
X7897625Y-10391684D02*
X7897625Y-10429779D01*
X8192863Y-10667874D02*
X8183339Y-10658350D01*
X8183339Y-10658350D02*
X8164291Y-10629779D01*
X8164291Y-10629779D02*
X8154768Y-10610731D01*
X8154768Y-10610731D02*
X8145244Y-10582160D01*
X8145244Y-10582160D02*
X8135720Y-10534541D01*
X8135720Y-10534541D02*
X8135720Y-10496446D01*
X8135720Y-10496446D02*
X8145244Y-10448827D01*
X8145244Y-10448827D02*
X8154768Y-10420255D01*
X8154768Y-10420255D02*
X8164291Y-10401208D01*
X8164291Y-10401208D02*
X8183339Y-10372636D01*
X8183339Y-10372636D02*
X8192863Y-10363112D01*
X8259529Y-10410731D02*
X8269053Y-10401208D01*
X8269053Y-10401208D02*
X8288101Y-10391684D01*
X8288101Y-10391684D02*
X8335720Y-10391684D01*
X8335720Y-10391684D02*
X8354768Y-10401208D01*
X8354768Y-10401208D02*
X8364291Y-10410731D01*
X8364291Y-10410731D02*
X8373815Y-10429779D01*
X8373815Y-10429779D02*
X8373815Y-10448827D01*
X8373815Y-10448827D02*
X8364291Y-10477398D01*
X8364291Y-10477398D02*
X8250006Y-10591684D01*
X8250006Y-10591684D02*
X8373815Y-10591684D01*
X8554768Y-10391684D02*
X8459530Y-10391684D01*
X8459530Y-10391684D02*
X8450006Y-10486922D01*
X8450006Y-10486922D02*
X8459530Y-10477398D01*
X8459530Y-10477398D02*
X8478577Y-10467874D01*
X8478577Y-10467874D02*
X8526196Y-10467874D01*
X8526196Y-10467874D02*
X8545244Y-10477398D01*
X8545244Y-10477398D02*
X8554768Y-10486922D01*
X8554768Y-10486922D02*
X8564291Y-10505970D01*
X8564291Y-10505970D02*
X8564291Y-10553589D01*
X8564291Y-10553589D02*
X8554768Y-10572636D01*
X8554768Y-10572636D02*
X8545244Y-10582160D01*
X8545244Y-10582160D02*
X8526196Y-10591684D01*
X8526196Y-10591684D02*
X8478577Y-10591684D01*
X8478577Y-10591684D02*
X8459530Y-10582160D01*
X8459530Y-10582160D02*
X8450006Y-10572636D01*
X8802387Y-10591684D02*
X8802387Y-10391684D01*
X8888101Y-10591684D02*
X8888101Y-10486922D01*
X8888101Y-10486922D02*
X8878577Y-10467874D01*
X8878577Y-10467874D02*
X8859530Y-10458350D01*
X8859530Y-10458350D02*
X8830958Y-10458350D01*
X8830958Y-10458350D02*
X8811911Y-10467874D01*
X8811911Y-10467874D02*
X8802387Y-10477398D01*
X9011911Y-10591684D02*
X8992863Y-10582160D01*
X8992863Y-10582160D02*
X8983339Y-10572636D01*
X8983339Y-10572636D02*
X8973815Y-10553589D01*
X8973815Y-10553589D02*
X8973815Y-10496446D01*
X8973815Y-10496446D02*
X8983339Y-10477398D01*
X8983339Y-10477398D02*
X8992863Y-10467874D01*
X8992863Y-10467874D02*
X9011911Y-10458350D01*
X9011911Y-10458350D02*
X9040482Y-10458350D01*
X9040482Y-10458350D02*
X9059530Y-10467874D01*
X9059530Y-10467874D02*
X9069053Y-10477398D01*
X9069053Y-10477398D02*
X9078577Y-10496446D01*
X9078577Y-10496446D02*
X9078577Y-10553589D01*
X9078577Y-10553589D02*
X9069053Y-10572636D01*
X9069053Y-10572636D02*
X9059530Y-10582160D01*
X9059530Y-10582160D02*
X9040482Y-10591684D01*
X9040482Y-10591684D02*
X9011911Y-10591684D01*
X9192863Y-10591684D02*
X9173815Y-10582160D01*
X9173815Y-10582160D02*
X9164292Y-10563112D01*
X9164292Y-10563112D02*
X9164292Y-10391684D01*
X9345244Y-10582160D02*
X9326196Y-10591684D01*
X9326196Y-10591684D02*
X9288101Y-10591684D01*
X9288101Y-10591684D02*
X9269053Y-10582160D01*
X9269053Y-10582160D02*
X9259530Y-10563112D01*
X9259530Y-10563112D02*
X9259530Y-10486922D01*
X9259530Y-10486922D02*
X9269053Y-10467874D01*
X9269053Y-10467874D02*
X9288101Y-10458350D01*
X9288101Y-10458350D02*
X9326196Y-10458350D01*
X9326196Y-10458350D02*
X9345244Y-10467874D01*
X9345244Y-10467874D02*
X9354768Y-10486922D01*
X9354768Y-10486922D02*
X9354768Y-10505970D01*
X9354768Y-10505970D02*
X9259530Y-10525017D01*
X9430958Y-10582160D02*
X9450006Y-10591684D01*
X9450006Y-10591684D02*
X9488101Y-10591684D01*
X9488101Y-10591684D02*
X9507149Y-10582160D01*
X9507149Y-10582160D02*
X9516673Y-10563112D01*
X9516673Y-10563112D02*
X9516673Y-10553589D01*
X9516673Y-10553589D02*
X9507149Y-10534541D01*
X9507149Y-10534541D02*
X9488101Y-10525017D01*
X9488101Y-10525017D02*
X9459530Y-10525017D01*
X9459530Y-10525017D02*
X9440482Y-10515493D01*
X9440482Y-10515493D02*
X9430958Y-10496446D01*
X9430958Y-10496446D02*
X9430958Y-10486922D01*
X9430958Y-10486922D02*
X9440482Y-10467874D01*
X9440482Y-10467874D02*
X9459530Y-10458350D01*
X9459530Y-10458350D02*
X9488101Y-10458350D01*
X9488101Y-10458350D02*
X9507149Y-10467874D01*
X9583339Y-10667874D02*
X9592863Y-10658350D01*
X9592863Y-10658350D02*
X9611911Y-10629779D01*
X9611911Y-10629779D02*
X9621434Y-10610731D01*
X9621434Y-10610731D02*
X9630958Y-10582160D01*
X9630958Y-10582160D02*
X9640482Y-10534541D01*
X9640482Y-10534541D02*
X9640482Y-10496446D01*
X9640482Y-10496446D02*
X9630958Y-10448827D01*
X9630958Y-10448827D02*
X9621434Y-10420255D01*
X9621434Y-10420255D02*
X9611911Y-10401208D01*
X9611911Y-10401208D02*
X9592863Y-10372636D01*
X9592863Y-10372636D02*
X9583339Y-10363112D01*
D13*
X4617800Y-10764200D02*
G75*
G03*
X4617800Y-10764200I-40000J0D01*
G01*
D11*
X4916672Y-10655684D02*
X4935720Y-10655684D01*
X4935720Y-10655684D02*
X4954767Y-10665208D01*
X4954767Y-10665208D02*
X4964291Y-10674731D01*
X4964291Y-10674731D02*
X4973815Y-10693779D01*
X4973815Y-10693779D02*
X4983339Y-10731874D01*
X4983339Y-10731874D02*
X4983339Y-10779493D01*
X4983339Y-10779493D02*
X4973815Y-10817589D01*
X4973815Y-10817589D02*
X4964291Y-10836636D01*
X4964291Y-10836636D02*
X4954767Y-10846160D01*
X4954767Y-10846160D02*
X4935720Y-10855684D01*
X4935720Y-10855684D02*
X4916672Y-10855684D01*
X4916672Y-10855684D02*
X4897624Y-10846160D01*
X4897624Y-10846160D02*
X4888101Y-10836636D01*
X4888101Y-10836636D02*
X4878577Y-10817589D01*
X4878577Y-10817589D02*
X4869053Y-10779493D01*
X4869053Y-10779493D02*
X4869053Y-10731874D01*
X4869053Y-10731874D02*
X4878577Y-10693779D01*
X4878577Y-10693779D02*
X4888101Y-10674731D01*
X4888101Y-10674731D02*
X4897624Y-10665208D01*
X4897624Y-10665208D02*
X4916672Y-10655684D01*
X5069053Y-10836636D02*
X5078577Y-10846160D01*
X5078577Y-10846160D02*
X5069053Y-10855684D01*
X5069053Y-10855684D02*
X5059529Y-10846160D01*
X5059529Y-10846160D02*
X5069053Y-10836636D01*
X5069053Y-10836636D02*
X5069053Y-10855684D01*
X5192863Y-10741398D02*
X5173815Y-10731874D01*
X5173815Y-10731874D02*
X5164291Y-10722350D01*
X5164291Y-10722350D02*
X5154767Y-10703303D01*
X5154767Y-10703303D02*
X5154767Y-10693779D01*
X5154767Y-10693779D02*
X5164291Y-10674731D01*
X5164291Y-10674731D02*
X5173815Y-10665208D01*
X5173815Y-10665208D02*
X5192863Y-10655684D01*
X5192863Y-10655684D02*
X5230958Y-10655684D01*
X5230958Y-10655684D02*
X5250005Y-10665208D01*
X5250005Y-10665208D02*
X5259529Y-10674731D01*
X5259529Y-10674731D02*
X5269053Y-10693779D01*
X5269053Y-10693779D02*
X5269053Y-10703303D01*
X5269053Y-10703303D02*
X5259529Y-10722350D01*
X5259529Y-10722350D02*
X5250005Y-10731874D01*
X5250005Y-10731874D02*
X5230958Y-10741398D01*
X5230958Y-10741398D02*
X5192863Y-10741398D01*
X5192863Y-10741398D02*
X5173815Y-10750922D01*
X5173815Y-10750922D02*
X5164291Y-10760446D01*
X5164291Y-10760446D02*
X5154767Y-10779493D01*
X5154767Y-10779493D02*
X5154767Y-10817589D01*
X5154767Y-10817589D02*
X5164291Y-10836636D01*
X5164291Y-10836636D02*
X5173815Y-10846160D01*
X5173815Y-10846160D02*
X5192863Y-10855684D01*
X5192863Y-10855684D02*
X5230958Y-10855684D01*
X5230958Y-10855684D02*
X5250005Y-10846160D01*
X5250005Y-10846160D02*
X5259529Y-10836636D01*
X5259529Y-10836636D02*
X5269053Y-10817589D01*
X5269053Y-10817589D02*
X5269053Y-10779493D01*
X5269053Y-10779493D02*
X5259529Y-10760446D01*
X5259529Y-10760446D02*
X5250005Y-10750922D01*
X5250005Y-10750922D02*
X5230958Y-10741398D01*
X5392863Y-10655684D02*
X5411910Y-10655684D01*
X5411910Y-10655684D02*
X5430958Y-10665208D01*
X5430958Y-10665208D02*
X5440482Y-10674731D01*
X5440482Y-10674731D02*
X5450005Y-10693779D01*
X5450005Y-10693779D02*
X5459529Y-10731874D01*
X5459529Y-10731874D02*
X5459529Y-10779493D01*
X5459529Y-10779493D02*
X5450005Y-10817589D01*
X5450005Y-10817589D02*
X5440482Y-10836636D01*
X5440482Y-10836636D02*
X5430958Y-10846160D01*
X5430958Y-10846160D02*
X5411910Y-10855684D01*
X5411910Y-10855684D02*
X5392863Y-10855684D01*
X5392863Y-10855684D02*
X5373815Y-10846160D01*
X5373815Y-10846160D02*
X5364291Y-10836636D01*
X5364291Y-10836636D02*
X5354767Y-10817589D01*
X5354767Y-10817589D02*
X5345244Y-10779493D01*
X5345244Y-10779493D02*
X5345244Y-10731874D01*
X5345244Y-10731874D02*
X5354767Y-10693779D01*
X5354767Y-10693779D02*
X5364291Y-10674731D01*
X5364291Y-10674731D02*
X5373815Y-10665208D01*
X5373815Y-10665208D02*
X5392863Y-10655684D01*
X5583339Y-10655684D02*
X5602386Y-10655684D01*
X5602386Y-10655684D02*
X5621434Y-10665208D01*
X5621434Y-10665208D02*
X5630958Y-10674731D01*
X5630958Y-10674731D02*
X5640482Y-10693779D01*
X5640482Y-10693779D02*
X5650005Y-10731874D01*
X5650005Y-10731874D02*
X5650005Y-10779493D01*
X5650005Y-10779493D02*
X5640482Y-10817589D01*
X5640482Y-10817589D02*
X5630958Y-10836636D01*
X5630958Y-10836636D02*
X5621434Y-10846160D01*
X5621434Y-10846160D02*
X5602386Y-10855684D01*
X5602386Y-10855684D02*
X5583339Y-10855684D01*
X5583339Y-10855684D02*
X5564291Y-10846160D01*
X5564291Y-10846160D02*
X5554767Y-10836636D01*
X5554767Y-10836636D02*
X5545244Y-10817589D01*
X5545244Y-10817589D02*
X5535720Y-10779493D01*
X5535720Y-10779493D02*
X5535720Y-10731874D01*
X5535720Y-10731874D02*
X5545244Y-10693779D01*
X5545244Y-10693779D02*
X5554767Y-10674731D01*
X5554767Y-10674731D02*
X5564291Y-10665208D01*
X5564291Y-10665208D02*
X5583339Y-10655684D01*
X5735720Y-10855684D02*
X5735720Y-10722350D01*
X5735720Y-10741398D02*
X5745243Y-10731874D01*
X5745243Y-10731874D02*
X5764291Y-10722350D01*
X5764291Y-10722350D02*
X5792863Y-10722350D01*
X5792863Y-10722350D02*
X5811910Y-10731874D01*
X5811910Y-10731874D02*
X5821434Y-10750922D01*
X5821434Y-10750922D02*
X5821434Y-10855684D01*
X5821434Y-10750922D02*
X5830958Y-10731874D01*
X5830958Y-10731874D02*
X5850005Y-10722350D01*
X5850005Y-10722350D02*
X5878577Y-10722350D01*
X5878577Y-10722350D02*
X5897624Y-10731874D01*
X5897624Y-10731874D02*
X5907148Y-10750922D01*
X5907148Y-10750922D02*
X5907148Y-10855684D01*
X6002386Y-10855684D02*
X6002386Y-10722350D01*
X6002386Y-10741398D02*
X6011910Y-10731874D01*
X6011910Y-10731874D02*
X6030958Y-10722350D01*
X6030958Y-10722350D02*
X6059529Y-10722350D01*
X6059529Y-10722350D02*
X6078577Y-10731874D01*
X6078577Y-10731874D02*
X6088101Y-10750922D01*
X6088101Y-10750922D02*
X6088101Y-10855684D01*
X6088101Y-10750922D02*
X6097624Y-10731874D01*
X6097624Y-10731874D02*
X6116672Y-10722350D01*
X6116672Y-10722350D02*
X6145243Y-10722350D01*
X6145243Y-10722350D02*
X6164291Y-10731874D01*
X6164291Y-10731874D02*
X6173815Y-10750922D01*
X6173815Y-10750922D02*
X6173815Y-10855684D01*
X6564291Y-10646160D02*
X6392863Y-10903303D01*
X6821434Y-10655684D02*
X6840482Y-10655684D01*
X6840482Y-10655684D02*
X6859529Y-10665208D01*
X6859529Y-10665208D02*
X6869053Y-10674731D01*
X6869053Y-10674731D02*
X6878577Y-10693779D01*
X6878577Y-10693779D02*
X6888101Y-10731874D01*
X6888101Y-10731874D02*
X6888101Y-10779493D01*
X6888101Y-10779493D02*
X6878577Y-10817589D01*
X6878577Y-10817589D02*
X6869053Y-10836636D01*
X6869053Y-10836636D02*
X6859529Y-10846160D01*
X6859529Y-10846160D02*
X6840482Y-10855684D01*
X6840482Y-10855684D02*
X6821434Y-10855684D01*
X6821434Y-10855684D02*
X6802386Y-10846160D01*
X6802386Y-10846160D02*
X6792863Y-10836636D01*
X6792863Y-10836636D02*
X6783339Y-10817589D01*
X6783339Y-10817589D02*
X6773815Y-10779493D01*
X6773815Y-10779493D02*
X6773815Y-10731874D01*
X6773815Y-10731874D02*
X6783339Y-10693779D01*
X6783339Y-10693779D02*
X6792863Y-10674731D01*
X6792863Y-10674731D02*
X6802386Y-10665208D01*
X6802386Y-10665208D02*
X6821434Y-10655684D01*
X6973815Y-10836636D02*
X6983339Y-10846160D01*
X6983339Y-10846160D02*
X6973815Y-10855684D01*
X6973815Y-10855684D02*
X6964291Y-10846160D01*
X6964291Y-10846160D02*
X6973815Y-10836636D01*
X6973815Y-10836636D02*
X6973815Y-10855684D01*
X7107148Y-10655684D02*
X7126196Y-10655684D01*
X7126196Y-10655684D02*
X7145244Y-10665208D01*
X7145244Y-10665208D02*
X7154767Y-10674731D01*
X7154767Y-10674731D02*
X7164291Y-10693779D01*
X7164291Y-10693779D02*
X7173815Y-10731874D01*
X7173815Y-10731874D02*
X7173815Y-10779493D01*
X7173815Y-10779493D02*
X7164291Y-10817589D01*
X7164291Y-10817589D02*
X7154767Y-10836636D01*
X7154767Y-10836636D02*
X7145244Y-10846160D01*
X7145244Y-10846160D02*
X7126196Y-10855684D01*
X7126196Y-10855684D02*
X7107148Y-10855684D01*
X7107148Y-10855684D02*
X7088101Y-10846160D01*
X7088101Y-10846160D02*
X7078577Y-10836636D01*
X7078577Y-10836636D02*
X7069053Y-10817589D01*
X7069053Y-10817589D02*
X7059529Y-10779493D01*
X7059529Y-10779493D02*
X7059529Y-10731874D01*
X7059529Y-10731874D02*
X7069053Y-10693779D01*
X7069053Y-10693779D02*
X7078577Y-10674731D01*
X7078577Y-10674731D02*
X7088101Y-10665208D01*
X7088101Y-10665208D02*
X7107148Y-10655684D01*
X7240482Y-10655684D02*
X7364291Y-10655684D01*
X7364291Y-10655684D02*
X7297625Y-10731874D01*
X7297625Y-10731874D02*
X7326196Y-10731874D01*
X7326196Y-10731874D02*
X7345244Y-10741398D01*
X7345244Y-10741398D02*
X7354767Y-10750922D01*
X7354767Y-10750922D02*
X7364291Y-10769970D01*
X7364291Y-10769970D02*
X7364291Y-10817589D01*
X7364291Y-10817589D02*
X7354767Y-10836636D01*
X7354767Y-10836636D02*
X7345244Y-10846160D01*
X7345244Y-10846160D02*
X7326196Y-10855684D01*
X7326196Y-10855684D02*
X7269053Y-10855684D01*
X7269053Y-10855684D02*
X7250006Y-10846160D01*
X7250006Y-10846160D02*
X7240482Y-10836636D01*
X7554767Y-10855684D02*
X7440482Y-10855684D01*
X7497625Y-10855684D02*
X7497625Y-10655684D01*
X7497625Y-10655684D02*
X7478577Y-10684255D01*
X7478577Y-10684255D02*
X7459529Y-10703303D01*
X7459529Y-10703303D02*
X7440482Y-10712827D01*
X7735720Y-10655684D02*
X7640482Y-10655684D01*
X7640482Y-10655684D02*
X7630958Y-10750922D01*
X7630958Y-10750922D02*
X7640482Y-10741398D01*
X7640482Y-10741398D02*
X7659529Y-10731874D01*
X7659529Y-10731874D02*
X7707148Y-10731874D01*
X7707148Y-10731874D02*
X7726196Y-10741398D01*
X7726196Y-10741398D02*
X7735720Y-10750922D01*
X7735720Y-10750922D02*
X7745244Y-10769970D01*
X7745244Y-10769970D02*
X7745244Y-10817589D01*
X7745244Y-10817589D02*
X7735720Y-10836636D01*
X7735720Y-10836636D02*
X7726196Y-10846160D01*
X7726196Y-10846160D02*
X7707148Y-10855684D01*
X7707148Y-10855684D02*
X7659529Y-10855684D01*
X7659529Y-10855684D02*
X7640482Y-10846160D01*
X7640482Y-10846160D02*
X7630958Y-10836636D01*
X7821434Y-10655684D02*
X7821434Y-10693779D01*
X7897625Y-10655684D02*
X7897625Y-10693779D01*
X8192863Y-10931874D02*
X8183339Y-10922350D01*
X8183339Y-10922350D02*
X8164291Y-10893779D01*
X8164291Y-10893779D02*
X8154768Y-10874731D01*
X8154768Y-10874731D02*
X8145244Y-10846160D01*
X8145244Y-10846160D02*
X8135720Y-10798541D01*
X8135720Y-10798541D02*
X8135720Y-10760446D01*
X8135720Y-10760446D02*
X8145244Y-10712827D01*
X8145244Y-10712827D02*
X8154768Y-10684255D01*
X8154768Y-10684255D02*
X8164291Y-10665208D01*
X8164291Y-10665208D02*
X8183339Y-10636636D01*
X8183339Y-10636636D02*
X8192863Y-10627112D01*
X8354768Y-10722350D02*
X8354768Y-10855684D01*
X8307148Y-10646160D02*
X8259529Y-10789017D01*
X8259529Y-10789017D02*
X8383339Y-10789017D01*
X8450006Y-10674731D02*
X8459530Y-10665208D01*
X8459530Y-10665208D02*
X8478577Y-10655684D01*
X8478577Y-10655684D02*
X8526196Y-10655684D01*
X8526196Y-10655684D02*
X8545244Y-10665208D01*
X8545244Y-10665208D02*
X8554768Y-10674731D01*
X8554768Y-10674731D02*
X8564291Y-10693779D01*
X8564291Y-10693779D02*
X8564291Y-10712827D01*
X8564291Y-10712827D02*
X8554768Y-10741398D01*
X8554768Y-10741398D02*
X8440482Y-10855684D01*
X8440482Y-10855684D02*
X8564291Y-10855684D01*
X8802387Y-10855684D02*
X8802387Y-10655684D01*
X8888101Y-10855684D02*
X8888101Y-10750922D01*
X8888101Y-10750922D02*
X8878577Y-10731874D01*
X8878577Y-10731874D02*
X8859530Y-10722350D01*
X8859530Y-10722350D02*
X8830958Y-10722350D01*
X8830958Y-10722350D02*
X8811911Y-10731874D01*
X8811911Y-10731874D02*
X8802387Y-10741398D01*
X9011911Y-10855684D02*
X8992863Y-10846160D01*
X8992863Y-10846160D02*
X8983339Y-10836636D01*
X8983339Y-10836636D02*
X8973815Y-10817589D01*
X8973815Y-10817589D02*
X8973815Y-10760446D01*
X8973815Y-10760446D02*
X8983339Y-10741398D01*
X8983339Y-10741398D02*
X8992863Y-10731874D01*
X8992863Y-10731874D02*
X9011911Y-10722350D01*
X9011911Y-10722350D02*
X9040482Y-10722350D01*
X9040482Y-10722350D02*
X9059530Y-10731874D01*
X9059530Y-10731874D02*
X9069053Y-10741398D01*
X9069053Y-10741398D02*
X9078577Y-10760446D01*
X9078577Y-10760446D02*
X9078577Y-10817589D01*
X9078577Y-10817589D02*
X9069053Y-10836636D01*
X9069053Y-10836636D02*
X9059530Y-10846160D01*
X9059530Y-10846160D02*
X9040482Y-10855684D01*
X9040482Y-10855684D02*
X9011911Y-10855684D01*
X9192863Y-10855684D02*
X9173815Y-10846160D01*
X9173815Y-10846160D02*
X9164292Y-10827112D01*
X9164292Y-10827112D02*
X9164292Y-10655684D01*
X9345244Y-10846160D02*
X9326196Y-10855684D01*
X9326196Y-10855684D02*
X9288101Y-10855684D01*
X9288101Y-10855684D02*
X9269053Y-10846160D01*
X9269053Y-10846160D02*
X9259530Y-10827112D01*
X9259530Y-10827112D02*
X9259530Y-10750922D01*
X9259530Y-10750922D02*
X9269053Y-10731874D01*
X9269053Y-10731874D02*
X9288101Y-10722350D01*
X9288101Y-10722350D02*
X9326196Y-10722350D01*
X9326196Y-10722350D02*
X9345244Y-10731874D01*
X9345244Y-10731874D02*
X9354768Y-10750922D01*
X9354768Y-10750922D02*
X9354768Y-10769970D01*
X9354768Y-10769970D02*
X9259530Y-10789017D01*
X9430958Y-10846160D02*
X9450006Y-10855684D01*
X9450006Y-10855684D02*
X9488101Y-10855684D01*
X9488101Y-10855684D02*
X9507149Y-10846160D01*
X9507149Y-10846160D02*
X9516673Y-10827112D01*
X9516673Y-10827112D02*
X9516673Y-10817589D01*
X9516673Y-10817589D02*
X9507149Y-10798541D01*
X9507149Y-10798541D02*
X9488101Y-10789017D01*
X9488101Y-10789017D02*
X9459530Y-10789017D01*
X9459530Y-10789017D02*
X9440482Y-10779493D01*
X9440482Y-10779493D02*
X9430958Y-10760446D01*
X9430958Y-10760446D02*
X9430958Y-10750922D01*
X9430958Y-10750922D02*
X9440482Y-10731874D01*
X9440482Y-10731874D02*
X9459530Y-10722350D01*
X9459530Y-10722350D02*
X9488101Y-10722350D01*
X9488101Y-10722350D02*
X9507149Y-10731874D01*
X9583339Y-10931874D02*
X9592863Y-10922350D01*
X9592863Y-10922350D02*
X9611911Y-10893779D01*
X9611911Y-10893779D02*
X9621434Y-10874731D01*
X9621434Y-10874731D02*
X9630958Y-10846160D01*
X9630958Y-10846160D02*
X9640482Y-10798541D01*
X9640482Y-10798541D02*
X9640482Y-10760446D01*
X9640482Y-10760446D02*
X9630958Y-10712827D01*
X9630958Y-10712827D02*
X9621434Y-10684255D01*
X9621434Y-10684255D02*
X9611911Y-10665208D01*
X9611911Y-10665208D02*
X9592863Y-10636636D01*
X9592863Y-10636636D02*
X9583339Y-10627112D01*
D14*
X4573300Y-10983700D02*
X4573300Y-11072700D01*
X4528800Y-11028200D02*
X4617800Y-11028200D01*
D11*
X4916672Y-10919684D02*
X4935720Y-10919684D01*
X4935720Y-10919684D02*
X4954767Y-10929208D01*
X4954767Y-10929208D02*
X4964291Y-10938731D01*
X4964291Y-10938731D02*
X4973815Y-10957779D01*
X4973815Y-10957779D02*
X4983339Y-10995874D01*
X4983339Y-10995874D02*
X4983339Y-11043493D01*
X4983339Y-11043493D02*
X4973815Y-11081589D01*
X4973815Y-11081589D02*
X4964291Y-11100636D01*
X4964291Y-11100636D02*
X4954767Y-11110160D01*
X4954767Y-11110160D02*
X4935720Y-11119684D01*
X4935720Y-11119684D02*
X4916672Y-11119684D01*
X4916672Y-11119684D02*
X4897624Y-11110160D01*
X4897624Y-11110160D02*
X4888101Y-11100636D01*
X4888101Y-11100636D02*
X4878577Y-11081589D01*
X4878577Y-11081589D02*
X4869053Y-11043493D01*
X4869053Y-11043493D02*
X4869053Y-10995874D01*
X4869053Y-10995874D02*
X4878577Y-10957779D01*
X4878577Y-10957779D02*
X4888101Y-10938731D01*
X4888101Y-10938731D02*
X4897624Y-10929208D01*
X4897624Y-10929208D02*
X4916672Y-10919684D01*
X5069053Y-11100636D02*
X5078577Y-11110160D01*
X5078577Y-11110160D02*
X5069053Y-11119684D01*
X5069053Y-11119684D02*
X5059529Y-11110160D01*
X5059529Y-11110160D02*
X5069053Y-11100636D01*
X5069053Y-11100636D02*
X5069053Y-11119684D01*
X5192863Y-11005398D02*
X5173815Y-10995874D01*
X5173815Y-10995874D02*
X5164291Y-10986350D01*
X5164291Y-10986350D02*
X5154767Y-10967303D01*
X5154767Y-10967303D02*
X5154767Y-10957779D01*
X5154767Y-10957779D02*
X5164291Y-10938731D01*
X5164291Y-10938731D02*
X5173815Y-10929208D01*
X5173815Y-10929208D02*
X5192863Y-10919684D01*
X5192863Y-10919684D02*
X5230958Y-10919684D01*
X5230958Y-10919684D02*
X5250005Y-10929208D01*
X5250005Y-10929208D02*
X5259529Y-10938731D01*
X5259529Y-10938731D02*
X5269053Y-10957779D01*
X5269053Y-10957779D02*
X5269053Y-10967303D01*
X5269053Y-10967303D02*
X5259529Y-10986350D01*
X5259529Y-10986350D02*
X5250005Y-10995874D01*
X5250005Y-10995874D02*
X5230958Y-11005398D01*
X5230958Y-11005398D02*
X5192863Y-11005398D01*
X5192863Y-11005398D02*
X5173815Y-11014922D01*
X5173815Y-11014922D02*
X5164291Y-11024446D01*
X5164291Y-11024446D02*
X5154767Y-11043493D01*
X5154767Y-11043493D02*
X5154767Y-11081589D01*
X5154767Y-11081589D02*
X5164291Y-11100636D01*
X5164291Y-11100636D02*
X5173815Y-11110160D01*
X5173815Y-11110160D02*
X5192863Y-11119684D01*
X5192863Y-11119684D02*
X5230958Y-11119684D01*
X5230958Y-11119684D02*
X5250005Y-11110160D01*
X5250005Y-11110160D02*
X5259529Y-11100636D01*
X5259529Y-11100636D02*
X5269053Y-11081589D01*
X5269053Y-11081589D02*
X5269053Y-11043493D01*
X5269053Y-11043493D02*
X5259529Y-11024446D01*
X5259529Y-11024446D02*
X5250005Y-11014922D01*
X5250005Y-11014922D02*
X5230958Y-11005398D01*
X5364291Y-11119684D02*
X5402386Y-11119684D01*
X5402386Y-11119684D02*
X5421434Y-11110160D01*
X5421434Y-11110160D02*
X5430958Y-11100636D01*
X5430958Y-11100636D02*
X5450005Y-11072065D01*
X5450005Y-11072065D02*
X5459529Y-11033970D01*
X5459529Y-11033970D02*
X5459529Y-10957779D01*
X5459529Y-10957779D02*
X5450005Y-10938731D01*
X5450005Y-10938731D02*
X5440482Y-10929208D01*
X5440482Y-10929208D02*
X5421434Y-10919684D01*
X5421434Y-10919684D02*
X5383339Y-10919684D01*
X5383339Y-10919684D02*
X5364291Y-10929208D01*
X5364291Y-10929208D02*
X5354767Y-10938731D01*
X5354767Y-10938731D02*
X5345244Y-10957779D01*
X5345244Y-10957779D02*
X5345244Y-11005398D01*
X5345244Y-11005398D02*
X5354767Y-11024446D01*
X5354767Y-11024446D02*
X5364291Y-11033970D01*
X5364291Y-11033970D02*
X5383339Y-11043493D01*
X5383339Y-11043493D02*
X5421434Y-11043493D01*
X5421434Y-11043493D02*
X5440482Y-11033970D01*
X5440482Y-11033970D02*
X5450005Y-11024446D01*
X5450005Y-11024446D02*
X5459529Y-11005398D01*
X5583339Y-10919684D02*
X5602386Y-10919684D01*
X5602386Y-10919684D02*
X5621434Y-10929208D01*
X5621434Y-10929208D02*
X5630958Y-10938731D01*
X5630958Y-10938731D02*
X5640482Y-10957779D01*
X5640482Y-10957779D02*
X5650005Y-10995874D01*
X5650005Y-10995874D02*
X5650005Y-11043493D01*
X5650005Y-11043493D02*
X5640482Y-11081589D01*
X5640482Y-11081589D02*
X5630958Y-11100636D01*
X5630958Y-11100636D02*
X5621434Y-11110160D01*
X5621434Y-11110160D02*
X5602386Y-11119684D01*
X5602386Y-11119684D02*
X5583339Y-11119684D01*
X5583339Y-11119684D02*
X5564291Y-11110160D01*
X5564291Y-11110160D02*
X5554767Y-11100636D01*
X5554767Y-11100636D02*
X5545244Y-11081589D01*
X5545244Y-11081589D02*
X5535720Y-11043493D01*
X5535720Y-11043493D02*
X5535720Y-10995874D01*
X5535720Y-10995874D02*
X5545244Y-10957779D01*
X5545244Y-10957779D02*
X5554767Y-10938731D01*
X5554767Y-10938731D02*
X5564291Y-10929208D01*
X5564291Y-10929208D02*
X5583339Y-10919684D01*
X5735720Y-11119684D02*
X5735720Y-10986350D01*
X5735720Y-11005398D02*
X5745243Y-10995874D01*
X5745243Y-10995874D02*
X5764291Y-10986350D01*
X5764291Y-10986350D02*
X5792863Y-10986350D01*
X5792863Y-10986350D02*
X5811910Y-10995874D01*
X5811910Y-10995874D02*
X5821434Y-11014922D01*
X5821434Y-11014922D02*
X5821434Y-11119684D01*
X5821434Y-11014922D02*
X5830958Y-10995874D01*
X5830958Y-10995874D02*
X5850005Y-10986350D01*
X5850005Y-10986350D02*
X5878577Y-10986350D01*
X5878577Y-10986350D02*
X5897624Y-10995874D01*
X5897624Y-10995874D02*
X5907148Y-11014922D01*
X5907148Y-11014922D02*
X5907148Y-11119684D01*
X6002386Y-11119684D02*
X6002386Y-10986350D01*
X6002386Y-11005398D02*
X6011910Y-10995874D01*
X6011910Y-10995874D02*
X6030958Y-10986350D01*
X6030958Y-10986350D02*
X6059529Y-10986350D01*
X6059529Y-10986350D02*
X6078577Y-10995874D01*
X6078577Y-10995874D02*
X6088101Y-11014922D01*
X6088101Y-11014922D02*
X6088101Y-11119684D01*
X6088101Y-11014922D02*
X6097624Y-10995874D01*
X6097624Y-10995874D02*
X6116672Y-10986350D01*
X6116672Y-10986350D02*
X6145243Y-10986350D01*
X6145243Y-10986350D02*
X6164291Y-10995874D01*
X6164291Y-10995874D02*
X6173815Y-11014922D01*
X6173815Y-11014922D02*
X6173815Y-11119684D01*
X6564291Y-10910160D02*
X6392863Y-11167303D01*
X6821434Y-10919684D02*
X6840482Y-10919684D01*
X6840482Y-10919684D02*
X6859529Y-10929208D01*
X6859529Y-10929208D02*
X6869053Y-10938731D01*
X6869053Y-10938731D02*
X6878577Y-10957779D01*
X6878577Y-10957779D02*
X6888101Y-10995874D01*
X6888101Y-10995874D02*
X6888101Y-11043493D01*
X6888101Y-11043493D02*
X6878577Y-11081589D01*
X6878577Y-11081589D02*
X6869053Y-11100636D01*
X6869053Y-11100636D02*
X6859529Y-11110160D01*
X6859529Y-11110160D02*
X6840482Y-11119684D01*
X6840482Y-11119684D02*
X6821434Y-11119684D01*
X6821434Y-11119684D02*
X6802386Y-11110160D01*
X6802386Y-11110160D02*
X6792863Y-11100636D01*
X6792863Y-11100636D02*
X6783339Y-11081589D01*
X6783339Y-11081589D02*
X6773815Y-11043493D01*
X6773815Y-11043493D02*
X6773815Y-10995874D01*
X6773815Y-10995874D02*
X6783339Y-10957779D01*
X6783339Y-10957779D02*
X6792863Y-10938731D01*
X6792863Y-10938731D02*
X6802386Y-10929208D01*
X6802386Y-10929208D02*
X6821434Y-10919684D01*
X6973815Y-11100636D02*
X6983339Y-11110160D01*
X6983339Y-11110160D02*
X6973815Y-11119684D01*
X6973815Y-11119684D02*
X6964291Y-11110160D01*
X6964291Y-11110160D02*
X6973815Y-11100636D01*
X6973815Y-11100636D02*
X6973815Y-11119684D01*
X7107148Y-10919684D02*
X7126196Y-10919684D01*
X7126196Y-10919684D02*
X7145244Y-10929208D01*
X7145244Y-10929208D02*
X7154767Y-10938731D01*
X7154767Y-10938731D02*
X7164291Y-10957779D01*
X7164291Y-10957779D02*
X7173815Y-10995874D01*
X7173815Y-10995874D02*
X7173815Y-11043493D01*
X7173815Y-11043493D02*
X7164291Y-11081589D01*
X7164291Y-11081589D02*
X7154767Y-11100636D01*
X7154767Y-11100636D02*
X7145244Y-11110160D01*
X7145244Y-11110160D02*
X7126196Y-11119684D01*
X7126196Y-11119684D02*
X7107148Y-11119684D01*
X7107148Y-11119684D02*
X7088101Y-11110160D01*
X7088101Y-11110160D02*
X7078577Y-11100636D01*
X7078577Y-11100636D02*
X7069053Y-11081589D01*
X7069053Y-11081589D02*
X7059529Y-11043493D01*
X7059529Y-11043493D02*
X7059529Y-10995874D01*
X7059529Y-10995874D02*
X7069053Y-10957779D01*
X7069053Y-10957779D02*
X7078577Y-10938731D01*
X7078577Y-10938731D02*
X7088101Y-10929208D01*
X7088101Y-10929208D02*
X7107148Y-10919684D01*
X7240482Y-10919684D02*
X7364291Y-10919684D01*
X7364291Y-10919684D02*
X7297625Y-10995874D01*
X7297625Y-10995874D02*
X7326196Y-10995874D01*
X7326196Y-10995874D02*
X7345244Y-11005398D01*
X7345244Y-11005398D02*
X7354767Y-11014922D01*
X7354767Y-11014922D02*
X7364291Y-11033970D01*
X7364291Y-11033970D02*
X7364291Y-11081589D01*
X7364291Y-11081589D02*
X7354767Y-11100636D01*
X7354767Y-11100636D02*
X7345244Y-11110160D01*
X7345244Y-11110160D02*
X7326196Y-11119684D01*
X7326196Y-11119684D02*
X7269053Y-11119684D01*
X7269053Y-11119684D02*
X7250006Y-11110160D01*
X7250006Y-11110160D02*
X7240482Y-11100636D01*
X7545244Y-10919684D02*
X7450006Y-10919684D01*
X7450006Y-10919684D02*
X7440482Y-11014922D01*
X7440482Y-11014922D02*
X7450006Y-11005398D01*
X7450006Y-11005398D02*
X7469053Y-10995874D01*
X7469053Y-10995874D02*
X7516672Y-10995874D01*
X7516672Y-10995874D02*
X7535720Y-11005398D01*
X7535720Y-11005398D02*
X7545244Y-11014922D01*
X7545244Y-11014922D02*
X7554767Y-11033970D01*
X7554767Y-11033970D02*
X7554767Y-11081589D01*
X7554767Y-11081589D02*
X7545244Y-11100636D01*
X7545244Y-11100636D02*
X7535720Y-11110160D01*
X7535720Y-11110160D02*
X7516672Y-11119684D01*
X7516672Y-11119684D02*
X7469053Y-11119684D01*
X7469053Y-11119684D02*
X7450006Y-11110160D01*
X7450006Y-11110160D02*
X7440482Y-11100636D01*
X7678577Y-10919684D02*
X7697625Y-10919684D01*
X7697625Y-10919684D02*
X7716672Y-10929208D01*
X7716672Y-10929208D02*
X7726196Y-10938731D01*
X7726196Y-10938731D02*
X7735720Y-10957779D01*
X7735720Y-10957779D02*
X7745244Y-10995874D01*
X7745244Y-10995874D02*
X7745244Y-11043493D01*
X7745244Y-11043493D02*
X7735720Y-11081589D01*
X7735720Y-11081589D02*
X7726196Y-11100636D01*
X7726196Y-11100636D02*
X7716672Y-11110160D01*
X7716672Y-11110160D02*
X7697625Y-11119684D01*
X7697625Y-11119684D02*
X7678577Y-11119684D01*
X7678577Y-11119684D02*
X7659529Y-11110160D01*
X7659529Y-11110160D02*
X7650006Y-11100636D01*
X7650006Y-11100636D02*
X7640482Y-11081589D01*
X7640482Y-11081589D02*
X7630958Y-11043493D01*
X7630958Y-11043493D02*
X7630958Y-10995874D01*
X7630958Y-10995874D02*
X7640482Y-10957779D01*
X7640482Y-10957779D02*
X7650006Y-10938731D01*
X7650006Y-10938731D02*
X7659529Y-10929208D01*
X7659529Y-10929208D02*
X7678577Y-10919684D01*
X7821434Y-10919684D02*
X7821434Y-10957779D01*
X7897625Y-10919684D02*
X7897625Y-10957779D01*
X8192863Y-11195874D02*
X8183339Y-11186350D01*
X8183339Y-11186350D02*
X8164291Y-11157779D01*
X8164291Y-11157779D02*
X8154768Y-11138731D01*
X8154768Y-11138731D02*
X8145244Y-11110160D01*
X8145244Y-11110160D02*
X8135720Y-11062541D01*
X8135720Y-11062541D02*
X8135720Y-11024446D01*
X8135720Y-11024446D02*
X8145244Y-10976827D01*
X8145244Y-10976827D02*
X8154768Y-10948255D01*
X8154768Y-10948255D02*
X8164291Y-10929208D01*
X8164291Y-10929208D02*
X8183339Y-10900636D01*
X8183339Y-10900636D02*
X8192863Y-10891112D01*
X8259529Y-10938731D02*
X8269053Y-10929208D01*
X8269053Y-10929208D02*
X8288101Y-10919684D01*
X8288101Y-10919684D02*
X8335720Y-10919684D01*
X8335720Y-10919684D02*
X8354768Y-10929208D01*
X8354768Y-10929208D02*
X8364291Y-10938731D01*
X8364291Y-10938731D02*
X8373815Y-10957779D01*
X8373815Y-10957779D02*
X8373815Y-10976827D01*
X8373815Y-10976827D02*
X8364291Y-11005398D01*
X8364291Y-11005398D02*
X8250006Y-11119684D01*
X8250006Y-11119684D02*
X8373815Y-11119684D01*
X8611911Y-11119684D02*
X8611911Y-10919684D01*
X8697625Y-11119684D02*
X8697625Y-11014922D01*
X8697625Y-11014922D02*
X8688101Y-10995874D01*
X8688101Y-10995874D02*
X8669053Y-10986350D01*
X8669053Y-10986350D02*
X8640482Y-10986350D01*
X8640482Y-10986350D02*
X8621434Y-10995874D01*
X8621434Y-10995874D02*
X8611911Y-11005398D01*
X8821434Y-11119684D02*
X8802387Y-11110160D01*
X8802387Y-11110160D02*
X8792863Y-11100636D01*
X8792863Y-11100636D02*
X8783339Y-11081589D01*
X8783339Y-11081589D02*
X8783339Y-11024446D01*
X8783339Y-11024446D02*
X8792863Y-11005398D01*
X8792863Y-11005398D02*
X8802387Y-10995874D01*
X8802387Y-10995874D02*
X8821434Y-10986350D01*
X8821434Y-10986350D02*
X8850006Y-10986350D01*
X8850006Y-10986350D02*
X8869053Y-10995874D01*
X8869053Y-10995874D02*
X8878577Y-11005398D01*
X8878577Y-11005398D02*
X8888101Y-11024446D01*
X8888101Y-11024446D02*
X8888101Y-11081589D01*
X8888101Y-11081589D02*
X8878577Y-11100636D01*
X8878577Y-11100636D02*
X8869053Y-11110160D01*
X8869053Y-11110160D02*
X8850006Y-11119684D01*
X8850006Y-11119684D02*
X8821434Y-11119684D01*
X9002387Y-11119684D02*
X8983339Y-11110160D01*
X8983339Y-11110160D02*
X8973815Y-11091112D01*
X8973815Y-11091112D02*
X8973815Y-10919684D01*
X9154768Y-11110160D02*
X9135720Y-11119684D01*
X9135720Y-11119684D02*
X9097625Y-11119684D01*
X9097625Y-11119684D02*
X9078577Y-11110160D01*
X9078577Y-11110160D02*
X9069053Y-11091112D01*
X9069053Y-11091112D02*
X9069053Y-11014922D01*
X9069053Y-11014922D02*
X9078577Y-10995874D01*
X9078577Y-10995874D02*
X9097625Y-10986350D01*
X9097625Y-10986350D02*
X9135720Y-10986350D01*
X9135720Y-10986350D02*
X9154768Y-10995874D01*
X9154768Y-10995874D02*
X9164292Y-11014922D01*
X9164292Y-11014922D02*
X9164292Y-11033970D01*
X9164292Y-11033970D02*
X9069053Y-11053017D01*
X9240482Y-11110160D02*
X9259530Y-11119684D01*
X9259530Y-11119684D02*
X9297625Y-11119684D01*
X9297625Y-11119684D02*
X9316673Y-11110160D01*
X9316673Y-11110160D02*
X9326196Y-11091112D01*
X9326196Y-11091112D02*
X9326196Y-11081589D01*
X9326196Y-11081589D02*
X9316673Y-11062541D01*
X9316673Y-11062541D02*
X9297625Y-11053017D01*
X9297625Y-11053017D02*
X9269053Y-11053017D01*
X9269053Y-11053017D02*
X9250006Y-11043493D01*
X9250006Y-11043493D02*
X9240482Y-11024446D01*
X9240482Y-11024446D02*
X9240482Y-11014922D01*
X9240482Y-11014922D02*
X9250006Y-10995874D01*
X9250006Y-10995874D02*
X9269053Y-10986350D01*
X9269053Y-10986350D02*
X9297625Y-10986350D01*
X9297625Y-10986350D02*
X9316673Y-10995874D01*
X9392863Y-11195874D02*
X9402387Y-11186350D01*
X9402387Y-11186350D02*
X9421434Y-11157779D01*
X9421434Y-11157779D02*
X9430958Y-11138731D01*
X9430958Y-11138731D02*
X9440482Y-11110160D01*
X9440482Y-11110160D02*
X9450006Y-11062541D01*
X9450006Y-11062541D02*
X9450006Y-11024446D01*
X9450006Y-11024446D02*
X9440482Y-10976827D01*
X9440482Y-10976827D02*
X9430958Y-10948255D01*
X9430958Y-10948255D02*
X9421434Y-10929208D01*
X9421434Y-10929208D02*
X9402387Y-10900636D01*
X9402387Y-10900636D02*
X9392863Y-10891112D01*
D15*
X4604620Y-11324020D02*
X4604620Y-11260380D01*
X4540980Y-11260380D01*
X4540980Y-11324020D01*
X4604620Y-11324020D01*
D11*
X4916672Y-11183684D02*
X4935720Y-11183684D01*
X4935720Y-11183684D02*
X4954767Y-11193208D01*
X4954767Y-11193208D02*
X4964291Y-11202731D01*
X4964291Y-11202731D02*
X4973815Y-11221779D01*
X4973815Y-11221779D02*
X4983339Y-11259874D01*
X4983339Y-11259874D02*
X4983339Y-11307493D01*
X4983339Y-11307493D02*
X4973815Y-11345588D01*
X4973815Y-11345588D02*
X4964291Y-11364636D01*
X4964291Y-11364636D02*
X4954767Y-11374160D01*
X4954767Y-11374160D02*
X4935720Y-11383684D01*
X4935720Y-11383684D02*
X4916672Y-11383684D01*
X4916672Y-11383684D02*
X4897624Y-11374160D01*
X4897624Y-11374160D02*
X4888101Y-11364636D01*
X4888101Y-11364636D02*
X4878577Y-11345588D01*
X4878577Y-11345588D02*
X4869053Y-11307493D01*
X4869053Y-11307493D02*
X4869053Y-11259874D01*
X4869053Y-11259874D02*
X4878577Y-11221779D01*
X4878577Y-11221779D02*
X4888101Y-11202731D01*
X4888101Y-11202731D02*
X4897624Y-11193208D01*
X4897624Y-11193208D02*
X4916672Y-11183684D01*
X5069053Y-11364636D02*
X5078577Y-11374160D01*
X5078577Y-11374160D02*
X5069053Y-11383684D01*
X5069053Y-11383684D02*
X5059529Y-11374160D01*
X5059529Y-11374160D02*
X5069053Y-11364636D01*
X5069053Y-11364636D02*
X5069053Y-11383684D01*
X5173815Y-11383684D02*
X5211910Y-11383684D01*
X5211910Y-11383684D02*
X5230958Y-11374160D01*
X5230958Y-11374160D02*
X5240482Y-11364636D01*
X5240482Y-11364636D02*
X5259529Y-11336065D01*
X5259529Y-11336065D02*
X5269053Y-11297969D01*
X5269053Y-11297969D02*
X5269053Y-11221779D01*
X5269053Y-11221779D02*
X5259529Y-11202731D01*
X5259529Y-11202731D02*
X5250005Y-11193208D01*
X5250005Y-11193208D02*
X5230958Y-11183684D01*
X5230958Y-11183684D02*
X5192863Y-11183684D01*
X5192863Y-11183684D02*
X5173815Y-11193208D01*
X5173815Y-11193208D02*
X5164291Y-11202731D01*
X5164291Y-11202731D02*
X5154767Y-11221779D01*
X5154767Y-11221779D02*
X5154767Y-11269398D01*
X5154767Y-11269398D02*
X5164291Y-11288446D01*
X5164291Y-11288446D02*
X5173815Y-11297969D01*
X5173815Y-11297969D02*
X5192863Y-11307493D01*
X5192863Y-11307493D02*
X5230958Y-11307493D01*
X5230958Y-11307493D02*
X5250005Y-11297969D01*
X5250005Y-11297969D02*
X5259529Y-11288446D01*
X5259529Y-11288446D02*
X5269053Y-11269398D01*
X5392863Y-11183684D02*
X5411910Y-11183684D01*
X5411910Y-11183684D02*
X5430958Y-11193208D01*
X5430958Y-11193208D02*
X5440482Y-11202731D01*
X5440482Y-11202731D02*
X5450005Y-11221779D01*
X5450005Y-11221779D02*
X5459529Y-11259874D01*
X5459529Y-11259874D02*
X5459529Y-11307493D01*
X5459529Y-11307493D02*
X5450005Y-11345588D01*
X5450005Y-11345588D02*
X5440482Y-11364636D01*
X5440482Y-11364636D02*
X5430958Y-11374160D01*
X5430958Y-11374160D02*
X5411910Y-11383684D01*
X5411910Y-11383684D02*
X5392863Y-11383684D01*
X5392863Y-11383684D02*
X5373815Y-11374160D01*
X5373815Y-11374160D02*
X5364291Y-11364636D01*
X5364291Y-11364636D02*
X5354767Y-11345588D01*
X5354767Y-11345588D02*
X5345244Y-11307493D01*
X5345244Y-11307493D02*
X5345244Y-11259874D01*
X5345244Y-11259874D02*
X5354767Y-11221779D01*
X5354767Y-11221779D02*
X5364291Y-11202731D01*
X5364291Y-11202731D02*
X5373815Y-11193208D01*
X5373815Y-11193208D02*
X5392863Y-11183684D01*
X5583339Y-11183684D02*
X5602386Y-11183684D01*
X5602386Y-11183684D02*
X5621434Y-11193208D01*
X5621434Y-11193208D02*
X5630958Y-11202731D01*
X5630958Y-11202731D02*
X5640482Y-11221779D01*
X5640482Y-11221779D02*
X5650005Y-11259874D01*
X5650005Y-11259874D02*
X5650005Y-11307493D01*
X5650005Y-11307493D02*
X5640482Y-11345588D01*
X5640482Y-11345588D02*
X5630958Y-11364636D01*
X5630958Y-11364636D02*
X5621434Y-11374160D01*
X5621434Y-11374160D02*
X5602386Y-11383684D01*
X5602386Y-11383684D02*
X5583339Y-11383684D01*
X5583339Y-11383684D02*
X5564291Y-11374160D01*
X5564291Y-11374160D02*
X5554767Y-11364636D01*
X5554767Y-11364636D02*
X5545244Y-11345588D01*
X5545244Y-11345588D02*
X5535720Y-11307493D01*
X5535720Y-11307493D02*
X5535720Y-11259874D01*
X5535720Y-11259874D02*
X5545244Y-11221779D01*
X5545244Y-11221779D02*
X5554767Y-11202731D01*
X5554767Y-11202731D02*
X5564291Y-11193208D01*
X5564291Y-11193208D02*
X5583339Y-11183684D01*
X5735720Y-11383684D02*
X5735720Y-11250350D01*
X5735720Y-11269398D02*
X5745243Y-11259874D01*
X5745243Y-11259874D02*
X5764291Y-11250350D01*
X5764291Y-11250350D02*
X5792863Y-11250350D01*
X5792863Y-11250350D02*
X5811910Y-11259874D01*
X5811910Y-11259874D02*
X5821434Y-11278922D01*
X5821434Y-11278922D02*
X5821434Y-11383684D01*
X5821434Y-11278922D02*
X5830958Y-11259874D01*
X5830958Y-11259874D02*
X5850005Y-11250350D01*
X5850005Y-11250350D02*
X5878577Y-11250350D01*
X5878577Y-11250350D02*
X5897624Y-11259874D01*
X5897624Y-11259874D02*
X5907148Y-11278922D01*
X5907148Y-11278922D02*
X5907148Y-11383684D01*
X6002386Y-11383684D02*
X6002386Y-11250350D01*
X6002386Y-11269398D02*
X6011910Y-11259874D01*
X6011910Y-11259874D02*
X6030958Y-11250350D01*
X6030958Y-11250350D02*
X6059529Y-11250350D01*
X6059529Y-11250350D02*
X6078577Y-11259874D01*
X6078577Y-11259874D02*
X6088101Y-11278922D01*
X6088101Y-11278922D02*
X6088101Y-11383684D01*
X6088101Y-11278922D02*
X6097624Y-11259874D01*
X6097624Y-11259874D02*
X6116672Y-11250350D01*
X6116672Y-11250350D02*
X6145243Y-11250350D01*
X6145243Y-11250350D02*
X6164291Y-11259874D01*
X6164291Y-11259874D02*
X6173815Y-11278922D01*
X6173815Y-11278922D02*
X6173815Y-11383684D01*
X6564291Y-11174160D02*
X6392863Y-11431303D01*
X6821434Y-11183684D02*
X6840482Y-11183684D01*
X6840482Y-11183684D02*
X6859529Y-11193208D01*
X6859529Y-11193208D02*
X6869053Y-11202731D01*
X6869053Y-11202731D02*
X6878577Y-11221779D01*
X6878577Y-11221779D02*
X6888101Y-11259874D01*
X6888101Y-11259874D02*
X6888101Y-11307493D01*
X6888101Y-11307493D02*
X6878577Y-11345588D01*
X6878577Y-11345588D02*
X6869053Y-11364636D01*
X6869053Y-11364636D02*
X6859529Y-11374160D01*
X6859529Y-11374160D02*
X6840482Y-11383684D01*
X6840482Y-11383684D02*
X6821434Y-11383684D01*
X6821434Y-11383684D02*
X6802386Y-11374160D01*
X6802386Y-11374160D02*
X6792863Y-11364636D01*
X6792863Y-11364636D02*
X6783339Y-11345588D01*
X6783339Y-11345588D02*
X6773815Y-11307493D01*
X6773815Y-11307493D02*
X6773815Y-11259874D01*
X6773815Y-11259874D02*
X6783339Y-11221779D01*
X6783339Y-11221779D02*
X6792863Y-11202731D01*
X6792863Y-11202731D02*
X6802386Y-11193208D01*
X6802386Y-11193208D02*
X6821434Y-11183684D01*
X6973815Y-11364636D02*
X6983339Y-11374160D01*
X6983339Y-11374160D02*
X6973815Y-11383684D01*
X6973815Y-11383684D02*
X6964291Y-11374160D01*
X6964291Y-11374160D02*
X6973815Y-11364636D01*
X6973815Y-11364636D02*
X6973815Y-11383684D01*
X7107148Y-11183684D02*
X7126196Y-11183684D01*
X7126196Y-11183684D02*
X7145244Y-11193208D01*
X7145244Y-11193208D02*
X7154767Y-11202731D01*
X7154767Y-11202731D02*
X7164291Y-11221779D01*
X7164291Y-11221779D02*
X7173815Y-11259874D01*
X7173815Y-11259874D02*
X7173815Y-11307493D01*
X7173815Y-11307493D02*
X7164291Y-11345588D01*
X7164291Y-11345588D02*
X7154767Y-11364636D01*
X7154767Y-11364636D02*
X7145244Y-11374160D01*
X7145244Y-11374160D02*
X7126196Y-11383684D01*
X7126196Y-11383684D02*
X7107148Y-11383684D01*
X7107148Y-11383684D02*
X7088101Y-11374160D01*
X7088101Y-11374160D02*
X7078577Y-11364636D01*
X7078577Y-11364636D02*
X7069053Y-11345588D01*
X7069053Y-11345588D02*
X7059529Y-11307493D01*
X7059529Y-11307493D02*
X7059529Y-11259874D01*
X7059529Y-11259874D02*
X7069053Y-11221779D01*
X7069053Y-11221779D02*
X7078577Y-11202731D01*
X7078577Y-11202731D02*
X7088101Y-11193208D01*
X7088101Y-11193208D02*
X7107148Y-11183684D01*
X7240482Y-11183684D02*
X7364291Y-11183684D01*
X7364291Y-11183684D02*
X7297625Y-11259874D01*
X7297625Y-11259874D02*
X7326196Y-11259874D01*
X7326196Y-11259874D02*
X7345244Y-11269398D01*
X7345244Y-11269398D02*
X7354767Y-11278922D01*
X7354767Y-11278922D02*
X7364291Y-11297969D01*
X7364291Y-11297969D02*
X7364291Y-11345588D01*
X7364291Y-11345588D02*
X7354767Y-11364636D01*
X7354767Y-11364636D02*
X7345244Y-11374160D01*
X7345244Y-11374160D02*
X7326196Y-11383684D01*
X7326196Y-11383684D02*
X7269053Y-11383684D01*
X7269053Y-11383684D02*
X7250006Y-11374160D01*
X7250006Y-11374160D02*
X7240482Y-11364636D01*
X7545244Y-11183684D02*
X7450006Y-11183684D01*
X7450006Y-11183684D02*
X7440482Y-11278922D01*
X7440482Y-11278922D02*
X7450006Y-11269398D01*
X7450006Y-11269398D02*
X7469053Y-11259874D01*
X7469053Y-11259874D02*
X7516672Y-11259874D01*
X7516672Y-11259874D02*
X7535720Y-11269398D01*
X7535720Y-11269398D02*
X7545244Y-11278922D01*
X7545244Y-11278922D02*
X7554767Y-11297969D01*
X7554767Y-11297969D02*
X7554767Y-11345588D01*
X7554767Y-11345588D02*
X7545244Y-11364636D01*
X7545244Y-11364636D02*
X7535720Y-11374160D01*
X7535720Y-11374160D02*
X7516672Y-11383684D01*
X7516672Y-11383684D02*
X7469053Y-11383684D01*
X7469053Y-11383684D02*
X7450006Y-11374160D01*
X7450006Y-11374160D02*
X7440482Y-11364636D01*
X7726196Y-11250350D02*
X7726196Y-11383684D01*
X7678577Y-11174160D02*
X7630958Y-11317017D01*
X7630958Y-11317017D02*
X7754767Y-11317017D01*
X7821434Y-11183684D02*
X7821434Y-11221779D01*
X7897625Y-11183684D02*
X7897625Y-11221779D01*
X8192863Y-11459874D02*
X8183339Y-11450350D01*
X8183339Y-11450350D02*
X8164291Y-11421779D01*
X8164291Y-11421779D02*
X8154768Y-11402731D01*
X8154768Y-11402731D02*
X8145244Y-11374160D01*
X8145244Y-11374160D02*
X8135720Y-11326541D01*
X8135720Y-11326541D02*
X8135720Y-11288446D01*
X8135720Y-11288446D02*
X8145244Y-11240827D01*
X8145244Y-11240827D02*
X8154768Y-11212255D01*
X8154768Y-11212255D02*
X8164291Y-11193208D01*
X8164291Y-11193208D02*
X8183339Y-11164636D01*
X8183339Y-11164636D02*
X8192863Y-11155112D01*
X8259529Y-11202731D02*
X8269053Y-11193208D01*
X8269053Y-11193208D02*
X8288101Y-11183684D01*
X8288101Y-11183684D02*
X8335720Y-11183684D01*
X8335720Y-11183684D02*
X8354768Y-11193208D01*
X8354768Y-11193208D02*
X8364291Y-11202731D01*
X8364291Y-11202731D02*
X8373815Y-11221779D01*
X8373815Y-11221779D02*
X8373815Y-11240827D01*
X8373815Y-11240827D02*
X8364291Y-11269398D01*
X8364291Y-11269398D02*
X8250006Y-11383684D01*
X8250006Y-11383684D02*
X8373815Y-11383684D01*
X8611911Y-11383684D02*
X8611911Y-11183684D01*
X8697625Y-11383684D02*
X8697625Y-11278922D01*
X8697625Y-11278922D02*
X8688101Y-11259874D01*
X8688101Y-11259874D02*
X8669053Y-11250350D01*
X8669053Y-11250350D02*
X8640482Y-11250350D01*
X8640482Y-11250350D02*
X8621434Y-11259874D01*
X8621434Y-11259874D02*
X8611911Y-11269398D01*
X8821434Y-11383684D02*
X8802387Y-11374160D01*
X8802387Y-11374160D02*
X8792863Y-11364636D01*
X8792863Y-11364636D02*
X8783339Y-11345588D01*
X8783339Y-11345588D02*
X8783339Y-11288446D01*
X8783339Y-11288446D02*
X8792863Y-11269398D01*
X8792863Y-11269398D02*
X8802387Y-11259874D01*
X8802387Y-11259874D02*
X8821434Y-11250350D01*
X8821434Y-11250350D02*
X8850006Y-11250350D01*
X8850006Y-11250350D02*
X8869053Y-11259874D01*
X8869053Y-11259874D02*
X8878577Y-11269398D01*
X8878577Y-11269398D02*
X8888101Y-11288446D01*
X8888101Y-11288446D02*
X8888101Y-11345588D01*
X8888101Y-11345588D02*
X8878577Y-11364636D01*
X8878577Y-11364636D02*
X8869053Y-11374160D01*
X8869053Y-11374160D02*
X8850006Y-11383684D01*
X8850006Y-11383684D02*
X8821434Y-11383684D01*
X9002387Y-11383684D02*
X8983339Y-11374160D01*
X8983339Y-11374160D02*
X8973815Y-11355112D01*
X8973815Y-11355112D02*
X8973815Y-11183684D01*
X9154768Y-11374160D02*
X9135720Y-11383684D01*
X9135720Y-11383684D02*
X9097625Y-11383684D01*
X9097625Y-11383684D02*
X9078577Y-11374160D01*
X9078577Y-11374160D02*
X9069053Y-11355112D01*
X9069053Y-11355112D02*
X9069053Y-11278922D01*
X9069053Y-11278922D02*
X9078577Y-11259874D01*
X9078577Y-11259874D02*
X9097625Y-11250350D01*
X9097625Y-11250350D02*
X9135720Y-11250350D01*
X9135720Y-11250350D02*
X9154768Y-11259874D01*
X9154768Y-11259874D02*
X9164292Y-11278922D01*
X9164292Y-11278922D02*
X9164292Y-11297969D01*
X9164292Y-11297969D02*
X9069053Y-11317017D01*
X9240482Y-11374160D02*
X9259530Y-11383684D01*
X9259530Y-11383684D02*
X9297625Y-11383684D01*
X9297625Y-11383684D02*
X9316673Y-11374160D01*
X9316673Y-11374160D02*
X9326196Y-11355112D01*
X9326196Y-11355112D02*
X9326196Y-11345588D01*
X9326196Y-11345588D02*
X9316673Y-11326541D01*
X9316673Y-11326541D02*
X9297625Y-11317017D01*
X9297625Y-11317017D02*
X9269053Y-11317017D01*
X9269053Y-11317017D02*
X9250006Y-11307493D01*
X9250006Y-11307493D02*
X9240482Y-11288446D01*
X9240482Y-11288446D02*
X9240482Y-11278922D01*
X9240482Y-11278922D02*
X9250006Y-11259874D01*
X9250006Y-11259874D02*
X9269053Y-11250350D01*
X9269053Y-11250350D02*
X9297625Y-11250350D01*
X9297625Y-11250350D02*
X9316673Y-11259874D01*
X9392863Y-11459874D02*
X9402387Y-11450350D01*
X9402387Y-11450350D02*
X9421434Y-11421779D01*
X9421434Y-11421779D02*
X9430958Y-11402731D01*
X9430958Y-11402731D02*
X9440482Y-11374160D01*
X9440482Y-11374160D02*
X9450006Y-11326541D01*
X9450006Y-11326541D02*
X9450006Y-11288446D01*
X9450006Y-11288446D02*
X9440482Y-11240827D01*
X9440482Y-11240827D02*
X9430958Y-11212255D01*
X9430958Y-11212255D02*
X9421434Y-11193208D01*
X9421434Y-11193208D02*
X9402387Y-11164636D01*
X9402387Y-11164636D02*
X9392863Y-11155112D01*
D16*
X4570300Y-11603700D02*
X4617800Y-11556200D01*
X4570300Y-11508700D01*
X4522800Y-11556200D01*
X4570300Y-11603700D01*
D11*
X4916672Y-11447684D02*
X4935720Y-11447684D01*
X4935720Y-11447684D02*
X4954767Y-11457208D01*
X4954767Y-11457208D02*
X4964291Y-11466731D01*
X4964291Y-11466731D02*
X4973815Y-11485779D01*
X4973815Y-11485779D02*
X4983339Y-11523874D01*
X4983339Y-11523874D02*
X4983339Y-11571493D01*
X4983339Y-11571493D02*
X4973815Y-11609588D01*
X4973815Y-11609588D02*
X4964291Y-11628636D01*
X4964291Y-11628636D02*
X4954767Y-11638160D01*
X4954767Y-11638160D02*
X4935720Y-11647684D01*
X4935720Y-11647684D02*
X4916672Y-11647684D01*
X4916672Y-11647684D02*
X4897624Y-11638160D01*
X4897624Y-11638160D02*
X4888101Y-11628636D01*
X4888101Y-11628636D02*
X4878577Y-11609588D01*
X4878577Y-11609588D02*
X4869053Y-11571493D01*
X4869053Y-11571493D02*
X4869053Y-11523874D01*
X4869053Y-11523874D02*
X4878577Y-11485779D01*
X4878577Y-11485779D02*
X4888101Y-11466731D01*
X4888101Y-11466731D02*
X4897624Y-11457208D01*
X4897624Y-11457208D02*
X4916672Y-11447684D01*
X5069053Y-11628636D02*
X5078577Y-11638160D01*
X5078577Y-11638160D02*
X5069053Y-11647684D01*
X5069053Y-11647684D02*
X5059529Y-11638160D01*
X5059529Y-11638160D02*
X5069053Y-11628636D01*
X5069053Y-11628636D02*
X5069053Y-11647684D01*
X5173815Y-11647684D02*
X5211910Y-11647684D01*
X5211910Y-11647684D02*
X5230958Y-11638160D01*
X5230958Y-11638160D02*
X5240482Y-11628636D01*
X5240482Y-11628636D02*
X5259529Y-11600065D01*
X5259529Y-11600065D02*
X5269053Y-11561969D01*
X5269053Y-11561969D02*
X5269053Y-11485779D01*
X5269053Y-11485779D02*
X5259529Y-11466731D01*
X5259529Y-11466731D02*
X5250005Y-11457208D01*
X5250005Y-11457208D02*
X5230958Y-11447684D01*
X5230958Y-11447684D02*
X5192863Y-11447684D01*
X5192863Y-11447684D02*
X5173815Y-11457208D01*
X5173815Y-11457208D02*
X5164291Y-11466731D01*
X5164291Y-11466731D02*
X5154767Y-11485779D01*
X5154767Y-11485779D02*
X5154767Y-11533398D01*
X5154767Y-11533398D02*
X5164291Y-11552446D01*
X5164291Y-11552446D02*
X5173815Y-11561969D01*
X5173815Y-11561969D02*
X5192863Y-11571493D01*
X5192863Y-11571493D02*
X5230958Y-11571493D01*
X5230958Y-11571493D02*
X5250005Y-11561969D01*
X5250005Y-11561969D02*
X5259529Y-11552446D01*
X5259529Y-11552446D02*
X5269053Y-11533398D01*
X5450005Y-11447684D02*
X5354767Y-11447684D01*
X5354767Y-11447684D02*
X5345244Y-11542922D01*
X5345244Y-11542922D02*
X5354767Y-11533398D01*
X5354767Y-11533398D02*
X5373815Y-11523874D01*
X5373815Y-11523874D02*
X5421434Y-11523874D01*
X5421434Y-11523874D02*
X5440482Y-11533398D01*
X5440482Y-11533398D02*
X5450005Y-11542922D01*
X5450005Y-11542922D02*
X5459529Y-11561969D01*
X5459529Y-11561969D02*
X5459529Y-11609588D01*
X5459529Y-11609588D02*
X5450005Y-11628636D01*
X5450005Y-11628636D02*
X5440482Y-11638160D01*
X5440482Y-11638160D02*
X5421434Y-11647684D01*
X5421434Y-11647684D02*
X5373815Y-11647684D01*
X5373815Y-11647684D02*
X5354767Y-11638160D01*
X5354767Y-11638160D02*
X5345244Y-11628636D01*
X5583339Y-11447684D02*
X5602386Y-11447684D01*
X5602386Y-11447684D02*
X5621434Y-11457208D01*
X5621434Y-11457208D02*
X5630958Y-11466731D01*
X5630958Y-11466731D02*
X5640482Y-11485779D01*
X5640482Y-11485779D02*
X5650005Y-11523874D01*
X5650005Y-11523874D02*
X5650005Y-11571493D01*
X5650005Y-11571493D02*
X5640482Y-11609588D01*
X5640482Y-11609588D02*
X5630958Y-11628636D01*
X5630958Y-11628636D02*
X5621434Y-11638160D01*
X5621434Y-11638160D02*
X5602386Y-11647684D01*
X5602386Y-11647684D02*
X5583339Y-11647684D01*
X5583339Y-11647684D02*
X5564291Y-11638160D01*
X5564291Y-11638160D02*
X5554767Y-11628636D01*
X5554767Y-11628636D02*
X5545244Y-11609588D01*
X5545244Y-11609588D02*
X5535720Y-11571493D01*
X5535720Y-11571493D02*
X5535720Y-11523874D01*
X5535720Y-11523874D02*
X5545244Y-11485779D01*
X5545244Y-11485779D02*
X5554767Y-11466731D01*
X5554767Y-11466731D02*
X5564291Y-11457208D01*
X5564291Y-11457208D02*
X5583339Y-11447684D01*
X5735720Y-11647684D02*
X5735720Y-11514350D01*
X5735720Y-11533398D02*
X5745243Y-11523874D01*
X5745243Y-11523874D02*
X5764291Y-11514350D01*
X5764291Y-11514350D02*
X5792863Y-11514350D01*
X5792863Y-11514350D02*
X5811910Y-11523874D01*
X5811910Y-11523874D02*
X5821434Y-11542922D01*
X5821434Y-11542922D02*
X5821434Y-11647684D01*
X5821434Y-11542922D02*
X5830958Y-11523874D01*
X5830958Y-11523874D02*
X5850005Y-11514350D01*
X5850005Y-11514350D02*
X5878577Y-11514350D01*
X5878577Y-11514350D02*
X5897624Y-11523874D01*
X5897624Y-11523874D02*
X5907148Y-11542922D01*
X5907148Y-11542922D02*
X5907148Y-11647684D01*
X6002386Y-11647684D02*
X6002386Y-11514350D01*
X6002386Y-11533398D02*
X6011910Y-11523874D01*
X6011910Y-11523874D02*
X6030958Y-11514350D01*
X6030958Y-11514350D02*
X6059529Y-11514350D01*
X6059529Y-11514350D02*
X6078577Y-11523874D01*
X6078577Y-11523874D02*
X6088101Y-11542922D01*
X6088101Y-11542922D02*
X6088101Y-11647684D01*
X6088101Y-11542922D02*
X6097624Y-11523874D01*
X6097624Y-11523874D02*
X6116672Y-11514350D01*
X6116672Y-11514350D02*
X6145243Y-11514350D01*
X6145243Y-11514350D02*
X6164291Y-11523874D01*
X6164291Y-11523874D02*
X6173815Y-11542922D01*
X6173815Y-11542922D02*
X6173815Y-11647684D01*
X6564291Y-11438160D02*
X6392863Y-11695303D01*
X6821434Y-11447684D02*
X6840482Y-11447684D01*
X6840482Y-11447684D02*
X6859529Y-11457208D01*
X6859529Y-11457208D02*
X6869053Y-11466731D01*
X6869053Y-11466731D02*
X6878577Y-11485779D01*
X6878577Y-11485779D02*
X6888101Y-11523874D01*
X6888101Y-11523874D02*
X6888101Y-11571493D01*
X6888101Y-11571493D02*
X6878577Y-11609588D01*
X6878577Y-11609588D02*
X6869053Y-11628636D01*
X6869053Y-11628636D02*
X6859529Y-11638160D01*
X6859529Y-11638160D02*
X6840482Y-11647684D01*
X6840482Y-11647684D02*
X6821434Y-11647684D01*
X6821434Y-11647684D02*
X6802386Y-11638160D01*
X6802386Y-11638160D02*
X6792863Y-11628636D01*
X6792863Y-11628636D02*
X6783339Y-11609588D01*
X6783339Y-11609588D02*
X6773815Y-11571493D01*
X6773815Y-11571493D02*
X6773815Y-11523874D01*
X6773815Y-11523874D02*
X6783339Y-11485779D01*
X6783339Y-11485779D02*
X6792863Y-11466731D01*
X6792863Y-11466731D02*
X6802386Y-11457208D01*
X6802386Y-11457208D02*
X6821434Y-11447684D01*
X6973815Y-11628636D02*
X6983339Y-11638160D01*
X6983339Y-11638160D02*
X6973815Y-11647684D01*
X6973815Y-11647684D02*
X6964291Y-11638160D01*
X6964291Y-11638160D02*
X6973815Y-11628636D01*
X6973815Y-11628636D02*
X6973815Y-11647684D01*
X7107148Y-11447684D02*
X7126196Y-11447684D01*
X7126196Y-11447684D02*
X7145244Y-11457208D01*
X7145244Y-11457208D02*
X7154767Y-11466731D01*
X7154767Y-11466731D02*
X7164291Y-11485779D01*
X7164291Y-11485779D02*
X7173815Y-11523874D01*
X7173815Y-11523874D02*
X7173815Y-11571493D01*
X7173815Y-11571493D02*
X7164291Y-11609588D01*
X7164291Y-11609588D02*
X7154767Y-11628636D01*
X7154767Y-11628636D02*
X7145244Y-11638160D01*
X7145244Y-11638160D02*
X7126196Y-11647684D01*
X7126196Y-11647684D02*
X7107148Y-11647684D01*
X7107148Y-11647684D02*
X7088101Y-11638160D01*
X7088101Y-11638160D02*
X7078577Y-11628636D01*
X7078577Y-11628636D02*
X7069053Y-11609588D01*
X7069053Y-11609588D02*
X7059529Y-11571493D01*
X7059529Y-11571493D02*
X7059529Y-11523874D01*
X7059529Y-11523874D02*
X7069053Y-11485779D01*
X7069053Y-11485779D02*
X7078577Y-11466731D01*
X7078577Y-11466731D02*
X7088101Y-11457208D01*
X7088101Y-11457208D02*
X7107148Y-11447684D01*
X7240482Y-11447684D02*
X7364291Y-11447684D01*
X7364291Y-11447684D02*
X7297625Y-11523874D01*
X7297625Y-11523874D02*
X7326196Y-11523874D01*
X7326196Y-11523874D02*
X7345244Y-11533398D01*
X7345244Y-11533398D02*
X7354767Y-11542922D01*
X7354767Y-11542922D02*
X7364291Y-11561969D01*
X7364291Y-11561969D02*
X7364291Y-11609588D01*
X7364291Y-11609588D02*
X7354767Y-11628636D01*
X7354767Y-11628636D02*
X7345244Y-11638160D01*
X7345244Y-11638160D02*
X7326196Y-11647684D01*
X7326196Y-11647684D02*
X7269053Y-11647684D01*
X7269053Y-11647684D02*
X7250006Y-11638160D01*
X7250006Y-11638160D02*
X7240482Y-11628636D01*
X7430958Y-11447684D02*
X7564291Y-11447684D01*
X7564291Y-11447684D02*
X7478577Y-11647684D01*
X7726196Y-11514350D02*
X7726196Y-11647684D01*
X7678577Y-11438160D02*
X7630958Y-11581017D01*
X7630958Y-11581017D02*
X7754767Y-11581017D01*
X7821434Y-11447684D02*
X7821434Y-11485779D01*
X7897625Y-11447684D02*
X7897625Y-11485779D01*
X8192863Y-11723874D02*
X8183339Y-11714350D01*
X8183339Y-11714350D02*
X8164291Y-11685779D01*
X8164291Y-11685779D02*
X8154768Y-11666731D01*
X8154768Y-11666731D02*
X8145244Y-11638160D01*
X8145244Y-11638160D02*
X8135720Y-11590541D01*
X8135720Y-11590541D02*
X8135720Y-11552446D01*
X8135720Y-11552446D02*
X8145244Y-11504827D01*
X8145244Y-11504827D02*
X8154768Y-11476255D01*
X8154768Y-11476255D02*
X8164291Y-11457208D01*
X8164291Y-11457208D02*
X8183339Y-11428636D01*
X8183339Y-11428636D02*
X8192863Y-11419112D01*
X8354768Y-11514350D02*
X8354768Y-11647684D01*
X8307148Y-11438160D02*
X8259529Y-11581017D01*
X8259529Y-11581017D02*
X8383339Y-11581017D01*
X8611911Y-11647684D02*
X8611911Y-11447684D01*
X8697625Y-11647684D02*
X8697625Y-11542922D01*
X8697625Y-11542922D02*
X8688101Y-11523874D01*
X8688101Y-11523874D02*
X8669053Y-11514350D01*
X8669053Y-11514350D02*
X8640482Y-11514350D01*
X8640482Y-11514350D02*
X8621434Y-11523874D01*
X8621434Y-11523874D02*
X8611911Y-11533398D01*
X8821434Y-11647684D02*
X8802387Y-11638160D01*
X8802387Y-11638160D02*
X8792863Y-11628636D01*
X8792863Y-11628636D02*
X8783339Y-11609588D01*
X8783339Y-11609588D02*
X8783339Y-11552446D01*
X8783339Y-11552446D02*
X8792863Y-11533398D01*
X8792863Y-11533398D02*
X8802387Y-11523874D01*
X8802387Y-11523874D02*
X8821434Y-11514350D01*
X8821434Y-11514350D02*
X8850006Y-11514350D01*
X8850006Y-11514350D02*
X8869053Y-11523874D01*
X8869053Y-11523874D02*
X8878577Y-11533398D01*
X8878577Y-11533398D02*
X8888101Y-11552446D01*
X8888101Y-11552446D02*
X8888101Y-11609588D01*
X8888101Y-11609588D02*
X8878577Y-11628636D01*
X8878577Y-11628636D02*
X8869053Y-11638160D01*
X8869053Y-11638160D02*
X8850006Y-11647684D01*
X8850006Y-11647684D02*
X8821434Y-11647684D01*
X9002387Y-11647684D02*
X8983339Y-11638160D01*
X8983339Y-11638160D02*
X8973815Y-11619112D01*
X8973815Y-11619112D02*
X8973815Y-11447684D01*
X9154768Y-11638160D02*
X9135720Y-11647684D01*
X9135720Y-11647684D02*
X9097625Y-11647684D01*
X9097625Y-11647684D02*
X9078577Y-11638160D01*
X9078577Y-11638160D02*
X9069053Y-11619112D01*
X9069053Y-11619112D02*
X9069053Y-11542922D01*
X9069053Y-11542922D02*
X9078577Y-11523874D01*
X9078577Y-11523874D02*
X9097625Y-11514350D01*
X9097625Y-11514350D02*
X9135720Y-11514350D01*
X9135720Y-11514350D02*
X9154768Y-11523874D01*
X9154768Y-11523874D02*
X9164292Y-11542922D01*
X9164292Y-11542922D02*
X9164292Y-11561969D01*
X9164292Y-11561969D02*
X9069053Y-11581017D01*
X9240482Y-11638160D02*
X9259530Y-11647684D01*
X9259530Y-11647684D02*
X9297625Y-11647684D01*
X9297625Y-11647684D02*
X9316673Y-11638160D01*
X9316673Y-11638160D02*
X9326196Y-11619112D01*
X9326196Y-11619112D02*
X9326196Y-11609588D01*
X9326196Y-11609588D02*
X9316673Y-11590541D01*
X9316673Y-11590541D02*
X9297625Y-11581017D01*
X9297625Y-11581017D02*
X9269053Y-11581017D01*
X9269053Y-11581017D02*
X9250006Y-11571493D01*
X9250006Y-11571493D02*
X9240482Y-11552446D01*
X9240482Y-11552446D02*
X9240482Y-11542922D01*
X9240482Y-11542922D02*
X9250006Y-11523874D01*
X9250006Y-11523874D02*
X9269053Y-11514350D01*
X9269053Y-11514350D02*
X9297625Y-11514350D01*
X9297625Y-11514350D02*
X9316673Y-11523874D01*
X9392863Y-11723874D02*
X9402387Y-11714350D01*
X9402387Y-11714350D02*
X9421434Y-11685779D01*
X9421434Y-11685779D02*
X9430958Y-11666731D01*
X9430958Y-11666731D02*
X9440482Y-11638160D01*
X9440482Y-11638160D02*
X9450006Y-11590541D01*
X9450006Y-11590541D02*
X9450006Y-11552446D01*
X9450006Y-11552446D02*
X9440482Y-11504827D01*
X9440482Y-11504827D02*
X9430958Y-11476255D01*
X9430958Y-11476255D02*
X9421434Y-11457208D01*
X9421434Y-11457208D02*
X9402387Y-11428636D01*
X9402387Y-11428636D02*
X9392863Y-11419112D01*
D10*
X4517800Y-11770200D02*
X4617800Y-11870200D01*
X4617800Y-11770200D02*
X4517800Y-11870200D01*
X4617800Y-11820200D02*
G75*
G03*
X4617800Y-11820200I-50000J0D01*
G01*
D11*
X4983339Y-11911684D02*
X4869053Y-11911684D01*
X4926196Y-11911684D02*
X4926196Y-11711684D01*
X4926196Y-11711684D02*
X4907148Y-11740255D01*
X4907148Y-11740255D02*
X4888101Y-11759303D01*
X4888101Y-11759303D02*
X4869053Y-11768827D01*
X5069053Y-11892636D02*
X5078577Y-11902160D01*
X5078577Y-11902160D02*
X5069053Y-11911684D01*
X5069053Y-11911684D02*
X5059529Y-11902160D01*
X5059529Y-11902160D02*
X5069053Y-11892636D01*
X5069053Y-11892636D02*
X5069053Y-11911684D01*
X5202386Y-11711684D02*
X5221434Y-11711684D01*
X5221434Y-11711684D02*
X5240482Y-11721208D01*
X5240482Y-11721208D02*
X5250005Y-11730731D01*
X5250005Y-11730731D02*
X5259529Y-11749779D01*
X5259529Y-11749779D02*
X5269053Y-11787874D01*
X5269053Y-11787874D02*
X5269053Y-11835493D01*
X5269053Y-11835493D02*
X5259529Y-11873588D01*
X5259529Y-11873588D02*
X5250005Y-11892636D01*
X5250005Y-11892636D02*
X5240482Y-11902160D01*
X5240482Y-11902160D02*
X5221434Y-11911684D01*
X5221434Y-11911684D02*
X5202386Y-11911684D01*
X5202386Y-11911684D02*
X5183339Y-11902160D01*
X5183339Y-11902160D02*
X5173815Y-11892636D01*
X5173815Y-11892636D02*
X5164291Y-11873588D01*
X5164291Y-11873588D02*
X5154767Y-11835493D01*
X5154767Y-11835493D02*
X5154767Y-11787874D01*
X5154767Y-11787874D02*
X5164291Y-11749779D01*
X5164291Y-11749779D02*
X5173815Y-11730731D01*
X5173815Y-11730731D02*
X5183339Y-11721208D01*
X5183339Y-11721208D02*
X5202386Y-11711684D01*
X5392863Y-11711684D02*
X5411910Y-11711684D01*
X5411910Y-11711684D02*
X5430958Y-11721208D01*
X5430958Y-11721208D02*
X5440482Y-11730731D01*
X5440482Y-11730731D02*
X5450005Y-11749779D01*
X5450005Y-11749779D02*
X5459529Y-11787874D01*
X5459529Y-11787874D02*
X5459529Y-11835493D01*
X5459529Y-11835493D02*
X5450005Y-11873588D01*
X5450005Y-11873588D02*
X5440482Y-11892636D01*
X5440482Y-11892636D02*
X5430958Y-11902160D01*
X5430958Y-11902160D02*
X5411910Y-11911684D01*
X5411910Y-11911684D02*
X5392863Y-11911684D01*
X5392863Y-11911684D02*
X5373815Y-11902160D01*
X5373815Y-11902160D02*
X5364291Y-11892636D01*
X5364291Y-11892636D02*
X5354767Y-11873588D01*
X5354767Y-11873588D02*
X5345244Y-11835493D01*
X5345244Y-11835493D02*
X5345244Y-11787874D01*
X5345244Y-11787874D02*
X5354767Y-11749779D01*
X5354767Y-11749779D02*
X5364291Y-11730731D01*
X5364291Y-11730731D02*
X5373815Y-11721208D01*
X5373815Y-11721208D02*
X5392863Y-11711684D01*
X5583339Y-11711684D02*
X5602386Y-11711684D01*
X5602386Y-11711684D02*
X5621434Y-11721208D01*
X5621434Y-11721208D02*
X5630958Y-11730731D01*
X5630958Y-11730731D02*
X5640482Y-11749779D01*
X5640482Y-11749779D02*
X5650005Y-11787874D01*
X5650005Y-11787874D02*
X5650005Y-11835493D01*
X5650005Y-11835493D02*
X5640482Y-11873588D01*
X5640482Y-11873588D02*
X5630958Y-11892636D01*
X5630958Y-11892636D02*
X5621434Y-11902160D01*
X5621434Y-11902160D02*
X5602386Y-11911684D01*
X5602386Y-11911684D02*
X5583339Y-11911684D01*
X5583339Y-11911684D02*
X5564291Y-11902160D01*
X5564291Y-11902160D02*
X5554767Y-11892636D01*
X5554767Y-11892636D02*
X5545244Y-11873588D01*
X5545244Y-11873588D02*
X5535720Y-11835493D01*
X5535720Y-11835493D02*
X5535720Y-11787874D01*
X5535720Y-11787874D02*
X5545244Y-11749779D01*
X5545244Y-11749779D02*
X5554767Y-11730731D01*
X5554767Y-11730731D02*
X5564291Y-11721208D01*
X5564291Y-11721208D02*
X5583339Y-11711684D01*
X5735720Y-11911684D02*
X5735720Y-11778350D01*
X5735720Y-11797398D02*
X5745243Y-11787874D01*
X5745243Y-11787874D02*
X5764291Y-11778350D01*
X5764291Y-11778350D02*
X5792863Y-11778350D01*
X5792863Y-11778350D02*
X5811910Y-11787874D01*
X5811910Y-11787874D02*
X5821434Y-11806922D01*
X5821434Y-11806922D02*
X5821434Y-11911684D01*
X5821434Y-11806922D02*
X5830958Y-11787874D01*
X5830958Y-11787874D02*
X5850005Y-11778350D01*
X5850005Y-11778350D02*
X5878577Y-11778350D01*
X5878577Y-11778350D02*
X5897624Y-11787874D01*
X5897624Y-11787874D02*
X5907148Y-11806922D01*
X5907148Y-11806922D02*
X5907148Y-11911684D01*
X6002386Y-11911684D02*
X6002386Y-11778350D01*
X6002386Y-11797398D02*
X6011910Y-11787874D01*
X6011910Y-11787874D02*
X6030958Y-11778350D01*
X6030958Y-11778350D02*
X6059529Y-11778350D01*
X6059529Y-11778350D02*
X6078577Y-11787874D01*
X6078577Y-11787874D02*
X6088101Y-11806922D01*
X6088101Y-11806922D02*
X6088101Y-11911684D01*
X6088101Y-11806922D02*
X6097624Y-11787874D01*
X6097624Y-11787874D02*
X6116672Y-11778350D01*
X6116672Y-11778350D02*
X6145243Y-11778350D01*
X6145243Y-11778350D02*
X6164291Y-11787874D01*
X6164291Y-11787874D02*
X6173815Y-11806922D01*
X6173815Y-11806922D02*
X6173815Y-11911684D01*
X6564291Y-11702160D02*
X6392863Y-11959303D01*
X6821434Y-11711684D02*
X6840482Y-11711684D01*
X6840482Y-11711684D02*
X6859529Y-11721208D01*
X6859529Y-11721208D02*
X6869053Y-11730731D01*
X6869053Y-11730731D02*
X6878577Y-11749779D01*
X6878577Y-11749779D02*
X6888101Y-11787874D01*
X6888101Y-11787874D02*
X6888101Y-11835493D01*
X6888101Y-11835493D02*
X6878577Y-11873588D01*
X6878577Y-11873588D02*
X6869053Y-11892636D01*
X6869053Y-11892636D02*
X6859529Y-11902160D01*
X6859529Y-11902160D02*
X6840482Y-11911684D01*
X6840482Y-11911684D02*
X6821434Y-11911684D01*
X6821434Y-11911684D02*
X6802386Y-11902160D01*
X6802386Y-11902160D02*
X6792863Y-11892636D01*
X6792863Y-11892636D02*
X6783339Y-11873588D01*
X6783339Y-11873588D02*
X6773815Y-11835493D01*
X6773815Y-11835493D02*
X6773815Y-11787874D01*
X6773815Y-11787874D02*
X6783339Y-11749779D01*
X6783339Y-11749779D02*
X6792863Y-11730731D01*
X6792863Y-11730731D02*
X6802386Y-11721208D01*
X6802386Y-11721208D02*
X6821434Y-11711684D01*
X6973815Y-11892636D02*
X6983339Y-11902160D01*
X6983339Y-11902160D02*
X6973815Y-11911684D01*
X6973815Y-11911684D02*
X6964291Y-11902160D01*
X6964291Y-11902160D02*
X6973815Y-11892636D01*
X6973815Y-11892636D02*
X6973815Y-11911684D01*
X7107148Y-11711684D02*
X7126196Y-11711684D01*
X7126196Y-11711684D02*
X7145244Y-11721208D01*
X7145244Y-11721208D02*
X7154767Y-11730731D01*
X7154767Y-11730731D02*
X7164291Y-11749779D01*
X7164291Y-11749779D02*
X7173815Y-11787874D01*
X7173815Y-11787874D02*
X7173815Y-11835493D01*
X7173815Y-11835493D02*
X7164291Y-11873588D01*
X7164291Y-11873588D02*
X7154767Y-11892636D01*
X7154767Y-11892636D02*
X7145244Y-11902160D01*
X7145244Y-11902160D02*
X7126196Y-11911684D01*
X7126196Y-11911684D02*
X7107148Y-11911684D01*
X7107148Y-11911684D02*
X7088101Y-11902160D01*
X7088101Y-11902160D02*
X7078577Y-11892636D01*
X7078577Y-11892636D02*
X7069053Y-11873588D01*
X7069053Y-11873588D02*
X7059529Y-11835493D01*
X7059529Y-11835493D02*
X7059529Y-11787874D01*
X7059529Y-11787874D02*
X7069053Y-11749779D01*
X7069053Y-11749779D02*
X7078577Y-11730731D01*
X7078577Y-11730731D02*
X7088101Y-11721208D01*
X7088101Y-11721208D02*
X7107148Y-11711684D01*
X7240482Y-11711684D02*
X7364291Y-11711684D01*
X7364291Y-11711684D02*
X7297625Y-11787874D01*
X7297625Y-11787874D02*
X7326196Y-11787874D01*
X7326196Y-11787874D02*
X7345244Y-11797398D01*
X7345244Y-11797398D02*
X7354767Y-11806922D01*
X7354767Y-11806922D02*
X7364291Y-11825969D01*
X7364291Y-11825969D02*
X7364291Y-11873588D01*
X7364291Y-11873588D02*
X7354767Y-11892636D01*
X7354767Y-11892636D02*
X7345244Y-11902160D01*
X7345244Y-11902160D02*
X7326196Y-11911684D01*
X7326196Y-11911684D02*
X7269053Y-11911684D01*
X7269053Y-11911684D02*
X7250006Y-11902160D01*
X7250006Y-11902160D02*
X7240482Y-11892636D01*
X7459529Y-11911684D02*
X7497625Y-11911684D01*
X7497625Y-11911684D02*
X7516672Y-11902160D01*
X7516672Y-11902160D02*
X7526196Y-11892636D01*
X7526196Y-11892636D02*
X7545244Y-11864065D01*
X7545244Y-11864065D02*
X7554767Y-11825969D01*
X7554767Y-11825969D02*
X7554767Y-11749779D01*
X7554767Y-11749779D02*
X7545244Y-11730731D01*
X7545244Y-11730731D02*
X7535720Y-11721208D01*
X7535720Y-11721208D02*
X7516672Y-11711684D01*
X7516672Y-11711684D02*
X7478577Y-11711684D01*
X7478577Y-11711684D02*
X7459529Y-11721208D01*
X7459529Y-11721208D02*
X7450006Y-11730731D01*
X7450006Y-11730731D02*
X7440482Y-11749779D01*
X7440482Y-11749779D02*
X7440482Y-11797398D01*
X7440482Y-11797398D02*
X7450006Y-11816446D01*
X7450006Y-11816446D02*
X7459529Y-11825969D01*
X7459529Y-11825969D02*
X7478577Y-11835493D01*
X7478577Y-11835493D02*
X7516672Y-11835493D01*
X7516672Y-11835493D02*
X7535720Y-11825969D01*
X7535720Y-11825969D02*
X7545244Y-11816446D01*
X7545244Y-11816446D02*
X7554767Y-11797398D01*
X7726196Y-11778350D02*
X7726196Y-11911684D01*
X7678577Y-11702160D02*
X7630958Y-11845017D01*
X7630958Y-11845017D02*
X7754767Y-11845017D01*
X7821434Y-11711684D02*
X7821434Y-11749779D01*
X7897625Y-11711684D02*
X7897625Y-11749779D01*
X8192863Y-11987874D02*
X8183339Y-11978350D01*
X8183339Y-11978350D02*
X8164291Y-11949779D01*
X8164291Y-11949779D02*
X8154768Y-11930731D01*
X8154768Y-11930731D02*
X8145244Y-11902160D01*
X8145244Y-11902160D02*
X8135720Y-11854541D01*
X8135720Y-11854541D02*
X8135720Y-11816446D01*
X8135720Y-11816446D02*
X8145244Y-11768827D01*
X8145244Y-11768827D02*
X8154768Y-11740255D01*
X8154768Y-11740255D02*
X8164291Y-11721208D01*
X8164291Y-11721208D02*
X8183339Y-11692636D01*
X8183339Y-11692636D02*
X8192863Y-11683112D01*
X8354768Y-11778350D02*
X8354768Y-11911684D01*
X8307148Y-11702160D02*
X8259529Y-11845017D01*
X8259529Y-11845017D02*
X8383339Y-11845017D01*
X8611911Y-11911684D02*
X8611911Y-11711684D01*
X8697625Y-11911684D02*
X8697625Y-11806922D01*
X8697625Y-11806922D02*
X8688101Y-11787874D01*
X8688101Y-11787874D02*
X8669053Y-11778350D01*
X8669053Y-11778350D02*
X8640482Y-11778350D01*
X8640482Y-11778350D02*
X8621434Y-11787874D01*
X8621434Y-11787874D02*
X8611911Y-11797398D01*
X8821434Y-11911684D02*
X8802387Y-11902160D01*
X8802387Y-11902160D02*
X8792863Y-11892636D01*
X8792863Y-11892636D02*
X8783339Y-11873588D01*
X8783339Y-11873588D02*
X8783339Y-11816446D01*
X8783339Y-11816446D02*
X8792863Y-11797398D01*
X8792863Y-11797398D02*
X8802387Y-11787874D01*
X8802387Y-11787874D02*
X8821434Y-11778350D01*
X8821434Y-11778350D02*
X8850006Y-11778350D01*
X8850006Y-11778350D02*
X8869053Y-11787874D01*
X8869053Y-11787874D02*
X8878577Y-11797398D01*
X8878577Y-11797398D02*
X8888101Y-11816446D01*
X8888101Y-11816446D02*
X8888101Y-11873588D01*
X8888101Y-11873588D02*
X8878577Y-11892636D01*
X8878577Y-11892636D02*
X8869053Y-11902160D01*
X8869053Y-11902160D02*
X8850006Y-11911684D01*
X8850006Y-11911684D02*
X8821434Y-11911684D01*
X9002387Y-11911684D02*
X8983339Y-11902160D01*
X8983339Y-11902160D02*
X8973815Y-11883112D01*
X8973815Y-11883112D02*
X8973815Y-11711684D01*
X9154768Y-11902160D02*
X9135720Y-11911684D01*
X9135720Y-11911684D02*
X9097625Y-11911684D01*
X9097625Y-11911684D02*
X9078577Y-11902160D01*
X9078577Y-11902160D02*
X9069053Y-11883112D01*
X9069053Y-11883112D02*
X9069053Y-11806922D01*
X9069053Y-11806922D02*
X9078577Y-11787874D01*
X9078577Y-11787874D02*
X9097625Y-11778350D01*
X9097625Y-11778350D02*
X9135720Y-11778350D01*
X9135720Y-11778350D02*
X9154768Y-11787874D01*
X9154768Y-11787874D02*
X9164292Y-11806922D01*
X9164292Y-11806922D02*
X9164292Y-11825969D01*
X9164292Y-11825969D02*
X9069053Y-11845017D01*
X9240482Y-11902160D02*
X9259530Y-11911684D01*
X9259530Y-11911684D02*
X9297625Y-11911684D01*
X9297625Y-11911684D02*
X9316673Y-11902160D01*
X9316673Y-11902160D02*
X9326196Y-11883112D01*
X9326196Y-11883112D02*
X9326196Y-11873588D01*
X9326196Y-11873588D02*
X9316673Y-11854541D01*
X9316673Y-11854541D02*
X9297625Y-11845017D01*
X9297625Y-11845017D02*
X9269053Y-11845017D01*
X9269053Y-11845017D02*
X9250006Y-11835493D01*
X9250006Y-11835493D02*
X9240482Y-11816446D01*
X9240482Y-11816446D02*
X9240482Y-11806922D01*
X9240482Y-11806922D02*
X9250006Y-11787874D01*
X9250006Y-11787874D02*
X9269053Y-11778350D01*
X9269053Y-11778350D02*
X9297625Y-11778350D01*
X9297625Y-11778350D02*
X9316673Y-11787874D01*
X9392863Y-11987874D02*
X9402387Y-11978350D01*
X9402387Y-11978350D02*
X9421434Y-11949779D01*
X9421434Y-11949779D02*
X9430958Y-11930731D01*
X9430958Y-11930731D02*
X9440482Y-11902160D01*
X9440482Y-11902160D02*
X9450006Y-11854541D01*
X9450006Y-11854541D02*
X9450006Y-11816446D01*
X9450006Y-11816446D02*
X9440482Y-11768827D01*
X9440482Y-11768827D02*
X9430958Y-11740255D01*
X9430958Y-11740255D02*
X9421434Y-11721208D01*
X9421434Y-11721208D02*
X9402387Y-11692636D01*
X9402387Y-11692636D02*
X9392863Y-11683112D01*
X4417800Y-11984200D02*
X4617800Y-12184200D01*
X4617800Y-11984200D02*
X4417800Y-12184200D01*
X4517800Y-11984200D02*
X4517800Y-12184200D01*
X4417800Y-12084200D02*
X4617800Y-12084200D01*
X4869053Y-11994731D02*
X4878577Y-11985208D01*
X4878577Y-11985208D02*
X4897624Y-11975684D01*
X4897624Y-11975684D02*
X4945244Y-11975684D01*
X4945244Y-11975684D02*
X4964291Y-11985208D01*
X4964291Y-11985208D02*
X4973815Y-11994731D01*
X4973815Y-11994731D02*
X4983339Y-12013779D01*
X4983339Y-12013779D02*
X4983339Y-12032827D01*
X4983339Y-12032827D02*
X4973815Y-12061398D01*
X4973815Y-12061398D02*
X4859529Y-12175684D01*
X4859529Y-12175684D02*
X4983339Y-12175684D01*
X5069053Y-12156636D02*
X5078577Y-12166160D01*
X5078577Y-12166160D02*
X5069053Y-12175684D01*
X5069053Y-12175684D02*
X5059529Y-12166160D01*
X5059529Y-12166160D02*
X5069053Y-12156636D01*
X5069053Y-12156636D02*
X5069053Y-12175684D01*
X5202386Y-11975684D02*
X5221434Y-11975684D01*
X5221434Y-11975684D02*
X5240482Y-11985208D01*
X5240482Y-11985208D02*
X5250005Y-11994731D01*
X5250005Y-11994731D02*
X5259529Y-12013779D01*
X5259529Y-12013779D02*
X5269053Y-12051874D01*
X5269053Y-12051874D02*
X5269053Y-12099493D01*
X5269053Y-12099493D02*
X5259529Y-12137588D01*
X5259529Y-12137588D02*
X5250005Y-12156636D01*
X5250005Y-12156636D02*
X5240482Y-12166160D01*
X5240482Y-12166160D02*
X5221434Y-12175684D01*
X5221434Y-12175684D02*
X5202386Y-12175684D01*
X5202386Y-12175684D02*
X5183339Y-12166160D01*
X5183339Y-12166160D02*
X5173815Y-12156636D01*
X5173815Y-12156636D02*
X5164291Y-12137588D01*
X5164291Y-12137588D02*
X5154767Y-12099493D01*
X5154767Y-12099493D02*
X5154767Y-12051874D01*
X5154767Y-12051874D02*
X5164291Y-12013779D01*
X5164291Y-12013779D02*
X5173815Y-11994731D01*
X5173815Y-11994731D02*
X5183339Y-11985208D01*
X5183339Y-11985208D02*
X5202386Y-11975684D01*
X5459529Y-12175684D02*
X5345244Y-12175684D01*
X5402386Y-12175684D02*
X5402386Y-11975684D01*
X5402386Y-11975684D02*
X5383339Y-12004255D01*
X5383339Y-12004255D02*
X5364291Y-12023303D01*
X5364291Y-12023303D02*
X5345244Y-12032827D01*
X5583339Y-11975684D02*
X5602386Y-11975684D01*
X5602386Y-11975684D02*
X5621434Y-11985208D01*
X5621434Y-11985208D02*
X5630958Y-11994731D01*
X5630958Y-11994731D02*
X5640482Y-12013779D01*
X5640482Y-12013779D02*
X5650005Y-12051874D01*
X5650005Y-12051874D02*
X5650005Y-12099493D01*
X5650005Y-12099493D02*
X5640482Y-12137588D01*
X5640482Y-12137588D02*
X5630958Y-12156636D01*
X5630958Y-12156636D02*
X5621434Y-12166160D01*
X5621434Y-12166160D02*
X5602386Y-12175684D01*
X5602386Y-12175684D02*
X5583339Y-12175684D01*
X5583339Y-12175684D02*
X5564291Y-12166160D01*
X5564291Y-12166160D02*
X5554767Y-12156636D01*
X5554767Y-12156636D02*
X5545244Y-12137588D01*
X5545244Y-12137588D02*
X5535720Y-12099493D01*
X5535720Y-12099493D02*
X5535720Y-12051874D01*
X5535720Y-12051874D02*
X5545244Y-12013779D01*
X5545244Y-12013779D02*
X5554767Y-11994731D01*
X5554767Y-11994731D02*
X5564291Y-11985208D01*
X5564291Y-11985208D02*
X5583339Y-11975684D01*
X5735720Y-12175684D02*
X5735720Y-12042350D01*
X5735720Y-12061398D02*
X5745243Y-12051874D01*
X5745243Y-12051874D02*
X5764291Y-12042350D01*
X5764291Y-12042350D02*
X5792863Y-12042350D01*
X5792863Y-12042350D02*
X5811910Y-12051874D01*
X5811910Y-12051874D02*
X5821434Y-12070922D01*
X5821434Y-12070922D02*
X5821434Y-12175684D01*
X5821434Y-12070922D02*
X5830958Y-12051874D01*
X5830958Y-12051874D02*
X5850005Y-12042350D01*
X5850005Y-12042350D02*
X5878577Y-12042350D01*
X5878577Y-12042350D02*
X5897624Y-12051874D01*
X5897624Y-12051874D02*
X5907148Y-12070922D01*
X5907148Y-12070922D02*
X5907148Y-12175684D01*
X6002386Y-12175684D02*
X6002386Y-12042350D01*
X6002386Y-12061398D02*
X6011910Y-12051874D01*
X6011910Y-12051874D02*
X6030958Y-12042350D01*
X6030958Y-12042350D02*
X6059529Y-12042350D01*
X6059529Y-12042350D02*
X6078577Y-12051874D01*
X6078577Y-12051874D02*
X6088101Y-12070922D01*
X6088101Y-12070922D02*
X6088101Y-12175684D01*
X6088101Y-12070922D02*
X6097624Y-12051874D01*
X6097624Y-12051874D02*
X6116672Y-12042350D01*
X6116672Y-12042350D02*
X6145243Y-12042350D01*
X6145243Y-12042350D02*
X6164291Y-12051874D01*
X6164291Y-12051874D02*
X6173815Y-12070922D01*
X6173815Y-12070922D02*
X6173815Y-12175684D01*
X6564291Y-11966160D02*
X6392863Y-12223303D01*
X6821434Y-11975684D02*
X6840482Y-11975684D01*
X6840482Y-11975684D02*
X6859529Y-11985208D01*
X6859529Y-11985208D02*
X6869053Y-11994731D01*
X6869053Y-11994731D02*
X6878577Y-12013779D01*
X6878577Y-12013779D02*
X6888101Y-12051874D01*
X6888101Y-12051874D02*
X6888101Y-12099493D01*
X6888101Y-12099493D02*
X6878577Y-12137588D01*
X6878577Y-12137588D02*
X6869053Y-12156636D01*
X6869053Y-12156636D02*
X6859529Y-12166160D01*
X6859529Y-12166160D02*
X6840482Y-12175684D01*
X6840482Y-12175684D02*
X6821434Y-12175684D01*
X6821434Y-12175684D02*
X6802386Y-12166160D01*
X6802386Y-12166160D02*
X6792863Y-12156636D01*
X6792863Y-12156636D02*
X6783339Y-12137588D01*
X6783339Y-12137588D02*
X6773815Y-12099493D01*
X6773815Y-12099493D02*
X6773815Y-12051874D01*
X6773815Y-12051874D02*
X6783339Y-12013779D01*
X6783339Y-12013779D02*
X6792863Y-11994731D01*
X6792863Y-11994731D02*
X6802386Y-11985208D01*
X6802386Y-11985208D02*
X6821434Y-11975684D01*
X6973815Y-12156636D02*
X6983339Y-12166160D01*
X6983339Y-12166160D02*
X6973815Y-12175684D01*
X6973815Y-12175684D02*
X6964291Y-12166160D01*
X6964291Y-12166160D02*
X6973815Y-12156636D01*
X6973815Y-12156636D02*
X6973815Y-12175684D01*
X7107148Y-11975684D02*
X7126196Y-11975684D01*
X7126196Y-11975684D02*
X7145244Y-11985208D01*
X7145244Y-11985208D02*
X7154767Y-11994731D01*
X7154767Y-11994731D02*
X7164291Y-12013779D01*
X7164291Y-12013779D02*
X7173815Y-12051874D01*
X7173815Y-12051874D02*
X7173815Y-12099493D01*
X7173815Y-12099493D02*
X7164291Y-12137588D01*
X7164291Y-12137588D02*
X7154767Y-12156636D01*
X7154767Y-12156636D02*
X7145244Y-12166160D01*
X7145244Y-12166160D02*
X7126196Y-12175684D01*
X7126196Y-12175684D02*
X7107148Y-12175684D01*
X7107148Y-12175684D02*
X7088101Y-12166160D01*
X7088101Y-12166160D02*
X7078577Y-12156636D01*
X7078577Y-12156636D02*
X7069053Y-12137588D01*
X7069053Y-12137588D02*
X7059529Y-12099493D01*
X7059529Y-12099493D02*
X7059529Y-12051874D01*
X7059529Y-12051874D02*
X7069053Y-12013779D01*
X7069053Y-12013779D02*
X7078577Y-11994731D01*
X7078577Y-11994731D02*
X7088101Y-11985208D01*
X7088101Y-11985208D02*
X7107148Y-11975684D01*
X7240482Y-11975684D02*
X7373815Y-11975684D01*
X7373815Y-11975684D02*
X7288101Y-12175684D01*
X7459529Y-12175684D02*
X7497625Y-12175684D01*
X7497625Y-12175684D02*
X7516672Y-12166160D01*
X7516672Y-12166160D02*
X7526196Y-12156636D01*
X7526196Y-12156636D02*
X7545244Y-12128065D01*
X7545244Y-12128065D02*
X7554767Y-12089969D01*
X7554767Y-12089969D02*
X7554767Y-12013779D01*
X7554767Y-12013779D02*
X7545244Y-11994731D01*
X7545244Y-11994731D02*
X7535720Y-11985208D01*
X7535720Y-11985208D02*
X7516672Y-11975684D01*
X7516672Y-11975684D02*
X7478577Y-11975684D01*
X7478577Y-11975684D02*
X7459529Y-11985208D01*
X7459529Y-11985208D02*
X7450006Y-11994731D01*
X7450006Y-11994731D02*
X7440482Y-12013779D01*
X7440482Y-12013779D02*
X7440482Y-12061398D01*
X7440482Y-12061398D02*
X7450006Y-12080446D01*
X7450006Y-12080446D02*
X7459529Y-12089969D01*
X7459529Y-12089969D02*
X7478577Y-12099493D01*
X7478577Y-12099493D02*
X7516672Y-12099493D01*
X7516672Y-12099493D02*
X7535720Y-12089969D01*
X7535720Y-12089969D02*
X7545244Y-12080446D01*
X7545244Y-12080446D02*
X7554767Y-12061398D01*
X7745244Y-12175684D02*
X7630958Y-12175684D01*
X7688101Y-12175684D02*
X7688101Y-11975684D01*
X7688101Y-11975684D02*
X7669053Y-12004255D01*
X7669053Y-12004255D02*
X7650006Y-12023303D01*
X7650006Y-12023303D02*
X7630958Y-12032827D01*
X7821434Y-11975684D02*
X7821434Y-12013779D01*
X7897625Y-11975684D02*
X7897625Y-12013779D01*
X8192863Y-12251874D02*
X8183339Y-12242350D01*
X8183339Y-12242350D02*
X8164291Y-12213779D01*
X8164291Y-12213779D02*
X8154768Y-12194731D01*
X8154768Y-12194731D02*
X8145244Y-12166160D01*
X8145244Y-12166160D02*
X8135720Y-12118541D01*
X8135720Y-12118541D02*
X8135720Y-12080446D01*
X8135720Y-12080446D02*
X8145244Y-12032827D01*
X8145244Y-12032827D02*
X8154768Y-12004255D01*
X8154768Y-12004255D02*
X8164291Y-11985208D01*
X8164291Y-11985208D02*
X8183339Y-11956636D01*
X8183339Y-11956636D02*
X8192863Y-11947112D01*
X8259529Y-11994731D02*
X8269053Y-11985208D01*
X8269053Y-11985208D02*
X8288101Y-11975684D01*
X8288101Y-11975684D02*
X8335720Y-11975684D01*
X8335720Y-11975684D02*
X8354768Y-11985208D01*
X8354768Y-11985208D02*
X8364291Y-11994731D01*
X8364291Y-11994731D02*
X8373815Y-12013779D01*
X8373815Y-12013779D02*
X8373815Y-12032827D01*
X8373815Y-12032827D02*
X8364291Y-12061398D01*
X8364291Y-12061398D02*
X8250006Y-12175684D01*
X8250006Y-12175684D02*
X8373815Y-12175684D01*
X8611911Y-12175684D02*
X8611911Y-11975684D01*
X8697625Y-12175684D02*
X8697625Y-12070922D01*
X8697625Y-12070922D02*
X8688101Y-12051874D01*
X8688101Y-12051874D02*
X8669053Y-12042350D01*
X8669053Y-12042350D02*
X8640482Y-12042350D01*
X8640482Y-12042350D02*
X8621434Y-12051874D01*
X8621434Y-12051874D02*
X8611911Y-12061398D01*
X8821434Y-12175684D02*
X8802387Y-12166160D01*
X8802387Y-12166160D02*
X8792863Y-12156636D01*
X8792863Y-12156636D02*
X8783339Y-12137588D01*
X8783339Y-12137588D02*
X8783339Y-12080446D01*
X8783339Y-12080446D02*
X8792863Y-12061398D01*
X8792863Y-12061398D02*
X8802387Y-12051874D01*
X8802387Y-12051874D02*
X8821434Y-12042350D01*
X8821434Y-12042350D02*
X8850006Y-12042350D01*
X8850006Y-12042350D02*
X8869053Y-12051874D01*
X8869053Y-12051874D02*
X8878577Y-12061398D01*
X8878577Y-12061398D02*
X8888101Y-12080446D01*
X8888101Y-12080446D02*
X8888101Y-12137588D01*
X8888101Y-12137588D02*
X8878577Y-12156636D01*
X8878577Y-12156636D02*
X8869053Y-12166160D01*
X8869053Y-12166160D02*
X8850006Y-12175684D01*
X8850006Y-12175684D02*
X8821434Y-12175684D01*
X9002387Y-12175684D02*
X8983339Y-12166160D01*
X8983339Y-12166160D02*
X8973815Y-12147112D01*
X8973815Y-12147112D02*
X8973815Y-11975684D01*
X9154768Y-12166160D02*
X9135720Y-12175684D01*
X9135720Y-12175684D02*
X9097625Y-12175684D01*
X9097625Y-12175684D02*
X9078577Y-12166160D01*
X9078577Y-12166160D02*
X9069053Y-12147112D01*
X9069053Y-12147112D02*
X9069053Y-12070922D01*
X9069053Y-12070922D02*
X9078577Y-12051874D01*
X9078577Y-12051874D02*
X9097625Y-12042350D01*
X9097625Y-12042350D02*
X9135720Y-12042350D01*
X9135720Y-12042350D02*
X9154768Y-12051874D01*
X9154768Y-12051874D02*
X9164292Y-12070922D01*
X9164292Y-12070922D02*
X9164292Y-12089969D01*
X9164292Y-12089969D02*
X9069053Y-12109017D01*
X9240482Y-12166160D02*
X9259530Y-12175684D01*
X9259530Y-12175684D02*
X9297625Y-12175684D01*
X9297625Y-12175684D02*
X9316673Y-12166160D01*
X9316673Y-12166160D02*
X9326196Y-12147112D01*
X9326196Y-12147112D02*
X9326196Y-12137588D01*
X9326196Y-12137588D02*
X9316673Y-12118541D01*
X9316673Y-12118541D02*
X9297625Y-12109017D01*
X9297625Y-12109017D02*
X9269053Y-12109017D01*
X9269053Y-12109017D02*
X9250006Y-12099493D01*
X9250006Y-12099493D02*
X9240482Y-12080446D01*
X9240482Y-12080446D02*
X9240482Y-12070922D01*
X9240482Y-12070922D02*
X9250006Y-12051874D01*
X9250006Y-12051874D02*
X9269053Y-12042350D01*
X9269053Y-12042350D02*
X9297625Y-12042350D01*
X9297625Y-12042350D02*
X9316673Y-12051874D01*
X9392863Y-12251874D02*
X9402387Y-12242350D01*
X9402387Y-12242350D02*
X9421434Y-12213779D01*
X9421434Y-12213779D02*
X9430958Y-12194731D01*
X9430958Y-12194731D02*
X9440482Y-12166160D01*
X9440482Y-12166160D02*
X9450006Y-12118541D01*
X9450006Y-12118541D02*
X9450006Y-12080446D01*
X9450006Y-12080446D02*
X9440482Y-12032827D01*
X9440482Y-12032827D02*
X9430958Y-12004255D01*
X9430958Y-12004255D02*
X9421434Y-11985208D01*
X9421434Y-11985208D02*
X9402387Y-11956636D01*
X9402387Y-11956636D02*
X9392863Y-11947112D01*
X4417800Y-12304200D02*
X4617800Y-12504200D01*
X4617800Y-12304200D02*
X4417800Y-12504200D01*
X4588511Y-12474911D02*
X4588511Y-12333489D01*
X4447089Y-12333489D01*
X4447089Y-12474911D01*
X4588511Y-12474911D01*
X4869053Y-12314731D02*
X4878577Y-12305208D01*
X4878577Y-12305208D02*
X4897624Y-12295684D01*
X4897624Y-12295684D02*
X4945244Y-12295684D01*
X4945244Y-12295684D02*
X4964291Y-12305208D01*
X4964291Y-12305208D02*
X4973815Y-12314731D01*
X4973815Y-12314731D02*
X4983339Y-12333779D01*
X4983339Y-12333779D02*
X4983339Y-12352827D01*
X4983339Y-12352827D02*
X4973815Y-12381398D01*
X4973815Y-12381398D02*
X4859529Y-12495684D01*
X4859529Y-12495684D02*
X4983339Y-12495684D01*
X5069053Y-12476636D02*
X5078577Y-12486160D01*
X5078577Y-12486160D02*
X5069053Y-12495684D01*
X5069053Y-12495684D02*
X5059529Y-12486160D01*
X5059529Y-12486160D02*
X5069053Y-12476636D01*
X5069053Y-12476636D02*
X5069053Y-12495684D01*
X5145244Y-12295684D02*
X5269053Y-12295684D01*
X5269053Y-12295684D02*
X5202386Y-12371874D01*
X5202386Y-12371874D02*
X5230958Y-12371874D01*
X5230958Y-12371874D02*
X5250005Y-12381398D01*
X5250005Y-12381398D02*
X5259529Y-12390922D01*
X5259529Y-12390922D02*
X5269053Y-12409969D01*
X5269053Y-12409969D02*
X5269053Y-12457588D01*
X5269053Y-12457588D02*
X5259529Y-12476636D01*
X5259529Y-12476636D02*
X5250005Y-12486160D01*
X5250005Y-12486160D02*
X5230958Y-12495684D01*
X5230958Y-12495684D02*
X5173815Y-12495684D01*
X5173815Y-12495684D02*
X5154767Y-12486160D01*
X5154767Y-12486160D02*
X5145244Y-12476636D01*
X5392863Y-12295684D02*
X5411910Y-12295684D01*
X5411910Y-12295684D02*
X5430958Y-12305208D01*
X5430958Y-12305208D02*
X5440482Y-12314731D01*
X5440482Y-12314731D02*
X5450005Y-12333779D01*
X5450005Y-12333779D02*
X5459529Y-12371874D01*
X5459529Y-12371874D02*
X5459529Y-12419493D01*
X5459529Y-12419493D02*
X5450005Y-12457588D01*
X5450005Y-12457588D02*
X5440482Y-12476636D01*
X5440482Y-12476636D02*
X5430958Y-12486160D01*
X5430958Y-12486160D02*
X5411910Y-12495684D01*
X5411910Y-12495684D02*
X5392863Y-12495684D01*
X5392863Y-12495684D02*
X5373815Y-12486160D01*
X5373815Y-12486160D02*
X5364291Y-12476636D01*
X5364291Y-12476636D02*
X5354767Y-12457588D01*
X5354767Y-12457588D02*
X5345244Y-12419493D01*
X5345244Y-12419493D02*
X5345244Y-12371874D01*
X5345244Y-12371874D02*
X5354767Y-12333779D01*
X5354767Y-12333779D02*
X5364291Y-12314731D01*
X5364291Y-12314731D02*
X5373815Y-12305208D01*
X5373815Y-12305208D02*
X5392863Y-12295684D01*
X5583339Y-12295684D02*
X5602386Y-12295684D01*
X5602386Y-12295684D02*
X5621434Y-12305208D01*
X5621434Y-12305208D02*
X5630958Y-12314731D01*
X5630958Y-12314731D02*
X5640482Y-12333779D01*
X5640482Y-12333779D02*
X5650005Y-12371874D01*
X5650005Y-12371874D02*
X5650005Y-12419493D01*
X5650005Y-12419493D02*
X5640482Y-12457588D01*
X5640482Y-12457588D02*
X5630958Y-12476636D01*
X5630958Y-12476636D02*
X5621434Y-12486160D01*
X5621434Y-12486160D02*
X5602386Y-12495684D01*
X5602386Y-12495684D02*
X5583339Y-12495684D01*
X5583339Y-12495684D02*
X5564291Y-12486160D01*
X5564291Y-12486160D02*
X5554767Y-12476636D01*
X5554767Y-12476636D02*
X5545244Y-12457588D01*
X5545244Y-12457588D02*
X5535720Y-12419493D01*
X5535720Y-12419493D02*
X5535720Y-12371874D01*
X5535720Y-12371874D02*
X5545244Y-12333779D01*
X5545244Y-12333779D02*
X5554767Y-12314731D01*
X5554767Y-12314731D02*
X5564291Y-12305208D01*
X5564291Y-12305208D02*
X5583339Y-12295684D01*
X5735720Y-12495684D02*
X5735720Y-12362350D01*
X5735720Y-12381398D02*
X5745243Y-12371874D01*
X5745243Y-12371874D02*
X5764291Y-12362350D01*
X5764291Y-12362350D02*
X5792863Y-12362350D01*
X5792863Y-12362350D02*
X5811910Y-12371874D01*
X5811910Y-12371874D02*
X5821434Y-12390922D01*
X5821434Y-12390922D02*
X5821434Y-12495684D01*
X5821434Y-12390922D02*
X5830958Y-12371874D01*
X5830958Y-12371874D02*
X5850005Y-12362350D01*
X5850005Y-12362350D02*
X5878577Y-12362350D01*
X5878577Y-12362350D02*
X5897624Y-12371874D01*
X5897624Y-12371874D02*
X5907148Y-12390922D01*
X5907148Y-12390922D02*
X5907148Y-12495684D01*
X6002386Y-12495684D02*
X6002386Y-12362350D01*
X6002386Y-12381398D02*
X6011910Y-12371874D01*
X6011910Y-12371874D02*
X6030958Y-12362350D01*
X6030958Y-12362350D02*
X6059529Y-12362350D01*
X6059529Y-12362350D02*
X6078577Y-12371874D01*
X6078577Y-12371874D02*
X6088101Y-12390922D01*
X6088101Y-12390922D02*
X6088101Y-12495684D01*
X6088101Y-12390922D02*
X6097624Y-12371874D01*
X6097624Y-12371874D02*
X6116672Y-12362350D01*
X6116672Y-12362350D02*
X6145243Y-12362350D01*
X6145243Y-12362350D02*
X6164291Y-12371874D01*
X6164291Y-12371874D02*
X6173815Y-12390922D01*
X6173815Y-12390922D02*
X6173815Y-12495684D01*
X6564291Y-12286160D02*
X6392863Y-12543303D01*
X6821434Y-12295684D02*
X6840482Y-12295684D01*
X6840482Y-12295684D02*
X6859529Y-12305208D01*
X6859529Y-12305208D02*
X6869053Y-12314731D01*
X6869053Y-12314731D02*
X6878577Y-12333779D01*
X6878577Y-12333779D02*
X6888101Y-12371874D01*
X6888101Y-12371874D02*
X6888101Y-12419493D01*
X6888101Y-12419493D02*
X6878577Y-12457588D01*
X6878577Y-12457588D02*
X6869053Y-12476636D01*
X6869053Y-12476636D02*
X6859529Y-12486160D01*
X6859529Y-12486160D02*
X6840482Y-12495684D01*
X6840482Y-12495684D02*
X6821434Y-12495684D01*
X6821434Y-12495684D02*
X6802386Y-12486160D01*
X6802386Y-12486160D02*
X6792863Y-12476636D01*
X6792863Y-12476636D02*
X6783339Y-12457588D01*
X6783339Y-12457588D02*
X6773815Y-12419493D01*
X6773815Y-12419493D02*
X6773815Y-12371874D01*
X6773815Y-12371874D02*
X6783339Y-12333779D01*
X6783339Y-12333779D02*
X6792863Y-12314731D01*
X6792863Y-12314731D02*
X6802386Y-12305208D01*
X6802386Y-12305208D02*
X6821434Y-12295684D01*
X6973815Y-12476636D02*
X6983339Y-12486160D01*
X6983339Y-12486160D02*
X6973815Y-12495684D01*
X6973815Y-12495684D02*
X6964291Y-12486160D01*
X6964291Y-12486160D02*
X6973815Y-12476636D01*
X6973815Y-12476636D02*
X6973815Y-12495684D01*
X7107148Y-12295684D02*
X7126196Y-12295684D01*
X7126196Y-12295684D02*
X7145244Y-12305208D01*
X7145244Y-12305208D02*
X7154767Y-12314731D01*
X7154767Y-12314731D02*
X7164291Y-12333779D01*
X7164291Y-12333779D02*
X7173815Y-12371874D01*
X7173815Y-12371874D02*
X7173815Y-12419493D01*
X7173815Y-12419493D02*
X7164291Y-12457588D01*
X7164291Y-12457588D02*
X7154767Y-12476636D01*
X7154767Y-12476636D02*
X7145244Y-12486160D01*
X7145244Y-12486160D02*
X7126196Y-12495684D01*
X7126196Y-12495684D02*
X7107148Y-12495684D01*
X7107148Y-12495684D02*
X7088101Y-12486160D01*
X7088101Y-12486160D02*
X7078577Y-12476636D01*
X7078577Y-12476636D02*
X7069053Y-12457588D01*
X7069053Y-12457588D02*
X7059529Y-12419493D01*
X7059529Y-12419493D02*
X7059529Y-12371874D01*
X7059529Y-12371874D02*
X7069053Y-12333779D01*
X7069053Y-12333779D02*
X7078577Y-12314731D01*
X7078577Y-12314731D02*
X7088101Y-12305208D01*
X7088101Y-12305208D02*
X7107148Y-12295684D01*
X7269053Y-12495684D02*
X7307148Y-12495684D01*
X7307148Y-12495684D02*
X7326196Y-12486160D01*
X7326196Y-12486160D02*
X7335720Y-12476636D01*
X7335720Y-12476636D02*
X7354767Y-12448065D01*
X7354767Y-12448065D02*
X7364291Y-12409969D01*
X7364291Y-12409969D02*
X7364291Y-12333779D01*
X7364291Y-12333779D02*
X7354767Y-12314731D01*
X7354767Y-12314731D02*
X7345244Y-12305208D01*
X7345244Y-12305208D02*
X7326196Y-12295684D01*
X7326196Y-12295684D02*
X7288101Y-12295684D01*
X7288101Y-12295684D02*
X7269053Y-12305208D01*
X7269053Y-12305208D02*
X7259529Y-12314731D01*
X7259529Y-12314731D02*
X7250006Y-12333779D01*
X7250006Y-12333779D02*
X7250006Y-12381398D01*
X7250006Y-12381398D02*
X7259529Y-12400446D01*
X7259529Y-12400446D02*
X7269053Y-12409969D01*
X7269053Y-12409969D02*
X7288101Y-12419493D01*
X7288101Y-12419493D02*
X7326196Y-12419493D01*
X7326196Y-12419493D02*
X7345244Y-12409969D01*
X7345244Y-12409969D02*
X7354767Y-12400446D01*
X7354767Y-12400446D02*
X7364291Y-12381398D01*
X7488101Y-12295684D02*
X7507148Y-12295684D01*
X7507148Y-12295684D02*
X7526196Y-12305208D01*
X7526196Y-12305208D02*
X7535720Y-12314731D01*
X7535720Y-12314731D02*
X7545244Y-12333779D01*
X7545244Y-12333779D02*
X7554767Y-12371874D01*
X7554767Y-12371874D02*
X7554767Y-12419493D01*
X7554767Y-12419493D02*
X7545244Y-12457588D01*
X7545244Y-12457588D02*
X7535720Y-12476636D01*
X7535720Y-12476636D02*
X7526196Y-12486160D01*
X7526196Y-12486160D02*
X7507148Y-12495684D01*
X7507148Y-12495684D02*
X7488101Y-12495684D01*
X7488101Y-12495684D02*
X7469053Y-12486160D01*
X7469053Y-12486160D02*
X7459529Y-12476636D01*
X7459529Y-12476636D02*
X7450006Y-12457588D01*
X7450006Y-12457588D02*
X7440482Y-12419493D01*
X7440482Y-12419493D02*
X7440482Y-12371874D01*
X7440482Y-12371874D02*
X7450006Y-12333779D01*
X7450006Y-12333779D02*
X7459529Y-12314731D01*
X7459529Y-12314731D02*
X7469053Y-12305208D01*
X7469053Y-12305208D02*
X7488101Y-12295684D01*
X7726196Y-12295684D02*
X7688101Y-12295684D01*
X7688101Y-12295684D02*
X7669053Y-12305208D01*
X7669053Y-12305208D02*
X7659529Y-12314731D01*
X7659529Y-12314731D02*
X7640482Y-12343303D01*
X7640482Y-12343303D02*
X7630958Y-12381398D01*
X7630958Y-12381398D02*
X7630958Y-12457588D01*
X7630958Y-12457588D02*
X7640482Y-12476636D01*
X7640482Y-12476636D02*
X7650006Y-12486160D01*
X7650006Y-12486160D02*
X7669053Y-12495684D01*
X7669053Y-12495684D02*
X7707148Y-12495684D01*
X7707148Y-12495684D02*
X7726196Y-12486160D01*
X7726196Y-12486160D02*
X7735720Y-12476636D01*
X7735720Y-12476636D02*
X7745244Y-12457588D01*
X7745244Y-12457588D02*
X7745244Y-12409969D01*
X7745244Y-12409969D02*
X7735720Y-12390922D01*
X7735720Y-12390922D02*
X7726196Y-12381398D01*
X7726196Y-12381398D02*
X7707148Y-12371874D01*
X7707148Y-12371874D02*
X7669053Y-12371874D01*
X7669053Y-12371874D02*
X7650006Y-12381398D01*
X7650006Y-12381398D02*
X7640482Y-12390922D01*
X7640482Y-12390922D02*
X7630958Y-12409969D01*
X7821434Y-12295684D02*
X7821434Y-12333779D01*
X7897625Y-12295684D02*
X7897625Y-12333779D01*
X8192863Y-12571874D02*
X8183339Y-12562350D01*
X8183339Y-12562350D02*
X8164291Y-12533779D01*
X8164291Y-12533779D02*
X8154768Y-12514731D01*
X8154768Y-12514731D02*
X8145244Y-12486160D01*
X8145244Y-12486160D02*
X8135720Y-12438541D01*
X8135720Y-12438541D02*
X8135720Y-12400446D01*
X8135720Y-12400446D02*
X8145244Y-12352827D01*
X8145244Y-12352827D02*
X8154768Y-12324255D01*
X8154768Y-12324255D02*
X8164291Y-12305208D01*
X8164291Y-12305208D02*
X8183339Y-12276636D01*
X8183339Y-12276636D02*
X8192863Y-12267112D01*
X8259529Y-12314731D02*
X8269053Y-12305208D01*
X8269053Y-12305208D02*
X8288101Y-12295684D01*
X8288101Y-12295684D02*
X8335720Y-12295684D01*
X8335720Y-12295684D02*
X8354768Y-12305208D01*
X8354768Y-12305208D02*
X8364291Y-12314731D01*
X8364291Y-12314731D02*
X8373815Y-12333779D01*
X8373815Y-12333779D02*
X8373815Y-12352827D01*
X8373815Y-12352827D02*
X8364291Y-12381398D01*
X8364291Y-12381398D02*
X8250006Y-12495684D01*
X8250006Y-12495684D02*
X8373815Y-12495684D01*
X8611911Y-12495684D02*
X8611911Y-12295684D01*
X8697625Y-12495684D02*
X8697625Y-12390922D01*
X8697625Y-12390922D02*
X8688101Y-12371874D01*
X8688101Y-12371874D02*
X8669053Y-12362350D01*
X8669053Y-12362350D02*
X8640482Y-12362350D01*
X8640482Y-12362350D02*
X8621434Y-12371874D01*
X8621434Y-12371874D02*
X8611911Y-12381398D01*
X8821434Y-12495684D02*
X8802387Y-12486160D01*
X8802387Y-12486160D02*
X8792863Y-12476636D01*
X8792863Y-12476636D02*
X8783339Y-12457588D01*
X8783339Y-12457588D02*
X8783339Y-12400446D01*
X8783339Y-12400446D02*
X8792863Y-12381398D01*
X8792863Y-12381398D02*
X8802387Y-12371874D01*
X8802387Y-12371874D02*
X8821434Y-12362350D01*
X8821434Y-12362350D02*
X8850006Y-12362350D01*
X8850006Y-12362350D02*
X8869053Y-12371874D01*
X8869053Y-12371874D02*
X8878577Y-12381398D01*
X8878577Y-12381398D02*
X8888101Y-12400446D01*
X8888101Y-12400446D02*
X8888101Y-12457588D01*
X8888101Y-12457588D02*
X8878577Y-12476636D01*
X8878577Y-12476636D02*
X8869053Y-12486160D01*
X8869053Y-12486160D02*
X8850006Y-12495684D01*
X8850006Y-12495684D02*
X8821434Y-12495684D01*
X9002387Y-12495684D02*
X8983339Y-12486160D01*
X8983339Y-12486160D02*
X8973815Y-12467112D01*
X8973815Y-12467112D02*
X8973815Y-12295684D01*
X9154768Y-12486160D02*
X9135720Y-12495684D01*
X9135720Y-12495684D02*
X9097625Y-12495684D01*
X9097625Y-12495684D02*
X9078577Y-12486160D01*
X9078577Y-12486160D02*
X9069053Y-12467112D01*
X9069053Y-12467112D02*
X9069053Y-12390922D01*
X9069053Y-12390922D02*
X9078577Y-12371874D01*
X9078577Y-12371874D02*
X9097625Y-12362350D01*
X9097625Y-12362350D02*
X9135720Y-12362350D01*
X9135720Y-12362350D02*
X9154768Y-12371874D01*
X9154768Y-12371874D02*
X9164292Y-12390922D01*
X9164292Y-12390922D02*
X9164292Y-12409969D01*
X9164292Y-12409969D02*
X9069053Y-12429017D01*
X9240482Y-12486160D02*
X9259530Y-12495684D01*
X9259530Y-12495684D02*
X9297625Y-12495684D01*
X9297625Y-12495684D02*
X9316673Y-12486160D01*
X9316673Y-12486160D02*
X9326196Y-12467112D01*
X9326196Y-12467112D02*
X9326196Y-12457588D01*
X9326196Y-12457588D02*
X9316673Y-12438541D01*
X9316673Y-12438541D02*
X9297625Y-12429017D01*
X9297625Y-12429017D02*
X9269053Y-12429017D01*
X9269053Y-12429017D02*
X9250006Y-12419493D01*
X9250006Y-12419493D02*
X9240482Y-12400446D01*
X9240482Y-12400446D02*
X9240482Y-12390922D01*
X9240482Y-12390922D02*
X9250006Y-12371874D01*
X9250006Y-12371874D02*
X9269053Y-12362350D01*
X9269053Y-12362350D02*
X9297625Y-12362350D01*
X9297625Y-12362350D02*
X9316673Y-12371874D01*
X9392863Y-12571874D02*
X9402387Y-12562350D01*
X9402387Y-12562350D02*
X9421434Y-12533779D01*
X9421434Y-12533779D02*
X9430958Y-12514731D01*
X9430958Y-12514731D02*
X9440482Y-12486160D01*
X9440482Y-12486160D02*
X9450006Y-12438541D01*
X9450006Y-12438541D02*
X9450006Y-12400446D01*
X9450006Y-12400446D02*
X9440482Y-12352827D01*
X9440482Y-12352827D02*
X9430958Y-12324255D01*
X9430958Y-12324255D02*
X9421434Y-12305208D01*
X9421434Y-12305208D02*
X9402387Y-12276636D01*
X9402387Y-12276636D02*
X9392863Y-12267112D01*
M02*
