G04 #@! TF.GenerationSoftware,KiCad,Pcbnew,7.0.8*
G04 #@! TF.CreationDate,2024-05-20T17:56:06+02:00*
G04 #@! TF.ProjectId,Generator_Cyfrowka,47656e65-7261-4746-9f72-5f437966726f,rev?*
G04 #@! TF.SameCoordinates,Original*
G04 #@! TF.FileFunction,Paste,Top*
G04 #@! TF.FilePolarity,Positive*
%FSLAX46Y46*%
G04 Gerber Fmt 4.6, Leading zero omitted, Abs format (unit mm)*
G04 Created by KiCad (PCBNEW 7.0.8) date 2024-05-20 17:56:06*
%MOMM*%
%LPD*%
G01*
G04 APERTURE LIST*
G04 Aperture macros list*
%AMRoundRect*
0 Rectangle with rounded corners*
0 $1 Rounding radius*
0 $2 $3 $4 $5 $6 $7 $8 $9 X,Y pos of 4 corners*
0 Add a 4 corners polygon primitive as box body*
4,1,4,$2,$3,$4,$5,$6,$7,$8,$9,$2,$3,0*
0 Add four circle primitives for the rounded corners*
1,1,$1+$1,$2,$3*
1,1,$1+$1,$4,$5*
1,1,$1+$1,$6,$7*
1,1,$1+$1,$8,$9*
0 Add four rect primitives between the rounded corners*
20,1,$1+$1,$2,$3,$4,$5,0*
20,1,$1+$1,$4,$5,$6,$7,0*
20,1,$1+$1,$6,$7,$8,$9,0*
20,1,$1+$1,$8,$9,$2,$3,0*%
G04 Aperture macros list end*
%ADD10RoundRect,0.250000X0.325000X0.650000X-0.325000X0.650000X-0.325000X-0.650000X0.325000X-0.650000X0*%
%ADD11RoundRect,0.250000X-0.325000X-0.650000X0.325000X-0.650000X0.325000X0.650000X-0.325000X0.650000X0*%
%ADD12RoundRect,0.250000X0.625000X-0.312500X0.625000X0.312500X-0.625000X0.312500X-0.625000X-0.312500X0*%
%ADD13RoundRect,0.250000X-0.312500X-0.625000X0.312500X-0.625000X0.312500X0.625000X-0.312500X0.625000X0*%
%ADD14RoundRect,0.250000X0.312500X0.625000X-0.312500X0.625000X-0.312500X-0.625000X0.312500X-0.625000X0*%
%ADD15RoundRect,0.250000X0.375000X0.625000X-0.375000X0.625000X-0.375000X-0.625000X0.375000X-0.625000X0*%
%ADD16RoundRect,0.250000X0.650000X-0.325000X0.650000X0.325000X-0.650000X0.325000X-0.650000X-0.325000X0*%
%ADD17RoundRect,0.250000X-0.375000X-0.625000X0.375000X-0.625000X0.375000X0.625000X-0.375000X0.625000X0*%
%ADD18RoundRect,0.250000X-0.650000X0.325000X-0.650000X-0.325000X0.650000X-0.325000X0.650000X0.325000X0*%
%ADD19RoundRect,0.250000X-0.350000X0.850000X-0.350000X-0.850000X0.350000X-0.850000X0.350000X0.850000X0*%
%ADD20RoundRect,0.250000X-1.125000X1.275000X-1.125000X-1.275000X1.125000X-1.275000X1.125000X1.275000X0*%
G04 APERTURE END LIST*
D10*
X107139000Y-76454000D03*
X104189000Y-76454000D03*
D11*
X96569000Y-92710000D03*
X99519000Y-92710000D03*
D12*
X89408000Y-87822500D03*
X89408000Y-84897500D03*
D13*
X96835500Y-77216000D03*
X99760500Y-77216000D03*
D14*
X99760500Y-84836000D03*
X96835500Y-84836000D03*
X72836500Y-83566000D03*
X69911500Y-83566000D03*
D15*
X112144000Y-78994000D03*
X109344000Y-78994000D03*
D13*
X96845500Y-82291000D03*
X99770500Y-82291000D03*
X81849500Y-87630000D03*
X84774500Y-87630000D03*
D12*
X91948000Y-87822500D03*
X91948000Y-84897500D03*
D15*
X113983500Y-96520000D03*
X111183500Y-96520000D03*
D14*
X99760500Y-79756000D03*
X96835500Y-79756000D03*
D11*
X81886000Y-92964000D03*
X84836000Y-92964000D03*
D13*
X106233500Y-93980000D03*
X109158500Y-93980000D03*
D14*
X84774500Y-90170000D03*
X81849500Y-90170000D03*
D13*
X81849500Y-85090000D03*
X84774500Y-85090000D03*
D16*
X104394000Y-82452000D03*
X104394000Y-79502000D03*
D14*
X65216500Y-86360000D03*
X62291500Y-86360000D03*
D13*
X106295000Y-96520000D03*
X109220000Y-96520000D03*
D14*
X72836500Y-87630000D03*
X69911500Y-87630000D03*
X84774500Y-80010000D03*
X81849500Y-80010000D03*
X84774500Y-82555000D03*
X81849500Y-82555000D03*
D17*
X109344000Y-76454000D03*
X112144000Y-76454000D03*
D14*
X99760500Y-89916000D03*
X96835500Y-89916000D03*
D18*
X91948000Y-89711000D03*
X91948000Y-92661000D03*
D11*
X71931000Y-93218000D03*
X74881000Y-93218000D03*
D19*
X111755000Y-81687000D03*
D20*
X111000000Y-86312000D03*
X107950000Y-86312000D03*
X111000000Y-89662000D03*
X107950000Y-89662000D03*
D19*
X107195000Y-81687000D03*
M02*
