G04 #@! TF.GenerationSoftware,KiCad,Pcbnew,7.0.8*
G04 #@! TF.CreationDate,2024-05-20T17:56:06+02:00*
G04 #@! TF.ProjectId,Generator_Cyfrowka,47656e65-7261-4746-9f72-5f437966726f,rev?*
G04 #@! TF.SameCoordinates,Original*
G04 #@! TF.FileFunction,Copper,L1,Top*
G04 #@! TF.FilePolarity,Positive*
%FSLAX46Y46*%
G04 Gerber Fmt 4.6, Leading zero omitted, Abs format (unit mm)*
G04 Created by KiCad (PCBNEW 7.0.8) date 2024-05-20 17:56:06*
%MOMM*%
%LPD*%
G01*
G04 APERTURE LIST*
G04 Aperture macros list*
%AMRoundRect*
0 Rectangle with rounded corners*
0 $1 Rounding radius*
0 $2 $3 $4 $5 $6 $7 $8 $9 X,Y pos of 4 corners*
0 Add a 4 corners polygon primitive as box body*
4,1,4,$2,$3,$4,$5,$6,$7,$8,$9,$2,$3,0*
0 Add four circle primitives for the rounded corners*
1,1,$1+$1,$2,$3*
1,1,$1+$1,$4,$5*
1,1,$1+$1,$6,$7*
1,1,$1+$1,$8,$9*
0 Add four rect primitives between the rounded corners*
20,1,$1+$1,$2,$3,$4,$5,0*
20,1,$1+$1,$4,$5,$6,$7,0*
20,1,$1+$1,$6,$7,$8,$9,0*
20,1,$1+$1,$8,$9,$2,$3,0*%
G04 Aperture macros list end*
G04 #@! TA.AperFunction,SMDPad,CuDef*
%ADD10RoundRect,0.250000X0.325000X0.650000X-0.325000X0.650000X-0.325000X-0.650000X0.325000X-0.650000X0*%
G04 #@! TD*
G04 #@! TA.AperFunction,SMDPad,CuDef*
%ADD11RoundRect,0.250000X-0.325000X-0.650000X0.325000X-0.650000X0.325000X0.650000X-0.325000X0.650000X0*%
G04 #@! TD*
G04 #@! TA.AperFunction,SMDPad,CuDef*
%ADD12RoundRect,0.250000X0.625000X-0.312500X0.625000X0.312500X-0.625000X0.312500X-0.625000X-0.312500X0*%
G04 #@! TD*
G04 #@! TA.AperFunction,ComponentPad*
%ADD13R,1.600000X1.600000*%
G04 #@! TD*
G04 #@! TA.AperFunction,ComponentPad*
%ADD14O,1.600000X1.600000*%
G04 #@! TD*
G04 #@! TA.AperFunction,SMDPad,CuDef*
%ADD15RoundRect,0.250000X-0.312500X-0.625000X0.312500X-0.625000X0.312500X0.625000X-0.312500X0.625000X0*%
G04 #@! TD*
G04 #@! TA.AperFunction,SMDPad,CuDef*
%ADD16RoundRect,0.250000X0.312500X0.625000X-0.312500X0.625000X-0.312500X-0.625000X0.312500X-0.625000X0*%
G04 #@! TD*
G04 #@! TA.AperFunction,SMDPad,CuDef*
%ADD17RoundRect,0.250000X0.375000X0.625000X-0.375000X0.625000X-0.375000X-0.625000X0.375000X-0.625000X0*%
G04 #@! TD*
G04 #@! TA.AperFunction,ComponentPad*
%ADD18R,1.700000X1.700000*%
G04 #@! TD*
G04 #@! TA.AperFunction,ComponentPad*
%ADD19O,1.700000X1.700000*%
G04 #@! TD*
G04 #@! TA.AperFunction,SMDPad,CuDef*
%ADD20RoundRect,0.250000X0.650000X-0.325000X0.650000X0.325000X-0.650000X0.325000X-0.650000X-0.325000X0*%
G04 #@! TD*
G04 #@! TA.AperFunction,SMDPad,CuDef*
%ADD21RoundRect,0.250000X-0.375000X-0.625000X0.375000X-0.625000X0.375000X0.625000X-0.375000X0.625000X0*%
G04 #@! TD*
G04 #@! TA.AperFunction,SMDPad,CuDef*
%ADD22RoundRect,0.250000X-0.650000X0.325000X-0.650000X-0.325000X0.650000X-0.325000X0.650000X0.325000X0*%
G04 #@! TD*
G04 #@! TA.AperFunction,SMDPad,CuDef*
%ADD23RoundRect,0.250000X-0.350000X0.850000X-0.350000X-0.850000X0.350000X-0.850000X0.350000X0.850000X0*%
G04 #@! TD*
G04 #@! TA.AperFunction,SMDPad,CuDef*
%ADD24RoundRect,0.250000X-1.125000X1.275000X-1.125000X-1.275000X1.125000X-1.275000X1.125000X1.275000X0*%
G04 #@! TD*
G04 #@! TA.AperFunction,SMDPad,CuDef*
%ADD25RoundRect,0.249997X-2.650003X2.950003X-2.650003X-2.950003X2.650003X-2.950003X2.650003X2.950003X0*%
G04 #@! TD*
G04 #@! TA.AperFunction,ComponentPad*
%ADD26C,1.600000*%
G04 #@! TD*
G04 #@! TA.AperFunction,ComponentPad*
%ADD27C,4.000000*%
G04 #@! TD*
G04 #@! TA.AperFunction,ComponentPad*
%ADD28R,1.800000X1.800000*%
G04 #@! TD*
G04 #@! TA.AperFunction,ComponentPad*
%ADD29C,1.800000*%
G04 #@! TD*
G04 #@! TA.AperFunction,ComponentPad*
%ADD30O,2.500000X1.600000*%
G04 #@! TD*
G04 #@! TA.AperFunction,ComponentPad*
%ADD31O,7.000000X3.500000*%
G04 #@! TD*
G04 #@! TA.AperFunction,ViaPad*
%ADD32C,0.800000*%
G04 #@! TD*
G04 #@! TA.AperFunction,Conductor*
%ADD33C,0.500000*%
G04 #@! TD*
G04 #@! TA.AperFunction,Conductor*
%ADD34C,0.250000*%
G04 #@! TD*
G04 APERTURE END LIST*
D10*
X107139000Y-76454000D03*
X104189000Y-76454000D03*
D11*
X96569000Y-92710000D03*
X99519000Y-92710000D03*
D12*
X89408000Y-87822500D03*
X89408000Y-84897500D03*
D13*
X74920000Y-90170000D03*
D14*
X74920000Y-87630000D03*
X74920000Y-85090000D03*
X74920000Y-82550000D03*
X74920000Y-80010000D03*
X74920000Y-77470000D03*
X74920000Y-74930000D03*
X67300000Y-74930000D03*
X67300000Y-77470000D03*
X67300000Y-80010000D03*
X67300000Y-82550000D03*
X67300000Y-85090000D03*
X67300000Y-87630000D03*
X67300000Y-90170000D03*
D15*
X96835500Y-77216000D03*
X99760500Y-77216000D03*
D16*
X99760500Y-84836000D03*
X96835500Y-84836000D03*
X72836500Y-83566000D03*
X69911500Y-83566000D03*
D17*
X112144000Y-78994000D03*
X109344000Y-78994000D03*
D15*
X96845500Y-82291000D03*
X99770500Y-82291000D03*
X81849500Y-87630000D03*
X84774500Y-87630000D03*
D12*
X91948000Y-87822500D03*
X91948000Y-84897500D03*
D17*
X113983500Y-96520000D03*
X111183500Y-96520000D03*
D16*
X99760500Y-79756000D03*
X96835500Y-79756000D03*
D13*
X102108000Y-89916000D03*
D14*
X102108000Y-87376000D03*
X102108000Y-84836000D03*
X102108000Y-82296000D03*
X102108000Y-79756000D03*
X102108000Y-77216000D03*
X102108000Y-74676000D03*
X94488000Y-74676000D03*
X94488000Y-77216000D03*
X94488000Y-79756000D03*
X94488000Y-82296000D03*
X94488000Y-84836000D03*
X94488000Y-87376000D03*
X94488000Y-89916000D03*
D13*
X87112000Y-90180000D03*
D14*
X87112000Y-87640000D03*
X87112000Y-85100000D03*
X87112000Y-82560000D03*
X87112000Y-80020000D03*
X87112000Y-77480000D03*
X87112000Y-74940000D03*
X79492000Y-74940000D03*
X79492000Y-77480000D03*
X79492000Y-80020000D03*
X79492000Y-82560000D03*
X79492000Y-85100000D03*
X79492000Y-87640000D03*
X79492000Y-90180000D03*
D11*
X81886000Y-92964000D03*
X84836000Y-92964000D03*
D15*
X106233500Y-93980000D03*
X109158500Y-93980000D03*
D18*
X111252000Y-72898000D03*
D19*
X111252000Y-70358000D03*
D16*
X84774500Y-90170000D03*
X81849500Y-90170000D03*
D18*
X64008000Y-80767000D03*
D19*
X64008000Y-83307000D03*
D15*
X81849500Y-85090000D03*
X84774500Y-85090000D03*
D20*
X104394000Y-82452000D03*
X104394000Y-79502000D03*
D16*
X65216500Y-86360000D03*
X62291500Y-86360000D03*
D15*
X106295000Y-96520000D03*
X109220000Y-96520000D03*
D16*
X72836500Y-87630000D03*
X69911500Y-87630000D03*
X84774500Y-80010000D03*
X81849500Y-80010000D03*
X84774500Y-82555000D03*
X81849500Y-82555000D03*
D21*
X109344000Y-76454000D03*
X112144000Y-76454000D03*
D16*
X99760500Y-89916000D03*
X96835500Y-89916000D03*
D22*
X91948000Y-89711000D03*
X91948000Y-92661000D03*
D11*
X71931000Y-93218000D03*
X74881000Y-93218000D03*
D23*
X111755000Y-81687000D03*
D24*
X111000000Y-86312000D03*
X107950000Y-86312000D03*
D25*
X109475000Y-87987000D03*
D24*
X111000000Y-89662000D03*
X107950000Y-89662000D03*
D23*
X107195000Y-81687000D03*
D13*
X115028000Y-83896000D03*
D26*
X115028000Y-81396000D03*
X117028000Y-81396000D03*
X117028000Y-83896000D03*
D27*
X119888000Y-76646000D03*
X119888000Y-88646000D03*
D28*
X114046000Y-93980000D03*
D29*
X111506000Y-93980000D03*
D30*
X58928000Y-82804000D03*
D31*
X53848000Y-77724000D03*
D30*
X58928000Y-80264000D03*
D31*
X53848000Y-87884000D03*
D32*
X105664000Y-74422000D03*
X77216000Y-82550000D03*
X77470000Y-92456000D03*
X104140000Y-76454000D03*
X61976000Y-92456000D03*
X81788000Y-90170000D03*
X89154000Y-91440000D03*
X63500000Y-77216000D03*
X81788000Y-80010000D03*
X99568000Y-92710000D03*
X64770000Y-89154000D03*
X74930000Y-93218000D03*
X89662000Y-82550000D03*
X84836000Y-85090000D03*
X99822000Y-77216000D03*
X99822000Y-82042000D03*
X91948000Y-92710000D03*
X96774000Y-87630000D03*
X72644000Y-76200000D03*
X88646000Y-71882000D03*
X105664000Y-92202000D03*
X101854000Y-92710000D03*
X89662000Y-77470000D03*
X67056000Y-72898000D03*
X71882000Y-93218000D03*
D33*
X91948000Y-87822500D02*
X94041500Y-87822500D01*
X91948000Y-87822500D02*
X91948000Y-89711000D01*
X94041500Y-87822500D02*
X94488000Y-87376000D01*
X91694000Y-89457000D02*
X91948000Y-89711000D01*
X99822000Y-82042000D02*
X99822000Y-82342500D01*
X99760500Y-77023500D02*
X102108000Y-74676000D01*
X104189000Y-76454000D02*
X104189000Y-79297000D01*
X84836000Y-92964000D02*
X91645000Y-92964000D01*
X84774500Y-87630000D02*
X84389500Y-87630000D01*
X81849500Y-80010000D02*
X81788000Y-80010000D01*
X96835500Y-87568500D02*
X96774000Y-87630000D01*
X73914000Y-74930000D02*
X72644000Y-76200000D01*
X91645000Y-92964000D02*
X91899000Y-92710000D01*
X74920000Y-74930000D02*
X73914000Y-74930000D01*
X104189000Y-79297000D02*
X104394000Y-79502000D01*
D34*
X99519000Y-92599500D02*
X99568000Y-92710000D01*
D33*
X104140000Y-76454000D02*
X104189000Y-76454000D01*
X84774500Y-85090000D02*
X84836000Y-85090000D01*
X81849500Y-82555000D02*
X82239500Y-82555000D01*
X99822000Y-77216000D02*
X99760500Y-77023500D01*
X102411000Y-74676000D02*
X104140000Y-76405000D01*
X99770500Y-82291000D02*
X99380500Y-82291000D01*
X99380500Y-82291000D02*
X96835500Y-84836000D01*
X84836000Y-85090000D02*
X84774500Y-87630000D01*
X104140000Y-76405000D02*
X104140000Y-76454000D01*
X81788000Y-80010000D02*
X81849500Y-81280000D01*
X87112000Y-74940000D02*
X88910000Y-74940000D01*
X104189000Y-76454000D02*
X104189000Y-76454000D01*
X102108000Y-74676000D02*
X102411000Y-74676000D01*
X89662000Y-75692000D02*
X89662000Y-77470000D01*
X96835500Y-79756000D02*
X97235500Y-79756000D01*
X82042000Y-90170000D02*
X84836000Y-92964000D01*
X97235500Y-79756000D02*
X99521500Y-82042000D01*
X91899000Y-92710000D02*
X91948000Y-92710000D01*
X91948000Y-92661000D02*
X91948000Y-92661000D01*
X82239500Y-82555000D02*
X84774500Y-85090000D01*
X96835500Y-84836000D02*
X96835500Y-87568500D01*
X99521500Y-82042000D02*
X99822000Y-82042000D01*
X96774000Y-87630000D02*
X96835500Y-87691500D01*
X84389500Y-87630000D02*
X81849500Y-90170000D01*
X96835500Y-89916000D02*
X99519000Y-92599500D01*
X88910000Y-74940000D02*
X89662000Y-75692000D01*
X97220500Y-79756000D02*
X96835500Y-79756000D01*
X81788000Y-90170000D02*
X81788000Y-90231500D01*
X96835500Y-87691500D02*
X96835500Y-89916000D01*
X81849500Y-81280000D02*
X81849500Y-82555000D01*
X99822000Y-82342500D02*
X99770500Y-82291000D01*
X86604000Y-74940000D02*
X81849500Y-79694500D01*
X91948000Y-92710000D02*
X91948000Y-92661000D01*
X99760500Y-77216000D02*
X99822000Y-77216000D01*
D34*
X99568000Y-92710000D02*
X99519000Y-92710000D01*
D33*
X99760500Y-77216000D02*
X97220500Y-79756000D01*
X81849500Y-90170000D02*
X82042000Y-90170000D01*
X81849500Y-79694500D02*
X81849500Y-80010000D01*
X87112000Y-74940000D02*
X86604000Y-74940000D01*
D34*
X81849500Y-82996500D02*
X81849500Y-82555000D01*
D33*
X81788000Y-90231500D02*
X81849500Y-90170000D01*
X81849500Y-90170000D02*
X81788000Y-90170000D01*
X71931000Y-94947000D02*
X71882000Y-93218000D01*
X71931000Y-94947000D02*
X71980000Y-94996000D01*
X79756000Y-94996000D02*
X79492000Y-94732000D01*
X94234000Y-94996000D02*
X102870000Y-94996000D01*
X106430000Y-82452000D02*
X107195000Y-81687000D01*
X79492000Y-92964000D02*
X79492000Y-90180000D01*
X107195000Y-81687000D02*
X107195000Y-81143000D01*
X104394000Y-82452000D02*
X106430000Y-82452000D01*
X103886000Y-93980000D02*
X104394000Y-93472000D01*
X94234000Y-94996000D02*
X80010000Y-94996000D01*
X94488000Y-92710000D02*
X94488000Y-94996000D01*
X103886000Y-93980000D02*
X105979500Y-93980000D01*
X80010000Y-94996000D02*
X79756000Y-94996000D01*
X106295000Y-96520000D02*
X106295000Y-94041500D01*
X71980000Y-94996000D02*
X80010000Y-94996000D01*
X104394000Y-93472000D02*
X104394000Y-82452000D01*
X107195000Y-81143000D02*
X109344000Y-78994000D01*
X94488000Y-94996000D02*
X94234000Y-94996000D01*
X94488000Y-92710000D02*
X96569000Y-92710000D01*
X79492000Y-94732000D02*
X79492000Y-92964000D01*
X79492000Y-92964000D02*
X81886000Y-92964000D01*
X94488000Y-89916000D02*
X94488000Y-92710000D01*
X106295000Y-94041500D02*
X106233500Y-93980000D01*
X102870000Y-94996000D02*
X103886000Y-93980000D01*
X71882000Y-93218000D02*
X71931000Y-93218000D01*
X111183500Y-96520000D02*
X109220000Y-96520000D01*
X89916000Y-73152000D02*
X91948000Y-75184000D01*
X79492000Y-80020000D02*
X74930000Y-80020000D01*
X74930000Y-80020000D02*
X74920000Y-80010000D01*
X75438000Y-80010000D02*
X74920000Y-80010000D01*
X86360000Y-73152000D02*
X89916000Y-73152000D01*
X91948000Y-84643500D02*
X91694000Y-84897500D01*
X79492000Y-80020000D02*
X86360000Y-73152000D01*
X94488000Y-84836000D02*
X91755500Y-84836000D01*
D34*
X91755500Y-84836000D02*
X91694000Y-84897500D01*
D33*
X91948000Y-75184000D02*
X91948000Y-84643500D01*
D34*
X115542500Y-81398000D02*
X115640500Y-81300000D01*
D33*
X112144000Y-81298000D02*
X111755000Y-81687000D01*
X109604000Y-76454000D02*
X112144000Y-78994000D01*
X112144000Y-78994000D02*
X112144000Y-81298000D01*
X107139000Y-76454000D02*
X109344000Y-76454000D01*
X109344000Y-76454000D02*
X109604000Y-76454000D01*
X72836500Y-87630000D02*
X74920000Y-87630000D01*
X67300000Y-82550000D02*
X67300000Y-82306000D01*
X72136000Y-77470000D02*
X74920000Y-77470000D01*
X67300000Y-82306000D02*
X72136000Y-77470000D01*
D34*
X66792000Y-88138000D02*
X67300000Y-87630000D01*
D33*
X74920000Y-85090000D02*
X75946000Y-85090000D01*
X75946000Y-85090000D02*
X76708000Y-85852000D01*
X75946000Y-90170000D02*
X74920000Y-90170000D01*
X76708000Y-89408000D02*
X75946000Y-90170000D01*
X76708000Y-85852000D02*
X76708000Y-89408000D01*
X75356000Y-73344000D02*
X73846500Y-73344000D01*
X79492000Y-77480000D02*
X75356000Y-73344000D01*
X73846500Y-73344000D02*
X67300000Y-79890500D01*
X67300000Y-79890500D02*
X67300000Y-80010000D01*
D34*
X79492000Y-77978000D02*
X79492000Y-77480000D01*
D33*
X72380000Y-72390000D02*
X67300000Y-77470000D01*
X76942000Y-72390000D02*
X72380000Y-72390000D01*
X79492000Y-74940000D02*
X76942000Y-72390000D01*
D34*
X79492000Y-75438000D02*
X79492000Y-74940000D01*
D33*
X65216500Y-86360000D02*
X66486500Y-85090000D01*
X66486500Y-85090000D02*
X67300000Y-85090000D01*
X87112000Y-87640000D02*
X89225500Y-87640000D01*
D34*
X89225500Y-87640000D02*
X89408000Y-87822500D01*
X87102000Y-90170000D02*
X87112000Y-90180000D01*
D33*
X84774500Y-90170000D02*
X87102000Y-90170000D01*
D34*
X87102000Y-80010000D02*
X87112000Y-80020000D01*
D33*
X84774500Y-80010000D02*
X87102000Y-80010000D01*
X84774500Y-82555000D02*
X87107000Y-82555000D01*
D34*
X87107000Y-82555000D02*
X87112000Y-82560000D01*
D33*
X73852500Y-82550000D02*
X74920000Y-82550000D01*
X72836500Y-83566000D02*
X73852500Y-82550000D01*
X99760500Y-84836000D02*
X102108000Y-84836000D01*
X99760500Y-89916000D02*
X102108000Y-89916000D01*
X94488000Y-82296000D02*
X96840500Y-82296000D01*
D34*
X96840500Y-82296000D02*
X96845500Y-82291000D01*
D33*
X94488000Y-77216000D02*
X96835500Y-77216000D01*
X99760500Y-79756000D02*
X102108000Y-79756000D01*
D34*
X81839500Y-87640000D02*
X81849500Y-87630000D01*
D33*
X79492000Y-87640000D02*
X81839500Y-87640000D01*
D34*
X81605500Y-85100000D02*
X81849500Y-85344000D01*
D33*
X79492000Y-85100000D02*
X81605500Y-85100000D01*
X109158500Y-93980000D02*
X111506000Y-93980000D01*
X112144000Y-76454000D02*
X113538000Y-77848000D01*
X112014000Y-76324000D02*
X112144000Y-76454000D01*
X113538000Y-83058000D02*
X114376000Y-83896000D01*
X114376000Y-83896000D02*
X115028000Y-83896000D01*
X112014000Y-73660000D02*
X112014000Y-76324000D01*
X113538000Y-77848000D02*
X113538000Y-83058000D01*
X111252000Y-72898000D02*
X112014000Y-73660000D01*
X58928000Y-82804000D02*
X61971000Y-82804000D01*
X61971000Y-82804000D02*
X64008000Y-80767000D01*
X62291500Y-90231500D02*
X62291500Y-86360000D01*
D34*
X64376000Y-83675000D02*
X64008000Y-83307000D01*
D33*
X69911500Y-83566000D02*
X69911500Y-86106000D01*
X64008000Y-83307000D02*
X62291500Y-85023500D01*
X68326000Y-91948000D02*
X64008000Y-91948000D01*
D34*
X69911500Y-83566000D02*
X69802500Y-83675000D01*
D33*
X64008000Y-91948000D02*
X62291500Y-90231500D01*
X62230000Y-86421500D02*
X62291500Y-86360000D01*
X69911500Y-87630000D02*
X69911500Y-90362500D01*
X69911500Y-86106000D02*
X69911500Y-87630000D01*
X69911500Y-90362500D02*
X68326000Y-91948000D01*
X62291500Y-85023500D02*
X62291500Y-86360000D01*
G04 #@! TA.AperFunction,Conductor*
G36*
X85736044Y-74939836D02*
G01*
X85791977Y-74981708D01*
X85816238Y-75045210D01*
X85826858Y-75166600D01*
X85826860Y-75166610D01*
X85885730Y-75386317D01*
X85885734Y-75386326D01*
X85981865Y-75592482D01*
X86112342Y-75778820D01*
X86273179Y-75939657D01*
X86459518Y-76070134D01*
X86459520Y-76070135D01*
X86517865Y-76097342D01*
X86570305Y-76143514D01*
X86589457Y-76210707D01*
X86569242Y-76277589D01*
X86517867Y-76322105D01*
X86459268Y-76349431D01*
X86459264Y-76349433D01*
X86272858Y-76479954D01*
X86111954Y-76640858D01*
X85981432Y-76827265D01*
X85981431Y-76827267D01*
X85885261Y-77033502D01*
X85885258Y-77033511D01*
X85826366Y-77253302D01*
X85826364Y-77253313D01*
X85806532Y-77479998D01*
X85806532Y-77480001D01*
X85826364Y-77706686D01*
X85826366Y-77706697D01*
X85885258Y-77926488D01*
X85885261Y-77926497D01*
X85981431Y-78132732D01*
X85981432Y-78132734D01*
X86111954Y-78319141D01*
X86272858Y-78480045D01*
X86272861Y-78480047D01*
X86459266Y-78610568D01*
X86514144Y-78636158D01*
X86517275Y-78637618D01*
X86569714Y-78683791D01*
X86588866Y-78750984D01*
X86568650Y-78817865D01*
X86517275Y-78862382D01*
X86459267Y-78889431D01*
X86459265Y-78889432D01*
X86272858Y-79019954D01*
X86111954Y-79180858D01*
X86093914Y-79206623D01*
X86039337Y-79250248D01*
X85992339Y-79259500D01*
X85925585Y-79259500D01*
X85858546Y-79239815D01*
X85812791Y-79187011D01*
X85807879Y-79174504D01*
X85798434Y-79146000D01*
X85771814Y-79065666D01*
X85679712Y-78916344D01*
X85555656Y-78792288D01*
X85406334Y-78700186D01*
X85239797Y-78645001D01*
X85239795Y-78645000D01*
X85137010Y-78634500D01*
X84411998Y-78634500D01*
X84411980Y-78634501D01*
X84309203Y-78645000D01*
X84309200Y-78645001D01*
X84142668Y-78700185D01*
X84142663Y-78700187D01*
X83993342Y-78792289D01*
X83869289Y-78916342D01*
X83777187Y-79065663D01*
X83777185Y-79065668D01*
X83756853Y-79127028D01*
X83722001Y-79232203D01*
X83722001Y-79232204D01*
X83722000Y-79232204D01*
X83711500Y-79334983D01*
X83711500Y-80685001D01*
X83711501Y-80685018D01*
X83722000Y-80787796D01*
X83722001Y-80787799D01*
X83775585Y-80949502D01*
X83777186Y-80954334D01*
X83869096Y-81103345D01*
X83869289Y-81103657D01*
X83960451Y-81194819D01*
X83993936Y-81256142D01*
X83988952Y-81325834D01*
X83960451Y-81370181D01*
X83869289Y-81461342D01*
X83777187Y-81610663D01*
X83777185Y-81610668D01*
X83750800Y-81690294D01*
X83722001Y-81777203D01*
X83722001Y-81777204D01*
X83722000Y-81777204D01*
X83711500Y-81879983D01*
X83711500Y-83230001D01*
X83711501Y-83230018D01*
X83722000Y-83332796D01*
X83722001Y-83332799D01*
X83777185Y-83499331D01*
X83777187Y-83499336D01*
X83804551Y-83543700D01*
X83869096Y-83648345D01*
X83869289Y-83648657D01*
X83955804Y-83735172D01*
X83989289Y-83796495D01*
X83984305Y-83866187D01*
X83955805Y-83910534D01*
X83869682Y-83996657D01*
X83777643Y-84145875D01*
X83777641Y-84145880D01*
X83722494Y-84312302D01*
X83722493Y-84312309D01*
X83712000Y-84415013D01*
X83712000Y-84840000D01*
X84900500Y-84840000D01*
X84967539Y-84859685D01*
X85013294Y-84912489D01*
X85024500Y-84964000D01*
X85024500Y-87756000D01*
X85004815Y-87823039D01*
X84952011Y-87868794D01*
X84900500Y-87880000D01*
X83712001Y-87880000D01*
X83712001Y-88304986D01*
X83722494Y-88407697D01*
X83777641Y-88574119D01*
X83777643Y-88574124D01*
X83869684Y-88723345D01*
X83958304Y-88811965D01*
X83991789Y-88873288D01*
X83986805Y-88942980D01*
X83958305Y-88987327D01*
X83869287Y-89076345D01*
X83777187Y-89225663D01*
X83777185Y-89225668D01*
X83762840Y-89268958D01*
X83722001Y-89392203D01*
X83722001Y-89392204D01*
X83722000Y-89392204D01*
X83711500Y-89494983D01*
X83711500Y-90845001D01*
X83711501Y-90845018D01*
X83722000Y-90947796D01*
X83722001Y-90947799D01*
X83777185Y-91114331D01*
X83777187Y-91114336D01*
X83789135Y-91133706D01*
X83869288Y-91263656D01*
X83993344Y-91387712D01*
X84115734Y-91463202D01*
X84117621Y-91464366D01*
X84164345Y-91516314D01*
X84175568Y-91585277D01*
X84147724Y-91649359D01*
X84117621Y-91675443D01*
X84042659Y-91721680D01*
X84042655Y-91721683D01*
X83918684Y-91845654D01*
X83826643Y-91994875D01*
X83826641Y-91994880D01*
X83771494Y-92161302D01*
X83771493Y-92161309D01*
X83761000Y-92264013D01*
X83761000Y-92714000D01*
X85910999Y-92714000D01*
X85910999Y-92411000D01*
X90548000Y-92411000D01*
X91698000Y-92411000D01*
X91698000Y-91586000D01*
X92198000Y-91586000D01*
X92198000Y-92411000D01*
X93347999Y-92411000D01*
X93347999Y-92286028D01*
X93347998Y-92286013D01*
X93337505Y-92183302D01*
X93282358Y-92016880D01*
X93282356Y-92016875D01*
X93190315Y-91867654D01*
X93066345Y-91743684D01*
X92917124Y-91651643D01*
X92917119Y-91651641D01*
X92750697Y-91596494D01*
X92750690Y-91596493D01*
X92647986Y-91586000D01*
X92198000Y-91586000D01*
X91698000Y-91586000D01*
X91248028Y-91586000D01*
X91248012Y-91586001D01*
X91145302Y-91596494D01*
X90978880Y-91651641D01*
X90978875Y-91651643D01*
X90829654Y-91743684D01*
X90705684Y-91867654D01*
X90613643Y-92016875D01*
X90613641Y-92016880D01*
X90558494Y-92183302D01*
X90558493Y-92183309D01*
X90548000Y-92286013D01*
X90548000Y-92411000D01*
X85910999Y-92411000D01*
X85910999Y-92264028D01*
X85910998Y-92264013D01*
X85900505Y-92161302D01*
X85845358Y-91994880D01*
X85845356Y-91994875D01*
X85753315Y-91845654D01*
X85629344Y-91721683D01*
X85629340Y-91721680D01*
X85492878Y-91637509D01*
X85446153Y-91585561D01*
X85434932Y-91516599D01*
X85462775Y-91452517D01*
X85492874Y-91426435D01*
X85555656Y-91387712D01*
X85679712Y-91263656D01*
X85683200Y-91258000D01*
X85735147Y-91211275D01*
X85804109Y-91200051D01*
X85868192Y-91227893D01*
X85888006Y-91248784D01*
X85954452Y-91337544D01*
X85954455Y-91337547D01*
X86069664Y-91423793D01*
X86069671Y-91423797D01*
X86204517Y-91474091D01*
X86204516Y-91474091D01*
X86211444Y-91474835D01*
X86264127Y-91480500D01*
X87959872Y-91480499D01*
X88019483Y-91474091D01*
X88154331Y-91423796D01*
X88269546Y-91337546D01*
X88355796Y-91222331D01*
X88406091Y-91087483D01*
X88412500Y-91027873D01*
X88412499Y-89332128D01*
X88406091Y-89272517D01*
X88402361Y-89262517D01*
X88355797Y-89137671D01*
X88355793Y-89137664D01*
X88269547Y-89022455D01*
X88269544Y-89022452D01*
X88154335Y-88936206D01*
X88154328Y-88936202D01*
X88019482Y-88885908D01*
X88019483Y-88885908D01*
X87984404Y-88882137D01*
X87919853Y-88855399D01*
X87880005Y-88798006D01*
X87877512Y-88728181D01*
X87913165Y-88668092D01*
X87926539Y-88657272D01*
X87951139Y-88640047D01*
X88002231Y-88588955D01*
X88063554Y-88555469D01*
X88133246Y-88560453D01*
X88187179Y-88599724D01*
X88190288Y-88603656D01*
X88314344Y-88727712D01*
X88463666Y-88819814D01*
X88630203Y-88874999D01*
X88732991Y-88885500D01*
X90083008Y-88885499D01*
X90185797Y-88874999D01*
X90352334Y-88819814D01*
X90501656Y-88727712D01*
X90590321Y-88639046D01*
X90651640Y-88605564D01*
X90721332Y-88610548D01*
X90765678Y-88639047D01*
X90786948Y-88660316D01*
X90820435Y-88721638D01*
X90815452Y-88791330D01*
X90786951Y-88835679D01*
X90705289Y-88917342D01*
X90613187Y-89066663D01*
X90613185Y-89066668D01*
X90589658Y-89137669D01*
X90558001Y-89233203D01*
X90558001Y-89233204D01*
X90558000Y-89233204D01*
X90547500Y-89335983D01*
X90547500Y-90086001D01*
X90547501Y-90086019D01*
X90558000Y-90188796D01*
X90558001Y-90188799D01*
X90613185Y-90355331D01*
X90613187Y-90355336D01*
X90627361Y-90378316D01*
X90705288Y-90504656D01*
X90829344Y-90628712D01*
X90978666Y-90720814D01*
X91145203Y-90775999D01*
X91247991Y-90786500D01*
X92648008Y-90786499D01*
X92750797Y-90775999D01*
X92917334Y-90720814D01*
X93066656Y-90628712D01*
X93158816Y-90536551D01*
X93220135Y-90503069D01*
X93289827Y-90508053D01*
X93345761Y-90549924D01*
X93354345Y-90564261D01*
X93354724Y-90564043D01*
X93357432Y-90568734D01*
X93487954Y-90755141D01*
X93648859Y-90916046D01*
X93684621Y-90941086D01*
X93728247Y-90995662D01*
X93737500Y-91042662D01*
X93737500Y-92686358D01*
X93737395Y-92689960D01*
X93736804Y-92700105D01*
X93733669Y-92753934D01*
X93733669Y-92753935D01*
X93735616Y-92764977D01*
X93737500Y-92786509D01*
X93737500Y-94121500D01*
X93717815Y-94188539D01*
X93665011Y-94234294D01*
X93613500Y-94245500D01*
X85874856Y-94245500D01*
X85807817Y-94225815D01*
X85762062Y-94173011D01*
X85752118Y-94103853D01*
X85769317Y-94056403D01*
X85845356Y-93933124D01*
X85845358Y-93933119D01*
X85900505Y-93766697D01*
X85900506Y-93766690D01*
X85910999Y-93663986D01*
X85911000Y-93663973D01*
X85911000Y-93214000D01*
X83761001Y-93214000D01*
X83761001Y-93663986D01*
X83771494Y-93766697D01*
X83826641Y-93933119D01*
X83826643Y-93933124D01*
X83902683Y-94056403D01*
X83921123Y-94123796D01*
X83900201Y-94190459D01*
X83846559Y-94235229D01*
X83797144Y-94245500D01*
X82925443Y-94245500D01*
X82858404Y-94225815D01*
X82812649Y-94173011D01*
X82802705Y-94103853D01*
X82819902Y-94056406D01*
X82895814Y-93933334D01*
X82950999Y-93766797D01*
X82961500Y-93664009D01*
X82961499Y-92911000D01*
X90548001Y-92911000D01*
X90548001Y-93035986D01*
X90558494Y-93138697D01*
X90613641Y-93305119D01*
X90613643Y-93305124D01*
X90705684Y-93454345D01*
X90829654Y-93578315D01*
X90978875Y-93670356D01*
X90978880Y-93670358D01*
X91145302Y-93725505D01*
X91145309Y-93725506D01*
X91248019Y-93735999D01*
X91697999Y-93735999D01*
X91698000Y-93735998D01*
X91698000Y-92911000D01*
X92198000Y-92911000D01*
X92198000Y-93735999D01*
X92647972Y-93735999D01*
X92647986Y-93735998D01*
X92750697Y-93725505D01*
X92917119Y-93670358D01*
X92917124Y-93670356D01*
X93066345Y-93578315D01*
X93190315Y-93454345D01*
X93282356Y-93305124D01*
X93282358Y-93305119D01*
X93337505Y-93138697D01*
X93337506Y-93138690D01*
X93347999Y-93035986D01*
X93348000Y-93035973D01*
X93348000Y-92911000D01*
X92198000Y-92911000D01*
X91698000Y-92911000D01*
X90548001Y-92911000D01*
X82961499Y-92911000D01*
X82961499Y-92263992D01*
X82959933Y-92248666D01*
X82950999Y-92161203D01*
X82950998Y-92161200D01*
X82944308Y-92141011D01*
X82895814Y-91994666D01*
X82803712Y-91845344D01*
X82679656Y-91721288D01*
X82555378Y-91644633D01*
X82508654Y-91592685D01*
X82497431Y-91523722D01*
X82525275Y-91459640D01*
X82555379Y-91433555D01*
X82630343Y-91387317D01*
X82754315Y-91263345D01*
X82846356Y-91114124D01*
X82846358Y-91114119D01*
X82901505Y-90947697D01*
X82901506Y-90947690D01*
X82911999Y-90844986D01*
X82912000Y-90844973D01*
X82912000Y-90420000D01*
X81723500Y-90420000D01*
X81656461Y-90400315D01*
X81610706Y-90347511D01*
X81599500Y-90296000D01*
X81599500Y-90044000D01*
X81619185Y-89976961D01*
X81671989Y-89931206D01*
X81723500Y-89920000D01*
X82911999Y-89920000D01*
X82911999Y-89495028D01*
X82911998Y-89495013D01*
X82901505Y-89392302D01*
X82846358Y-89225880D01*
X82846356Y-89225875D01*
X82754315Y-89076654D01*
X82665695Y-88988034D01*
X82632210Y-88926711D01*
X82637194Y-88857019D01*
X82665691Y-88812676D01*
X82754712Y-88723656D01*
X82846814Y-88574334D01*
X82901999Y-88407797D01*
X82912500Y-88305009D01*
X82912499Y-87380000D01*
X83712000Y-87380000D01*
X84524500Y-87380000D01*
X84524500Y-85340000D01*
X83712001Y-85340000D01*
X83712001Y-85764986D01*
X83722494Y-85867697D01*
X83777641Y-86034119D01*
X83777643Y-86034124D01*
X83869684Y-86183345D01*
X83958658Y-86272319D01*
X83992143Y-86333642D01*
X83987159Y-86403334D01*
X83958658Y-86447681D01*
X83869684Y-86536654D01*
X83777643Y-86685875D01*
X83777641Y-86685880D01*
X83722494Y-86852302D01*
X83722493Y-86852309D01*
X83712000Y-86955013D01*
X83712000Y-87380000D01*
X82912499Y-87380000D01*
X82912499Y-86954992D01*
X82908647Y-86917288D01*
X82901999Y-86852203D01*
X82901998Y-86852200D01*
X82874760Y-86770001D01*
X82846814Y-86685666D01*
X82754712Y-86536344D01*
X82666049Y-86447681D01*
X82632564Y-86386358D01*
X82637548Y-86316666D01*
X82666049Y-86272319D01*
X82707801Y-86230567D01*
X82754712Y-86183656D01*
X82846814Y-86034334D01*
X82901999Y-85867797D01*
X82912500Y-85765009D01*
X82912499Y-84414992D01*
X82912475Y-84414761D01*
X82901999Y-84312203D01*
X82901998Y-84312200D01*
X82896836Y-84296623D01*
X82846814Y-84145666D01*
X82754712Y-83996344D01*
X82668195Y-83909827D01*
X82634710Y-83848504D01*
X82639694Y-83778812D01*
X82668195Y-83734464D01*
X82754317Y-83648342D01*
X82846356Y-83499124D01*
X82846358Y-83499119D01*
X82901505Y-83332697D01*
X82901506Y-83332690D01*
X82911999Y-83229986D01*
X82912000Y-83229973D01*
X82912000Y-82805000D01*
X81723500Y-82805000D01*
X81656461Y-82785315D01*
X81610706Y-82732511D01*
X81599500Y-82681000D01*
X81599500Y-80260000D01*
X82099500Y-80260000D01*
X82099500Y-82305000D01*
X82911999Y-82305000D01*
X82911999Y-81880028D01*
X82911998Y-81880013D01*
X82901505Y-81777302D01*
X82846358Y-81610880D01*
X82846356Y-81610875D01*
X82754315Y-81461654D01*
X82662842Y-81370181D01*
X82629357Y-81308858D01*
X82634341Y-81239166D01*
X82662842Y-81194819D01*
X82754315Y-81103345D01*
X82846356Y-80954124D01*
X82846358Y-80954119D01*
X82901505Y-80787697D01*
X82901506Y-80787690D01*
X82911999Y-80684986D01*
X82912000Y-80684973D01*
X82912000Y-80260000D01*
X82099500Y-80260000D01*
X81599500Y-80260000D01*
X81599500Y-79884000D01*
X81619185Y-79816961D01*
X81671989Y-79771206D01*
X81723500Y-79760000D01*
X82911999Y-79760000D01*
X82911999Y-79335028D01*
X82911998Y-79335013D01*
X82901505Y-79232302D01*
X82846358Y-79065880D01*
X82846356Y-79065875D01*
X82754315Y-78916654D01*
X82630345Y-78792684D01*
X82481124Y-78700643D01*
X82481119Y-78700641D01*
X82314697Y-78645494D01*
X82314690Y-78645493D01*
X82223323Y-78636158D01*
X82158632Y-78609761D01*
X82118481Y-78552580D01*
X82115619Y-78482769D01*
X82148243Y-78425124D01*
X85605033Y-74968334D01*
X85666352Y-74934852D01*
X85736044Y-74939836D01*
G37*
G04 #@! TD.AperFunction*
G04 #@! TA.AperFunction,Conductor*
G36*
X89620809Y-73922185D02*
G01*
X89641451Y-73938819D01*
X91161181Y-75458549D01*
X91194666Y-75519872D01*
X91197500Y-75546230D01*
X91197500Y-83746414D01*
X91177815Y-83813453D01*
X91125011Y-83859208D01*
X91112505Y-83864120D01*
X91003666Y-83900186D01*
X91003663Y-83900187D01*
X90854345Y-83992287D01*
X90765327Y-84081305D01*
X90704003Y-84114789D01*
X90634312Y-84109805D01*
X90589965Y-84081304D01*
X90501345Y-83992684D01*
X90352124Y-83900643D01*
X90352119Y-83900641D01*
X90185697Y-83845494D01*
X90185690Y-83845493D01*
X90082986Y-83835000D01*
X89658000Y-83835000D01*
X89658000Y-85959999D01*
X90082972Y-85959999D01*
X90082986Y-85959998D01*
X90185697Y-85949505D01*
X90352119Y-85894358D01*
X90352124Y-85894356D01*
X90501342Y-85802317D01*
X90589964Y-85713695D01*
X90651287Y-85680210D01*
X90720979Y-85685194D01*
X90765327Y-85713695D01*
X90854344Y-85802712D01*
X91003666Y-85894814D01*
X91170203Y-85949999D01*
X91272991Y-85960500D01*
X92623008Y-85960499D01*
X92725797Y-85949999D01*
X92892334Y-85894814D01*
X93041656Y-85802712D01*
X93165712Y-85678656D01*
X93186223Y-85645401D01*
X93238170Y-85598679D01*
X93291761Y-85586500D01*
X93361337Y-85586500D01*
X93428376Y-85606185D01*
X93462912Y-85639377D01*
X93487954Y-85675141D01*
X93648858Y-85836045D01*
X93648861Y-85836047D01*
X93835266Y-85966568D01*
X93893275Y-85993618D01*
X93945714Y-86039791D01*
X93964866Y-86106984D01*
X93944650Y-86173865D01*
X93893275Y-86218381D01*
X93876272Y-86226310D01*
X93835267Y-86245431D01*
X93835265Y-86245432D01*
X93648858Y-86375954D01*
X93487954Y-86536858D01*
X93357432Y-86723265D01*
X93357431Y-86723267D01*
X93270149Y-86910442D01*
X93223976Y-86962881D01*
X93156782Y-86982033D01*
X93089901Y-86961817D01*
X93070086Y-86945718D01*
X93041657Y-86917289D01*
X93041656Y-86917288D01*
X92936131Y-86852200D01*
X92892336Y-86825187D01*
X92892331Y-86825185D01*
X92876898Y-86820071D01*
X92725797Y-86770001D01*
X92725795Y-86770000D01*
X92623010Y-86759500D01*
X91272998Y-86759500D01*
X91272981Y-86759501D01*
X91170203Y-86770000D01*
X91170200Y-86770001D01*
X91003668Y-86825185D01*
X91003663Y-86825187D01*
X90854342Y-86917289D01*
X90765681Y-87005951D01*
X90704358Y-87039436D01*
X90634666Y-87034452D01*
X90590319Y-87005951D01*
X90501657Y-86917289D01*
X90501656Y-86917288D01*
X90396131Y-86852200D01*
X90352336Y-86825187D01*
X90352331Y-86825185D01*
X90336898Y-86820071D01*
X90185797Y-86770001D01*
X90185795Y-86770000D01*
X90083010Y-86759500D01*
X88732998Y-86759500D01*
X88732981Y-86759501D01*
X88630203Y-86770000D01*
X88630200Y-86770001D01*
X88463668Y-86825185D01*
X88463659Y-86825189D01*
X88389325Y-86871039D01*
X88324229Y-86889500D01*
X88238663Y-86889500D01*
X88171624Y-86869815D01*
X88137088Y-86836623D01*
X88112045Y-86800858D01*
X87951141Y-86639954D01*
X87764734Y-86509432D01*
X87764728Y-86509429D01*
X87706725Y-86482382D01*
X87654285Y-86436210D01*
X87635133Y-86369017D01*
X87655348Y-86302135D01*
X87706725Y-86257618D01*
X87764734Y-86230568D01*
X87951139Y-86100047D01*
X88112047Y-85939139D01*
X88172964Y-85852138D01*
X88227539Y-85808515D01*
X88297037Y-85801321D01*
X88339635Y-85817724D01*
X88463875Y-85894356D01*
X88463880Y-85894358D01*
X88630302Y-85949505D01*
X88630309Y-85949506D01*
X88733019Y-85959999D01*
X89157999Y-85959999D01*
X89158000Y-85959998D01*
X89158000Y-83835000D01*
X88733028Y-83835000D01*
X88733012Y-83835001D01*
X88630302Y-83845494D01*
X88463880Y-83900641D01*
X88463875Y-83900643D01*
X88314657Y-83992682D01*
X88190680Y-84116658D01*
X88190679Y-84116660D01*
X88187992Y-84121016D01*
X88136041Y-84167737D01*
X88067077Y-84178953D01*
X88002997Y-84151105D01*
X87994777Y-84143591D01*
X87951140Y-84099953D01*
X87764734Y-83969432D01*
X87764728Y-83969429D01*
X87706725Y-83942382D01*
X87654285Y-83896210D01*
X87635133Y-83829017D01*
X87655348Y-83762135D01*
X87706725Y-83717618D01*
X87764734Y-83690568D01*
X87951139Y-83560047D01*
X88112047Y-83399139D01*
X88242568Y-83212734D01*
X88338739Y-83006496D01*
X88397635Y-82786692D01*
X88417468Y-82560000D01*
X88414203Y-82522686D01*
X88399752Y-82357504D01*
X88397635Y-82333308D01*
X88342282Y-82126725D01*
X88338741Y-82113511D01*
X88338738Y-82113502D01*
X88308535Y-82048732D01*
X88242568Y-81907266D01*
X88114583Y-81724483D01*
X88112045Y-81720858D01*
X87951141Y-81559954D01*
X87764734Y-81429432D01*
X87764728Y-81429429D01*
X87706725Y-81402382D01*
X87654285Y-81356210D01*
X87635133Y-81289017D01*
X87655348Y-81222135D01*
X87706725Y-81177618D01*
X87724535Y-81169313D01*
X87764734Y-81150568D01*
X87951139Y-81020047D01*
X88112047Y-80859139D01*
X88242568Y-80672734D01*
X88338739Y-80466496D01*
X88397635Y-80246692D01*
X88417468Y-80020000D01*
X88414203Y-79982686D01*
X88409901Y-79933511D01*
X88397635Y-79793308D01*
X88338739Y-79573504D01*
X88242568Y-79367266D01*
X88112047Y-79180861D01*
X88112045Y-79180858D01*
X87951141Y-79019954D01*
X87764734Y-78889432D01*
X87764728Y-78889429D01*
X87706725Y-78862382D01*
X87654285Y-78816210D01*
X87635133Y-78749017D01*
X87655348Y-78682135D01*
X87706725Y-78637618D01*
X87709856Y-78636158D01*
X87764734Y-78610568D01*
X87951139Y-78480047D01*
X88112047Y-78319139D01*
X88242568Y-78132734D01*
X88338739Y-77926496D01*
X88397635Y-77706692D01*
X88417468Y-77480000D01*
X88414203Y-77442686D01*
X88408662Y-77379345D01*
X88397635Y-77253308D01*
X88338739Y-77033504D01*
X88242568Y-76827266D01*
X88112047Y-76640861D01*
X88112045Y-76640858D01*
X87951141Y-76479954D01*
X87764734Y-76349432D01*
X87764732Y-76349431D01*
X87706725Y-76322382D01*
X87706132Y-76322105D01*
X87653694Y-76275934D01*
X87634542Y-76208740D01*
X87654758Y-76141859D01*
X87706134Y-76097341D01*
X87764484Y-76070132D01*
X87950820Y-75939657D01*
X88111657Y-75778820D01*
X88242134Y-75592482D01*
X88338265Y-75386326D01*
X88338269Y-75386317D01*
X88390872Y-75190000D01*
X87427686Y-75190000D01*
X87439641Y-75178045D01*
X87497165Y-75065148D01*
X87516986Y-74940000D01*
X87497165Y-74814852D01*
X87439641Y-74701955D01*
X87427686Y-74690000D01*
X88390872Y-74690000D01*
X88390872Y-74689999D01*
X88338269Y-74493682D01*
X88338265Y-74493673D01*
X88242134Y-74287517D01*
X88109168Y-74097624D01*
X88086841Y-74031418D01*
X88103851Y-73963650D01*
X88154799Y-73915837D01*
X88210743Y-73902500D01*
X89553770Y-73902500D01*
X89620809Y-73922185D01*
G37*
G04 #@! TD.AperFunction*
G04 #@! TA.AperFunction,Conductor*
G36*
X74592359Y-74691955D02*
G01*
X74534835Y-74804852D01*
X74515014Y-74930000D01*
X74534835Y-75055148D01*
X74592359Y-75168045D01*
X74604314Y-75180000D01*
X73641128Y-75180000D01*
X73693730Y-75376317D01*
X73693734Y-75376326D01*
X73789865Y-75582482D01*
X73920342Y-75768820D01*
X74081179Y-75929657D01*
X74267518Y-76060134D01*
X74267520Y-76060135D01*
X74325865Y-76087342D01*
X74378305Y-76133514D01*
X74397457Y-76200707D01*
X74377242Y-76267589D01*
X74325867Y-76312105D01*
X74303830Y-76322382D01*
X74267264Y-76339433D01*
X74080858Y-76469954D01*
X73919954Y-76630858D01*
X73894912Y-76666623D01*
X73840335Y-76710248D01*
X73793337Y-76719500D01*
X72199705Y-76719500D01*
X72181735Y-76718191D01*
X72157972Y-76714710D01*
X72112533Y-76718686D01*
X72105931Y-76719264D01*
X72100530Y-76719500D01*
X72092289Y-76719500D01*
X72070579Y-76722037D01*
X72059724Y-76723306D01*
X72044419Y-76724645D01*
X71983199Y-76730001D01*
X71976132Y-76731460D01*
X71976120Y-76731404D01*
X71968763Y-76733035D01*
X71968777Y-76733092D01*
X71961743Y-76734759D01*
X71889575Y-76761025D01*
X71816675Y-76785181D01*
X71810126Y-76788236D01*
X71810101Y-76788183D01*
X71803278Y-76791486D01*
X71803305Y-76791538D01*
X71800964Y-76792713D01*
X71800613Y-76792776D01*
X71795391Y-76795305D01*
X71790120Y-76797225D01*
X71789251Y-76794839D01*
X71732218Y-76805193D01*
X71667638Y-76778525D01*
X71627727Y-76721176D01*
X71625158Y-76651353D01*
X71657655Y-76594211D01*
X73535549Y-74716317D01*
X73596871Y-74682834D01*
X73623229Y-74680000D01*
X74604314Y-74680000D01*
X74592359Y-74691955D01*
G37*
G04 #@! TD.AperFunction*
G04 #@! TA.AperFunction,Conductor*
G36*
X122878539Y-66568185D02*
G01*
X122924294Y-66620989D01*
X122935500Y-66672500D01*
X122935500Y-98427500D01*
X122915815Y-98494539D01*
X122863011Y-98540294D01*
X122811500Y-98551500D01*
X46352500Y-98551500D01*
X46285461Y-98531815D01*
X46239706Y-98479011D01*
X46228500Y-98427500D01*
X46228500Y-95063763D01*
X47929787Y-95063763D01*
X47959413Y-95333013D01*
X47959415Y-95333024D01*
X48026261Y-95588712D01*
X48027928Y-95595088D01*
X48133870Y-95844390D01*
X48205998Y-95962575D01*
X48274979Y-96075605D01*
X48274986Y-96075615D01*
X48448253Y-96283819D01*
X48448259Y-96283824D01*
X48649998Y-96464582D01*
X48875910Y-96614044D01*
X49121176Y-96729020D01*
X49121183Y-96729022D01*
X49121185Y-96729023D01*
X49380557Y-96807057D01*
X49380564Y-96807058D01*
X49380569Y-96807060D01*
X49648561Y-96846500D01*
X49648566Y-96846500D01*
X49851636Y-96846500D01*
X49903133Y-96842730D01*
X50054156Y-96831677D01*
X50166758Y-96806593D01*
X50318546Y-96772782D01*
X50318548Y-96772781D01*
X50318553Y-96772780D01*
X50571558Y-96676014D01*
X50807777Y-96543441D01*
X51022177Y-96377888D01*
X51210186Y-96182881D01*
X51367799Y-95962579D01*
X51441787Y-95818669D01*
X51491649Y-95721690D01*
X51491651Y-95721684D01*
X51491656Y-95721675D01*
X51579118Y-95465305D01*
X51628319Y-95198933D01*
X51638212Y-94928235D01*
X51608586Y-94658982D01*
X51540072Y-94396912D01*
X51434130Y-94147610D01*
X51293018Y-93916390D01*
X51291845Y-93914981D01*
X51119746Y-93708180D01*
X51119740Y-93708175D01*
X50918002Y-93527418D01*
X50692092Y-93377957D01*
X50692090Y-93377956D01*
X50446824Y-93262980D01*
X50446819Y-93262978D01*
X50446814Y-93262976D01*
X50187442Y-93184942D01*
X50187428Y-93184939D01*
X50071791Y-93167921D01*
X49919439Y-93145500D01*
X49716369Y-93145500D01*
X49716364Y-93145500D01*
X49513844Y-93160323D01*
X49513831Y-93160325D01*
X49249453Y-93219217D01*
X49249446Y-93219220D01*
X48996439Y-93315987D01*
X48760226Y-93448557D01*
X48760224Y-93448558D01*
X48760223Y-93448559D01*
X48719266Y-93480185D01*
X48545822Y-93614112D01*
X48357822Y-93809109D01*
X48357816Y-93809116D01*
X48200202Y-94029419D01*
X48200199Y-94029424D01*
X48076350Y-94270309D01*
X48076343Y-94270327D01*
X47988884Y-94526685D01*
X47988881Y-94526699D01*
X47939681Y-94793068D01*
X47939680Y-94793075D01*
X47929787Y-95063763D01*
X46228500Y-95063763D01*
X46228500Y-87634000D01*
X49858385Y-87634000D01*
X52874589Y-87634000D01*
X52849466Y-87731030D01*
X52839114Y-87935165D01*
X52869574Y-88134000D01*
X49861793Y-88134000D01*
X49874375Y-88259076D01*
X49874376Y-88259079D01*
X49944208Y-88552107D01*
X49944210Y-88552116D01*
X50052474Y-88833216D01*
X50052481Y-88833231D01*
X50197248Y-89097395D01*
X50197252Y-89097401D01*
X50375935Y-89339911D01*
X50585355Y-89556451D01*
X50585362Y-89556457D01*
X50821768Y-89743145D01*
X51080948Y-89896657D01*
X51080966Y-89896666D01*
X51358283Y-90014260D01*
X51358300Y-90014265D01*
X51648826Y-90093848D01*
X51947384Y-90134000D01*
X53598000Y-90134000D01*
X53598000Y-88858625D01*
X53745801Y-88889000D01*
X53898967Y-88889000D01*
X54051348Y-88873504D01*
X54098000Y-88858867D01*
X54098000Y-90134000D01*
X55673236Y-90134000D01*
X55898564Y-90118915D01*
X55898573Y-90118913D01*
X56193758Y-90058916D01*
X56193773Y-90058912D01*
X56478343Y-89960098D01*
X56478346Y-89960096D01*
X56747198Y-89824240D01*
X56995564Y-89653745D01*
X57218971Y-89451685D01*
X57413464Y-89221638D01*
X57575554Y-88967728D01*
X57575555Y-88967726D01*
X57702351Y-88694485D01*
X57702356Y-88694471D01*
X57791605Y-88406765D01*
X57837615Y-88134000D01*
X54821411Y-88134000D01*
X54846534Y-88036970D01*
X54856886Y-87832835D01*
X54826426Y-87634000D01*
X57834207Y-87634000D01*
X57834207Y-87633999D01*
X57821624Y-87508923D01*
X57821623Y-87508920D01*
X57751791Y-87215892D01*
X57751789Y-87215883D01*
X57643525Y-86934783D01*
X57643518Y-86934768D01*
X57498751Y-86670604D01*
X57498747Y-86670598D01*
X57320064Y-86428088D01*
X57110644Y-86211548D01*
X57110637Y-86211542D01*
X56874231Y-86024854D01*
X56615051Y-85871342D01*
X56615033Y-85871333D01*
X56337716Y-85753739D01*
X56337699Y-85753734D01*
X56047173Y-85674151D01*
X55748617Y-85634000D01*
X54098000Y-85634000D01*
X54098000Y-86909374D01*
X53950199Y-86879000D01*
X53797033Y-86879000D01*
X53644652Y-86894496D01*
X53598000Y-86909132D01*
X53598000Y-85634000D01*
X52022764Y-85634000D01*
X51797435Y-85649084D01*
X51797426Y-85649086D01*
X51502241Y-85709083D01*
X51502226Y-85709087D01*
X51217656Y-85807901D01*
X51217653Y-85807903D01*
X50948801Y-85943759D01*
X50700435Y-86114254D01*
X50477028Y-86316314D01*
X50282535Y-86546361D01*
X50120445Y-86800271D01*
X50120444Y-86800273D01*
X49993648Y-87073514D01*
X49993643Y-87073528D01*
X49904394Y-87361234D01*
X49858385Y-87634000D01*
X46228500Y-87634000D01*
X46228500Y-82804001D01*
X57172532Y-82804001D01*
X57192364Y-83030686D01*
X57192366Y-83030697D01*
X57251258Y-83250488D01*
X57251261Y-83250497D01*
X57347431Y-83456732D01*
X57347432Y-83456734D01*
X57477954Y-83643141D01*
X57638858Y-83804045D01*
X57661644Y-83820000D01*
X57825266Y-83934568D01*
X58031504Y-84030739D01*
X58251308Y-84089635D01*
X58421216Y-84104500D01*
X59434784Y-84104500D01*
X59604692Y-84089635D01*
X59824496Y-84030739D01*
X60030734Y-83934568D01*
X60217139Y-83804047D01*
X60378047Y-83643139D01*
X60400935Y-83610451D01*
X60403088Y-83607377D01*
X60457665Y-83563752D01*
X60504663Y-83554500D01*
X61907295Y-83554500D01*
X61925265Y-83555809D01*
X61949023Y-83559289D01*
X62001068Y-83554735D01*
X62006470Y-83554500D01*
X62014704Y-83554500D01*
X62014709Y-83554500D01*
X62026327Y-83553141D01*
X62047276Y-83550693D01*
X62060028Y-83549577D01*
X62123797Y-83543999D01*
X62123805Y-83543996D01*
X62130866Y-83542539D01*
X62130878Y-83542598D01*
X62138243Y-83540965D01*
X62138229Y-83540906D01*
X62145246Y-83539241D01*
X62145255Y-83539241D01*
X62217423Y-83512974D01*
X62290334Y-83488814D01*
X62290343Y-83488807D01*
X62296882Y-83485760D01*
X62296908Y-83485816D01*
X62303690Y-83482532D01*
X62303663Y-83482478D01*
X62310106Y-83479240D01*
X62310117Y-83479237D01*
X62374283Y-83437034D01*
X62439656Y-83396712D01*
X62439662Y-83396705D01*
X62445325Y-83392229D01*
X62445363Y-83392277D01*
X62451200Y-83387522D01*
X62451161Y-83387475D01*
X62462229Y-83378188D01*
X62464249Y-83380595D01*
X62512350Y-83352407D01*
X62582161Y-83355278D01*
X62639337Y-83395436D01*
X62665725Y-83460131D01*
X62665894Y-83461912D01*
X62670977Y-83520013D01*
X62657210Y-83588513D01*
X62635130Y-83618501D01*
X61805858Y-84447772D01*
X61792229Y-84459551D01*
X61772968Y-84473890D01*
X61739398Y-84513897D01*
X61735753Y-84517876D01*
X61729909Y-84523722D01*
X61709559Y-84549459D01*
X61660195Y-84608289D01*
X61656229Y-84614319D01*
X61656182Y-84614288D01*
X61652130Y-84620647D01*
X61652179Y-84620677D01*
X61648389Y-84626821D01*
X61615924Y-84696441D01*
X61581460Y-84765066D01*
X61578988Y-84771857D01*
X61578932Y-84771836D01*
X61576460Y-84778950D01*
X61576515Y-84778969D01*
X61574242Y-84785827D01*
X61570775Y-84802620D01*
X61558707Y-84861065D01*
X61546598Y-84912158D01*
X61540998Y-84935786D01*
X61540161Y-84942954D01*
X61540101Y-84942947D01*
X61539335Y-84950445D01*
X61539395Y-84950451D01*
X61538765Y-84957640D01*
X61541000Y-85034416D01*
X61541000Y-85060270D01*
X61521315Y-85127309D01*
X61504681Y-85147951D01*
X61386289Y-85266342D01*
X61294187Y-85415663D01*
X61294186Y-85415666D01*
X61239001Y-85582203D01*
X61239001Y-85582204D01*
X61239000Y-85582204D01*
X61228500Y-85684983D01*
X61228500Y-87035001D01*
X61228501Y-87035018D01*
X61239000Y-87137796D01*
X61239001Y-87137799D01*
X61259662Y-87200148D01*
X61294186Y-87304334D01*
X61377391Y-87439232D01*
X61386289Y-87453657D01*
X61504681Y-87572049D01*
X61538166Y-87633372D01*
X61541000Y-87659730D01*
X61541000Y-90167794D01*
X61539691Y-90185763D01*
X61536210Y-90209525D01*
X61540764Y-90261564D01*
X61541000Y-90266970D01*
X61541000Y-90275209D01*
X61544806Y-90307774D01*
X61551500Y-90384291D01*
X61552961Y-90391367D01*
X61552903Y-90391378D01*
X61554534Y-90398737D01*
X61554592Y-90398724D01*
X61556257Y-90405750D01*
X61582525Y-90477924D01*
X61606685Y-90550831D01*
X61609736Y-90557374D01*
X61609682Y-90557398D01*
X61612970Y-90564188D01*
X61613021Y-90564163D01*
X61616261Y-90570613D01*
X61616262Y-90570614D01*
X61616263Y-90570617D01*
X61646438Y-90616496D01*
X61658465Y-90634783D01*
X61698787Y-90700155D01*
X61703266Y-90705819D01*
X61703219Y-90705856D01*
X61707982Y-90711702D01*
X61708028Y-90711664D01*
X61712673Y-90717200D01*
X61768518Y-90769886D01*
X63432267Y-92433634D01*
X63444048Y-92447266D01*
X63458390Y-92466530D01*
X63498420Y-92500119D01*
X63502392Y-92503759D01*
X63508224Y-92509591D01*
X63508227Y-92509594D01*
X63533947Y-92529931D01*
X63592788Y-92579304D01*
X63598818Y-92583270D01*
X63598785Y-92583319D01*
X63605143Y-92587369D01*
X63605175Y-92587319D01*
X63611320Y-92591109D01*
X63611323Y-92591111D01*
X63680936Y-92623572D01*
X63749567Y-92658040D01*
X63749572Y-92658041D01*
X63756361Y-92660513D01*
X63756340Y-92660570D01*
X63763455Y-92663043D01*
X63763475Y-92662986D01*
X63770330Y-92665258D01*
X63845558Y-92680790D01*
X63920279Y-92698500D01*
X63920289Y-92698500D01*
X63927452Y-92699338D01*
X63927444Y-92699397D01*
X63934945Y-92700164D01*
X63934951Y-92700105D01*
X63942140Y-92700734D01*
X63942144Y-92700733D01*
X63942145Y-92700734D01*
X64018918Y-92698500D01*
X68262295Y-92698500D01*
X68280265Y-92699809D01*
X68304023Y-92703289D01*
X68356068Y-92698735D01*
X68361470Y-92698500D01*
X68369704Y-92698500D01*
X68369709Y-92698500D01*
X68381327Y-92697141D01*
X68402276Y-92694693D01*
X68415028Y-92693577D01*
X68478797Y-92687999D01*
X68478805Y-92687996D01*
X68485866Y-92686539D01*
X68485878Y-92686598D01*
X68493243Y-92684965D01*
X68493229Y-92684906D01*
X68500246Y-92683241D01*
X68500255Y-92683241D01*
X68572423Y-92656974D01*
X68645334Y-92632814D01*
X68645343Y-92632807D01*
X68651882Y-92629760D01*
X68651908Y-92629816D01*
X68658690Y-92626532D01*
X68658663Y-92626478D01*
X68665106Y-92623240D01*
X68665117Y-92623237D01*
X68729283Y-92581034D01*
X68794656Y-92540712D01*
X68794662Y-92540705D01*
X68800325Y-92536229D01*
X68800362Y-92536277D01*
X68806204Y-92531518D01*
X68806164Y-92531471D01*
X68811686Y-92526836D01*
X68811696Y-92526830D01*
X68836904Y-92500111D01*
X68864386Y-92470982D01*
X70141182Y-91194184D01*
X70397138Y-90938227D01*
X70410767Y-90926450D01*
X70430030Y-90912110D01*
X70430032Y-90912106D01*
X70430034Y-90912106D01*
X70455150Y-90882172D01*
X70463613Y-90872085D01*
X70467267Y-90868099D01*
X70473091Y-90862276D01*
X70493430Y-90836552D01*
X70542802Y-90777714D01*
X70542806Y-90777705D01*
X70546774Y-90771675D01*
X70546825Y-90771708D01*
X70550869Y-90765360D01*
X70550817Y-90765328D01*
X70554604Y-90759185D01*
X70554611Y-90759177D01*
X70587072Y-90689563D01*
X70621540Y-90620933D01*
X70621541Y-90620927D01*
X70624008Y-90614150D01*
X70624066Y-90614171D01*
X70626543Y-90607044D01*
X70626486Y-90607026D01*
X70628755Y-90600179D01*
X70628756Y-90600174D01*
X70628757Y-90600172D01*
X70644290Y-90524941D01*
X70662000Y-90450221D01*
X70662000Y-90450219D01*
X70662839Y-90443048D01*
X70662898Y-90443054D01*
X70663664Y-90435554D01*
X70663605Y-90435549D01*
X70664234Y-90428359D01*
X70662000Y-90351582D01*
X70662000Y-88929730D01*
X70681685Y-88862691D01*
X70698319Y-88842049D01*
X70754939Y-88785429D01*
X70816712Y-88723656D01*
X70908814Y-88574334D01*
X70963999Y-88407797D01*
X70974500Y-88305009D01*
X70974499Y-86954992D01*
X70970647Y-86917288D01*
X70963999Y-86852203D01*
X70963998Y-86852200D01*
X70936760Y-86770001D01*
X70908814Y-86685666D01*
X70816712Y-86536344D01*
X70698319Y-86417951D01*
X70664834Y-86356628D01*
X70662000Y-86330270D01*
X70662000Y-84865730D01*
X70681685Y-84798691D01*
X70698319Y-84778049D01*
X70757442Y-84718926D01*
X70816712Y-84659656D01*
X70908814Y-84510334D01*
X70963999Y-84343797D01*
X70974500Y-84241009D01*
X70974499Y-82890992D01*
X70963999Y-82788203D01*
X70908814Y-82621666D01*
X70816712Y-82472344D01*
X70692656Y-82348288D01*
X70597154Y-82289382D01*
X70543336Y-82256187D01*
X70543331Y-82256185D01*
X70479960Y-82235186D01*
X70376797Y-82201001D01*
X70376795Y-82201000D01*
X70274010Y-82190500D01*
X69548998Y-82190500D01*
X69548980Y-82190501D01*
X69446203Y-82201000D01*
X69446200Y-82201001D01*
X69279668Y-82256185D01*
X69279663Y-82256187D01*
X69130342Y-82348289D01*
X69006289Y-82472342D01*
X68914187Y-82621663D01*
X68914185Y-82621668D01*
X68904066Y-82652206D01*
X68859001Y-82788203D01*
X68859001Y-82788204D01*
X68859000Y-82788204D01*
X68848500Y-82890983D01*
X68848500Y-84241001D01*
X68848501Y-84241018D01*
X68859000Y-84343796D01*
X68859001Y-84343799D01*
X68914185Y-84510331D01*
X68914187Y-84510336D01*
X68929394Y-84534991D01*
X69002493Y-84653504D01*
X69006289Y-84659657D01*
X69124681Y-84778049D01*
X69158166Y-84839372D01*
X69161000Y-84865730D01*
X69161000Y-86330270D01*
X69141315Y-86397309D01*
X69124681Y-86417951D01*
X69006289Y-86536342D01*
X68914187Y-86685663D01*
X68914185Y-86685668D01*
X68901726Y-86723267D01*
X68859001Y-86852203D01*
X68859001Y-86852204D01*
X68859000Y-86852204D01*
X68848500Y-86954983D01*
X68848500Y-87567807D01*
X68828815Y-87634846D01*
X68828783Y-87634873D01*
X68846069Y-87667758D01*
X68848500Y-87692191D01*
X68848500Y-88305001D01*
X68848501Y-88305018D01*
X68859000Y-88407796D01*
X68859001Y-88407799D01*
X68914185Y-88574331D01*
X68914187Y-88574336D01*
X68931706Y-88602739D01*
X69006284Y-88723650D01*
X69006289Y-88723657D01*
X69124681Y-88842049D01*
X69158166Y-88903372D01*
X69161000Y-88929730D01*
X69161000Y-90000270D01*
X69141315Y-90067309D01*
X69124681Y-90087951D01*
X68804455Y-90408176D01*
X68743132Y-90441661D01*
X68673440Y-90436677D01*
X68617507Y-90394805D01*
X68593090Y-90329341D01*
X68593245Y-90309699D01*
X68605468Y-90170000D01*
X68585635Y-89943308D01*
X68529420Y-89733511D01*
X68526741Y-89723511D01*
X68526738Y-89723502D01*
X68496961Y-89659646D01*
X68430568Y-89517266D01*
X68303639Y-89335991D01*
X68300045Y-89330858D01*
X68139141Y-89169954D01*
X67952734Y-89039432D01*
X67952728Y-89039429D01*
X67916325Y-89022454D01*
X67894724Y-89012381D01*
X67842285Y-88966210D01*
X67823133Y-88899017D01*
X67843348Y-88832135D01*
X67894725Y-88787618D01*
X67899413Y-88785432D01*
X67952734Y-88760568D01*
X68139139Y-88630047D01*
X68300047Y-88469139D01*
X68430568Y-88282734D01*
X68526739Y-88076496D01*
X68585635Y-87856692D01*
X68600972Y-87681382D01*
X68621816Y-87628094D01*
X68605523Y-87602742D01*
X68600972Y-87578614D01*
X68600754Y-87576122D01*
X68585635Y-87403308D01*
X68529420Y-87193511D01*
X68526741Y-87183511D01*
X68526738Y-87183502D01*
X68523250Y-87176021D01*
X68430568Y-86977266D01*
X68300047Y-86790861D01*
X68300045Y-86790858D01*
X68139141Y-86629954D01*
X67952734Y-86499432D01*
X67952728Y-86499429D01*
X67894725Y-86472382D01*
X67842285Y-86426210D01*
X67823133Y-86359017D01*
X67843348Y-86292135D01*
X67894725Y-86247618D01*
X67899415Y-86245431D01*
X67952734Y-86220568D01*
X68139139Y-86090047D01*
X68300047Y-85929139D01*
X68430568Y-85742734D01*
X68526739Y-85536496D01*
X68585635Y-85316692D01*
X68605468Y-85090000D01*
X68585635Y-84863308D01*
X68529420Y-84653511D01*
X68526741Y-84643511D01*
X68526738Y-84643502D01*
X68518960Y-84626823D01*
X68430568Y-84437266D01*
X68315233Y-84272549D01*
X68300045Y-84250858D01*
X68139141Y-84089954D01*
X67952734Y-83959432D01*
X67952728Y-83959429D01*
X67894725Y-83932382D01*
X67842285Y-83886210D01*
X67823133Y-83819017D01*
X67843348Y-83752135D01*
X67894725Y-83707618D01*
X67899415Y-83705431D01*
X67952734Y-83680568D01*
X68139139Y-83550047D01*
X68300047Y-83389139D01*
X68430568Y-83202734D01*
X68526739Y-82996496D01*
X68585635Y-82776692D01*
X68605468Y-82550000D01*
X68585635Y-82323308D01*
X68553113Y-82201933D01*
X68554776Y-82132083D01*
X68585205Y-82082161D01*
X72410549Y-78256819D01*
X72471872Y-78223334D01*
X72498230Y-78220500D01*
X73793337Y-78220500D01*
X73860376Y-78240185D01*
X73894912Y-78273377D01*
X73919954Y-78309141D01*
X74080858Y-78470045D01*
X74103644Y-78486000D01*
X74267266Y-78600568D01*
X74320585Y-78625431D01*
X74325275Y-78627618D01*
X74377714Y-78673791D01*
X74396866Y-78740984D01*
X74376650Y-78807865D01*
X74325275Y-78852382D01*
X74267267Y-78879431D01*
X74267265Y-78879432D01*
X74080858Y-79009954D01*
X73919954Y-79170858D01*
X73789432Y-79357265D01*
X73789431Y-79357267D01*
X73693261Y-79563502D01*
X73693258Y-79563511D01*
X73634366Y-79783302D01*
X73634364Y-79783313D01*
X73614532Y-80009998D01*
X73614532Y-80010001D01*
X73634364Y-80236686D01*
X73634366Y-80236697D01*
X73693258Y-80456488D01*
X73693261Y-80456497D01*
X73789431Y-80662732D01*
X73789432Y-80662734D01*
X73919954Y-80849141D01*
X74080858Y-81010045D01*
X74103644Y-81026000D01*
X74267266Y-81140568D01*
X74320585Y-81165431D01*
X74325275Y-81167618D01*
X74377714Y-81213791D01*
X74396866Y-81280984D01*
X74376650Y-81347865D01*
X74325275Y-81392381D01*
X74317520Y-81395998D01*
X74267267Y-81419431D01*
X74267265Y-81419432D01*
X74080862Y-81549951D01*
X73919952Y-81710862D01*
X73894176Y-81747673D01*
X73839598Y-81791297D01*
X73807001Y-81799708D01*
X73781272Y-81802715D01*
X73776224Y-81803306D01*
X73750717Y-81805537D01*
X73699699Y-81810001D01*
X73692632Y-81811460D01*
X73692620Y-81811404D01*
X73685263Y-81813035D01*
X73685277Y-81813092D01*
X73678243Y-81814759D01*
X73606075Y-81841025D01*
X73533165Y-81865185D01*
X73526626Y-81868235D01*
X73526601Y-81868183D01*
X73519808Y-81871471D01*
X73519834Y-81871522D01*
X73513384Y-81874761D01*
X73449216Y-81916964D01*
X73383847Y-81957285D01*
X73378177Y-81961769D01*
X73378141Y-81961723D01*
X73372298Y-81966484D01*
X73372335Y-81966528D01*
X73366810Y-81971164D01*
X73314114Y-82027017D01*
X73186949Y-82154182D01*
X73125626Y-82187666D01*
X73099268Y-82190500D01*
X72473998Y-82190500D01*
X72473980Y-82190501D01*
X72371203Y-82201000D01*
X72371200Y-82201001D01*
X72204668Y-82256185D01*
X72204663Y-82256187D01*
X72055342Y-82348289D01*
X71931289Y-82472342D01*
X71839187Y-82621663D01*
X71839185Y-82621668D01*
X71829066Y-82652206D01*
X71784001Y-82788203D01*
X71784001Y-82788204D01*
X71784000Y-82788204D01*
X71773500Y-82890983D01*
X71773500Y-84241001D01*
X71773501Y-84241018D01*
X71784000Y-84343796D01*
X71784001Y-84343799D01*
X71839185Y-84510331D01*
X71839187Y-84510336D01*
X71854394Y-84534991D01*
X71931288Y-84659656D01*
X72055344Y-84783712D01*
X72204666Y-84875814D01*
X72371203Y-84930999D01*
X72473991Y-84941500D01*
X73199008Y-84941499D01*
X73199016Y-84941498D01*
X73199019Y-84941498D01*
X73255302Y-84935748D01*
X73301797Y-84930999D01*
X73459235Y-84878828D01*
X73529058Y-84876427D01*
X73589100Y-84912158D01*
X73620294Y-84974678D01*
X73621763Y-85007342D01*
X73614532Y-85089997D01*
X73614532Y-85090001D01*
X73634364Y-85316686D01*
X73634366Y-85316697D01*
X73693258Y-85536488D01*
X73693261Y-85536497D01*
X73789431Y-85742732D01*
X73789432Y-85742734D01*
X73919954Y-85929141D01*
X74080858Y-86090045D01*
X74103644Y-86106000D01*
X74267266Y-86220568D01*
X74320585Y-86245431D01*
X74325275Y-86247618D01*
X74377714Y-86293791D01*
X74396866Y-86360984D01*
X74376650Y-86427865D01*
X74325275Y-86472382D01*
X74267267Y-86499431D01*
X74267265Y-86499432D01*
X74080858Y-86629954D01*
X74017698Y-86693115D01*
X73956375Y-86726600D01*
X73886683Y-86721616D01*
X73830750Y-86679744D01*
X73824478Y-86670530D01*
X73741712Y-86536344D01*
X73617657Y-86412289D01*
X73617656Y-86412288D01*
X73468334Y-86320186D01*
X73301797Y-86265001D01*
X73301795Y-86265000D01*
X73199010Y-86254500D01*
X72473998Y-86254500D01*
X72473980Y-86254501D01*
X72371203Y-86265000D01*
X72371200Y-86265001D01*
X72204668Y-86320185D01*
X72204663Y-86320187D01*
X72055342Y-86412289D01*
X71931289Y-86536342D01*
X71839187Y-86685663D01*
X71839185Y-86685668D01*
X71826726Y-86723267D01*
X71784001Y-86852203D01*
X71784001Y-86852204D01*
X71784000Y-86852204D01*
X71773500Y-86954983D01*
X71773500Y-88305001D01*
X71773501Y-88305018D01*
X71784000Y-88407796D01*
X71784001Y-88407799D01*
X71839185Y-88574331D01*
X71839187Y-88574336D01*
X71856706Y-88602739D01*
X71931288Y-88723656D01*
X72055344Y-88847712D01*
X72204666Y-88939814D01*
X72371203Y-88994999D01*
X72473991Y-89005500D01*
X73199008Y-89005499D01*
X73199016Y-89005498D01*
X73199019Y-89005498D01*
X73257216Y-88999553D01*
X73301797Y-88994999D01*
X73468334Y-88939814D01*
X73560295Y-88883091D01*
X73627687Y-88864651D01*
X73694351Y-88885573D01*
X73739120Y-88939215D01*
X73747782Y-89008546D01*
X73724659Y-89062941D01*
X73676204Y-89127668D01*
X73676202Y-89127671D01*
X73625908Y-89262517D01*
X73619501Y-89322116D01*
X73619500Y-89322135D01*
X73619500Y-91017870D01*
X73619501Y-91017876D01*
X73625908Y-91077483D01*
X73676202Y-91212328D01*
X73676206Y-91212335D01*
X73762452Y-91327544D01*
X73762455Y-91327547D01*
X73877664Y-91413793D01*
X73877671Y-91413797D01*
X74012517Y-91464091D01*
X74012516Y-91464091D01*
X74019444Y-91464835D01*
X74072127Y-91470500D01*
X75767872Y-91470499D01*
X75827483Y-91464091D01*
X75962331Y-91413796D01*
X76077546Y-91327546D01*
X76163796Y-91212331D01*
X76214091Y-91077483D01*
X76220500Y-91017873D01*
X76220499Y-90954173D01*
X76240183Y-90887135D01*
X76280300Y-90851056D01*
X76279083Y-90849205D01*
X76285114Y-90845237D01*
X76285117Y-90845237D01*
X76349283Y-90803034D01*
X76414656Y-90762712D01*
X76414662Y-90762705D01*
X76420325Y-90758229D01*
X76420363Y-90758277D01*
X76426200Y-90753522D01*
X76426161Y-90753475D01*
X76431696Y-90748830D01*
X76484385Y-90692983D01*
X77011367Y-90166000D01*
X77193642Y-89983724D01*
X77207271Y-89971947D01*
X77226530Y-89957610D01*
X77248685Y-89931206D01*
X77260101Y-89917601D01*
X77263761Y-89913606D01*
X77269590Y-89907778D01*
X77289941Y-89882039D01*
X77295948Y-89874879D01*
X77339302Y-89823214D01*
X77339306Y-89823205D01*
X77343274Y-89817175D01*
X77343325Y-89817208D01*
X77347372Y-89810856D01*
X77347320Y-89810824D01*
X77351112Y-89804675D01*
X77383575Y-89735058D01*
X77418036Y-89666440D01*
X77418040Y-89666433D01*
X77418042Y-89666421D01*
X77420509Y-89659646D01*
X77420567Y-89659667D01*
X77423043Y-89652546D01*
X77422986Y-89652527D01*
X77425255Y-89645680D01*
X77425256Y-89645675D01*
X77425257Y-89645673D01*
X77440791Y-89570437D01*
X77458500Y-89495721D01*
X77458500Y-89495719D01*
X77459339Y-89488548D01*
X77459398Y-89488554D01*
X77460164Y-89481054D01*
X77460105Y-89481049D01*
X77460734Y-89473859D01*
X77458500Y-89397082D01*
X77458500Y-85915705D01*
X77459809Y-85897735D01*
X77460304Y-85894356D01*
X77463289Y-85873977D01*
X77463058Y-85871342D01*
X77458736Y-85821934D01*
X77458500Y-85816528D01*
X77458500Y-85808297D01*
X77458500Y-85808291D01*
X77454693Y-85775724D01*
X77447999Y-85699203D01*
X77447999Y-85699201D01*
X77446539Y-85692129D01*
X77446597Y-85692116D01*
X77444965Y-85684757D01*
X77444906Y-85684772D01*
X77443242Y-85677753D01*
X77443241Y-85677745D01*
X77416974Y-85605576D01*
X77392814Y-85532666D01*
X77392809Y-85532659D01*
X77389760Y-85526118D01*
X77389815Y-85526091D01*
X77386533Y-85519313D01*
X77386480Y-85519340D01*
X77383235Y-85512880D01*
X77341028Y-85448708D01*
X77300710Y-85383342D01*
X77296234Y-85377682D01*
X77296281Y-85377644D01*
X77291519Y-85371799D01*
X77291474Y-85371838D01*
X77286834Y-85366309D01*
X77286832Y-85366307D01*
X77286830Y-85366304D01*
X77256061Y-85337275D01*
X77230965Y-85313597D01*
X76521729Y-84604361D01*
X76509949Y-84590730D01*
X76502482Y-84580701D01*
X76495612Y-84571472D01*
X76495610Y-84571470D01*
X76455587Y-84537886D01*
X76451612Y-84534244D01*
X76448690Y-84531322D01*
X76445780Y-84528411D01*
X76420040Y-84508059D01*
X76387833Y-84481034D01*
X76361214Y-84458698D01*
X76361213Y-84458697D01*
X76361209Y-84458694D01*
X76355180Y-84454729D01*
X76355212Y-84454680D01*
X76348853Y-84450628D01*
X76348822Y-84450679D01*
X76342680Y-84446891D01*
X76342678Y-84446890D01*
X76342677Y-84446889D01*
X76303474Y-84428608D01*
X76273058Y-84414424D01*
X76235567Y-84395596D01*
X76204433Y-84379960D01*
X76204431Y-84379959D01*
X76204430Y-84379959D01*
X76197645Y-84377489D01*
X76197665Y-84377433D01*
X76190549Y-84374959D01*
X76190531Y-84375015D01*
X76183671Y-84372742D01*
X76155841Y-84366996D01*
X76108434Y-84357207D01*
X76066055Y-84347163D01*
X76033720Y-84339499D01*
X76032774Y-84339389D01*
X76032169Y-84339132D01*
X76026693Y-84337834D01*
X76026914Y-84336898D01*
X75968474Y-84312054D01*
X75945599Y-84287353D01*
X75920047Y-84250861D01*
X75759139Y-84089953D01*
X75759138Y-84089952D01*
X75759137Y-84089951D01*
X75572734Y-83959432D01*
X75572728Y-83959429D01*
X75514725Y-83932382D01*
X75462285Y-83886210D01*
X75443133Y-83819017D01*
X75463348Y-83752135D01*
X75514725Y-83707618D01*
X75519415Y-83705431D01*
X75572734Y-83680568D01*
X75759139Y-83550047D01*
X75920047Y-83389139D01*
X76050568Y-83202734D01*
X76146739Y-82996496D01*
X76205635Y-82776692D01*
X76225468Y-82550000D01*
X76205635Y-82323308D01*
X76149420Y-82113511D01*
X76146741Y-82103511D01*
X76146738Y-82103502D01*
X76050568Y-81897266D01*
X75929585Y-81724483D01*
X75920045Y-81710858D01*
X75759141Y-81549954D01*
X75572734Y-81419432D01*
X75572728Y-81419429D01*
X75522480Y-81395998D01*
X75514724Y-81392381D01*
X75462285Y-81346210D01*
X75443133Y-81279017D01*
X75463348Y-81212135D01*
X75514725Y-81167618D01*
X75519415Y-81165431D01*
X75572734Y-81140568D01*
X75759139Y-81010047D01*
X75920047Y-80849139D01*
X75938086Y-80823377D01*
X75992663Y-80779752D01*
X76039661Y-80770500D01*
X78365337Y-80770500D01*
X78432376Y-80790185D01*
X78466912Y-80823377D01*
X78491954Y-80859141D01*
X78652858Y-81020045D01*
X78688799Y-81045211D01*
X78839266Y-81150568D01*
X78879454Y-81169308D01*
X78897275Y-81177618D01*
X78949714Y-81223791D01*
X78968866Y-81290984D01*
X78948650Y-81357865D01*
X78897275Y-81402382D01*
X78839267Y-81429431D01*
X78839265Y-81429432D01*
X78652858Y-81559954D01*
X78491954Y-81720858D01*
X78361432Y-81907265D01*
X78361431Y-81907267D01*
X78265261Y-82113502D01*
X78265258Y-82113511D01*
X78206366Y-82333302D01*
X78206364Y-82333313D01*
X78186532Y-82559998D01*
X78186532Y-82560001D01*
X78206364Y-82786686D01*
X78206366Y-82786697D01*
X78265258Y-83006488D01*
X78265261Y-83006497D01*
X78361431Y-83212732D01*
X78361432Y-83212734D01*
X78491954Y-83399141D01*
X78652858Y-83560045D01*
X78652861Y-83560047D01*
X78839266Y-83690568D01*
X78897275Y-83717618D01*
X78949714Y-83763791D01*
X78968866Y-83830984D01*
X78948650Y-83897865D01*
X78897275Y-83942382D01*
X78839267Y-83969431D01*
X78839265Y-83969432D01*
X78652858Y-84099954D01*
X78491954Y-84260858D01*
X78361432Y-84447265D01*
X78361431Y-84447267D01*
X78265261Y-84653502D01*
X78265258Y-84653511D01*
X78206366Y-84873302D01*
X78206364Y-84873313D01*
X78186532Y-85099998D01*
X78186532Y-85100001D01*
X78206364Y-85326686D01*
X78206366Y-85326697D01*
X78265258Y-85546488D01*
X78265261Y-85546497D01*
X78361431Y-85752732D01*
X78361432Y-85752734D01*
X78491954Y-85939141D01*
X78652858Y-86100045D01*
X78652861Y-86100047D01*
X78839266Y-86230568D01*
X78897275Y-86257618D01*
X78949714Y-86303791D01*
X78968866Y-86370984D01*
X78948650Y-86437865D01*
X78897275Y-86482382D01*
X78839267Y-86509431D01*
X78839265Y-86509432D01*
X78652858Y-86639954D01*
X78491954Y-86800858D01*
X78361432Y-86987265D01*
X78361431Y-86987267D01*
X78265261Y-87193502D01*
X78265258Y-87193511D01*
X78206366Y-87413302D01*
X78206364Y-87413313D01*
X78186532Y-87639998D01*
X78186532Y-87640001D01*
X78206364Y-87866686D01*
X78206366Y-87866697D01*
X78265258Y-88086488D01*
X78265261Y-88086497D01*
X78361431Y-88292732D01*
X78361432Y-88292734D01*
X78491954Y-88479141D01*
X78652858Y-88640045D01*
X78680567Y-88659447D01*
X78839266Y-88770568D01*
X78897275Y-88797618D01*
X78949714Y-88843791D01*
X78968866Y-88910984D01*
X78948650Y-88977865D01*
X78897275Y-89022381D01*
X78897118Y-89022455D01*
X78839267Y-89049431D01*
X78839265Y-89049432D01*
X78652858Y-89179954D01*
X78491954Y-89340858D01*
X78361432Y-89527265D01*
X78361431Y-89527267D01*
X78265261Y-89733502D01*
X78265258Y-89733511D01*
X78206368Y-89953296D01*
X78206364Y-89953313D01*
X78186532Y-90179998D01*
X78186532Y-90180001D01*
X78206364Y-90406686D01*
X78206366Y-90406697D01*
X78265258Y-90626488D01*
X78265261Y-90626497D01*
X78361431Y-90832732D01*
X78361432Y-90832734D01*
X78491954Y-91019141D01*
X78652859Y-91180046D01*
X78688621Y-91205086D01*
X78732247Y-91259662D01*
X78741500Y-91306662D01*
X78741500Y-92940358D01*
X78741395Y-92943963D01*
X78737669Y-93007934D01*
X78737669Y-93007935D01*
X78739616Y-93018977D01*
X78741500Y-93040509D01*
X78741500Y-94121500D01*
X78721815Y-94188539D01*
X78669011Y-94234294D01*
X78617500Y-94245500D01*
X76042733Y-94245500D01*
X75975694Y-94225815D01*
X75929939Y-94173011D01*
X75919995Y-94103853D01*
X75925027Y-94082496D01*
X75945505Y-94020697D01*
X75945506Y-94020690D01*
X75955999Y-93917986D01*
X75956000Y-93917973D01*
X75956000Y-93468000D01*
X73806001Y-93468000D01*
X73806001Y-93917986D01*
X73816494Y-94020697D01*
X73836972Y-94082496D01*
X73839374Y-94152325D01*
X73803642Y-94212367D01*
X73741121Y-94243559D01*
X73719266Y-94245500D01*
X73093260Y-94245500D01*
X73026221Y-94225815D01*
X72980466Y-94173011D01*
X72970522Y-94103853D01*
X72975554Y-94082497D01*
X72986562Y-94049273D01*
X72995999Y-94020797D01*
X73006500Y-93918009D01*
X73006499Y-92968000D01*
X73806000Y-92968000D01*
X74631000Y-92968000D01*
X74631000Y-91818000D01*
X75131000Y-91818000D01*
X75131000Y-92968000D01*
X75955999Y-92968000D01*
X75955999Y-92518028D01*
X75955998Y-92518013D01*
X75945505Y-92415302D01*
X75890358Y-92248880D01*
X75890356Y-92248875D01*
X75798315Y-92099654D01*
X75674345Y-91975684D01*
X75525124Y-91883643D01*
X75525119Y-91883641D01*
X75358697Y-91828494D01*
X75358690Y-91828493D01*
X75255986Y-91818000D01*
X75131000Y-91818000D01*
X74631000Y-91818000D01*
X74506027Y-91818000D01*
X74506012Y-91818001D01*
X74403302Y-91828494D01*
X74236880Y-91883641D01*
X74236875Y-91883643D01*
X74087654Y-91975684D01*
X73963684Y-92099654D01*
X73871643Y-92248875D01*
X73871641Y-92248880D01*
X73816494Y-92415302D01*
X73816493Y-92415309D01*
X73806000Y-92518013D01*
X73806000Y-92968000D01*
X73006499Y-92968000D01*
X73006499Y-92517992D01*
X73004672Y-92500111D01*
X72995999Y-92415203D01*
X72995998Y-92415200D01*
X72994606Y-92411000D01*
X72940814Y-92248666D01*
X72848712Y-92099344D01*
X72724656Y-91975288D01*
X72614444Y-91907309D01*
X72575336Y-91883187D01*
X72575331Y-91883185D01*
X72573862Y-91882698D01*
X72408797Y-91828001D01*
X72408795Y-91828000D01*
X72306010Y-91817500D01*
X71555998Y-91817500D01*
X71555980Y-91817501D01*
X71453203Y-91828000D01*
X71453200Y-91828001D01*
X71286668Y-91883185D01*
X71286663Y-91883187D01*
X71137342Y-91975289D01*
X71013289Y-92099342D01*
X70921187Y-92248663D01*
X70921185Y-92248668D01*
X70908810Y-92286013D01*
X70866001Y-92415203D01*
X70866001Y-92415204D01*
X70866000Y-92415204D01*
X70855500Y-92517983D01*
X70855500Y-93918001D01*
X70855501Y-93918018D01*
X70866000Y-94020796D01*
X70866001Y-94020799D01*
X70921185Y-94187331D01*
X70921187Y-94187336D01*
X70929587Y-94200954D01*
X70999066Y-94313599D01*
X71013289Y-94336657D01*
X71132392Y-94455760D01*
X71165877Y-94517083D01*
X71168661Y-94539928D01*
X71178642Y-94892119D01*
X71177384Y-94913596D01*
X71175711Y-94925018D01*
X71175711Y-94925025D01*
X71181267Y-94988541D01*
X71181478Y-94992186D01*
X71182038Y-95011948D01*
X71182039Y-95011959D01*
X71184978Y-95032129D01*
X71185389Y-95035662D01*
X71191000Y-95099797D01*
X71191000Y-95099798D01*
X71194424Y-95110131D01*
X71199419Y-95131237D01*
X71200990Y-95142013D01*
X71224716Y-95201868D01*
X71225932Y-95205212D01*
X71246184Y-95266330D01*
X71246188Y-95266338D01*
X71251897Y-95275594D01*
X71261629Y-95294989D01*
X71265640Y-95305107D01*
X71265641Y-95305110D01*
X71302522Y-95357866D01*
X71304477Y-95360840D01*
X71338288Y-95415656D01*
X71345980Y-95423348D01*
X71359926Y-95439980D01*
X71366159Y-95448896D01*
X71366160Y-95448897D01*
X71366161Y-95448898D01*
X71402414Y-95481209D01*
X71419368Y-95499725D01*
X71430390Y-95514530D01*
X71430395Y-95514534D01*
X71470415Y-95548116D01*
X71474403Y-95551771D01*
X71480216Y-95557584D01*
X71480220Y-95557587D01*
X71480223Y-95557590D01*
X71505939Y-95577923D01*
X71564786Y-95627302D01*
X71564788Y-95627303D01*
X71570823Y-95631272D01*
X71570789Y-95631322D01*
X71577144Y-95635370D01*
X71577177Y-95635318D01*
X71583319Y-95639107D01*
X71583323Y-95639110D01*
X71652219Y-95671237D01*
X71652914Y-95671561D01*
X71721558Y-95706036D01*
X71721561Y-95706037D01*
X71721567Y-95706040D01*
X71721572Y-95706041D01*
X71728355Y-95708510D01*
X71728334Y-95708567D01*
X71735451Y-95711040D01*
X71735470Y-95710984D01*
X71742330Y-95713257D01*
X71783174Y-95721690D01*
X71817532Y-95728784D01*
X71892279Y-95746500D01*
X71892288Y-95746500D01*
X71899452Y-95747338D01*
X71899445Y-95747397D01*
X71906946Y-95748163D01*
X71906952Y-95748104D01*
X71914140Y-95748733D01*
X71914143Y-95748732D01*
X71914144Y-95748733D01*
X71990898Y-95746500D01*
X79666661Y-95746500D01*
X79682946Y-95748163D01*
X79682952Y-95748104D01*
X79690140Y-95748733D01*
X79690143Y-95748732D01*
X79690144Y-95748733D01*
X79766898Y-95746500D01*
X79922279Y-95746500D01*
X94146279Y-95746500D01*
X94464359Y-95746500D01*
X94467959Y-95746604D01*
X94531935Y-95750331D01*
X94542977Y-95748384D01*
X94564509Y-95746500D01*
X102806295Y-95746500D01*
X102824265Y-95747809D01*
X102848023Y-95751289D01*
X102900068Y-95746735D01*
X102905470Y-95746500D01*
X102913704Y-95746500D01*
X102913709Y-95746500D01*
X102925327Y-95745141D01*
X102946276Y-95742693D01*
X102959028Y-95741577D01*
X103022797Y-95735999D01*
X103022805Y-95735996D01*
X103029866Y-95734539D01*
X103029878Y-95734598D01*
X103037243Y-95732965D01*
X103037229Y-95732906D01*
X103044246Y-95731241D01*
X103044255Y-95731241D01*
X103116423Y-95704974D01*
X103189334Y-95680814D01*
X103189343Y-95680807D01*
X103195882Y-95677760D01*
X103195908Y-95677816D01*
X103202690Y-95674532D01*
X103202663Y-95674478D01*
X103209106Y-95671240D01*
X103209117Y-95671237D01*
X103273283Y-95629034D01*
X103338656Y-95588712D01*
X103338662Y-95588705D01*
X103344325Y-95584229D01*
X103344363Y-95584277D01*
X103350200Y-95579522D01*
X103350161Y-95579475D01*
X103355696Y-95574830D01*
X103408385Y-95518982D01*
X104160549Y-94766819D01*
X104221872Y-94733334D01*
X104248230Y-94730500D01*
X105082415Y-94730500D01*
X105149454Y-94750185D01*
X105195209Y-94802989D01*
X105200118Y-94815489D01*
X105236186Y-94924334D01*
X105325515Y-95069161D01*
X105328289Y-95073657D01*
X105447701Y-95193069D01*
X105481186Y-95254392D01*
X105476202Y-95324084D01*
X105447701Y-95368431D01*
X105389789Y-95426342D01*
X105297687Y-95575663D01*
X105297685Y-95575668D01*
X105279260Y-95631272D01*
X105242501Y-95742203D01*
X105242501Y-95742204D01*
X105242500Y-95742204D01*
X105232000Y-95844983D01*
X105232000Y-97195001D01*
X105232001Y-97195018D01*
X105242500Y-97297796D01*
X105242501Y-97297799D01*
X105297615Y-97464119D01*
X105297686Y-97464334D01*
X105389788Y-97613656D01*
X105513844Y-97737712D01*
X105663166Y-97829814D01*
X105829703Y-97884999D01*
X105932491Y-97895500D01*
X106657508Y-97895499D01*
X106657516Y-97895498D01*
X106657519Y-97895498D01*
X106713802Y-97889748D01*
X106760297Y-97884999D01*
X106926834Y-97829814D01*
X107076156Y-97737712D01*
X107200212Y-97613656D01*
X107292314Y-97464334D01*
X107347499Y-97297797D01*
X107358000Y-97195009D01*
X107357999Y-95844992D01*
X107357937Y-95844389D01*
X107347499Y-95742203D01*
X107347498Y-95742200D01*
X107344291Y-95732523D01*
X107292314Y-95575666D01*
X107200212Y-95426344D01*
X107081819Y-95307951D01*
X107048334Y-95246628D01*
X107045500Y-95220270D01*
X107045500Y-95218230D01*
X107065185Y-95151191D01*
X107081819Y-95130549D01*
X107107368Y-95105000D01*
X107138712Y-95073656D01*
X107230814Y-94924334D01*
X107285999Y-94757797D01*
X107296500Y-94655009D01*
X107296500Y-94655001D01*
X108095500Y-94655001D01*
X108095501Y-94655018D01*
X108106000Y-94757796D01*
X108106001Y-94757799D01*
X108132941Y-94839097D01*
X108161186Y-94924334D01*
X108250515Y-95069161D01*
X108253289Y-95073657D01*
X108372700Y-95193068D01*
X108406185Y-95254391D01*
X108401201Y-95324083D01*
X108372702Y-95368429D01*
X108314788Y-95426344D01*
X108222687Y-95575663D01*
X108222685Y-95575668D01*
X108204260Y-95631272D01*
X108167501Y-95742203D01*
X108167501Y-95742204D01*
X108167500Y-95742204D01*
X108157000Y-95844983D01*
X108157000Y-97195001D01*
X108157001Y-97195018D01*
X108167500Y-97297796D01*
X108167501Y-97297799D01*
X108222615Y-97464119D01*
X108222686Y-97464334D01*
X108314788Y-97613656D01*
X108438844Y-97737712D01*
X108588166Y-97829814D01*
X108754703Y-97884999D01*
X108857491Y-97895500D01*
X109582508Y-97895499D01*
X109582516Y-97895498D01*
X109582519Y-97895498D01*
X109638802Y-97889748D01*
X109685297Y-97884999D01*
X109851834Y-97829814D01*
X110001156Y-97737712D01*
X110082819Y-97656049D01*
X110144142Y-97622564D01*
X110213834Y-97627548D01*
X110258181Y-97656049D01*
X110339844Y-97737712D01*
X110489166Y-97829814D01*
X110655703Y-97884999D01*
X110758491Y-97895500D01*
X111608508Y-97895499D01*
X111608516Y-97895498D01*
X111608519Y-97895498D01*
X111664802Y-97889748D01*
X111711297Y-97884999D01*
X111877834Y-97829814D01*
X112027156Y-97737712D01*
X112151212Y-97613656D01*
X112243314Y-97464334D01*
X112298499Y-97297797D01*
X112309000Y-97195009D01*
X112309000Y-96770000D01*
X112858501Y-96770000D01*
X112858501Y-97194986D01*
X112868994Y-97297697D01*
X112924141Y-97464119D01*
X112924143Y-97464124D01*
X113016184Y-97613345D01*
X113140154Y-97737315D01*
X113289375Y-97829356D01*
X113289380Y-97829358D01*
X113455802Y-97884505D01*
X113455809Y-97884506D01*
X113558519Y-97894999D01*
X113733499Y-97894999D01*
X113733500Y-97894998D01*
X113733500Y-96770000D01*
X114233500Y-96770000D01*
X114233500Y-97894999D01*
X114408472Y-97894999D01*
X114408486Y-97894998D01*
X114511197Y-97884505D01*
X114677619Y-97829358D01*
X114677624Y-97829356D01*
X114826845Y-97737315D01*
X114950815Y-97613345D01*
X115042856Y-97464124D01*
X115042858Y-97464119D01*
X115098005Y-97297697D01*
X115098006Y-97297690D01*
X115108499Y-97194986D01*
X115108500Y-97194973D01*
X115108500Y-96770000D01*
X114233500Y-96770000D01*
X113733500Y-96770000D01*
X112858501Y-96770000D01*
X112309000Y-96770000D01*
X112308999Y-95844992D01*
X112308937Y-95844389D01*
X112298499Y-95742203D01*
X112298498Y-95742200D01*
X112295291Y-95732523D01*
X112243314Y-95575666D01*
X112151212Y-95426344D01*
X112137024Y-95412156D01*
X112103541Y-95350832D01*
X112108527Y-95281140D01*
X112150400Y-95225208D01*
X112165683Y-95215426D01*
X112274626Y-95156470D01*
X112276514Y-95155001D01*
X112347440Y-95099797D01*
X112457784Y-95013913D01*
X112466511Y-95004432D01*
X112526394Y-94968441D01*
X112596232Y-94970538D01*
X112653850Y-95010060D01*
X112673924Y-95045080D01*
X112702645Y-95122086D01*
X112702649Y-95122093D01*
X112788809Y-95237187D01*
X112788812Y-95237190D01*
X112903906Y-95323350D01*
X112903912Y-95323353D01*
X112905506Y-95323948D01*
X112906868Y-95324968D01*
X112911696Y-95327604D01*
X112911317Y-95328297D01*
X112961442Y-95365816D01*
X112985863Y-95431279D01*
X112971014Y-95499553D01*
X112967718Y-95505228D01*
X112924146Y-95575871D01*
X112924141Y-95575880D01*
X112868994Y-95742302D01*
X112868993Y-95742309D01*
X112858500Y-95845013D01*
X112858500Y-96270000D01*
X113733500Y-96270000D01*
X113733500Y-95218862D01*
X113753185Y-95151823D01*
X113769819Y-95131181D01*
X113796000Y-95105000D01*
X113796000Y-94354189D01*
X113848547Y-94390016D01*
X113978173Y-94430000D01*
X114079724Y-94430000D01*
X114180138Y-94414865D01*
X114296000Y-94359068D01*
X114296000Y-95306138D01*
X114276315Y-95373177D01*
X114259681Y-95393819D01*
X114233500Y-95420000D01*
X114233500Y-96270000D01*
X115108499Y-96270000D01*
X115108499Y-95845028D01*
X115108498Y-95845013D01*
X115098005Y-95742302D01*
X115042858Y-95575880D01*
X115042855Y-95575873D01*
X115022660Y-95543133D01*
X115004219Y-95475741D01*
X115025141Y-95409077D01*
X115078782Y-95364307D01*
X115084865Y-95361853D01*
X115188086Y-95323354D01*
X115188093Y-95323350D01*
X115303187Y-95237190D01*
X115303190Y-95237187D01*
X115389350Y-95122093D01*
X115389354Y-95122086D01*
X115411107Y-95063763D01*
X117525787Y-95063763D01*
X117555413Y-95333013D01*
X117555415Y-95333024D01*
X117622261Y-95588712D01*
X117623928Y-95595088D01*
X117729870Y-95844390D01*
X117801998Y-95962575D01*
X117870979Y-96075605D01*
X117870986Y-96075615D01*
X118044253Y-96283819D01*
X118044259Y-96283824D01*
X118245998Y-96464582D01*
X118471910Y-96614044D01*
X118717176Y-96729020D01*
X118717183Y-96729022D01*
X118717185Y-96729023D01*
X118976557Y-96807057D01*
X118976564Y-96807058D01*
X118976569Y-96807060D01*
X119244561Y-96846500D01*
X119244566Y-96846500D01*
X119447636Y-96846500D01*
X119499133Y-96842730D01*
X119650156Y-96831677D01*
X119762758Y-96806593D01*
X119914546Y-96772782D01*
X119914548Y-96772781D01*
X119914553Y-96772780D01*
X120167558Y-96676014D01*
X120403777Y-96543441D01*
X120618177Y-96377888D01*
X120806186Y-96182881D01*
X120963799Y-95962579D01*
X121037787Y-95818669D01*
X121087649Y-95721690D01*
X121087651Y-95721684D01*
X121087656Y-95721675D01*
X121175118Y-95465305D01*
X121224319Y-95198933D01*
X121234212Y-94928235D01*
X121204586Y-94658982D01*
X121136072Y-94396912D01*
X121030130Y-94147610D01*
X120889018Y-93916390D01*
X120887845Y-93914981D01*
X120715746Y-93708180D01*
X120715740Y-93708175D01*
X120514002Y-93527418D01*
X120288092Y-93377957D01*
X120288090Y-93377956D01*
X120042824Y-93262980D01*
X120042819Y-93262978D01*
X120042814Y-93262976D01*
X119783442Y-93184942D01*
X119783428Y-93184939D01*
X119667791Y-93167921D01*
X119515439Y-93145500D01*
X119312369Y-93145500D01*
X119312364Y-93145500D01*
X119109844Y-93160323D01*
X119109831Y-93160325D01*
X118845453Y-93219217D01*
X118845446Y-93219220D01*
X118592439Y-93315987D01*
X118356226Y-93448557D01*
X118356224Y-93448558D01*
X118356223Y-93448559D01*
X118315266Y-93480185D01*
X118141822Y-93614112D01*
X117953822Y-93809109D01*
X117953816Y-93809116D01*
X117796202Y-94029419D01*
X117796199Y-94029424D01*
X117672350Y-94270309D01*
X117672343Y-94270327D01*
X117584884Y-94526685D01*
X117584881Y-94526699D01*
X117535681Y-94793068D01*
X117535680Y-94793075D01*
X117525787Y-95063763D01*
X115411107Y-95063763D01*
X115439596Y-94987379D01*
X115439598Y-94987372D01*
X115445999Y-94927844D01*
X115446000Y-94927827D01*
X115446000Y-94230000D01*
X114421278Y-94230000D01*
X114469625Y-94146260D01*
X114499810Y-94014008D01*
X114489673Y-93878735D01*
X114440113Y-93752459D01*
X114422203Y-93730000D01*
X115446000Y-93730000D01*
X115446000Y-93032172D01*
X115445999Y-93032155D01*
X115439598Y-92972627D01*
X115439596Y-92972620D01*
X115389354Y-92837913D01*
X115389350Y-92837906D01*
X115303190Y-92722812D01*
X115303187Y-92722809D01*
X115188093Y-92636649D01*
X115188086Y-92636645D01*
X115053379Y-92586403D01*
X115053372Y-92586401D01*
X114993844Y-92580000D01*
X114296000Y-92580000D01*
X114296000Y-93605810D01*
X114243453Y-93569984D01*
X114113827Y-93530000D01*
X114012276Y-93530000D01*
X113911862Y-93545135D01*
X113796000Y-93600931D01*
X113796000Y-92580000D01*
X113098155Y-92580000D01*
X113038627Y-92586401D01*
X113038620Y-92586403D01*
X112903913Y-92636645D01*
X112903906Y-92636649D01*
X112788812Y-92722809D01*
X112788809Y-92722812D01*
X112702649Y-92837906D01*
X112702646Y-92837911D01*
X112673924Y-92914920D01*
X112632052Y-92970853D01*
X112566588Y-92995270D01*
X112498315Y-92980418D01*
X112466514Y-92955571D01*
X112457784Y-92946087D01*
X112457779Y-92946083D01*
X112457777Y-92946081D01*
X112274634Y-92803535D01*
X112274628Y-92803531D01*
X112070504Y-92693064D01*
X112070495Y-92693061D01*
X111850984Y-92617702D01*
X111650574Y-92584260D01*
X111622049Y-92579500D01*
X111389951Y-92579500D01*
X111367359Y-92583270D01*
X111161015Y-92617702D01*
X110941504Y-92693061D01*
X110941495Y-92693064D01*
X110737371Y-92803531D01*
X110737365Y-92803535D01*
X110554222Y-92946081D01*
X110554219Y-92946084D01*
X110554216Y-92946086D01*
X110554216Y-92946087D01*
X110421363Y-93090405D01*
X110397014Y-93116855D01*
X110395458Y-93119237D01*
X110394570Y-93119994D01*
X110393863Y-93120903D01*
X110393675Y-93120757D01*
X110342305Y-93164587D01*
X110273073Y-93174001D01*
X110209741Y-93144491D01*
X110173953Y-93090407D01*
X110155814Y-93035666D01*
X110063712Y-92886344D01*
X109939656Y-92762288D01*
X109844001Y-92703288D01*
X109790336Y-92670187D01*
X109790331Y-92670185D01*
X109761143Y-92660513D01*
X109623797Y-92615001D01*
X109623795Y-92615000D01*
X109521010Y-92604500D01*
X108795998Y-92604500D01*
X108795980Y-92604501D01*
X108693203Y-92615000D01*
X108693200Y-92615001D01*
X108526668Y-92670185D01*
X108526663Y-92670187D01*
X108377342Y-92762289D01*
X108253289Y-92886342D01*
X108161187Y-93035663D01*
X108161185Y-93035668D01*
X108161084Y-93035973D01*
X108106001Y-93202203D01*
X108106001Y-93202204D01*
X108106000Y-93202204D01*
X108095500Y-93304983D01*
X108095500Y-94655001D01*
X107296500Y-94655001D01*
X107296499Y-93304992D01*
X107292207Y-93262980D01*
X107285999Y-93202203D01*
X107285998Y-93202200D01*
X107264953Y-93138690D01*
X107230814Y-93035666D01*
X107138712Y-92886344D01*
X107014656Y-92762288D01*
X106919001Y-92703288D01*
X106865336Y-92670187D01*
X106865331Y-92670185D01*
X106836143Y-92660513D01*
X106698797Y-92615001D01*
X106698795Y-92615000D01*
X106596010Y-92604500D01*
X105870998Y-92604500D01*
X105870980Y-92604501D01*
X105768203Y-92615000D01*
X105768200Y-92615001D01*
X105601668Y-92670185D01*
X105601663Y-92670187D01*
X105452342Y-92762289D01*
X105356181Y-92858451D01*
X105294858Y-92891936D01*
X105225166Y-92886952D01*
X105169233Y-92845080D01*
X105144816Y-92779616D01*
X105144500Y-92770770D01*
X105144500Y-89912000D01*
X106075001Y-89912000D01*
X106075001Y-90986988D01*
X106085494Y-91089699D01*
X106140640Y-91256120D01*
X106140642Y-91256125D01*
X106232683Y-91405346D01*
X106356653Y-91529316D01*
X106505874Y-91621357D01*
X106505879Y-91621359D01*
X106672302Y-91676506D01*
X106672300Y-91676506D01*
X106731134Y-91682516D01*
X106742124Y-91687000D01*
X106771858Y-91687000D01*
X106778163Y-91687321D01*
X106788462Y-91688373D01*
X106796419Y-91687000D01*
X106826375Y-91687000D01*
X106826384Y-91686999D01*
X107700000Y-91686999D01*
X107700000Y-89912000D01*
X108200000Y-89912000D01*
X108200000Y-91686999D01*
X109225000Y-91686999D01*
X109225000Y-89912000D01*
X109725000Y-89912000D01*
X109725000Y-91686999D01*
X110749999Y-91686999D01*
X110750000Y-91686998D01*
X110750000Y-89912000D01*
X111250000Y-89912000D01*
X111250000Y-91686999D01*
X112174974Y-91686999D01*
X112174988Y-91686998D01*
X112277699Y-91676505D01*
X112444120Y-91621359D01*
X112444125Y-91621357D01*
X112593346Y-91529316D01*
X112717316Y-91405346D01*
X112809357Y-91256125D01*
X112809359Y-91256120D01*
X112864505Y-91089698D01*
X112874999Y-90986988D01*
X112875000Y-90986975D01*
X112875000Y-89912000D01*
X111250000Y-89912000D01*
X110750000Y-89912000D01*
X109725000Y-89912000D01*
X109225000Y-89912000D01*
X108200000Y-89912000D01*
X107700000Y-89912000D01*
X106075001Y-89912000D01*
X105144500Y-89912000D01*
X105144500Y-88237000D01*
X106075000Y-88237000D01*
X106075000Y-89411999D01*
X106075002Y-89412000D01*
X107700000Y-89412000D01*
X107700000Y-88237000D01*
X108200000Y-88237000D01*
X108200000Y-89412000D01*
X109225000Y-89412000D01*
X109225000Y-88237000D01*
X109725000Y-88237000D01*
X109725000Y-89412000D01*
X110750000Y-89412000D01*
X110750000Y-88237000D01*
X111250000Y-88237000D01*
X111250000Y-89412000D01*
X112874999Y-89412000D01*
X112874999Y-88646005D01*
X117383057Y-88646005D01*
X117402807Y-88959942D01*
X117402808Y-88959949D01*
X117461755Y-89268958D01*
X117558963Y-89568132D01*
X117558965Y-89568137D01*
X117692900Y-89852761D01*
X117692903Y-89852767D01*
X117861454Y-90118362D01*
X117861460Y-90118371D01*
X117952286Y-90228160D01*
X118917438Y-89263007D01*
X118966348Y-89341999D01*
X119109931Y-89499501D01*
X119268388Y-89619163D01*
X118302971Y-90584579D01*
X118302972Y-90584581D01*
X118545772Y-90760985D01*
X118545790Y-90760996D01*
X118821447Y-90912540D01*
X118821455Y-90912544D01*
X119113926Y-91028340D01*
X119418620Y-91106573D01*
X119418629Y-91106575D01*
X119730701Y-91145999D01*
X119730715Y-91146000D01*
X120045285Y-91146000D01*
X120045298Y-91145999D01*
X120357370Y-91106575D01*
X120357379Y-91106573D01*
X120662073Y-91028340D01*
X120954544Y-90912544D01*
X120954552Y-90912540D01*
X121230209Y-90760996D01*
X121230219Y-90760990D01*
X121473026Y-90584579D01*
X121473027Y-90584579D01*
X120507611Y-89619163D01*
X120666069Y-89499501D01*
X120809652Y-89341999D01*
X120858560Y-89263008D01*
X121823712Y-90228160D01*
X121914546Y-90118362D01*
X122083096Y-89852767D01*
X122083099Y-89852761D01*
X122217034Y-89568137D01*
X122217036Y-89568132D01*
X122314244Y-89268958D01*
X122373191Y-88959949D01*
X122373192Y-88959942D01*
X122392943Y-88646005D01*
X122392943Y-88645994D01*
X122373192Y-88332057D01*
X122373191Y-88332050D01*
X122314244Y-88023041D01*
X122217036Y-87723867D01*
X122217034Y-87723862D01*
X122083099Y-87439238D01*
X122083096Y-87439232D01*
X121914542Y-87173632D01*
X121914539Y-87173628D01*
X121823712Y-87063838D01*
X120858560Y-88028991D01*
X120809652Y-87950001D01*
X120666069Y-87792499D01*
X120507611Y-87672836D01*
X121473027Y-86707419D01*
X121473026Y-86707417D01*
X121230227Y-86531014D01*
X121230209Y-86531003D01*
X120954552Y-86379459D01*
X120954544Y-86379455D01*
X120662073Y-86263659D01*
X120357379Y-86185426D01*
X120357370Y-86185424D01*
X120045298Y-86146000D01*
X119730701Y-86146000D01*
X119418629Y-86185424D01*
X119418620Y-86185426D01*
X119113926Y-86263659D01*
X118821455Y-86379455D01*
X118821447Y-86379459D01*
X118545787Y-86531004D01*
X118545782Y-86531007D01*
X118302972Y-86707418D01*
X118302971Y-86707419D01*
X119268388Y-87672836D01*
X119109931Y-87792499D01*
X118966348Y-87950001D01*
X118917439Y-88028991D01*
X117952286Y-87063838D01*
X117952285Y-87063838D01*
X117861459Y-87173629D01*
X117861457Y-87173632D01*
X117692903Y-87439232D01*
X117692900Y-87439238D01*
X117558965Y-87723862D01*
X117558963Y-87723867D01*
X117461755Y-88023041D01*
X117402808Y-88332050D01*
X117402807Y-88332057D01*
X117383057Y-88645994D01*
X117383057Y-88646005D01*
X112874999Y-88646005D01*
X112874999Y-88237000D01*
X111250000Y-88237000D01*
X110750000Y-88237000D01*
X109725000Y-88237000D01*
X109225000Y-88237000D01*
X108200000Y-88237000D01*
X107700000Y-88237000D01*
X106075000Y-88237000D01*
X105144500Y-88237000D01*
X105144500Y-86562000D01*
X106075000Y-86562000D01*
X106075000Y-87737000D01*
X107700000Y-87737000D01*
X107700000Y-86562000D01*
X108200000Y-86562000D01*
X108200000Y-87737000D01*
X109225000Y-87737000D01*
X109225000Y-86562000D01*
X109725000Y-86562000D01*
X109725000Y-87737000D01*
X110750000Y-87737000D01*
X110750000Y-86562000D01*
X111250000Y-86562000D01*
X111250000Y-87737000D01*
X112874999Y-87737000D01*
X112874999Y-87640023D01*
X112875000Y-87640002D01*
X112875000Y-86562000D01*
X111250000Y-86562000D01*
X110750000Y-86562000D01*
X109725000Y-86562000D01*
X109225000Y-86562000D01*
X108200000Y-86562000D01*
X107700000Y-86562000D01*
X106075000Y-86562000D01*
X105144500Y-86562000D01*
X105144500Y-86062000D01*
X106075000Y-86062000D01*
X107700000Y-86062000D01*
X107700000Y-84287000D01*
X108200000Y-84287000D01*
X108200000Y-86062000D01*
X109225000Y-86062000D01*
X109225000Y-84287000D01*
X109725000Y-84287000D01*
X109725000Y-86062000D01*
X110750000Y-86062000D01*
X110750000Y-84287000D01*
X111250000Y-84287000D01*
X111250000Y-86062000D01*
X112874999Y-86062000D01*
X112874999Y-84987028D01*
X112874998Y-84987013D01*
X112864827Y-84887448D01*
X112864741Y-84885761D01*
X112864505Y-84884300D01*
X112809359Y-84717879D01*
X112809357Y-84717874D01*
X112717316Y-84568653D01*
X112593346Y-84444683D01*
X112444125Y-84352642D01*
X112444120Y-84352640D01*
X112277698Y-84297494D01*
X112174988Y-84287000D01*
X111250000Y-84287000D01*
X110750000Y-84287000D01*
X109725000Y-84287000D01*
X109225000Y-84287000D01*
X108200000Y-84287000D01*
X107700000Y-84287000D01*
X106774608Y-84287000D01*
X106773183Y-84287188D01*
X106672300Y-84297494D01*
X106505879Y-84352640D01*
X106505874Y-84352642D01*
X106356653Y-84444683D01*
X106232683Y-84568653D01*
X106140642Y-84717874D01*
X106140640Y-84717879D01*
X106085494Y-84884301D01*
X106075000Y-84987011D01*
X106075000Y-86062000D01*
X105144500Y-86062000D01*
X105144500Y-83623869D01*
X105164185Y-83556830D01*
X105216989Y-83511075D01*
X105229486Y-83506166D01*
X105363334Y-83461814D01*
X105512656Y-83369712D01*
X105636712Y-83245656D01*
X105636712Y-83245655D01*
X105641819Y-83240549D01*
X105643705Y-83242435D01*
X105690625Y-83209212D01*
X105730868Y-83202500D01*
X106366295Y-83202500D01*
X106384265Y-83203809D01*
X106408023Y-83207289D01*
X106449496Y-83203660D01*
X106517993Y-83217425D01*
X106525404Y-83221652D01*
X106525666Y-83221814D01*
X106692203Y-83276999D01*
X106794991Y-83287500D01*
X107595008Y-83287499D01*
X107595016Y-83287498D01*
X107595019Y-83287498D01*
X107651302Y-83281748D01*
X107697797Y-83276999D01*
X107864334Y-83221814D01*
X108013656Y-83129712D01*
X108137712Y-83005656D01*
X108229814Y-82856334D01*
X108284999Y-82689797D01*
X108295500Y-82587009D01*
X108295499Y-81155228D01*
X108315184Y-81088190D01*
X108331813Y-81067553D01*
X108993549Y-80405818D01*
X109054872Y-80372333D01*
X109081230Y-80369499D01*
X109769002Y-80369499D01*
X109769008Y-80369499D01*
X109871797Y-80358999D01*
X110038334Y-80303814D01*
X110187656Y-80211712D01*
X110311712Y-80087656D01*
X110403814Y-79938334D01*
X110458999Y-79771797D01*
X110469500Y-79669009D01*
X110469499Y-78680227D01*
X110489183Y-78613189D01*
X110541987Y-78567434D01*
X110611146Y-78557490D01*
X110674702Y-78586515D01*
X110681180Y-78592547D01*
X110982181Y-78893548D01*
X111015666Y-78954871D01*
X111018500Y-78981229D01*
X111018500Y-79669001D01*
X111018501Y-79669019D01*
X111029000Y-79771796D01*
X111029001Y-79771799D01*
X111084185Y-79938331D01*
X111084189Y-79938340D01*
X111115049Y-79988372D01*
X111133489Y-80055765D01*
X111112566Y-80122428D01*
X111074607Y-80159007D01*
X110936342Y-80244289D01*
X110812289Y-80368342D01*
X110720187Y-80517663D01*
X110720185Y-80517668D01*
X110707199Y-80556858D01*
X110665001Y-80684203D01*
X110665001Y-80684204D01*
X110665000Y-80684204D01*
X110654500Y-80786983D01*
X110654500Y-82587001D01*
X110654501Y-82587018D01*
X110665000Y-82689796D01*
X110665001Y-82689799D01*
X110720185Y-82856331D01*
X110720187Y-82856336D01*
X110741562Y-82890991D01*
X110812288Y-83005656D01*
X110936344Y-83129712D01*
X111085666Y-83221814D01*
X111252203Y-83276999D01*
X111354991Y-83287500D01*
X112155008Y-83287499D01*
X112155016Y-83287498D01*
X112155019Y-83287498D01*
X112211302Y-83281748D01*
X112257797Y-83276999D01*
X112424334Y-83221814D01*
X112573656Y-83129712D01*
X112585397Y-83117970D01*
X112646715Y-83084487D01*
X112716407Y-83089469D01*
X112772342Y-83131339D01*
X112796605Y-83194844D01*
X112798000Y-83210792D01*
X112799461Y-83217867D01*
X112799403Y-83217878D01*
X112801034Y-83225237D01*
X112801092Y-83225224D01*
X112802757Y-83232250D01*
X112829025Y-83304424D01*
X112853185Y-83377331D01*
X112856236Y-83383874D01*
X112856182Y-83383898D01*
X112859470Y-83390688D01*
X112859521Y-83390663D01*
X112862761Y-83397113D01*
X112862762Y-83397114D01*
X112862763Y-83397117D01*
X112897329Y-83449673D01*
X112904965Y-83461283D01*
X112945287Y-83526655D01*
X112949766Y-83532319D01*
X112949719Y-83532356D01*
X112954482Y-83538202D01*
X112954528Y-83538164D01*
X112959173Y-83543700D01*
X113015017Y-83596385D01*
X113691181Y-84272549D01*
X113724666Y-84333872D01*
X113727500Y-84360230D01*
X113727500Y-84743870D01*
X113727501Y-84743876D01*
X113733908Y-84803483D01*
X113784202Y-84938328D01*
X113784206Y-84938335D01*
X113870452Y-85053544D01*
X113870455Y-85053547D01*
X113985664Y-85139793D01*
X113985671Y-85139797D01*
X114120517Y-85190091D01*
X114120516Y-85190091D01*
X114127444Y-85190835D01*
X114180127Y-85196500D01*
X115875872Y-85196499D01*
X115935483Y-85190091D01*
X116070331Y-85139796D01*
X116185546Y-85053546D01*
X116192350Y-85044455D01*
X116248280Y-85002584D01*
X116317971Y-84997597D01*
X116362740Y-85017188D01*
X116375512Y-85026130D01*
X116375518Y-85026134D01*
X116581673Y-85122265D01*
X116581682Y-85122269D01*
X116801389Y-85181139D01*
X116801400Y-85181141D01*
X117027998Y-85200966D01*
X117028002Y-85200966D01*
X117254599Y-85181141D01*
X117254610Y-85181139D01*
X117474317Y-85122269D01*
X117474331Y-85122264D01*
X117680478Y-85026136D01*
X117753472Y-84975025D01*
X117138451Y-84360004D01*
X117163199Y-84356446D01*
X117287445Y-84299705D01*
X117390673Y-84210258D01*
X117464519Y-84095351D01*
X117490935Y-84005382D01*
X118107025Y-84621472D01*
X118158136Y-84548478D01*
X118254264Y-84342331D01*
X118254269Y-84342317D01*
X118313139Y-84122610D01*
X118313141Y-84122599D01*
X118332966Y-83896002D01*
X118332966Y-83895997D01*
X118313141Y-83669400D01*
X118313139Y-83669389D01*
X118254269Y-83449682D01*
X118254265Y-83449673D01*
X118158133Y-83243516D01*
X118158131Y-83243512D01*
X118107026Y-83170526D01*
X118107025Y-83170526D01*
X117490935Y-83786616D01*
X117464519Y-83696649D01*
X117390673Y-83581742D01*
X117287445Y-83492295D01*
X117163199Y-83435554D01*
X117138451Y-83431995D01*
X117753472Y-82816974D01*
X117753471Y-82816973D01*
X117680483Y-82765866D01*
X117680481Y-82765865D01*
X117665023Y-82758657D01*
X117612584Y-82712484D01*
X117593432Y-82645290D01*
X117613648Y-82578409D01*
X117665023Y-82533893D01*
X117680734Y-82526568D01*
X117867139Y-82396047D01*
X118028047Y-82235139D01*
X118158568Y-82048734D01*
X118254739Y-81842496D01*
X118313635Y-81622692D01*
X118333468Y-81396000D01*
X118333151Y-81392382D01*
X118319534Y-81236739D01*
X118313635Y-81169308D01*
X118261520Y-80974812D01*
X118254741Y-80949511D01*
X118254738Y-80949502D01*
X118238883Y-80915501D01*
X118158568Y-80743266D01*
X118042147Y-80576998D01*
X118028045Y-80556858D01*
X117867141Y-80395954D01*
X117680734Y-80265432D01*
X117680732Y-80265431D01*
X117474497Y-80169261D01*
X117474488Y-80169258D01*
X117254697Y-80110366D01*
X117254693Y-80110365D01*
X117254692Y-80110365D01*
X117254691Y-80110364D01*
X117254686Y-80110364D01*
X117028002Y-80090532D01*
X117027998Y-80090532D01*
X116801313Y-80110364D01*
X116801302Y-80110366D01*
X116581511Y-80169258D01*
X116581502Y-80169261D01*
X116375267Y-80265431D01*
X116375265Y-80265432D01*
X116188858Y-80395954D01*
X116115681Y-80469132D01*
X116054358Y-80502617D01*
X115984666Y-80497633D01*
X115940319Y-80469132D01*
X115867141Y-80395954D01*
X115680734Y-80265432D01*
X115680732Y-80265431D01*
X115474497Y-80169261D01*
X115474488Y-80169258D01*
X115254697Y-80110366D01*
X115254693Y-80110365D01*
X115254692Y-80110365D01*
X115254691Y-80110364D01*
X115254686Y-80110364D01*
X115028002Y-80090532D01*
X115027998Y-80090532D01*
X114801313Y-80110364D01*
X114801302Y-80110366D01*
X114581511Y-80169258D01*
X114581502Y-80169262D01*
X114464905Y-80223632D01*
X114395827Y-80234124D01*
X114332043Y-80205604D01*
X114293804Y-80147127D01*
X114288500Y-80111250D01*
X114288500Y-77911705D01*
X114289809Y-77893735D01*
X114290212Y-77890986D01*
X114293289Y-77869977D01*
X114293180Y-77868734D01*
X114288736Y-77817934D01*
X114288500Y-77812528D01*
X114288500Y-77804297D01*
X114288500Y-77804291D01*
X114284693Y-77771724D01*
X114279667Y-77714272D01*
X114277999Y-77695201D01*
X114276539Y-77688129D01*
X114276597Y-77688116D01*
X114274965Y-77680757D01*
X114274906Y-77680772D01*
X114273242Y-77673753D01*
X114273241Y-77673745D01*
X114246974Y-77601576D01*
X114222814Y-77528666D01*
X114222809Y-77528659D01*
X114219760Y-77522118D01*
X114219815Y-77522091D01*
X114216533Y-77515313D01*
X114216480Y-77515340D01*
X114213235Y-77508880D01*
X114171028Y-77444708D01*
X114166784Y-77437828D01*
X114130712Y-77379345D01*
X114130711Y-77379344D01*
X114130710Y-77379342D01*
X114126234Y-77373682D01*
X114126281Y-77373644D01*
X114121519Y-77367799D01*
X114121474Y-77367838D01*
X114116834Y-77362309D01*
X114116832Y-77362307D01*
X114116830Y-77362304D01*
X114086061Y-77333275D01*
X114060965Y-77309597D01*
X113397373Y-76646005D01*
X117383057Y-76646005D01*
X117402807Y-76959942D01*
X117402808Y-76959949D01*
X117461755Y-77268958D01*
X117558963Y-77568132D01*
X117558965Y-77568137D01*
X117692900Y-77852761D01*
X117692903Y-77852767D01*
X117861457Y-78118367D01*
X117861460Y-78118371D01*
X117952286Y-78228160D01*
X118917438Y-77263007D01*
X118966348Y-77341999D01*
X119109931Y-77499501D01*
X119268388Y-77619163D01*
X118302971Y-78584579D01*
X118302972Y-78584581D01*
X118545772Y-78760985D01*
X118545790Y-78760996D01*
X118821447Y-78912540D01*
X118821455Y-78912544D01*
X119113926Y-79028340D01*
X119418620Y-79106573D01*
X119418629Y-79106575D01*
X119730701Y-79145999D01*
X119730715Y-79146000D01*
X120045285Y-79146000D01*
X120045298Y-79145999D01*
X120357370Y-79106575D01*
X120357379Y-79106573D01*
X120662073Y-79028340D01*
X120954544Y-78912544D01*
X120954552Y-78912540D01*
X121230209Y-78760996D01*
X121230219Y-78760990D01*
X121473026Y-78584579D01*
X121473027Y-78584579D01*
X120507611Y-77619163D01*
X120666069Y-77499501D01*
X120809652Y-77341999D01*
X120858560Y-77263008D01*
X121823712Y-78228160D01*
X121914544Y-78118364D01*
X122083096Y-77852767D01*
X122083099Y-77852761D01*
X122217034Y-77568137D01*
X122217036Y-77568132D01*
X122314244Y-77268958D01*
X122373191Y-76959949D01*
X122373192Y-76959942D01*
X122392943Y-76646005D01*
X122392943Y-76645994D01*
X122373192Y-76332057D01*
X122373191Y-76332050D01*
X122314244Y-76023041D01*
X122217036Y-75723867D01*
X122217034Y-75723862D01*
X122083099Y-75439238D01*
X122083096Y-75439232D01*
X121914542Y-75173632D01*
X121914539Y-75173628D01*
X121823712Y-75063838D01*
X120858560Y-76028991D01*
X120809652Y-75950001D01*
X120666069Y-75792499D01*
X120507611Y-75672836D01*
X121473027Y-74707419D01*
X121473026Y-74707417D01*
X121230227Y-74531014D01*
X121230209Y-74531003D01*
X120954552Y-74379459D01*
X120954544Y-74379455D01*
X120662073Y-74263659D01*
X120357379Y-74185426D01*
X120357370Y-74185424D01*
X120045298Y-74146000D01*
X119730701Y-74146000D01*
X119418629Y-74185424D01*
X119418620Y-74185426D01*
X119113926Y-74263659D01*
X118821455Y-74379455D01*
X118821447Y-74379459D01*
X118545787Y-74531004D01*
X118545782Y-74531007D01*
X118302972Y-74707418D01*
X118302971Y-74707419D01*
X119268388Y-75672836D01*
X119109931Y-75792499D01*
X118966348Y-75950001D01*
X118917439Y-76028991D01*
X117952286Y-75063838D01*
X117952285Y-75063838D01*
X117861459Y-75173629D01*
X117861457Y-75173632D01*
X117692903Y-75439232D01*
X117692900Y-75439238D01*
X117558965Y-75723862D01*
X117558963Y-75723867D01*
X117461755Y-76023041D01*
X117402808Y-76332050D01*
X117402807Y-76332057D01*
X117383057Y-76645994D01*
X117383057Y-76646005D01*
X113397373Y-76646005D01*
X113305818Y-76554450D01*
X113272333Y-76493127D01*
X113269499Y-76466769D01*
X113269499Y-75778998D01*
X113269498Y-75778981D01*
X113258999Y-75676203D01*
X113258998Y-75676200D01*
X113257903Y-75672897D01*
X113203814Y-75509666D01*
X113111712Y-75360344D01*
X112987656Y-75236288D01*
X112838334Y-75144186D01*
X112838331Y-75144185D01*
X112838323Y-75144180D01*
X112836085Y-75143136D01*
X112834808Y-75142012D01*
X112832187Y-75140395D01*
X112832463Y-75139946D01*
X112783650Y-75096959D01*
X112764500Y-75030759D01*
X112764500Y-73723705D01*
X112765809Y-73705735D01*
X112766172Y-73703258D01*
X112769289Y-73681977D01*
X112766873Y-73654365D01*
X112764736Y-73629934D01*
X112764500Y-73624528D01*
X112764500Y-73616297D01*
X112764500Y-73616291D01*
X112760693Y-73583724D01*
X112753999Y-73507203D01*
X112753999Y-73507201D01*
X112752539Y-73500129D01*
X112752597Y-73500116D01*
X112750965Y-73492757D01*
X112750906Y-73492772D01*
X112749242Y-73485753D01*
X112749241Y-73485745D01*
X112722974Y-73413576D01*
X112698814Y-73340666D01*
X112698809Y-73340659D01*
X112695760Y-73334118D01*
X112695815Y-73334091D01*
X112692533Y-73327313D01*
X112692480Y-73327340D01*
X112689235Y-73320880D01*
X112647028Y-73256708D01*
X112620960Y-73214444D01*
X112602499Y-73149348D01*
X112602499Y-72000129D01*
X112602498Y-72000123D01*
X112602497Y-72000116D01*
X112596091Y-71940517D01*
X112595777Y-71939676D01*
X112545797Y-71805671D01*
X112545793Y-71805664D01*
X112459547Y-71690455D01*
X112459544Y-71690452D01*
X112344335Y-71604206D01*
X112344328Y-71604202D01*
X112212401Y-71554997D01*
X112156467Y-71513126D01*
X112132050Y-71447662D01*
X112146902Y-71379389D01*
X112168053Y-71351133D01*
X112290108Y-71229078D01*
X112425600Y-71035578D01*
X112525429Y-70821492D01*
X112525432Y-70821486D01*
X112582636Y-70608000D01*
X111685686Y-70608000D01*
X111711493Y-70567844D01*
X111752000Y-70429889D01*
X111752000Y-70286111D01*
X111718425Y-70171763D01*
X117525787Y-70171763D01*
X117555413Y-70441013D01*
X117555415Y-70441024D01*
X117620192Y-70688798D01*
X117623928Y-70703088D01*
X117729870Y-70952390D01*
X117780639Y-71035578D01*
X117870979Y-71183605D01*
X117870986Y-71183615D01*
X118044253Y-71391819D01*
X118044259Y-71391824D01*
X118145068Y-71482149D01*
X118245998Y-71572582D01*
X118471910Y-71722044D01*
X118717176Y-71837020D01*
X118717183Y-71837022D01*
X118717185Y-71837023D01*
X118976557Y-71915057D01*
X118976564Y-71915058D01*
X118976569Y-71915060D01*
X119244561Y-71954500D01*
X119244566Y-71954500D01*
X119447636Y-71954500D01*
X119499133Y-71950730D01*
X119650156Y-71939677D01*
X119808695Y-71904361D01*
X119914546Y-71880782D01*
X119914548Y-71880781D01*
X119914553Y-71880780D01*
X120167558Y-71784014D01*
X120403777Y-71651441D01*
X120618177Y-71485888D01*
X120806186Y-71290881D01*
X120963799Y-71070579D01*
X121037787Y-70926669D01*
X121087649Y-70829690D01*
X121087651Y-70829684D01*
X121087656Y-70829675D01*
X121175118Y-70573305D01*
X121224319Y-70306933D01*
X121234212Y-70036235D01*
X121204586Y-69766982D01*
X121136072Y-69504912D01*
X121030130Y-69255610D01*
X120889018Y-69024390D01*
X120799747Y-68917119D01*
X120715746Y-68816180D01*
X120715740Y-68816175D01*
X120514002Y-68635418D01*
X120288092Y-68485957D01*
X120288090Y-68485956D01*
X120042824Y-68370980D01*
X120042819Y-68370978D01*
X120042814Y-68370976D01*
X119783442Y-68292942D01*
X119783428Y-68292939D01*
X119667791Y-68275921D01*
X119515439Y-68253500D01*
X119312369Y-68253500D01*
X119312364Y-68253500D01*
X119109844Y-68268323D01*
X119109831Y-68268325D01*
X118845453Y-68327217D01*
X118845446Y-68327220D01*
X118592439Y-68423987D01*
X118356226Y-68556557D01*
X118141822Y-68722112D01*
X117953822Y-68917109D01*
X117953816Y-68917116D01*
X117796202Y-69137419D01*
X117796199Y-69137424D01*
X117672350Y-69378309D01*
X117672343Y-69378327D01*
X117584884Y-69634685D01*
X117584881Y-69634699D01*
X117535681Y-69901068D01*
X117535680Y-69901075D01*
X117525787Y-70171763D01*
X111718425Y-70171763D01*
X111711493Y-70148156D01*
X111685686Y-70108000D01*
X112582636Y-70108000D01*
X112582635Y-70107999D01*
X112525432Y-69894513D01*
X112525429Y-69894507D01*
X112425600Y-69680422D01*
X112425599Y-69680420D01*
X112290113Y-69486926D01*
X112290108Y-69486920D01*
X112123082Y-69319894D01*
X111929578Y-69184399D01*
X111715492Y-69084570D01*
X111715486Y-69084567D01*
X111502000Y-69027364D01*
X111502000Y-69922498D01*
X111394315Y-69873320D01*
X111287763Y-69858000D01*
X111216237Y-69858000D01*
X111109685Y-69873320D01*
X111002000Y-69922498D01*
X111002000Y-69027364D01*
X111001999Y-69027364D01*
X110788513Y-69084567D01*
X110788507Y-69084570D01*
X110574422Y-69184399D01*
X110574420Y-69184400D01*
X110380926Y-69319886D01*
X110380920Y-69319891D01*
X110213891Y-69486920D01*
X110213886Y-69486926D01*
X110078400Y-69680420D01*
X110078399Y-69680422D01*
X109978570Y-69894507D01*
X109978567Y-69894513D01*
X109921364Y-70107999D01*
X109921364Y-70108000D01*
X110818314Y-70108000D01*
X110792507Y-70148156D01*
X110752000Y-70286111D01*
X110752000Y-70429889D01*
X110792507Y-70567844D01*
X110818314Y-70608000D01*
X109921364Y-70608000D01*
X109978567Y-70821486D01*
X109978570Y-70821492D01*
X110078399Y-71035578D01*
X110213894Y-71229082D01*
X110335946Y-71351134D01*
X110369431Y-71412457D01*
X110364447Y-71482149D01*
X110322575Y-71538082D01*
X110291598Y-71554997D01*
X110159671Y-71604202D01*
X110159664Y-71604206D01*
X110044455Y-71690452D01*
X110044452Y-71690455D01*
X109958206Y-71805664D01*
X109958202Y-71805671D01*
X109907908Y-71940517D01*
X109901501Y-72000116D01*
X109901501Y-72000123D01*
X109901500Y-72000135D01*
X109901500Y-73795870D01*
X109901501Y-73795876D01*
X109907908Y-73855483D01*
X109958202Y-73990328D01*
X109958206Y-73990335D01*
X110044452Y-74105544D01*
X110044455Y-74105547D01*
X110159664Y-74191793D01*
X110159671Y-74191797D01*
X110294517Y-74242091D01*
X110294516Y-74242091D01*
X110301444Y-74242835D01*
X110354127Y-74248500D01*
X111139500Y-74248499D01*
X111206539Y-74268183D01*
X111252294Y-74320987D01*
X111263500Y-74372499D01*
X111263500Y-75221770D01*
X111243815Y-75288809D01*
X111227181Y-75309451D01*
X111176289Y-75360342D01*
X111084187Y-75509663D01*
X111084185Y-75509668D01*
X111080804Y-75519872D01*
X111029001Y-75676203D01*
X111029001Y-75676204D01*
X111029000Y-75676204D01*
X111018500Y-75778983D01*
X111018500Y-76507770D01*
X110998815Y-76574809D01*
X110946011Y-76620564D01*
X110876853Y-76630508D01*
X110813297Y-76601483D01*
X110806819Y-76595451D01*
X110505818Y-76294450D01*
X110472333Y-76233127D01*
X110469499Y-76206769D01*
X110469499Y-75778998D01*
X110469498Y-75778981D01*
X110458999Y-75676203D01*
X110458998Y-75676200D01*
X110457903Y-75672897D01*
X110403814Y-75509666D01*
X110311712Y-75360344D01*
X110187656Y-75236288D01*
X110054138Y-75153934D01*
X110038336Y-75144187D01*
X110038331Y-75144185D01*
X110031773Y-75142012D01*
X109871797Y-75089001D01*
X109871795Y-75089000D01*
X109769010Y-75078500D01*
X108918998Y-75078500D01*
X108918980Y-75078501D01*
X108816203Y-75089000D01*
X108816200Y-75089001D01*
X108649668Y-75144185D01*
X108649663Y-75144187D01*
X108500342Y-75236289D01*
X108376288Y-75360343D01*
X108376285Y-75360347D01*
X108329748Y-75435796D01*
X108277800Y-75482521D01*
X108208838Y-75493742D01*
X108144756Y-75465899D01*
X108118671Y-75435796D01*
X108088263Y-75386497D01*
X108056712Y-75335344D01*
X107932656Y-75211288D01*
X107820341Y-75142012D01*
X107783336Y-75119187D01*
X107783331Y-75119185D01*
X107748744Y-75107724D01*
X107616797Y-75064001D01*
X107616795Y-75064000D01*
X107514010Y-75053500D01*
X106763998Y-75053500D01*
X106763980Y-75053501D01*
X106661203Y-75064000D01*
X106661200Y-75064001D01*
X106494668Y-75119185D01*
X106494663Y-75119187D01*
X106345342Y-75211289D01*
X106221289Y-75335342D01*
X106129187Y-75484663D01*
X106129185Y-75484668D01*
X106117520Y-75519872D01*
X106074001Y-75651203D01*
X106074001Y-75651204D01*
X106074000Y-75651204D01*
X106063500Y-75753983D01*
X106063500Y-77154001D01*
X106063501Y-77154018D01*
X106074000Y-77256796D01*
X106074001Y-77256799D01*
X106129185Y-77423331D01*
X106129187Y-77423336D01*
X106155502Y-77466000D01*
X106221288Y-77572656D01*
X106345344Y-77696712D01*
X106494666Y-77788814D01*
X106661203Y-77843999D01*
X106763991Y-77854500D01*
X107514008Y-77854499D01*
X107514016Y-77854498D01*
X107514019Y-77854498D01*
X107570302Y-77848748D01*
X107616797Y-77843999D01*
X107783334Y-77788814D01*
X107932656Y-77696712D01*
X108056712Y-77572656D01*
X108118672Y-77472203D01*
X108170619Y-77425479D01*
X108239581Y-77414256D01*
X108303664Y-77442100D01*
X108329747Y-77472200D01*
X108376288Y-77547656D01*
X108376289Y-77547657D01*
X108464951Y-77636319D01*
X108498436Y-77697642D01*
X108493452Y-77767334D01*
X108464951Y-77811681D01*
X108376289Y-77900342D01*
X108284187Y-78049663D01*
X108284185Y-78049668D01*
X108275843Y-78074842D01*
X108229001Y-78216203D01*
X108229001Y-78216204D01*
X108229000Y-78216204D01*
X108218500Y-78318983D01*
X108218500Y-79006769D01*
X108198815Y-79073808D01*
X108182181Y-79094450D01*
X107226449Y-80050181D01*
X107165126Y-80083666D01*
X107138768Y-80086500D01*
X106794998Y-80086500D01*
X106794980Y-80086501D01*
X106692203Y-80097000D01*
X106692200Y-80097001D01*
X106525668Y-80152185D01*
X106525663Y-80152187D01*
X106376342Y-80244289D01*
X106252289Y-80368342D01*
X106160187Y-80517663D01*
X106160185Y-80517668D01*
X106147199Y-80556858D01*
X106105001Y-80684203D01*
X106105001Y-80684204D01*
X106105000Y-80684204D01*
X106094500Y-80786983D01*
X106094500Y-80786991D01*
X106094500Y-81239166D01*
X106094501Y-81577500D01*
X106074817Y-81644539D01*
X106022013Y-81690294D01*
X105970501Y-81701500D01*
X105730868Y-81701500D01*
X105663829Y-81681815D01*
X105642653Y-81662616D01*
X105641819Y-81663451D01*
X105512657Y-81534289D01*
X105512656Y-81534288D01*
X105419888Y-81477069D01*
X105363336Y-81442187D01*
X105363331Y-81442185D01*
X105324836Y-81429429D01*
X105196797Y-81387001D01*
X105196795Y-81387000D01*
X105094010Y-81376500D01*
X103693998Y-81376500D01*
X103693981Y-81376501D01*
X103591203Y-81387000D01*
X103591200Y-81387001D01*
X103424668Y-81442185D01*
X103424659Y-81442189D01*
X103295939Y-81521584D01*
X103228546Y-81540024D01*
X103161883Y-81519101D01*
X103129267Y-81487167D01*
X103111186Y-81461344D01*
X103108047Y-81456861D01*
X103108046Y-81456860D01*
X103108044Y-81456857D01*
X102947141Y-81295954D01*
X102760734Y-81165432D01*
X102760728Y-81165429D01*
X102733038Y-81152517D01*
X102702724Y-81138381D01*
X102650285Y-81092210D01*
X102631133Y-81025017D01*
X102651348Y-80958135D01*
X102702725Y-80913618D01*
X102760734Y-80886568D01*
X102947139Y-80756047D01*
X103108047Y-80595139D01*
X103177478Y-80495979D01*
X103232054Y-80452355D01*
X103301552Y-80445161D01*
X103344150Y-80461564D01*
X103424875Y-80511356D01*
X103424880Y-80511358D01*
X103591302Y-80566505D01*
X103591309Y-80566506D01*
X103694019Y-80576999D01*
X104143999Y-80576999D01*
X104144000Y-80576998D01*
X104144000Y-79752000D01*
X104644000Y-79752000D01*
X104644000Y-80576999D01*
X105093972Y-80576999D01*
X105093986Y-80576998D01*
X105196697Y-80566505D01*
X105363119Y-80511358D01*
X105363124Y-80511356D01*
X105512345Y-80419315D01*
X105636315Y-80295345D01*
X105728356Y-80146124D01*
X105728358Y-80146119D01*
X105783505Y-79979697D01*
X105783506Y-79979690D01*
X105793999Y-79876986D01*
X105794000Y-79876973D01*
X105794000Y-79752000D01*
X104644000Y-79752000D01*
X104144000Y-79752000D01*
X104144000Y-78427000D01*
X104644000Y-78427000D01*
X104644000Y-79252000D01*
X105793999Y-79252000D01*
X105793999Y-79127028D01*
X105793998Y-79127013D01*
X105783505Y-79024302D01*
X105728358Y-78857880D01*
X105728356Y-78857875D01*
X105636315Y-78708654D01*
X105512345Y-78584684D01*
X105363124Y-78492643D01*
X105363119Y-78492641D01*
X105196697Y-78437494D01*
X105196690Y-78437493D01*
X105093986Y-78427000D01*
X104644000Y-78427000D01*
X104144000Y-78427000D01*
X103694028Y-78427000D01*
X103694012Y-78427001D01*
X103591302Y-78437494D01*
X103424880Y-78492641D01*
X103424875Y-78492643D01*
X103275654Y-78584684D01*
X103151683Y-78708655D01*
X103137933Y-78730947D01*
X103085984Y-78777670D01*
X103017021Y-78788890D01*
X102952939Y-78761045D01*
X102949917Y-78758282D01*
X102947144Y-78755956D01*
X102760734Y-78625432D01*
X102760728Y-78625429D01*
X102733038Y-78612517D01*
X102702724Y-78598381D01*
X102650285Y-78552210D01*
X102631133Y-78485017D01*
X102651348Y-78418135D01*
X102702725Y-78373618D01*
X102760734Y-78346568D01*
X102947139Y-78216047D01*
X103108047Y-78055139D01*
X103238568Y-77868734D01*
X103277212Y-77785861D01*
X103323383Y-77733424D01*
X103390577Y-77714272D01*
X103454690Y-77732729D01*
X103544875Y-77788356D01*
X103544880Y-77788358D01*
X103711302Y-77843505D01*
X103711309Y-77843506D01*
X103814019Y-77853999D01*
X103938999Y-77853999D01*
X103939000Y-77853998D01*
X103939000Y-76704000D01*
X104439000Y-76704000D01*
X104439000Y-77853999D01*
X104563972Y-77853999D01*
X104563986Y-77853998D01*
X104666697Y-77843505D01*
X104833119Y-77788358D01*
X104833124Y-77788356D01*
X104982345Y-77696315D01*
X105106315Y-77572345D01*
X105198356Y-77423124D01*
X105198358Y-77423119D01*
X105253505Y-77256697D01*
X105253506Y-77256690D01*
X105263999Y-77153986D01*
X105264000Y-77153973D01*
X105264000Y-76704000D01*
X104439000Y-76704000D01*
X103939000Y-76704000D01*
X103939000Y-75054000D01*
X104439000Y-75054000D01*
X104439000Y-76204000D01*
X105263999Y-76204000D01*
X105263999Y-75754028D01*
X105263998Y-75754013D01*
X105253505Y-75651302D01*
X105198358Y-75484880D01*
X105198356Y-75484875D01*
X105106315Y-75335654D01*
X104982345Y-75211684D01*
X104833124Y-75119643D01*
X104833119Y-75119641D01*
X104666697Y-75064494D01*
X104666690Y-75064493D01*
X104563986Y-75054000D01*
X104439000Y-75054000D01*
X103939000Y-75054000D01*
X103814027Y-75054000D01*
X103814012Y-75054001D01*
X103711302Y-75064494D01*
X103538023Y-75121914D01*
X103537522Y-75120403D01*
X103476925Y-75129599D01*
X103413145Y-75101070D01*
X103374914Y-75042588D01*
X103373840Y-74974633D01*
X103386872Y-74926000D01*
X102423686Y-74926000D01*
X102435641Y-74914045D01*
X102493165Y-74801148D01*
X102512986Y-74676000D01*
X102493165Y-74550852D01*
X102435641Y-74437955D01*
X102423686Y-74426000D01*
X103386872Y-74426000D01*
X103386872Y-74425999D01*
X103334269Y-74229682D01*
X103334265Y-74229673D01*
X103238134Y-74023517D01*
X103107657Y-73837179D01*
X102946820Y-73676342D01*
X102760482Y-73545865D01*
X102554328Y-73449734D01*
X102358000Y-73397127D01*
X102358000Y-74360314D01*
X102346045Y-74348359D01*
X102233148Y-74290835D01*
X102139481Y-74276000D01*
X102076519Y-74276000D01*
X101982852Y-74290835D01*
X101869955Y-74348359D01*
X101858000Y-74360314D01*
X101858000Y-73397127D01*
X101661671Y-73449734D01*
X101455517Y-73545865D01*
X101269179Y-73676342D01*
X101108342Y-73837179D01*
X100977865Y-74023517D01*
X100881734Y-74229673D01*
X100881730Y-74229682D01*
X100829127Y-74425999D01*
X100829128Y-74426000D01*
X101792314Y-74426000D01*
X101780359Y-74437955D01*
X101722835Y-74550852D01*
X101703014Y-74676000D01*
X101722835Y-74801148D01*
X101780359Y-74914045D01*
X101792314Y-74926000D01*
X100829128Y-74926000D01*
X100881730Y-75122317D01*
X100881734Y-75122326D01*
X100977865Y-75328482D01*
X101108342Y-75514820D01*
X101269179Y-75675657D01*
X101455518Y-75806134D01*
X101455520Y-75806135D01*
X101513865Y-75833342D01*
X101566305Y-75879514D01*
X101585457Y-75946707D01*
X101565242Y-76013589D01*
X101513867Y-76058105D01*
X101455268Y-76085431D01*
X101455264Y-76085433D01*
X101268858Y-76215954D01*
X101107954Y-76376858D01*
X101034859Y-76481251D01*
X100980283Y-76524876D01*
X100910784Y-76532070D01*
X100848429Y-76500548D01*
X100815450Y-76444460D01*
X100814636Y-76444731D01*
X100813378Y-76440936D01*
X100813015Y-76440318D01*
X100812642Y-76438713D01*
X100757358Y-76271880D01*
X100757356Y-76271875D01*
X100665315Y-76122654D01*
X100541345Y-75998684D01*
X100392124Y-75906643D01*
X100392119Y-75906641D01*
X100225697Y-75851494D01*
X100225690Y-75851493D01*
X100122986Y-75841000D01*
X100010500Y-75841000D01*
X100010500Y-77342000D01*
X99990815Y-77409039D01*
X99938011Y-77454794D01*
X99886500Y-77466000D01*
X98698001Y-77466000D01*
X98698001Y-77890986D01*
X98708494Y-77993697D01*
X98763641Y-78160119D01*
X98763643Y-78160124D01*
X98855684Y-78309345D01*
X98944304Y-78397965D01*
X98977789Y-78459288D01*
X98972805Y-78528980D01*
X98944305Y-78573327D01*
X98855287Y-78662345D01*
X98763187Y-78811663D01*
X98763185Y-78811668D01*
X98737418Y-78889429D01*
X98708001Y-78978203D01*
X98708001Y-78978204D01*
X98708000Y-78978204D01*
X98697500Y-79080983D01*
X98697500Y-80431001D01*
X98697501Y-80431018D01*
X98708000Y-80533796D01*
X98708001Y-80533799D01*
X98763185Y-80700331D01*
X98763187Y-80700336D01*
X98789667Y-80743267D01*
X98855096Y-80849345D01*
X98855289Y-80849657D01*
X98946804Y-80941172D01*
X98980289Y-81002495D01*
X98975305Y-81072187D01*
X98946805Y-81116534D01*
X98865682Y-81197657D01*
X98773643Y-81346875D01*
X98773641Y-81346880D01*
X98718494Y-81513302D01*
X98718493Y-81513309D01*
X98708000Y-81616013D01*
X98708000Y-82041000D01*
X99896500Y-82041000D01*
X99963539Y-82060685D01*
X100009294Y-82113489D01*
X100020500Y-82165000D01*
X100020500Y-82417000D01*
X100000815Y-82484039D01*
X99948011Y-82529794D01*
X99896500Y-82541000D01*
X98708001Y-82541000D01*
X98708001Y-82965986D01*
X98718494Y-83068697D01*
X98773641Y-83235119D01*
X98773643Y-83235124D01*
X98865684Y-83384345D01*
X98951804Y-83470465D01*
X98985289Y-83531788D01*
X98980305Y-83601480D01*
X98951805Y-83645827D01*
X98855287Y-83742345D01*
X98763187Y-83891663D01*
X98763185Y-83891668D01*
X98739119Y-83964295D01*
X98708001Y-84058203D01*
X98708001Y-84058204D01*
X98708000Y-84058204D01*
X98697500Y-84160983D01*
X98697500Y-85511001D01*
X98697501Y-85511018D01*
X98708000Y-85613796D01*
X98708001Y-85613799D01*
X98763185Y-85780331D01*
X98763187Y-85780336D01*
X98786248Y-85817724D01*
X98855288Y-85929656D01*
X98979344Y-86053712D01*
X99128666Y-86145814D01*
X99295203Y-86200999D01*
X99397991Y-86211500D01*
X100123008Y-86211499D01*
X100123016Y-86211498D01*
X100123019Y-86211498D01*
X100179302Y-86205748D01*
X100225797Y-86200999D01*
X100392334Y-86145814D01*
X100541656Y-86053712D01*
X100665712Y-85929656D01*
X100757814Y-85780334D01*
X100793879Y-85671494D01*
X100833652Y-85614051D01*
X100898167Y-85587228D01*
X100911585Y-85586500D01*
X100981337Y-85586500D01*
X101048376Y-85606185D01*
X101082912Y-85639377D01*
X101107954Y-85675141D01*
X101268858Y-85836045D01*
X101268861Y-85836047D01*
X101455266Y-85966568D01*
X101513275Y-85993618D01*
X101565714Y-86039791D01*
X101584866Y-86106984D01*
X101564650Y-86173865D01*
X101513275Y-86218381D01*
X101496272Y-86226310D01*
X101455267Y-86245431D01*
X101455265Y-86245432D01*
X101268858Y-86375954D01*
X101107954Y-86536858D01*
X100977432Y-86723265D01*
X100977431Y-86723267D01*
X100881261Y-86929502D01*
X100881258Y-86929511D01*
X100822366Y-87149302D01*
X100822364Y-87149313D01*
X100802532Y-87375998D01*
X100802532Y-87376001D01*
X100822364Y-87602686D01*
X100822366Y-87602697D01*
X100881258Y-87822488D01*
X100881261Y-87822497D01*
X100977431Y-88028732D01*
X100977432Y-88028734D01*
X101107954Y-88215141D01*
X101268858Y-88376045D01*
X101293462Y-88393273D01*
X101337087Y-88447849D01*
X101344281Y-88517348D01*
X101312758Y-88579703D01*
X101252529Y-88615117D01*
X101235593Y-88618138D01*
X101200516Y-88621908D01*
X101065671Y-88672202D01*
X101065664Y-88672206D01*
X100950455Y-88758452D01*
X100881905Y-88850023D01*
X100825971Y-88891893D01*
X100756279Y-88896877D01*
X100694957Y-88863391D01*
X100677100Y-88840807D01*
X100665712Y-88822344D01*
X100541657Y-88698289D01*
X100541656Y-88698288D01*
X100445614Y-88639049D01*
X100392336Y-88606187D01*
X100392331Y-88606185D01*
X100372833Y-88599724D01*
X100225797Y-88551001D01*
X100225795Y-88551000D01*
X100123010Y-88540500D01*
X99397998Y-88540500D01*
X99397980Y-88540501D01*
X99295203Y-88551000D01*
X99295200Y-88551001D01*
X99128668Y-88606185D01*
X99128663Y-88606187D01*
X98979342Y-88698289D01*
X98855289Y-88822342D01*
X98763187Y-88971663D01*
X98763185Y-88971668D01*
X98740730Y-89039433D01*
X98708001Y-89138203D01*
X98708001Y-89138204D01*
X98708000Y-89138204D01*
X98697500Y-89240983D01*
X98697500Y-90591001D01*
X98697501Y-90591018D01*
X98708000Y-90693796D01*
X98708001Y-90693799D01*
X98763185Y-90860331D01*
X98763187Y-90860336D01*
X98795387Y-90912540D01*
X98855288Y-91009656D01*
X98979344Y-91133712D01*
X98979351Y-91133716D01*
X98983710Y-91137163D01*
X99024088Y-91194184D01*
X99027229Y-91263983D01*
X98992136Y-91324400D01*
X98945808Y-91352137D01*
X98874883Y-91375640D01*
X98874875Y-91375643D01*
X98725654Y-91467684D01*
X98601684Y-91591654D01*
X98509643Y-91740875D01*
X98509641Y-91740880D01*
X98454494Y-91907302D01*
X98454493Y-91907309D01*
X98444000Y-92010013D01*
X98444000Y-92460000D01*
X100593999Y-92460000D01*
X100593999Y-92010023D01*
X100593998Y-92010013D01*
X100583505Y-91907302D01*
X100528358Y-91740880D01*
X100528356Y-91740875D01*
X100436315Y-91591654D01*
X100312342Y-91467681D01*
X100311529Y-91467180D01*
X100311088Y-91466690D01*
X100306677Y-91463202D01*
X100307273Y-91462447D01*
X100264808Y-91415228D01*
X100253592Y-91346265D01*
X100281440Y-91282185D01*
X100337628Y-91243941D01*
X100392334Y-91225814D01*
X100541656Y-91133712D01*
X100665712Y-91009656D01*
X100677099Y-90991193D01*
X100729046Y-90944468D01*
X100798008Y-90933244D01*
X100862091Y-90961086D01*
X100881903Y-90981974D01*
X100950454Y-91073546D01*
X100972032Y-91089699D01*
X101065664Y-91159793D01*
X101065671Y-91159797D01*
X101200517Y-91210091D01*
X101200516Y-91210091D01*
X101207444Y-91210835D01*
X101260127Y-91216500D01*
X102955872Y-91216499D01*
X103015483Y-91210091D01*
X103150331Y-91159796D01*
X103265546Y-91073546D01*
X103351796Y-90958331D01*
X103402091Y-90823483D01*
X103402091Y-90823482D01*
X103403318Y-90820193D01*
X103445189Y-90764259D01*
X103510653Y-90739842D01*
X103578926Y-90754693D01*
X103628332Y-90804098D01*
X103643500Y-90863526D01*
X103643500Y-93109769D01*
X103623815Y-93176808D01*
X103607181Y-93197451D01*
X103418483Y-93386147D01*
X103405797Y-93396483D01*
X103405835Y-93396528D01*
X103400310Y-93401164D01*
X103400304Y-93401169D01*
X103400304Y-93401170D01*
X103347614Y-93457017D01*
X102966132Y-93838500D01*
X102595451Y-94209181D01*
X102534128Y-94242666D01*
X102507770Y-94245500D01*
X100274257Y-94245500D01*
X100207218Y-94225815D01*
X100161463Y-94173011D01*
X100151519Y-94103853D01*
X100180544Y-94040297D01*
X100209160Y-94015961D01*
X100312345Y-93952315D01*
X100436315Y-93828345D01*
X100528356Y-93679124D01*
X100528358Y-93679119D01*
X100583505Y-93512697D01*
X100583506Y-93512690D01*
X100593999Y-93409986D01*
X100594000Y-93409973D01*
X100594000Y-92960000D01*
X98444001Y-92960000D01*
X98444001Y-93409986D01*
X98454494Y-93512697D01*
X98509641Y-93679119D01*
X98509643Y-93679124D01*
X98601684Y-93828345D01*
X98725654Y-93952315D01*
X98828840Y-94015961D01*
X98875564Y-94067909D01*
X98886787Y-94136872D01*
X98858943Y-94200954D01*
X98800874Y-94239810D01*
X98763743Y-94245500D01*
X97325209Y-94245500D01*
X97258170Y-94225815D01*
X97212415Y-94173011D01*
X97202471Y-94103853D01*
X97231496Y-94040297D01*
X97260112Y-94015961D01*
X97362656Y-93952712D01*
X97486712Y-93828656D01*
X97578814Y-93679334D01*
X97633999Y-93512797D01*
X97644500Y-93410009D01*
X97644499Y-92009992D01*
X97642933Y-91994666D01*
X97633999Y-91907203D01*
X97633998Y-91907200D01*
X97626041Y-91883187D01*
X97578814Y-91740666D01*
X97486712Y-91591344D01*
X97362656Y-91467288D01*
X97362652Y-91467285D01*
X97358288Y-91463835D01*
X97317910Y-91406814D01*
X97314770Y-91337015D01*
X97349864Y-91276598D01*
X97396193Y-91248861D01*
X97467119Y-91225358D01*
X97467124Y-91225356D01*
X97616345Y-91133315D01*
X97740315Y-91009345D01*
X97832356Y-90860124D01*
X97832358Y-90860119D01*
X97887505Y-90693697D01*
X97887506Y-90693690D01*
X97897999Y-90590986D01*
X97898000Y-90590973D01*
X97898000Y-90166000D01*
X96709500Y-90166000D01*
X96642461Y-90146315D01*
X96596706Y-90093511D01*
X96585500Y-90042000D01*
X96585500Y-88541000D01*
X97085500Y-88541000D01*
X97085500Y-89666000D01*
X97897999Y-89666000D01*
X97897999Y-89241028D01*
X97897998Y-89241013D01*
X97887505Y-89138302D01*
X97832358Y-88971880D01*
X97832356Y-88971875D01*
X97740315Y-88822654D01*
X97616345Y-88698684D01*
X97467124Y-88606643D01*
X97467119Y-88606641D01*
X97300697Y-88551494D01*
X97300690Y-88551493D01*
X97197986Y-88541000D01*
X97085500Y-88541000D01*
X96585500Y-88541000D01*
X96473027Y-88541000D01*
X96473012Y-88541001D01*
X96370302Y-88551494D01*
X96203880Y-88606641D01*
X96203875Y-88606643D01*
X96054654Y-88698684D01*
X95930684Y-88822654D01*
X95838643Y-88971875D01*
X95838641Y-88971880D01*
X95781365Y-89144730D01*
X95779605Y-89144146D01*
X95750675Y-89197531D01*
X95689458Y-89231210D01*
X95619751Y-89226446D01*
X95563685Y-89184753D01*
X95561141Y-89181251D01*
X95488045Y-89076858D01*
X95327141Y-88915954D01*
X95140734Y-88785432D01*
X95140728Y-88785429D01*
X95110531Y-88771348D01*
X95082724Y-88758381D01*
X95030285Y-88712210D01*
X95011133Y-88645017D01*
X95031348Y-88578135D01*
X95082725Y-88533618D01*
X95087220Y-88531522D01*
X95140734Y-88506568D01*
X95327139Y-88376047D01*
X95488047Y-88215139D01*
X95618568Y-88028734D01*
X95714739Y-87822496D01*
X95773635Y-87602692D01*
X95793468Y-87376000D01*
X95773635Y-87149308D01*
X95721570Y-86954998D01*
X95714741Y-86929511D01*
X95714738Y-86929502D01*
X95709043Y-86917289D01*
X95618568Y-86723266D01*
X95488047Y-86536861D01*
X95488045Y-86536858D01*
X95327141Y-86375954D01*
X95140734Y-86245432D01*
X95140728Y-86245429D01*
X95113038Y-86232517D01*
X95082724Y-86218381D01*
X95030285Y-86172210D01*
X95011133Y-86105017D01*
X95031348Y-86038135D01*
X95082725Y-85993618D01*
X95140734Y-85966568D01*
X95327139Y-85836047D01*
X95488047Y-85675139D01*
X95561143Y-85570745D01*
X95615715Y-85527123D01*
X95685213Y-85519929D01*
X95747569Y-85551451D01*
X95780548Y-85607539D01*
X95781364Y-85607269D01*
X95782622Y-85611066D01*
X95782983Y-85611680D01*
X95783353Y-85613273D01*
X95838641Y-85780119D01*
X95838643Y-85780124D01*
X95930684Y-85929345D01*
X96054654Y-86053315D01*
X96203875Y-86145356D01*
X96203880Y-86145358D01*
X96370302Y-86200505D01*
X96370309Y-86200506D01*
X96473019Y-86210999D01*
X96585499Y-86210999D01*
X96585500Y-86210998D01*
X96585500Y-85086000D01*
X97085500Y-85086000D01*
X97085500Y-86210999D01*
X97197972Y-86210999D01*
X97197986Y-86210998D01*
X97300697Y-86200505D01*
X97467119Y-86145358D01*
X97467124Y-86145356D01*
X97616345Y-86053315D01*
X97740315Y-85929345D01*
X97832356Y-85780124D01*
X97832358Y-85780119D01*
X97887505Y-85613697D01*
X97887506Y-85613690D01*
X97897999Y-85510986D01*
X97898000Y-85510973D01*
X97898000Y-85086000D01*
X97085500Y-85086000D01*
X96585500Y-85086000D01*
X96585500Y-84710000D01*
X96605185Y-84642961D01*
X96657989Y-84597206D01*
X96709500Y-84586000D01*
X97897999Y-84586000D01*
X97897999Y-84161028D01*
X97897998Y-84161013D01*
X97887505Y-84058302D01*
X97832358Y-83891880D01*
X97832356Y-83891875D01*
X97740315Y-83742654D01*
X97654195Y-83656534D01*
X97620710Y-83595211D01*
X97625694Y-83525519D01*
X97654191Y-83481176D01*
X97750712Y-83384656D01*
X97842814Y-83235334D01*
X97897999Y-83068797D01*
X97908500Y-82966009D01*
X97908499Y-81615992D01*
X97897999Y-81513203D01*
X97842814Y-81346666D01*
X97750712Y-81197344D01*
X97659195Y-81105827D01*
X97625710Y-81044504D01*
X97630694Y-80974812D01*
X97659195Y-80930464D01*
X97740317Y-80849342D01*
X97832356Y-80700124D01*
X97832358Y-80700119D01*
X97887505Y-80533697D01*
X97887506Y-80533690D01*
X97897999Y-80430986D01*
X97898000Y-80430973D01*
X97898000Y-80006000D01*
X96709500Y-80006000D01*
X96642461Y-79986315D01*
X96596706Y-79933511D01*
X96585500Y-79882000D01*
X96585500Y-79630000D01*
X96605185Y-79562961D01*
X96657989Y-79517206D01*
X96709500Y-79506000D01*
X97897999Y-79506000D01*
X97897999Y-79081028D01*
X97897998Y-79081013D01*
X97887505Y-78978302D01*
X97832358Y-78811880D01*
X97832356Y-78811875D01*
X97740315Y-78662654D01*
X97651695Y-78574034D01*
X97618210Y-78512711D01*
X97623194Y-78443019D01*
X97651691Y-78398676D01*
X97740712Y-78309656D01*
X97832814Y-78160334D01*
X97887999Y-77993797D01*
X97898500Y-77891009D01*
X97898499Y-76966000D01*
X98698000Y-76966000D01*
X99510500Y-76966000D01*
X99510500Y-75841000D01*
X99398027Y-75841000D01*
X99398012Y-75841001D01*
X99295302Y-75851494D01*
X99128880Y-75906641D01*
X99128875Y-75906643D01*
X98979654Y-75998684D01*
X98855684Y-76122654D01*
X98763643Y-76271875D01*
X98763641Y-76271880D01*
X98708494Y-76438302D01*
X98708493Y-76438309D01*
X98698000Y-76541013D01*
X98698000Y-76966000D01*
X97898499Y-76966000D01*
X97898499Y-76540992D01*
X97887999Y-76438203D01*
X97832814Y-76271666D01*
X97740712Y-76122344D01*
X97616656Y-75998288D01*
X97467334Y-75906186D01*
X97300797Y-75851001D01*
X97300795Y-75851000D01*
X97198010Y-75840500D01*
X96472998Y-75840500D01*
X96472980Y-75840501D01*
X96370203Y-75851000D01*
X96370200Y-75851001D01*
X96203668Y-75906185D01*
X96203663Y-75906187D01*
X96054342Y-75998289D01*
X95930289Y-76122342D01*
X95838187Y-76271663D01*
X95838185Y-76271668D01*
X95802121Y-76380504D01*
X95762348Y-76437949D01*
X95697833Y-76464772D01*
X95684415Y-76465500D01*
X95614663Y-76465500D01*
X95547624Y-76445815D01*
X95513088Y-76412623D01*
X95488045Y-76376858D01*
X95327141Y-76215954D01*
X95140734Y-76085432D01*
X95140728Y-76085429D01*
X95113038Y-76072517D01*
X95082724Y-76058381D01*
X95030285Y-76012210D01*
X95011133Y-75945017D01*
X95031348Y-75878135D01*
X95082725Y-75833618D01*
X95083319Y-75833341D01*
X95140734Y-75806568D01*
X95327139Y-75676047D01*
X95488047Y-75515139D01*
X95618568Y-75328734D01*
X95714739Y-75122496D01*
X95773635Y-74902692D01*
X95790719Y-74707417D01*
X95793468Y-74676001D01*
X95793468Y-74675998D01*
X95782519Y-74550852D01*
X95773635Y-74449308D01*
X95714739Y-74229504D01*
X95618568Y-74023266D01*
X95488047Y-73836861D01*
X95488045Y-73836858D01*
X95327141Y-73675954D01*
X95140734Y-73545432D01*
X95140732Y-73545431D01*
X94934497Y-73449261D01*
X94934488Y-73449258D01*
X94714697Y-73390366D01*
X94714693Y-73390365D01*
X94714692Y-73390365D01*
X94714691Y-73390364D01*
X94714686Y-73390364D01*
X94488002Y-73370532D01*
X94487998Y-73370532D01*
X94261313Y-73390364D01*
X94261302Y-73390366D01*
X94041511Y-73449258D01*
X94041502Y-73449261D01*
X93835267Y-73545431D01*
X93835265Y-73545432D01*
X93648858Y-73675954D01*
X93487954Y-73836858D01*
X93357432Y-74023265D01*
X93357431Y-74023267D01*
X93261261Y-74229502D01*
X93261258Y-74229511D01*
X93202366Y-74449302D01*
X93202364Y-74449313D01*
X93182532Y-74675998D01*
X93182532Y-74676001D01*
X93202364Y-74902686D01*
X93202366Y-74902697D01*
X93261258Y-75122488D01*
X93261261Y-75122497D01*
X93357431Y-75328732D01*
X93357432Y-75328734D01*
X93487954Y-75515141D01*
X93648858Y-75676045D01*
X93649084Y-75676203D01*
X93835266Y-75806568D01*
X93892681Y-75833341D01*
X93893275Y-75833618D01*
X93945714Y-75879791D01*
X93964866Y-75946984D01*
X93944650Y-76013865D01*
X93893275Y-76058381D01*
X93888589Y-76060567D01*
X93835267Y-76085431D01*
X93835265Y-76085432D01*
X93648858Y-76215954D01*
X93487954Y-76376858D01*
X93357432Y-76563265D01*
X93357431Y-76563267D01*
X93261261Y-76769502D01*
X93261258Y-76769511D01*
X93202366Y-76989302D01*
X93202364Y-76989313D01*
X93182532Y-77215998D01*
X93182532Y-77216001D01*
X93202364Y-77442686D01*
X93202366Y-77442697D01*
X93261258Y-77662488D01*
X93261261Y-77662497D01*
X93357431Y-77868732D01*
X93357432Y-77868734D01*
X93487954Y-78055141D01*
X93648858Y-78216045D01*
X93659268Y-78223334D01*
X93835266Y-78346568D01*
X93893275Y-78373618D01*
X93945714Y-78419791D01*
X93964866Y-78486984D01*
X93944650Y-78553865D01*
X93893275Y-78598381D01*
X93876272Y-78606310D01*
X93835267Y-78625431D01*
X93835265Y-78625432D01*
X93648858Y-78755954D01*
X93487954Y-78916858D01*
X93357432Y-79103265D01*
X93357431Y-79103267D01*
X93261261Y-79309502D01*
X93261258Y-79309511D01*
X93202366Y-79529302D01*
X93202364Y-79529313D01*
X93182532Y-79755998D01*
X93182532Y-79756001D01*
X93202364Y-79982686D01*
X93202366Y-79982697D01*
X93261258Y-80202488D01*
X93261261Y-80202497D01*
X93357431Y-80408732D01*
X93357432Y-80408734D01*
X93487954Y-80595141D01*
X93648858Y-80756045D01*
X93656260Y-80761228D01*
X93835266Y-80886568D01*
X93893275Y-80913618D01*
X93945714Y-80959791D01*
X93964866Y-81026984D01*
X93944650Y-81093865D01*
X93893275Y-81138381D01*
X93876272Y-81146310D01*
X93835267Y-81165431D01*
X93835265Y-81165432D01*
X93648858Y-81295954D01*
X93487954Y-81456858D01*
X93357432Y-81643265D01*
X93357431Y-81643267D01*
X93261261Y-81849502D01*
X93261258Y-81849511D01*
X93202366Y-82069302D01*
X93202364Y-82069313D01*
X93182532Y-82295998D01*
X93182532Y-82296001D01*
X93202364Y-82522686D01*
X93202366Y-82522697D01*
X93261258Y-82742488D01*
X93261261Y-82742497D01*
X93357431Y-82948732D01*
X93357432Y-82948734D01*
X93487954Y-83135141D01*
X93648858Y-83296045D01*
X93648861Y-83296047D01*
X93835266Y-83426568D01*
X93884815Y-83449673D01*
X93893275Y-83453618D01*
X93945714Y-83499791D01*
X93964866Y-83566984D01*
X93944650Y-83633865D01*
X93893275Y-83678381D01*
X93876272Y-83686310D01*
X93835267Y-83705431D01*
X93835265Y-83705432D01*
X93648858Y-83835954D01*
X93487954Y-83996858D01*
X93462912Y-84032623D01*
X93408335Y-84076248D01*
X93361337Y-84085500D01*
X93186230Y-84085500D01*
X93119191Y-84065815D01*
X93098549Y-84049181D01*
X93041657Y-83992289D01*
X93041656Y-83992288D01*
X92941481Y-83930500D01*
X92892336Y-83900187D01*
X92892335Y-83900186D01*
X92892334Y-83900186D01*
X92808144Y-83872288D01*
X92783495Y-83864120D01*
X92726050Y-83824347D01*
X92699228Y-83759831D01*
X92698500Y-83746414D01*
X92698500Y-75247705D01*
X92699809Y-75229735D01*
X92700129Y-75227547D01*
X92703289Y-75205977D01*
X92701016Y-75180000D01*
X92698736Y-75153934D01*
X92698500Y-75148528D01*
X92698500Y-75140297D01*
X92698500Y-75140291D01*
X92694693Y-75107724D01*
X92691043Y-75066000D01*
X92687999Y-75031201D01*
X92686539Y-75024129D01*
X92686597Y-75024116D01*
X92684965Y-75016757D01*
X92684906Y-75016772D01*
X92683242Y-75009753D01*
X92683241Y-75009745D01*
X92656974Y-74937576D01*
X92632814Y-74864666D01*
X92632809Y-74864659D01*
X92629760Y-74858118D01*
X92629815Y-74858091D01*
X92626533Y-74851313D01*
X92626480Y-74851340D01*
X92623235Y-74844880D01*
X92581028Y-74780708D01*
X92540710Y-74715342D01*
X92536234Y-74709682D01*
X92536281Y-74709644D01*
X92531519Y-74703799D01*
X92531474Y-74703838D01*
X92526834Y-74698308D01*
X92470964Y-74645596D01*
X90491729Y-72666361D01*
X90479949Y-72652730D01*
X90472482Y-72642701D01*
X90465612Y-72633472D01*
X90465610Y-72633470D01*
X90425587Y-72599886D01*
X90421612Y-72596244D01*
X90418690Y-72593322D01*
X90415780Y-72590411D01*
X90390040Y-72570059D01*
X90331209Y-72520694D01*
X90325180Y-72516729D01*
X90325212Y-72516680D01*
X90318853Y-72512628D01*
X90318822Y-72512679D01*
X90312680Y-72508891D01*
X90312678Y-72508890D01*
X90312677Y-72508889D01*
X90273474Y-72490608D01*
X90243058Y-72476424D01*
X90208894Y-72459267D01*
X90174433Y-72441960D01*
X90174431Y-72441959D01*
X90174430Y-72441959D01*
X90167645Y-72439489D01*
X90167665Y-72439433D01*
X90160549Y-72436959D01*
X90160531Y-72437015D01*
X90153671Y-72434742D01*
X90125841Y-72428996D01*
X90078434Y-72419207D01*
X90029472Y-72407603D01*
X90003719Y-72401499D01*
X89996547Y-72400661D01*
X89996553Y-72400601D01*
X89989055Y-72399835D01*
X89989050Y-72399895D01*
X89981860Y-72399265D01*
X89905083Y-72401500D01*
X86423705Y-72401500D01*
X86405735Y-72400191D01*
X86381972Y-72396710D01*
X86337512Y-72400601D01*
X86329931Y-72401264D01*
X86324530Y-72401500D01*
X86316289Y-72401500D01*
X86294579Y-72404037D01*
X86283724Y-72405306D01*
X86268419Y-72406645D01*
X86207199Y-72412001D01*
X86200132Y-72413460D01*
X86200120Y-72413404D01*
X86192763Y-72415035D01*
X86192777Y-72415092D01*
X86185743Y-72416759D01*
X86113575Y-72443025D01*
X86040675Y-72467181D01*
X86034126Y-72470236D01*
X86034101Y-72470183D01*
X86027308Y-72473471D01*
X86027334Y-72473523D01*
X86020880Y-72476764D01*
X85956708Y-72518971D01*
X85891347Y-72559285D01*
X85885683Y-72563765D01*
X85885647Y-72563719D01*
X85879798Y-72568484D01*
X85879835Y-72568528D01*
X85874310Y-72573164D01*
X85821597Y-72629035D01*
X80999431Y-77451199D01*
X80938108Y-77484684D01*
X80868416Y-77479700D01*
X80812483Y-77437828D01*
X80788222Y-77374327D01*
X80777635Y-77253308D01*
X80718739Y-77033504D01*
X80622568Y-76827266D01*
X80492047Y-76640861D01*
X80492045Y-76640858D01*
X80331141Y-76479954D01*
X80144734Y-76349432D01*
X80144728Y-76349429D01*
X80086725Y-76322382D01*
X80034285Y-76276210D01*
X80015133Y-76209017D01*
X80035348Y-76142135D01*
X80086725Y-76097618D01*
X80093223Y-76094588D01*
X80144734Y-76070568D01*
X80331139Y-75940047D01*
X80492047Y-75779139D01*
X80622568Y-75592734D01*
X80718739Y-75386496D01*
X80777635Y-75166692D01*
X80797468Y-74940000D01*
X80794203Y-74902686D01*
X80785644Y-74804852D01*
X80777635Y-74713308D01*
X80718739Y-74493504D01*
X80622568Y-74287266D01*
X80495328Y-74105547D01*
X80492045Y-74100858D01*
X80331141Y-73939954D01*
X80144734Y-73809432D01*
X80144732Y-73809431D01*
X79938497Y-73713261D01*
X79938488Y-73713258D01*
X79718697Y-73654366D01*
X79718693Y-73654365D01*
X79718692Y-73654365D01*
X79718691Y-73654364D01*
X79718686Y-73654364D01*
X79492002Y-73634532D01*
X79491997Y-73634532D01*
X79325137Y-73649129D01*
X79256637Y-73635362D01*
X79226650Y-73613282D01*
X77517729Y-71904361D01*
X77505949Y-71890730D01*
X77498482Y-71880701D01*
X77491612Y-71871472D01*
X77491610Y-71871470D01*
X77451587Y-71837886D01*
X77447612Y-71834244D01*
X77444690Y-71831322D01*
X77441780Y-71828411D01*
X77416040Y-71808059D01*
X77357209Y-71758694D01*
X77351180Y-71754729D01*
X77351212Y-71754680D01*
X77344853Y-71750628D01*
X77344822Y-71750679D01*
X77338680Y-71746891D01*
X77338678Y-71746890D01*
X77338677Y-71746889D01*
X77285394Y-71722042D01*
X77269058Y-71714424D01*
X77221324Y-71690452D01*
X77200433Y-71679960D01*
X77200431Y-71679959D01*
X77200430Y-71679959D01*
X77193645Y-71677489D01*
X77193665Y-71677433D01*
X77186549Y-71674959D01*
X77186531Y-71675015D01*
X77179671Y-71672742D01*
X77151841Y-71666996D01*
X77104434Y-71657207D01*
X77055472Y-71645603D01*
X77029719Y-71639499D01*
X77022547Y-71638661D01*
X77022553Y-71638601D01*
X77015055Y-71637835D01*
X77015050Y-71637895D01*
X77007860Y-71637265D01*
X76931083Y-71639500D01*
X72443705Y-71639500D01*
X72425735Y-71638191D01*
X72401972Y-71634710D01*
X72357512Y-71638601D01*
X72349931Y-71639264D01*
X72344530Y-71639500D01*
X72336289Y-71639500D01*
X72314579Y-71642037D01*
X72303724Y-71643306D01*
X72288419Y-71644645D01*
X72227199Y-71650001D01*
X72220132Y-71651460D01*
X72220120Y-71651404D01*
X72212763Y-71653035D01*
X72212777Y-71653092D01*
X72205743Y-71654759D01*
X72133575Y-71681025D01*
X72060675Y-71705181D01*
X72054126Y-71708236D01*
X72054101Y-71708183D01*
X72047308Y-71711471D01*
X72047334Y-71711523D01*
X72040880Y-71714764D01*
X71976708Y-71756971D01*
X71911347Y-71797285D01*
X71905683Y-71801765D01*
X71905647Y-71801719D01*
X71899798Y-71806484D01*
X71899835Y-71806528D01*
X71894310Y-71811164D01*
X71894304Y-71811169D01*
X71894304Y-71811170D01*
X71869092Y-71837893D01*
X71841597Y-71867035D01*
X68807431Y-74901199D01*
X68746108Y-74934684D01*
X68676416Y-74929700D01*
X68620483Y-74887828D01*
X68596222Y-74824327D01*
X68585635Y-74703308D01*
X68529420Y-74493511D01*
X68526741Y-74483511D01*
X68526738Y-74483502D01*
X68499924Y-74425999D01*
X68430568Y-74277266D01*
X68310330Y-74105547D01*
X68300045Y-74090858D01*
X68139141Y-73929954D01*
X67952734Y-73799432D01*
X67952732Y-73799431D01*
X67746497Y-73703261D01*
X67746488Y-73703258D01*
X67526697Y-73644366D01*
X67526693Y-73644365D01*
X67526692Y-73644365D01*
X67526691Y-73644364D01*
X67526686Y-73644364D01*
X67300002Y-73624532D01*
X67299998Y-73624532D01*
X67073313Y-73644364D01*
X67073302Y-73644366D01*
X66853511Y-73703258D01*
X66853502Y-73703261D01*
X66647267Y-73799431D01*
X66647265Y-73799432D01*
X66460858Y-73929954D01*
X66299954Y-74090858D01*
X66169432Y-74277265D01*
X66169431Y-74277267D01*
X66073261Y-74483502D01*
X66073258Y-74483511D01*
X66014366Y-74703302D01*
X66014364Y-74703313D01*
X65994532Y-74929998D01*
X65994532Y-74930000D01*
X66014364Y-75156686D01*
X66014366Y-75156697D01*
X66073258Y-75376488D01*
X66073261Y-75376497D01*
X66169431Y-75582732D01*
X66169432Y-75582734D01*
X66299954Y-75769141D01*
X66460858Y-75930045D01*
X66495432Y-75954254D01*
X66647266Y-76060568D01*
X66700585Y-76085431D01*
X66705275Y-76087618D01*
X66757714Y-76133791D01*
X66776866Y-76200984D01*
X66756650Y-76267865D01*
X66705275Y-76312382D01*
X66647267Y-76339431D01*
X66647265Y-76339432D01*
X66460858Y-76469954D01*
X66299954Y-76630858D01*
X66169432Y-76817265D01*
X66169431Y-76817267D01*
X66073261Y-77023502D01*
X66073258Y-77023511D01*
X66014366Y-77243302D01*
X66014364Y-77243313D01*
X65994532Y-77469998D01*
X65994532Y-77470001D01*
X66014364Y-77696686D01*
X66014366Y-77696697D01*
X66073258Y-77916488D01*
X66073261Y-77916497D01*
X66169431Y-78122732D01*
X66169432Y-78122734D01*
X66299954Y-78309141D01*
X66460858Y-78470045D01*
X66483644Y-78486000D01*
X66647266Y-78600568D01*
X66700585Y-78625431D01*
X66705275Y-78627618D01*
X66757714Y-78673791D01*
X66776866Y-78740984D01*
X66756650Y-78807865D01*
X66705275Y-78852382D01*
X66647267Y-78879431D01*
X66647265Y-78879432D01*
X66460858Y-79009954D01*
X66299954Y-79170858D01*
X66169432Y-79357265D01*
X66169431Y-79357267D01*
X66073261Y-79563502D01*
X66073258Y-79563511D01*
X66014366Y-79783302D01*
X66014364Y-79783313D01*
X65994532Y-80009998D01*
X65994532Y-80010001D01*
X66014364Y-80236686D01*
X66014366Y-80236697D01*
X66073258Y-80456488D01*
X66073261Y-80456497D01*
X66169431Y-80662732D01*
X66169432Y-80662734D01*
X66299954Y-80849141D01*
X66460858Y-81010045D01*
X66483644Y-81026000D01*
X66647266Y-81140568D01*
X66700585Y-81165431D01*
X66705275Y-81167618D01*
X66757714Y-81213791D01*
X66776866Y-81280984D01*
X66756650Y-81347865D01*
X66705275Y-81392381D01*
X66697520Y-81395998D01*
X66647267Y-81419431D01*
X66647265Y-81419432D01*
X66460858Y-81549954D01*
X66299954Y-81710858D01*
X66169432Y-81897265D01*
X66169431Y-81897267D01*
X66073261Y-82103502D01*
X66073258Y-82103511D01*
X66014366Y-82323302D01*
X66014364Y-82323313D01*
X65994532Y-82549998D01*
X65994532Y-82550001D01*
X66014364Y-82776686D01*
X66014366Y-82776697D01*
X66073258Y-82996488D01*
X66073261Y-82996497D01*
X66169431Y-83202732D01*
X66169432Y-83202734D01*
X66299954Y-83389141D01*
X66460858Y-83550045D01*
X66483644Y-83566000D01*
X66647266Y-83680568D01*
X66700585Y-83705431D01*
X66705275Y-83707618D01*
X66757714Y-83753791D01*
X66776866Y-83820984D01*
X66756650Y-83887865D01*
X66705275Y-83932382D01*
X66647267Y-83959431D01*
X66647265Y-83959432D01*
X66460858Y-84089954D01*
X66299956Y-84250856D01*
X66222932Y-84360858D01*
X66173052Y-84400728D01*
X66173708Y-84402135D01*
X66160623Y-84408236D01*
X66160598Y-84408184D01*
X66153810Y-84411470D01*
X66153836Y-84411521D01*
X66147385Y-84414761D01*
X66083223Y-84456961D01*
X66017846Y-84497285D01*
X66012182Y-84501765D01*
X66012146Y-84501719D01*
X66006298Y-84506484D01*
X66006335Y-84506528D01*
X66000810Y-84511164D01*
X66000804Y-84511169D01*
X66000804Y-84511170D01*
X65948114Y-84567017D01*
X65566949Y-84948181D01*
X65505626Y-84981666D01*
X65479268Y-84984500D01*
X64853998Y-84984500D01*
X64853980Y-84984501D01*
X64751203Y-84995000D01*
X64751200Y-84995001D01*
X64584668Y-85050185D01*
X64584663Y-85050187D01*
X64435342Y-85142289D01*
X64311289Y-85266342D01*
X64219187Y-85415663D01*
X64219186Y-85415666D01*
X64164001Y-85582203D01*
X64164001Y-85582204D01*
X64164000Y-85582204D01*
X64153500Y-85684983D01*
X64153500Y-87035001D01*
X64153501Y-87035018D01*
X64164000Y-87137796D01*
X64164001Y-87137799D01*
X64184662Y-87200148D01*
X64219186Y-87304334D01*
X64311288Y-87453656D01*
X64435344Y-87577712D01*
X64584666Y-87669814D01*
X64751203Y-87724999D01*
X64853991Y-87735500D01*
X65579008Y-87735499D01*
X65579016Y-87735498D01*
X65579019Y-87735498D01*
X65635302Y-87729748D01*
X65681797Y-87724999D01*
X65844936Y-87670939D01*
X65914762Y-87668538D01*
X65974804Y-87704269D01*
X66005997Y-87766790D01*
X66007466Y-87777838D01*
X66014364Y-87856687D01*
X66014366Y-87856697D01*
X66073258Y-88076488D01*
X66073261Y-88076497D01*
X66169432Y-88282735D01*
X66180266Y-88298208D01*
X66195357Y-88327323D01*
X66230245Y-88424226D01*
X66316399Y-88551000D01*
X66319076Y-88554938D01*
X66319078Y-88554940D01*
X66319081Y-88554943D01*
X66437618Y-88659447D01*
X66437619Y-88659447D01*
X66437622Y-88659450D01*
X66578435Y-88731198D01*
X66593965Y-88734669D01*
X66638041Y-88754109D01*
X66647262Y-88760566D01*
X66647266Y-88760568D01*
X66705274Y-88787618D01*
X66757713Y-88833791D01*
X66776865Y-88900984D01*
X66756649Y-88967865D01*
X66705275Y-89012381D01*
X66647266Y-89039432D01*
X66647264Y-89039433D01*
X66460858Y-89169954D01*
X66299954Y-89330858D01*
X66169432Y-89517265D01*
X66169431Y-89517267D01*
X66073261Y-89723502D01*
X66073258Y-89723511D01*
X66014366Y-89943302D01*
X66014364Y-89943313D01*
X65994532Y-90169998D01*
X65994532Y-90170001D01*
X66014364Y-90396686D01*
X66014366Y-90396697D01*
X66073258Y-90616488D01*
X66073261Y-90616497D01*
X66169431Y-90822732D01*
X66169432Y-90822734D01*
X66295218Y-91002377D01*
X66317545Y-91068583D01*
X66300534Y-91136351D01*
X66249586Y-91184163D01*
X66193643Y-91197500D01*
X64370229Y-91197500D01*
X64303190Y-91177815D01*
X64282548Y-91161181D01*
X63078319Y-89956951D01*
X63044834Y-89895628D01*
X63042000Y-89869270D01*
X63042000Y-87659730D01*
X63061685Y-87592691D01*
X63078319Y-87572049D01*
X63117210Y-87533158D01*
X63196712Y-87453656D01*
X63288814Y-87304334D01*
X63343999Y-87137797D01*
X63354500Y-87035009D01*
X63354499Y-85684992D01*
X63343999Y-85582203D01*
X63288814Y-85415666D01*
X63288810Y-85415659D01*
X63215111Y-85296173D01*
X63196671Y-85228781D01*
X63217594Y-85162117D01*
X63232964Y-85143401D01*
X63696498Y-84679867D01*
X63757819Y-84646384D01*
X63794983Y-84644022D01*
X63937861Y-84656522D01*
X64007999Y-84662659D01*
X64008000Y-84662659D01*
X64008001Y-84662659D01*
X64047234Y-84659226D01*
X64243408Y-84642063D01*
X64471663Y-84580903D01*
X64685830Y-84481035D01*
X64879401Y-84345495D01*
X65046495Y-84178401D01*
X65182035Y-83984830D01*
X65281903Y-83770663D01*
X65343063Y-83542408D01*
X65363659Y-83307000D01*
X65363591Y-83306228D01*
X65359237Y-83256458D01*
X65343063Y-83071592D01*
X65285386Y-82856336D01*
X65281905Y-82843344D01*
X65281904Y-82843343D01*
X65281903Y-82843337D01*
X65182035Y-82629171D01*
X65177531Y-82622739D01*
X65046496Y-82435600D01*
X65003170Y-82392274D01*
X64924567Y-82313671D01*
X64891084Y-82252351D01*
X64896068Y-82182659D01*
X64937939Y-82126725D01*
X64968915Y-82109810D01*
X65100331Y-82060796D01*
X65215546Y-81974546D01*
X65301796Y-81859331D01*
X65352091Y-81724483D01*
X65358500Y-81664873D01*
X65358499Y-79869128D01*
X65352091Y-79809517D01*
X65348577Y-79800096D01*
X65301797Y-79674671D01*
X65301793Y-79674664D01*
X65215547Y-79559455D01*
X65215544Y-79559452D01*
X65100335Y-79473206D01*
X65100328Y-79473202D01*
X64965482Y-79422908D01*
X64965483Y-79422908D01*
X64905883Y-79416501D01*
X64905881Y-79416500D01*
X64905873Y-79416500D01*
X64905864Y-79416500D01*
X63110129Y-79416500D01*
X63110123Y-79416501D01*
X63050516Y-79422908D01*
X62915671Y-79473202D01*
X62915664Y-79473206D01*
X62800455Y-79559452D01*
X62800452Y-79559455D01*
X62714206Y-79674664D01*
X62714202Y-79674671D01*
X62663908Y-79809517D01*
X62662889Y-79819000D01*
X62657501Y-79869123D01*
X62657500Y-79869135D01*
X62657500Y-81004769D01*
X62637815Y-81071808D01*
X62621181Y-81092450D01*
X61696451Y-82017181D01*
X61635128Y-82050666D01*
X61608770Y-82053500D01*
X60504663Y-82053500D01*
X60437624Y-82033815D01*
X60403088Y-82000623D01*
X60378045Y-81964858D01*
X60217141Y-81803954D01*
X60030734Y-81673432D01*
X60030732Y-81673431D01*
X59998378Y-81658344D01*
X59972132Y-81646105D01*
X59919694Y-81599934D01*
X59900542Y-81532740D01*
X59920758Y-81465859D01*
X59972134Y-81421341D01*
X60030484Y-81394132D01*
X60216820Y-81263657D01*
X60377657Y-81102820D01*
X60508134Y-80916482D01*
X60604265Y-80710326D01*
X60604269Y-80710317D01*
X60656872Y-80514000D01*
X59297503Y-80514000D01*
X59346917Y-80428413D01*
X59376768Y-80297630D01*
X59366743Y-80163860D01*
X59317734Y-80038987D01*
X59297807Y-80014000D01*
X60656872Y-80014000D01*
X60656872Y-80013999D01*
X60604269Y-79817682D01*
X60604265Y-79817673D01*
X60508134Y-79611517D01*
X60377657Y-79425179D01*
X60216820Y-79264342D01*
X60030482Y-79133865D01*
X59824326Y-79037734D01*
X59824317Y-79037730D01*
X59604610Y-78978860D01*
X59604599Y-78978858D01*
X59434763Y-78964000D01*
X59178000Y-78964000D01*
X59178000Y-79895862D01*
X59123259Y-79858541D01*
X58995073Y-79819000D01*
X58894654Y-79819000D01*
X58795353Y-79833967D01*
X58678000Y-79890481D01*
X58678000Y-78964000D01*
X58421237Y-78964000D01*
X58251400Y-78978858D01*
X58251389Y-78978860D01*
X58031682Y-79037730D01*
X58031673Y-79037734D01*
X57825517Y-79133865D01*
X57639179Y-79264342D01*
X57478342Y-79425179D01*
X57347865Y-79611517D01*
X57251734Y-79817673D01*
X57251730Y-79817682D01*
X57199127Y-80013999D01*
X57199128Y-80014000D01*
X58558497Y-80014000D01*
X58509083Y-80099587D01*
X58479232Y-80230370D01*
X58489257Y-80364140D01*
X58538266Y-80489013D01*
X58558193Y-80514000D01*
X57199128Y-80514000D01*
X57251730Y-80710317D01*
X57251734Y-80710326D01*
X57347865Y-80916482D01*
X57478342Y-81102820D01*
X57639179Y-81263657D01*
X57825518Y-81394134D01*
X57825520Y-81394135D01*
X57883865Y-81421342D01*
X57936305Y-81467514D01*
X57955457Y-81534707D01*
X57935242Y-81601589D01*
X57883867Y-81646105D01*
X57825268Y-81673431D01*
X57825264Y-81673433D01*
X57638858Y-81803954D01*
X57477954Y-81964858D01*
X57347432Y-82151265D01*
X57347431Y-82151267D01*
X57251261Y-82357502D01*
X57251258Y-82357511D01*
X57192366Y-82577302D01*
X57192364Y-82577313D01*
X57172532Y-82803998D01*
X57172532Y-82804001D01*
X46228500Y-82804001D01*
X46228500Y-77474000D01*
X49858385Y-77474000D01*
X52874589Y-77474000D01*
X52849466Y-77571030D01*
X52839114Y-77775165D01*
X52869574Y-77974000D01*
X49861793Y-77974000D01*
X49874375Y-78099076D01*
X49874376Y-78099079D01*
X49944208Y-78392107D01*
X49944210Y-78392116D01*
X50052474Y-78673216D01*
X50052481Y-78673231D01*
X50197248Y-78937395D01*
X50197252Y-78937401D01*
X50375935Y-79179911D01*
X50585355Y-79396451D01*
X50585362Y-79396457D01*
X50821768Y-79583145D01*
X51080948Y-79736657D01*
X51080966Y-79736666D01*
X51358283Y-79854260D01*
X51358300Y-79854265D01*
X51648826Y-79933848D01*
X51947384Y-79974000D01*
X53598000Y-79974000D01*
X53598000Y-78698625D01*
X53745801Y-78729000D01*
X53898967Y-78729000D01*
X54051348Y-78713504D01*
X54098000Y-78698867D01*
X54098000Y-79974000D01*
X55673236Y-79974000D01*
X55898564Y-79958915D01*
X55898573Y-79958913D01*
X56193758Y-79898916D01*
X56193773Y-79898912D01*
X56478343Y-79800098D01*
X56478346Y-79800096D01*
X56747198Y-79664240D01*
X56995564Y-79493745D01*
X57218971Y-79291685D01*
X57413464Y-79061638D01*
X57575554Y-78807728D01*
X57575555Y-78807726D01*
X57702351Y-78534485D01*
X57702356Y-78534471D01*
X57791605Y-78246765D01*
X57837615Y-77974000D01*
X54821411Y-77974000D01*
X54846534Y-77876970D01*
X54856886Y-77672835D01*
X54826426Y-77474000D01*
X57834207Y-77474000D01*
X57834207Y-77473999D01*
X57821624Y-77348923D01*
X57821623Y-77348920D01*
X57751791Y-77055892D01*
X57751789Y-77055883D01*
X57643525Y-76774783D01*
X57643518Y-76774768D01*
X57498751Y-76510604D01*
X57498747Y-76510598D01*
X57320064Y-76268088D01*
X57110644Y-76051548D01*
X57110637Y-76051542D01*
X56874231Y-75864854D01*
X56615051Y-75711342D01*
X56615033Y-75711333D01*
X56337716Y-75593739D01*
X56337699Y-75593734D01*
X56047173Y-75514151D01*
X55748617Y-75474000D01*
X54098000Y-75474000D01*
X54098000Y-76749374D01*
X53950199Y-76719000D01*
X53797033Y-76719000D01*
X53644652Y-76734496D01*
X53598000Y-76749132D01*
X53598000Y-75474000D01*
X52022764Y-75474000D01*
X51797435Y-75489084D01*
X51797426Y-75489086D01*
X51502241Y-75549083D01*
X51502226Y-75549087D01*
X51217656Y-75647901D01*
X51217653Y-75647903D01*
X50948801Y-75783759D01*
X50700435Y-75954254D01*
X50477028Y-76156314D01*
X50282535Y-76386361D01*
X50120445Y-76640271D01*
X50120444Y-76640273D01*
X49993648Y-76913514D01*
X49993643Y-76913528D01*
X49904394Y-77201234D01*
X49858385Y-77474000D01*
X46228500Y-77474000D01*
X46228500Y-70171763D01*
X47929787Y-70171763D01*
X47959413Y-70441013D01*
X47959415Y-70441024D01*
X48024192Y-70688798D01*
X48027928Y-70703088D01*
X48133870Y-70952390D01*
X48184639Y-71035578D01*
X48274979Y-71183605D01*
X48274986Y-71183615D01*
X48448253Y-71391819D01*
X48448259Y-71391824D01*
X48549068Y-71482149D01*
X48649998Y-71572582D01*
X48875910Y-71722044D01*
X49121176Y-71837020D01*
X49121183Y-71837022D01*
X49121185Y-71837023D01*
X49380557Y-71915057D01*
X49380564Y-71915058D01*
X49380569Y-71915060D01*
X49648561Y-71954500D01*
X49648566Y-71954500D01*
X49851636Y-71954500D01*
X49903133Y-71950730D01*
X50054156Y-71939677D01*
X50212695Y-71904361D01*
X50318546Y-71880782D01*
X50318548Y-71880781D01*
X50318553Y-71880780D01*
X50571558Y-71784014D01*
X50807777Y-71651441D01*
X51022177Y-71485888D01*
X51210186Y-71290881D01*
X51367799Y-71070579D01*
X51441787Y-70926669D01*
X51491649Y-70829690D01*
X51491651Y-70829684D01*
X51491656Y-70829675D01*
X51579118Y-70573305D01*
X51628319Y-70306933D01*
X51638212Y-70036235D01*
X51608586Y-69766982D01*
X51540072Y-69504912D01*
X51434130Y-69255610D01*
X51293018Y-69024390D01*
X51203747Y-68917119D01*
X51119746Y-68816180D01*
X51119740Y-68816175D01*
X50918002Y-68635418D01*
X50692092Y-68485957D01*
X50692090Y-68485956D01*
X50446824Y-68370980D01*
X50446819Y-68370978D01*
X50446814Y-68370976D01*
X50187442Y-68292942D01*
X50187428Y-68292939D01*
X50071791Y-68275921D01*
X49919439Y-68253500D01*
X49716369Y-68253500D01*
X49716364Y-68253500D01*
X49513844Y-68268323D01*
X49513831Y-68268325D01*
X49249453Y-68327217D01*
X49249446Y-68327220D01*
X48996439Y-68423987D01*
X48760226Y-68556557D01*
X48545822Y-68722112D01*
X48357822Y-68917109D01*
X48357816Y-68917116D01*
X48200202Y-69137419D01*
X48200199Y-69137424D01*
X48076350Y-69378309D01*
X48076343Y-69378327D01*
X47988884Y-69634685D01*
X47988881Y-69634699D01*
X47939681Y-69901068D01*
X47939680Y-69901075D01*
X47929787Y-70171763D01*
X46228500Y-70171763D01*
X46228500Y-66672500D01*
X46248185Y-66605461D01*
X46300989Y-66559706D01*
X46352500Y-66548500D01*
X122811500Y-66548500D01*
X122878539Y-66568185D01*
G37*
G04 #@! TD.AperFunction*
M02*
