G04 #@! TF.GenerationSoftware,KiCad,Pcbnew,7.0.8*
G04 #@! TF.CreationDate,2024-05-20T17:56:06+02:00*
G04 #@! TF.ProjectId,Generator_Cyfrowka,47656e65-7261-4746-9f72-5f437966726f,rev?*
G04 #@! TF.SameCoordinates,Original*
G04 #@! TF.FileFunction,Legend,Bot*
G04 #@! TF.FilePolarity,Positive*
%FSLAX46Y46*%
G04 Gerber Fmt 4.6, Leading zero omitted, Abs format (unit mm)*
G04 Created by KiCad (PCBNEW 7.0.8) date 2024-05-20 17:56:06*
%MOMM*%
%LPD*%
G01*
G04 APERTURE LIST*
%ADD10C,0.150000*%
%ADD11C,0.120000*%
%ADD12R,1.600000X1.600000*%
%ADD13O,1.600000X1.600000*%
%ADD14C,3.200000*%
%ADD15R,1.700000X1.700000*%
%ADD16O,1.700000X1.700000*%
%ADD17C,1.600000*%
%ADD18C,4.000000*%
%ADD19R,1.800000X1.800000*%
%ADD20C,1.800000*%
%ADD21O,2.500000X1.600000*%
%ADD22O,7.000000X3.500000*%
G04 APERTURE END LIST*
D10*
X116157333Y-86322819D02*
X116157333Y-87037104D01*
X116157333Y-87037104D02*
X116204952Y-87179961D01*
X116204952Y-87179961D02*
X116300190Y-87275200D01*
X116300190Y-87275200D02*
X116443047Y-87322819D01*
X116443047Y-87322819D02*
X116538285Y-87322819D01*
X115157333Y-87322819D02*
X115728761Y-87322819D01*
X115443047Y-87322819D02*
X115443047Y-86322819D01*
X115443047Y-86322819D02*
X115538285Y-86465676D01*
X115538285Y-86465676D02*
X115633523Y-86560914D01*
X115633523Y-86560914D02*
X115728761Y-86608533D01*
X55080819Y-82216666D02*
X55795104Y-82216666D01*
X55795104Y-82216666D02*
X55937961Y-82169047D01*
X55937961Y-82169047D02*
X56033200Y-82073809D01*
X56033200Y-82073809D02*
X56080819Y-81930952D01*
X56080819Y-81930952D02*
X56080819Y-81835714D01*
X55414152Y-83121428D02*
X56080819Y-83121428D01*
X55033200Y-82883333D02*
X55747485Y-82645238D01*
X55747485Y-82645238D02*
X55747485Y-83264285D01*
D11*
X112978000Y-83396000D02*
X113478000Y-83896000D01*
X112978000Y-84396000D02*
X112978000Y-83396000D01*
X113478000Y-83896000D02*
X112978000Y-84396000D01*
X113678000Y-76536000D02*
X113678000Y-88756000D01*
X113678000Y-76536000D02*
X117428000Y-76536000D01*
X113678000Y-88756000D02*
X117428000Y-88756000D01*
X130298000Y-76536000D02*
X122328000Y-76536000D01*
X130298000Y-76536000D02*
X130298000Y-88756000D01*
X130298000Y-88756000D02*
X122328000Y-88756000D01*
X114336000Y-95060000D02*
X114336000Y-95216000D01*
X114336000Y-92744000D02*
X114336000Y-92900000D01*
X111103666Y-95058608D02*
G75*
G03*
X114335999Y-95215515I1672334J1078608D01*
G01*
X111734871Y-95059836D02*
G75*
G03*
X113816960Y-95059999I1041129J1079836D01*
G01*
X113816960Y-92900001D02*
G75*
G03*
X111734871Y-92900164I-1040960J-1079999D01*
G01*
X114335999Y-92744485D02*
G75*
G03*
X111103666Y-92901392I-1559999J-1235515D01*
G01*
X61228000Y-75304000D02*
X46228000Y-75304000D01*
X46228000Y-75304000D02*
X46228000Y-90304000D01*
X46428000Y-82804000D02*
X47428000Y-81804000D01*
X46428000Y-82804000D02*
X47428000Y-83804000D01*
X61228000Y-90304000D02*
X61228000Y-75304000D01*
X46228000Y-90304000D02*
X61228000Y-90304000D01*
%LPC*%
D12*
X74920000Y-90170000D03*
D13*
X74920000Y-87630000D03*
X74920000Y-85090000D03*
X74920000Y-82550000D03*
X74920000Y-80010000D03*
X74920000Y-77470000D03*
X74920000Y-74930000D03*
X67300000Y-74930000D03*
X67300000Y-77470000D03*
X67300000Y-80010000D03*
X67300000Y-82550000D03*
X67300000Y-85090000D03*
X67300000Y-87630000D03*
X67300000Y-90170000D03*
D14*
X119380000Y-70104000D03*
D12*
X102108000Y-89916000D03*
D13*
X102108000Y-87376000D03*
X102108000Y-84836000D03*
X102108000Y-82296000D03*
X102108000Y-79756000D03*
X102108000Y-77216000D03*
X102108000Y-74676000D03*
X94488000Y-74676000D03*
X94488000Y-77216000D03*
X94488000Y-79756000D03*
X94488000Y-82296000D03*
X94488000Y-84836000D03*
X94488000Y-87376000D03*
X94488000Y-89916000D03*
D12*
X87112000Y-90180000D03*
D13*
X87112000Y-87640000D03*
X87112000Y-85100000D03*
X87112000Y-82560000D03*
X87112000Y-80020000D03*
X87112000Y-77480000D03*
X87112000Y-74940000D03*
X79492000Y-74940000D03*
X79492000Y-77480000D03*
X79492000Y-80020000D03*
X79492000Y-82560000D03*
X79492000Y-85100000D03*
X79492000Y-87640000D03*
X79492000Y-90180000D03*
D15*
X111252000Y-72898000D03*
D16*
X111252000Y-70358000D03*
D14*
X119380000Y-94996000D03*
D15*
X64008000Y-80767000D03*
D16*
X64008000Y-83307000D03*
D14*
X49784000Y-70104000D03*
X49784000Y-94996000D03*
D12*
X115028000Y-83896000D03*
D17*
X115028000Y-81396000D03*
X117028000Y-81396000D03*
X117028000Y-83896000D03*
D18*
X119888000Y-76646000D03*
X119888000Y-88646000D03*
D19*
X114046000Y-93980000D03*
D20*
X111506000Y-93980000D03*
D21*
X58928000Y-82804000D03*
D22*
X53848000Y-77724000D03*
D21*
X58928000Y-80264000D03*
D22*
X53848000Y-87884000D03*
%LPD*%
M02*
