M48
; DRILL file {KiCad 7.0.8} date Mon May 20 17:56:21 2024
; FORMAT={-:-/ absolute / metric / decimal}
; #@! TF.CreationDate,2024-05-20T17:56:21+02:00
; #@! TF.GenerationSoftware,Kicad,Pcbnew,7.0.8
; #@! TF.FileFunction,Plated,1,2,PTH
FMAT,2
METRIC
; #@! TA.AperFunction,Plated,PTH,ViaDrill
T1C0.400
; #@! TA.AperFunction,Plated,PTH,ComponentDrill
T2C0.800
; #@! TA.AperFunction,Plated,PTH,ComponentDrill
T3C0.890
; #@! TA.AperFunction,Plated,PTH,ComponentDrill
T4C0.900
; #@! TA.AperFunction,Plated,PTH,ComponentDrill
T5C0.950
; #@! TA.AperFunction,Plated,PTH,ComponentDrill
T6C1.000
; #@! TA.AperFunction,Plated,PTH,ComponentDrill
T7C2.010
; #@! TA.AperFunction,Plated,PTH,ComponentDrill
T8C2.300
%
G90
G05
T1
X61.976Y-92.456
X63.5Y-77.216
X64.77Y-89.154
X67.056Y-72.898
X71.882Y-93.218
X72.644Y-76.2
X74.93Y-93.218
X77.216Y-82.55
X77.47Y-92.456
X81.788Y-80.01
X81.788Y-90.17
X84.836Y-85.09
X88.646Y-71.882
X89.154Y-91.44
X89.662Y-77.47
X89.662Y-82.55
X91.948Y-92.71
X96.774Y-87.63
X99.568Y-92.71
X99.822Y-77.216
X99.822Y-82.042
X101.854Y-92.71
X104.14Y-76.454
X105.664Y-74.422
X105.664Y-92.202
T2
X67.3Y-74.93
X67.3Y-77.47
X67.3Y-80.01
X67.3Y-82.55
X67.3Y-85.09
X67.3Y-87.63
X67.3Y-90.17
X74.92Y-74.93
X74.92Y-77.47
X74.92Y-80.01
X74.92Y-82.55
X74.92Y-85.09
X74.92Y-87.63
X74.92Y-90.17
X79.492Y-74.94
X79.492Y-77.48
X79.492Y-80.02
X79.492Y-82.56
X79.492Y-85.1
X79.492Y-87.64
X79.492Y-90.18
X87.112Y-74.94
X87.112Y-77.48
X87.112Y-80.02
X87.112Y-82.56
X87.112Y-85.1
X87.112Y-87.64
X87.112Y-90.18
X94.488Y-74.676
X94.488Y-77.216
X94.488Y-79.756
X94.488Y-82.296
X94.488Y-84.836
X94.488Y-87.376
X94.488Y-89.916
X102.108Y-74.676
X102.108Y-77.216
X102.108Y-79.756
X102.108Y-82.296
X102.108Y-84.836
X102.108Y-87.376
X102.108Y-89.916
T3
X58.928Y-80.264
X58.928Y-82.804
T4
X111.506Y-93.98
X114.046Y-93.98
T5
X115.028Y-81.396
X115.028Y-83.896
X117.028Y-81.396
X117.028Y-83.896
T6
X64.008Y-80.767
X64.008Y-83.307
X111.252Y-70.358
X111.252Y-72.898
T7
X53.848Y-77.724
X53.848Y-87.884
T8
X119.888Y-76.646
X119.888Y-88.646
T0
M30
