G04 #@! TF.GenerationSoftware,KiCad,Pcbnew,7.0.8*
G04 #@! TF.CreationDate,2024-05-20T17:56:06+02:00*
G04 #@! TF.ProjectId,Generator_Cyfrowka,47656e65-7261-4746-9f72-5f437966726f,rev?*
G04 #@! TF.SameCoordinates,Original*
G04 #@! TF.FileFunction,Soldermask,Bot*
G04 #@! TF.FilePolarity,Negative*
%FSLAX46Y46*%
G04 Gerber Fmt 4.6, Leading zero omitted, Abs format (unit mm)*
G04 Created by KiCad (PCBNEW 7.0.8) date 2024-05-20 17:56:06*
%MOMM*%
%LPD*%
G01*
G04 APERTURE LIST*
%ADD10R,1.600000X1.600000*%
%ADD11O,1.600000X1.600000*%
%ADD12C,3.200000*%
%ADD13R,1.700000X1.700000*%
%ADD14O,1.700000X1.700000*%
%ADD15C,1.600000*%
%ADD16C,4.000000*%
%ADD17R,1.800000X1.800000*%
%ADD18C,1.800000*%
%ADD19O,2.500000X1.600000*%
%ADD20O,7.000000X3.500000*%
G04 APERTURE END LIST*
D10*
X74920000Y-90170000D03*
D11*
X74920000Y-87630000D03*
X74920000Y-85090000D03*
X74920000Y-82550000D03*
X74920000Y-80010000D03*
X74920000Y-77470000D03*
X74920000Y-74930000D03*
X67300000Y-74930000D03*
X67300000Y-77470000D03*
X67300000Y-80010000D03*
X67300000Y-82550000D03*
X67300000Y-85090000D03*
X67300000Y-87630000D03*
X67300000Y-90170000D03*
D12*
X119380000Y-70104000D03*
D10*
X102108000Y-89916000D03*
D11*
X102108000Y-87376000D03*
X102108000Y-84836000D03*
X102108000Y-82296000D03*
X102108000Y-79756000D03*
X102108000Y-77216000D03*
X102108000Y-74676000D03*
X94488000Y-74676000D03*
X94488000Y-77216000D03*
X94488000Y-79756000D03*
X94488000Y-82296000D03*
X94488000Y-84836000D03*
X94488000Y-87376000D03*
X94488000Y-89916000D03*
D10*
X87112000Y-90180000D03*
D11*
X87112000Y-87640000D03*
X87112000Y-85100000D03*
X87112000Y-82560000D03*
X87112000Y-80020000D03*
X87112000Y-77480000D03*
X87112000Y-74940000D03*
X79492000Y-74940000D03*
X79492000Y-77480000D03*
X79492000Y-80020000D03*
X79492000Y-82560000D03*
X79492000Y-85100000D03*
X79492000Y-87640000D03*
X79492000Y-90180000D03*
D13*
X111252000Y-72898000D03*
D14*
X111252000Y-70358000D03*
D12*
X119380000Y-94996000D03*
D13*
X64008000Y-80767000D03*
D14*
X64008000Y-83307000D03*
D12*
X49784000Y-70104000D03*
X49784000Y-94996000D03*
D10*
X115028000Y-83896000D03*
D15*
X115028000Y-81396000D03*
X117028000Y-81396000D03*
X117028000Y-83896000D03*
D16*
X119888000Y-76646000D03*
X119888000Y-88646000D03*
D17*
X114046000Y-93980000D03*
D18*
X111506000Y-93980000D03*
D19*
X58928000Y-82804000D03*
D20*
X53848000Y-77724000D03*
D19*
X58928000Y-80264000D03*
D20*
X53848000Y-87884000D03*
M02*
