%TF.GenerationSoftware,KiCad,Pcbnew,7.0.8*%
%TF.CreationDate,2024-05-20T17:56:23+02:00*%
%TF.ProjectId,Generator_Cyfrowka,47656e65-7261-4746-9f72-5f437966726f,rev?*%
%TF.SameCoordinates,Original*%
%TF.FileFunction,Drillmap*%
%TF.FilePolarity,Positive*%
%FSLAX45Y45*%
G04 Gerber Fmt 4.5, Leading zero omitted, Abs format (unit mm)*
G04 Created by KiCad (PCBNEW 7.0.8) date 2024-05-20 17:56:23*
%MOMM*%
%LPD*%
G01*
G04 APERTURE LIST*
%ADD10C,0.100000*%
%ADD11C,0.200000*%
%ADD12C,0.320000*%
G04 APERTURE END LIST*
D10*
X4622800Y-6654800D02*
X12293600Y-6654800D01*
X12293600Y-9855200D01*
X4622800Y-9855200D01*
X4622800Y-6654800D01*
D11*
D12*
X4818400Y-6850400D02*
X5138400Y-7170400D01*
X5138400Y-6850400D02*
X4818400Y-7170400D01*
X4818400Y-9339600D02*
X5138400Y-9659600D01*
X5138400Y-9339600D02*
X4818400Y-9659600D01*
X11778000Y-6850400D02*
X12098000Y-7170400D01*
X12098000Y-6850400D02*
X11778000Y-7170400D01*
X11778000Y-9339600D02*
X12098000Y-9659600D01*
X12098000Y-9339600D02*
X11778000Y-9659600D01*
D11*
X4878577Y-10171684D02*
X4878577Y-9971684D01*
X4878577Y-9971684D02*
X4926196Y-9971684D01*
X4926196Y-9971684D02*
X4954767Y-9981208D01*
X4954767Y-9981208D02*
X4973815Y-10000255D01*
X4973815Y-10000255D02*
X4983339Y-10019303D01*
X4983339Y-10019303D02*
X4992863Y-10057398D01*
X4992863Y-10057398D02*
X4992863Y-10085970D01*
X4992863Y-10085970D02*
X4983339Y-10124065D01*
X4983339Y-10124065D02*
X4973815Y-10143112D01*
X4973815Y-10143112D02*
X4954767Y-10162160D01*
X4954767Y-10162160D02*
X4926196Y-10171684D01*
X4926196Y-10171684D02*
X4878577Y-10171684D01*
X5078577Y-10171684D02*
X5078577Y-10038350D01*
X5078577Y-10076446D02*
X5088101Y-10057398D01*
X5088101Y-10057398D02*
X5097624Y-10047874D01*
X5097624Y-10047874D02*
X5116672Y-10038350D01*
X5116672Y-10038350D02*
X5135720Y-10038350D01*
X5202386Y-10171684D02*
X5202386Y-10038350D01*
X5202386Y-9971684D02*
X5192863Y-9981208D01*
X5192863Y-9981208D02*
X5202386Y-9990731D01*
X5202386Y-9990731D02*
X5211910Y-9981208D01*
X5211910Y-9981208D02*
X5202386Y-9971684D01*
X5202386Y-9971684D02*
X5202386Y-9990731D01*
X5326196Y-10171684D02*
X5307148Y-10162160D01*
X5307148Y-10162160D02*
X5297624Y-10143112D01*
X5297624Y-10143112D02*
X5297624Y-9971684D01*
X5430958Y-10171684D02*
X5411910Y-10162160D01*
X5411910Y-10162160D02*
X5402386Y-10143112D01*
X5402386Y-10143112D02*
X5402386Y-9971684D01*
X5659529Y-10171684D02*
X5659529Y-9971684D01*
X5659529Y-9971684D02*
X5726196Y-10114541D01*
X5726196Y-10114541D02*
X5792862Y-9971684D01*
X5792862Y-9971684D02*
X5792862Y-10171684D01*
X5973815Y-10171684D02*
X5973815Y-10066922D01*
X5973815Y-10066922D02*
X5964291Y-10047874D01*
X5964291Y-10047874D02*
X5945243Y-10038350D01*
X5945243Y-10038350D02*
X5907148Y-10038350D01*
X5907148Y-10038350D02*
X5888101Y-10047874D01*
X5973815Y-10162160D02*
X5954767Y-10171684D01*
X5954767Y-10171684D02*
X5907148Y-10171684D01*
X5907148Y-10171684D02*
X5888101Y-10162160D01*
X5888101Y-10162160D02*
X5878577Y-10143112D01*
X5878577Y-10143112D02*
X5878577Y-10124065D01*
X5878577Y-10124065D02*
X5888101Y-10105017D01*
X5888101Y-10105017D02*
X5907148Y-10095493D01*
X5907148Y-10095493D02*
X5954767Y-10095493D01*
X5954767Y-10095493D02*
X5973815Y-10085970D01*
X6069053Y-10038350D02*
X6069053Y-10238350D01*
X6069053Y-10047874D02*
X6088101Y-10038350D01*
X6088101Y-10038350D02*
X6126196Y-10038350D01*
X6126196Y-10038350D02*
X6145243Y-10047874D01*
X6145243Y-10047874D02*
X6154767Y-10057398D01*
X6154767Y-10057398D02*
X6164291Y-10076446D01*
X6164291Y-10076446D02*
X6164291Y-10133589D01*
X6164291Y-10133589D02*
X6154767Y-10152636D01*
X6154767Y-10152636D02*
X6145243Y-10162160D01*
X6145243Y-10162160D02*
X6126196Y-10171684D01*
X6126196Y-10171684D02*
X6088101Y-10171684D01*
X6088101Y-10171684D02*
X6069053Y-10162160D01*
X6250005Y-10152636D02*
X6259529Y-10162160D01*
X6259529Y-10162160D02*
X6250005Y-10171684D01*
X6250005Y-10171684D02*
X6240482Y-10162160D01*
X6240482Y-10162160D02*
X6250005Y-10152636D01*
X6250005Y-10152636D02*
X6250005Y-10171684D01*
X6250005Y-10047874D02*
X6259529Y-10057398D01*
X6259529Y-10057398D02*
X6250005Y-10066922D01*
X6250005Y-10066922D02*
X6240482Y-10057398D01*
X6240482Y-10057398D02*
X6250005Y-10047874D01*
X6250005Y-10047874D02*
X6250005Y-10066922D01*
X4417800Y-10400200D02*
X4617800Y-10600200D01*
X4617800Y-10400200D02*
X4417800Y-10600200D01*
X4859529Y-10391684D02*
X4983339Y-10391684D01*
X4983339Y-10391684D02*
X4916672Y-10467874D01*
X4916672Y-10467874D02*
X4945244Y-10467874D01*
X4945244Y-10467874D02*
X4964291Y-10477398D01*
X4964291Y-10477398D02*
X4973815Y-10486922D01*
X4973815Y-10486922D02*
X4983339Y-10505970D01*
X4983339Y-10505970D02*
X4983339Y-10553589D01*
X4983339Y-10553589D02*
X4973815Y-10572636D01*
X4973815Y-10572636D02*
X4964291Y-10582160D01*
X4964291Y-10582160D02*
X4945244Y-10591684D01*
X4945244Y-10591684D02*
X4888101Y-10591684D01*
X4888101Y-10591684D02*
X4869053Y-10582160D01*
X4869053Y-10582160D02*
X4859529Y-10572636D01*
X5069053Y-10572636D02*
X5078577Y-10582160D01*
X5078577Y-10582160D02*
X5069053Y-10591684D01*
X5069053Y-10591684D02*
X5059529Y-10582160D01*
X5059529Y-10582160D02*
X5069053Y-10572636D01*
X5069053Y-10572636D02*
X5069053Y-10591684D01*
X5154767Y-10410731D02*
X5164291Y-10401208D01*
X5164291Y-10401208D02*
X5183339Y-10391684D01*
X5183339Y-10391684D02*
X5230958Y-10391684D01*
X5230958Y-10391684D02*
X5250005Y-10401208D01*
X5250005Y-10401208D02*
X5259529Y-10410731D01*
X5259529Y-10410731D02*
X5269053Y-10429779D01*
X5269053Y-10429779D02*
X5269053Y-10448827D01*
X5269053Y-10448827D02*
X5259529Y-10477398D01*
X5259529Y-10477398D02*
X5145244Y-10591684D01*
X5145244Y-10591684D02*
X5269053Y-10591684D01*
X5392863Y-10391684D02*
X5411910Y-10391684D01*
X5411910Y-10391684D02*
X5430958Y-10401208D01*
X5430958Y-10401208D02*
X5440482Y-10410731D01*
X5440482Y-10410731D02*
X5450005Y-10429779D01*
X5450005Y-10429779D02*
X5459529Y-10467874D01*
X5459529Y-10467874D02*
X5459529Y-10515493D01*
X5459529Y-10515493D02*
X5450005Y-10553589D01*
X5450005Y-10553589D02*
X5440482Y-10572636D01*
X5440482Y-10572636D02*
X5430958Y-10582160D01*
X5430958Y-10582160D02*
X5411910Y-10591684D01*
X5411910Y-10591684D02*
X5392863Y-10591684D01*
X5392863Y-10591684D02*
X5373815Y-10582160D01*
X5373815Y-10582160D02*
X5364291Y-10572636D01*
X5364291Y-10572636D02*
X5354767Y-10553589D01*
X5354767Y-10553589D02*
X5345244Y-10515493D01*
X5345244Y-10515493D02*
X5345244Y-10467874D01*
X5345244Y-10467874D02*
X5354767Y-10429779D01*
X5354767Y-10429779D02*
X5364291Y-10410731D01*
X5364291Y-10410731D02*
X5373815Y-10401208D01*
X5373815Y-10401208D02*
X5392863Y-10391684D01*
X5583339Y-10391684D02*
X5602386Y-10391684D01*
X5602386Y-10391684D02*
X5621434Y-10401208D01*
X5621434Y-10401208D02*
X5630958Y-10410731D01*
X5630958Y-10410731D02*
X5640482Y-10429779D01*
X5640482Y-10429779D02*
X5650005Y-10467874D01*
X5650005Y-10467874D02*
X5650005Y-10515493D01*
X5650005Y-10515493D02*
X5640482Y-10553589D01*
X5640482Y-10553589D02*
X5630958Y-10572636D01*
X5630958Y-10572636D02*
X5621434Y-10582160D01*
X5621434Y-10582160D02*
X5602386Y-10591684D01*
X5602386Y-10591684D02*
X5583339Y-10591684D01*
X5583339Y-10591684D02*
X5564291Y-10582160D01*
X5564291Y-10582160D02*
X5554767Y-10572636D01*
X5554767Y-10572636D02*
X5545244Y-10553589D01*
X5545244Y-10553589D02*
X5535720Y-10515493D01*
X5535720Y-10515493D02*
X5535720Y-10467874D01*
X5535720Y-10467874D02*
X5545244Y-10429779D01*
X5545244Y-10429779D02*
X5554767Y-10410731D01*
X5554767Y-10410731D02*
X5564291Y-10401208D01*
X5564291Y-10401208D02*
X5583339Y-10391684D01*
X5735720Y-10591684D02*
X5735720Y-10458350D01*
X5735720Y-10477398D02*
X5745243Y-10467874D01*
X5745243Y-10467874D02*
X5764291Y-10458350D01*
X5764291Y-10458350D02*
X5792863Y-10458350D01*
X5792863Y-10458350D02*
X5811910Y-10467874D01*
X5811910Y-10467874D02*
X5821434Y-10486922D01*
X5821434Y-10486922D02*
X5821434Y-10591684D01*
X5821434Y-10486922D02*
X5830958Y-10467874D01*
X5830958Y-10467874D02*
X5850005Y-10458350D01*
X5850005Y-10458350D02*
X5878577Y-10458350D01*
X5878577Y-10458350D02*
X5897624Y-10467874D01*
X5897624Y-10467874D02*
X5907148Y-10486922D01*
X5907148Y-10486922D02*
X5907148Y-10591684D01*
X6002386Y-10591684D02*
X6002386Y-10458350D01*
X6002386Y-10477398D02*
X6011910Y-10467874D01*
X6011910Y-10467874D02*
X6030958Y-10458350D01*
X6030958Y-10458350D02*
X6059529Y-10458350D01*
X6059529Y-10458350D02*
X6078577Y-10467874D01*
X6078577Y-10467874D02*
X6088101Y-10486922D01*
X6088101Y-10486922D02*
X6088101Y-10591684D01*
X6088101Y-10486922D02*
X6097624Y-10467874D01*
X6097624Y-10467874D02*
X6116672Y-10458350D01*
X6116672Y-10458350D02*
X6145243Y-10458350D01*
X6145243Y-10458350D02*
X6164291Y-10467874D01*
X6164291Y-10467874D02*
X6173815Y-10486922D01*
X6173815Y-10486922D02*
X6173815Y-10591684D01*
X6564291Y-10382160D02*
X6392863Y-10639303D01*
X6821434Y-10391684D02*
X6840482Y-10391684D01*
X6840482Y-10391684D02*
X6859529Y-10401208D01*
X6859529Y-10401208D02*
X6869053Y-10410731D01*
X6869053Y-10410731D02*
X6878577Y-10429779D01*
X6878577Y-10429779D02*
X6888101Y-10467874D01*
X6888101Y-10467874D02*
X6888101Y-10515493D01*
X6888101Y-10515493D02*
X6878577Y-10553589D01*
X6878577Y-10553589D02*
X6869053Y-10572636D01*
X6869053Y-10572636D02*
X6859529Y-10582160D01*
X6859529Y-10582160D02*
X6840482Y-10591684D01*
X6840482Y-10591684D02*
X6821434Y-10591684D01*
X6821434Y-10591684D02*
X6802386Y-10582160D01*
X6802386Y-10582160D02*
X6792863Y-10572636D01*
X6792863Y-10572636D02*
X6783339Y-10553589D01*
X6783339Y-10553589D02*
X6773815Y-10515493D01*
X6773815Y-10515493D02*
X6773815Y-10467874D01*
X6773815Y-10467874D02*
X6783339Y-10429779D01*
X6783339Y-10429779D02*
X6792863Y-10410731D01*
X6792863Y-10410731D02*
X6802386Y-10401208D01*
X6802386Y-10401208D02*
X6821434Y-10391684D01*
X6973815Y-10572636D02*
X6983339Y-10582160D01*
X6983339Y-10582160D02*
X6973815Y-10591684D01*
X6973815Y-10591684D02*
X6964291Y-10582160D01*
X6964291Y-10582160D02*
X6973815Y-10572636D01*
X6973815Y-10572636D02*
X6973815Y-10591684D01*
X7173815Y-10591684D02*
X7059529Y-10591684D01*
X7116672Y-10591684D02*
X7116672Y-10391684D01*
X7116672Y-10391684D02*
X7097625Y-10420255D01*
X7097625Y-10420255D02*
X7078577Y-10439303D01*
X7078577Y-10439303D02*
X7059529Y-10448827D01*
X7250006Y-10410731D02*
X7259529Y-10401208D01*
X7259529Y-10401208D02*
X7278577Y-10391684D01*
X7278577Y-10391684D02*
X7326196Y-10391684D01*
X7326196Y-10391684D02*
X7345244Y-10401208D01*
X7345244Y-10401208D02*
X7354767Y-10410731D01*
X7354767Y-10410731D02*
X7364291Y-10429779D01*
X7364291Y-10429779D02*
X7364291Y-10448827D01*
X7364291Y-10448827D02*
X7354767Y-10477398D01*
X7354767Y-10477398D02*
X7240482Y-10591684D01*
X7240482Y-10591684D02*
X7364291Y-10591684D01*
X7535720Y-10391684D02*
X7497625Y-10391684D01*
X7497625Y-10391684D02*
X7478577Y-10401208D01*
X7478577Y-10401208D02*
X7469053Y-10410731D01*
X7469053Y-10410731D02*
X7450006Y-10439303D01*
X7450006Y-10439303D02*
X7440482Y-10477398D01*
X7440482Y-10477398D02*
X7440482Y-10553589D01*
X7440482Y-10553589D02*
X7450006Y-10572636D01*
X7450006Y-10572636D02*
X7459529Y-10582160D01*
X7459529Y-10582160D02*
X7478577Y-10591684D01*
X7478577Y-10591684D02*
X7516672Y-10591684D01*
X7516672Y-10591684D02*
X7535720Y-10582160D01*
X7535720Y-10582160D02*
X7545244Y-10572636D01*
X7545244Y-10572636D02*
X7554767Y-10553589D01*
X7554767Y-10553589D02*
X7554767Y-10505970D01*
X7554767Y-10505970D02*
X7545244Y-10486922D01*
X7545244Y-10486922D02*
X7535720Y-10477398D01*
X7535720Y-10477398D02*
X7516672Y-10467874D01*
X7516672Y-10467874D02*
X7478577Y-10467874D01*
X7478577Y-10467874D02*
X7459529Y-10477398D01*
X7459529Y-10477398D02*
X7450006Y-10486922D01*
X7450006Y-10486922D02*
X7440482Y-10505970D01*
X7678577Y-10391684D02*
X7697625Y-10391684D01*
X7697625Y-10391684D02*
X7716672Y-10401208D01*
X7716672Y-10401208D02*
X7726196Y-10410731D01*
X7726196Y-10410731D02*
X7735720Y-10429779D01*
X7735720Y-10429779D02*
X7745244Y-10467874D01*
X7745244Y-10467874D02*
X7745244Y-10515493D01*
X7745244Y-10515493D02*
X7735720Y-10553589D01*
X7735720Y-10553589D02*
X7726196Y-10572636D01*
X7726196Y-10572636D02*
X7716672Y-10582160D01*
X7716672Y-10582160D02*
X7697625Y-10591684D01*
X7697625Y-10591684D02*
X7678577Y-10591684D01*
X7678577Y-10591684D02*
X7659529Y-10582160D01*
X7659529Y-10582160D02*
X7650006Y-10572636D01*
X7650006Y-10572636D02*
X7640482Y-10553589D01*
X7640482Y-10553589D02*
X7630958Y-10515493D01*
X7630958Y-10515493D02*
X7630958Y-10467874D01*
X7630958Y-10467874D02*
X7640482Y-10429779D01*
X7640482Y-10429779D02*
X7650006Y-10410731D01*
X7650006Y-10410731D02*
X7659529Y-10401208D01*
X7659529Y-10401208D02*
X7678577Y-10391684D01*
X7821434Y-10391684D02*
X7821434Y-10429779D01*
X7897625Y-10391684D02*
X7897625Y-10429779D01*
X8192863Y-10667874D02*
X8183339Y-10658350D01*
X8183339Y-10658350D02*
X8164291Y-10629779D01*
X8164291Y-10629779D02*
X8154768Y-10610731D01*
X8154768Y-10610731D02*
X8145244Y-10582160D01*
X8145244Y-10582160D02*
X8135720Y-10534541D01*
X8135720Y-10534541D02*
X8135720Y-10496446D01*
X8135720Y-10496446D02*
X8145244Y-10448827D01*
X8145244Y-10448827D02*
X8154768Y-10420255D01*
X8154768Y-10420255D02*
X8164291Y-10401208D01*
X8164291Y-10401208D02*
X8183339Y-10372636D01*
X8183339Y-10372636D02*
X8192863Y-10363112D01*
X8354768Y-10458350D02*
X8354768Y-10591684D01*
X8307148Y-10382160D02*
X8259529Y-10525017D01*
X8259529Y-10525017D02*
X8383339Y-10525017D01*
X8611911Y-10591684D02*
X8611911Y-10391684D01*
X8697625Y-10591684D02*
X8697625Y-10486922D01*
X8697625Y-10486922D02*
X8688101Y-10467874D01*
X8688101Y-10467874D02*
X8669053Y-10458350D01*
X8669053Y-10458350D02*
X8640482Y-10458350D01*
X8640482Y-10458350D02*
X8621434Y-10467874D01*
X8621434Y-10467874D02*
X8611911Y-10477398D01*
X8821434Y-10591684D02*
X8802387Y-10582160D01*
X8802387Y-10582160D02*
X8792863Y-10572636D01*
X8792863Y-10572636D02*
X8783339Y-10553589D01*
X8783339Y-10553589D02*
X8783339Y-10496446D01*
X8783339Y-10496446D02*
X8792863Y-10477398D01*
X8792863Y-10477398D02*
X8802387Y-10467874D01*
X8802387Y-10467874D02*
X8821434Y-10458350D01*
X8821434Y-10458350D02*
X8850006Y-10458350D01*
X8850006Y-10458350D02*
X8869053Y-10467874D01*
X8869053Y-10467874D02*
X8878577Y-10477398D01*
X8878577Y-10477398D02*
X8888101Y-10496446D01*
X8888101Y-10496446D02*
X8888101Y-10553589D01*
X8888101Y-10553589D02*
X8878577Y-10572636D01*
X8878577Y-10572636D02*
X8869053Y-10582160D01*
X8869053Y-10582160D02*
X8850006Y-10591684D01*
X8850006Y-10591684D02*
X8821434Y-10591684D01*
X9002387Y-10591684D02*
X8983339Y-10582160D01*
X8983339Y-10582160D02*
X8973815Y-10563112D01*
X8973815Y-10563112D02*
X8973815Y-10391684D01*
X9154768Y-10582160D02*
X9135720Y-10591684D01*
X9135720Y-10591684D02*
X9097625Y-10591684D01*
X9097625Y-10591684D02*
X9078577Y-10582160D01*
X9078577Y-10582160D02*
X9069053Y-10563112D01*
X9069053Y-10563112D02*
X9069053Y-10486922D01*
X9069053Y-10486922D02*
X9078577Y-10467874D01*
X9078577Y-10467874D02*
X9097625Y-10458350D01*
X9097625Y-10458350D02*
X9135720Y-10458350D01*
X9135720Y-10458350D02*
X9154768Y-10467874D01*
X9154768Y-10467874D02*
X9164292Y-10486922D01*
X9164292Y-10486922D02*
X9164292Y-10505970D01*
X9164292Y-10505970D02*
X9069053Y-10525017D01*
X9240482Y-10582160D02*
X9259530Y-10591684D01*
X9259530Y-10591684D02*
X9297625Y-10591684D01*
X9297625Y-10591684D02*
X9316673Y-10582160D01*
X9316673Y-10582160D02*
X9326196Y-10563112D01*
X9326196Y-10563112D02*
X9326196Y-10553589D01*
X9326196Y-10553589D02*
X9316673Y-10534541D01*
X9316673Y-10534541D02*
X9297625Y-10525017D01*
X9297625Y-10525017D02*
X9269053Y-10525017D01*
X9269053Y-10525017D02*
X9250006Y-10515493D01*
X9250006Y-10515493D02*
X9240482Y-10496446D01*
X9240482Y-10496446D02*
X9240482Y-10486922D01*
X9240482Y-10486922D02*
X9250006Y-10467874D01*
X9250006Y-10467874D02*
X9269053Y-10458350D01*
X9269053Y-10458350D02*
X9297625Y-10458350D01*
X9297625Y-10458350D02*
X9316673Y-10467874D01*
X9392863Y-10667874D02*
X9402387Y-10658350D01*
X9402387Y-10658350D02*
X9421434Y-10629779D01*
X9421434Y-10629779D02*
X9430958Y-10610731D01*
X9430958Y-10610731D02*
X9440482Y-10582160D01*
X9440482Y-10582160D02*
X9450006Y-10534541D01*
X9450006Y-10534541D02*
X9450006Y-10496446D01*
X9450006Y-10496446D02*
X9440482Y-10448827D01*
X9440482Y-10448827D02*
X9430958Y-10420255D01*
X9430958Y-10420255D02*
X9421434Y-10401208D01*
X9421434Y-10401208D02*
X9402387Y-10372636D01*
X9402387Y-10372636D02*
X9392863Y-10363112D01*
X9754768Y-10667874D02*
X9745244Y-10658350D01*
X9745244Y-10658350D02*
X9726196Y-10629779D01*
X9726196Y-10629779D02*
X9716673Y-10610731D01*
X9716673Y-10610731D02*
X9707149Y-10582160D01*
X9707149Y-10582160D02*
X9697625Y-10534541D01*
X9697625Y-10534541D02*
X9697625Y-10496446D01*
X9697625Y-10496446D02*
X9707149Y-10448827D01*
X9707149Y-10448827D02*
X9716673Y-10420255D01*
X9716673Y-10420255D02*
X9726196Y-10401208D01*
X9726196Y-10401208D02*
X9745244Y-10372636D01*
X9745244Y-10372636D02*
X9754768Y-10363112D01*
X9830958Y-10458350D02*
X9830958Y-10591684D01*
X9830958Y-10477398D02*
X9840482Y-10467874D01*
X9840482Y-10467874D02*
X9859530Y-10458350D01*
X9859530Y-10458350D02*
X9888101Y-10458350D01*
X9888101Y-10458350D02*
X9907149Y-10467874D01*
X9907149Y-10467874D02*
X9916673Y-10486922D01*
X9916673Y-10486922D02*
X9916673Y-10591684D01*
X10040482Y-10591684D02*
X10021434Y-10582160D01*
X10021434Y-10582160D02*
X10011911Y-10572636D01*
X10011911Y-10572636D02*
X10002387Y-10553589D01*
X10002387Y-10553589D02*
X10002387Y-10496446D01*
X10002387Y-10496446D02*
X10011911Y-10477398D01*
X10011911Y-10477398D02*
X10021434Y-10467874D01*
X10021434Y-10467874D02*
X10040482Y-10458350D01*
X10040482Y-10458350D02*
X10069054Y-10458350D01*
X10069054Y-10458350D02*
X10088101Y-10467874D01*
X10088101Y-10467874D02*
X10097625Y-10477398D01*
X10097625Y-10477398D02*
X10107149Y-10496446D01*
X10107149Y-10496446D02*
X10107149Y-10553589D01*
X10107149Y-10553589D02*
X10097625Y-10572636D01*
X10097625Y-10572636D02*
X10088101Y-10582160D01*
X10088101Y-10582160D02*
X10069054Y-10591684D01*
X10069054Y-10591684D02*
X10040482Y-10591684D01*
X10164292Y-10458350D02*
X10240482Y-10458350D01*
X10192863Y-10391684D02*
X10192863Y-10563112D01*
X10192863Y-10563112D02*
X10202387Y-10582160D01*
X10202387Y-10582160D02*
X10221434Y-10591684D01*
X10221434Y-10591684D02*
X10240482Y-10591684D01*
X10459530Y-10458350D02*
X10459530Y-10658350D01*
X10459530Y-10467874D02*
X10478577Y-10458350D01*
X10478577Y-10458350D02*
X10516673Y-10458350D01*
X10516673Y-10458350D02*
X10535720Y-10467874D01*
X10535720Y-10467874D02*
X10545244Y-10477398D01*
X10545244Y-10477398D02*
X10554768Y-10496446D01*
X10554768Y-10496446D02*
X10554768Y-10553589D01*
X10554768Y-10553589D02*
X10545244Y-10572636D01*
X10545244Y-10572636D02*
X10535720Y-10582160D01*
X10535720Y-10582160D02*
X10516673Y-10591684D01*
X10516673Y-10591684D02*
X10478577Y-10591684D01*
X10478577Y-10591684D02*
X10459530Y-10582160D01*
X10669054Y-10591684D02*
X10650006Y-10582160D01*
X10650006Y-10582160D02*
X10640482Y-10563112D01*
X10640482Y-10563112D02*
X10640482Y-10391684D01*
X10830958Y-10591684D02*
X10830958Y-10486922D01*
X10830958Y-10486922D02*
X10821435Y-10467874D01*
X10821435Y-10467874D02*
X10802387Y-10458350D01*
X10802387Y-10458350D02*
X10764292Y-10458350D01*
X10764292Y-10458350D02*
X10745244Y-10467874D01*
X10830958Y-10582160D02*
X10811911Y-10591684D01*
X10811911Y-10591684D02*
X10764292Y-10591684D01*
X10764292Y-10591684D02*
X10745244Y-10582160D01*
X10745244Y-10582160D02*
X10735720Y-10563112D01*
X10735720Y-10563112D02*
X10735720Y-10544065D01*
X10735720Y-10544065D02*
X10745244Y-10525017D01*
X10745244Y-10525017D02*
X10764292Y-10515493D01*
X10764292Y-10515493D02*
X10811911Y-10515493D01*
X10811911Y-10515493D02*
X10830958Y-10505970D01*
X10897625Y-10458350D02*
X10973815Y-10458350D01*
X10926196Y-10391684D02*
X10926196Y-10563112D01*
X10926196Y-10563112D02*
X10935720Y-10582160D01*
X10935720Y-10582160D02*
X10954768Y-10591684D01*
X10954768Y-10591684D02*
X10973815Y-10591684D01*
X11116673Y-10582160D02*
X11097625Y-10591684D01*
X11097625Y-10591684D02*
X11059530Y-10591684D01*
X11059530Y-10591684D02*
X11040482Y-10582160D01*
X11040482Y-10582160D02*
X11030958Y-10563112D01*
X11030958Y-10563112D02*
X11030958Y-10486922D01*
X11030958Y-10486922D02*
X11040482Y-10467874D01*
X11040482Y-10467874D02*
X11059530Y-10458350D01*
X11059530Y-10458350D02*
X11097625Y-10458350D01*
X11097625Y-10458350D02*
X11116673Y-10467874D01*
X11116673Y-10467874D02*
X11126196Y-10486922D01*
X11126196Y-10486922D02*
X11126196Y-10505970D01*
X11126196Y-10505970D02*
X11030958Y-10525017D01*
X11297625Y-10591684D02*
X11297625Y-10391684D01*
X11297625Y-10582160D02*
X11278577Y-10591684D01*
X11278577Y-10591684D02*
X11240482Y-10591684D01*
X11240482Y-10591684D02*
X11221434Y-10582160D01*
X11221434Y-10582160D02*
X11211911Y-10572636D01*
X11211911Y-10572636D02*
X11202387Y-10553589D01*
X11202387Y-10553589D02*
X11202387Y-10496446D01*
X11202387Y-10496446D02*
X11211911Y-10477398D01*
X11211911Y-10477398D02*
X11221434Y-10467874D01*
X11221434Y-10467874D02*
X11240482Y-10458350D01*
X11240482Y-10458350D02*
X11278577Y-10458350D01*
X11278577Y-10458350D02*
X11297625Y-10467874D01*
X11373815Y-10667874D02*
X11383339Y-10658350D01*
X11383339Y-10658350D02*
X11402387Y-10629779D01*
X11402387Y-10629779D02*
X11411911Y-10610731D01*
X11411911Y-10610731D02*
X11421434Y-10582160D01*
X11421434Y-10582160D02*
X11430958Y-10534541D01*
X11430958Y-10534541D02*
X11430958Y-10496446D01*
X11430958Y-10496446D02*
X11421434Y-10448827D01*
X11421434Y-10448827D02*
X11411911Y-10420255D01*
X11411911Y-10420255D02*
X11402387Y-10401208D01*
X11402387Y-10401208D02*
X11383339Y-10372636D01*
X11383339Y-10372636D02*
X11373815Y-10363112D01*
M02*
